<svg width="24" height="24" viewBox="0 0 24 24" fill="none" xmlns="http://www.w3.org/2000/svg">
<path d="M16.2039 0H7.77614C6.53831 0 5.53125 1.00706 5.53125 2.24489V21.7551C5.53125 22.9929 6.53831 24 7.77614 24H16.2039C17.4417 24 18.4488 22.9929 18.4488 21.7551V2.24489C18.4488 1.00706 17.4417 0 16.2039 0Z" fill="#4D4D4D"/>
<mask id="mask0_379_2932" style="mask-type:alpha" maskUnits="userSpaceOnUse" x="5" y="0" width="14" height="24">
<path d="M16.2039 0H7.77614C6.53831 0 5.53125 1.00706 5.53125 2.24489V21.7551C5.53125 22.9929 6.53831 24 7.77614 24H16.2039C17.4417 24 18.4488 22.9929 18.4488 21.7551V2.24489C18.4488 1.00706 17.4417 0 16.2039 0Z" fill="black"/>
</mask>
<g mask="url(#mask0_379_2932)">
<path opacity="0.2" d="M5.88281 24.6328L18.4688 -2.17969V24.6328H5.88281Z" fill="#3B3B3B"/>
</g>
<path d="M17.2049 21.755C17.2049 22.3079 16.7566 22.7562 16.2037 22.7562H7.77601C7.22312 22.7562 6.7749 22.3079 6.7749 21.755V2.24487C6.7749 1.69198 7.22312 1.24376 7.77601 1.24376H8.82634C8.92569 1.24376 9.02098 1.28323 9.09124 1.35349C9.16149 1.42374 9.20096 1.51903 9.20096 1.61838V1.85595C9.20096 2.1747 9.46173 2.43546 9.78047 2.43546H14.1992C14.518 2.43546 14.7787 2.1747 14.7787 1.85595V1.51235C14.7787 1.44111 14.807 1.37278 14.8574 1.3224C14.9078 1.27202 14.9761 1.24371 15.0474 1.24371H16.2037C16.7566 1.24371 17.2049 1.69193 17.2049 2.24482V21.755V21.755Z" fill="#CCCCCC"/>
<g clip-path="url(#clip0_379_2932)">
<path d="M12.8353 16C13.1027 16 13.336 15.7667 13.336 15.4992V14.3298H13.6704C13.871 14.3298 14.0047 14.196 14.0047 13.9954V10.6553H9.99561V13.9954C9.99561 14.1961 10.1294 14.3298 10.33 14.3298H10.6644V15.4993C10.6644 15.7668 10.8976 16 11.1651 16C11.4326 16 11.6658 15.7668 11.6658 15.4993V14.3298H12.3345V15.4993C12.3345 15.7667 12.5678 16 12.8353 16Z" fill="white"/>
<path d="M14.8396 13.9954C15.1071 13.9954 15.3403 13.7622 15.3403 13.4947V11.1558C15.3403 10.8897 15.1071 10.6553 14.8396 10.6553C14.5721 10.6553 14.3389 10.8897 14.3389 11.1558V13.4947C14.3389 13.7622 14.5721 13.9954 14.8396 13.9954Z" fill="white"/>
<path d="M9.16037 13.9954C9.42788 13.9954 9.66112 13.7622 9.66112 13.4947V11.1558C9.66112 10.8897 9.42791 10.6553 9.16037 10.6553C8.89289 10.6553 8.65967 10.8897 8.65967 11.1558V13.4947C8.65968 13.7622 8.89289 13.9954 9.16037 13.9954Z" fill="white"/>
<path d="M13.6034 8.05045C13.5366 7.98318 13.4371 7.98318 13.3702 8.05045L12.9218 8.4974L12.9011 8.51806C12.6352 8.3849 12.337 8.3184 12.0051 8.31776C12.0034 8.31776 12.0018 8.31771 12.0002 8.31771H12.0001C11.9985 8.31771 11.9969 8.31776 11.9952 8.31776C11.6633 8.3184 11.3651 8.3849 11.0992 8.51806L11.0785 8.4974L10.6301 8.05045C10.5632 7.98318 10.4637 7.98318 10.3969 8.05045C10.33 8.11734 10.33 8.21662 10.3969 8.28346L10.8306 8.71734C10.6909 8.81066 10.5641 8.92487 10.4539 9.05549C10.19 9.36827 10.0217 9.77535 9.99856 10.2164C9.99834 10.221 9.99789 10.2255 9.99768 10.2301C9.99628 10.2603 9.99558 10.2905 9.99561 10.3207H14.0047C14.0047 10.2904 14.004 10.2602 14.0026 10.2301C14.0024 10.2255 14.0019 10.221 14.0017 10.2164C13.9786 9.77535 13.8102 9.36826 13.5463 9.05552C13.4362 8.9249 13.3094 8.8107 13.1696 8.71737L13.6034 8.28349C13.6703 8.21662 13.6703 8.11735 13.6034 8.05045V8.05045ZM11.1644 9.73686C11.0261 9.73686 10.914 9.62472 10.914 9.48638C10.914 9.34804 11.0261 9.2359 11.1644 9.2359C11.3028 9.2359 11.4149 9.34804 11.4149 9.48638C11.4149 9.62472 11.3028 9.73686 11.1644 9.73686ZM12.8358 9.73686C12.6975 9.73686 12.5854 9.62472 12.5854 9.48638C12.5854 9.34804 12.6975 9.2359 12.8358 9.2359C12.9742 9.2359 13.0863 9.34804 13.0863 9.48638C13.0863 9.62472 12.9742 9.73686 12.8358 9.73686Z" fill="white"/>
</g>
<mask id="mask1_379_2932" style="mask-type:alpha" maskUnits="userSpaceOnUse" x="6" y="1" width="12" height="22">
<path d="M17.2049 21.755C17.2049 22.3079 16.7566 22.7562 16.2037 22.7562H7.77601C7.22312 22.7562 6.7749 22.3079 6.7749 21.755V2.24487C6.7749 1.69198 7.22312 1.24376 7.77601 1.24376H8.82634C8.92569 1.24376 9.02098 1.28323 9.09124 1.35349C9.16149 1.42374 9.20096 1.51903 9.20096 1.61838V1.85595C9.20096 2.1747 9.46173 2.43546 9.78047 2.43546H14.1992C14.518 2.43546 14.7787 2.1747 14.7787 1.85595V1.51235C14.7787 1.44111 14.807 1.37278 14.8574 1.3224C14.9078 1.27202 14.9761 1.24371 15.0474 1.24371H16.2037C16.7566 1.24371 17.2049 1.69193 17.2049 2.24482V21.755Z" fill="black"/>
</mask>
<g mask="url(#mask1_379_2932)">
<path opacity="0.2" d="M5.88281 24.6328L18.4688 -2.17969V24.6328H5.88281Z" fill="#3B3B3B"/>
</g>
<path d="M13.4476 1.606H11.5565C11.4605 1.606 11.3683 1.56784 11.3004 1.49991C11.2325 1.43198 11.1943 1.33986 11.1943 1.24379C11.1943 1.14773 11.2325 1.0556 11.3004 0.987678C11.3683 0.919752 11.4605 0.881592 11.5565 0.881592H13.4476C13.5437 0.881592 13.6358 0.919752 13.7037 0.987678C13.7717 1.0556 13.8098 1.14773 13.8098 1.24379C13.8098 1.33986 13.7717 1.43198 13.7037 1.49991C13.6358 1.56784 13.5437 1.606 13.4476 1.606V1.606Z" fill="#666666"/>
<path d="M10.2163 1.54494C9.95694 1.37451 10.0198 0.957836 10.3461 0.888649C10.5681 0.842852 10.7794 1.01479 10.7794 1.24359C10.7794 1.41182 10.6633 1.56262 10.4877 1.59904C10.4645 1.60335 10.29 1.59482 10.2163 1.54494Z" fill="#666666"/>
<defs>
<clipPath id="clip0_379_2932">
<rect width="8" height="8" fill="white" transform="translate(8 8)"/>
</clipPath>
</defs>
</svg>
