<svg xmlns="http://www.w3.org/2000/svg" width="18" height="18" viewBox="0 0 18 18" fill="none">
    <path fill-rule="evenodd" clip-rule="evenodd" d="M8.9998 2.54999C5.43757 2.54999 2.5498 5.43775 2.5498 8.99999C2.5498 12.5622 5.43757 15.45 8.9998 15.45C12.562 15.45 15.4498 12.5622 15.4498 8.99999C15.4498 5.43775 12.562 2.54999 8.9998 2.54999ZM1.0498 8.99999C1.0498 4.60932 4.60914 1.04999 8.9998 1.04999C13.3905 1.04999 16.9498 4.60932 16.9498 8.99999C16.9498 13.3907 13.3905 16.95 8.9998 16.95C4.60914 16.95 1.0498 13.3907 1.0498 8.99999ZM6.37787 6.30704C6.41537 5.89452 6.78018 5.59052 7.19269 5.62802L11.3177 6.00302C11.6783 6.0358 11.964 6.32148 11.9967 6.68204L12.3717 10.8071C12.4092 11.2196 12.1052 11.5844 11.6927 11.6219C11.2802 11.6594 10.9154 11.3554 10.8779 10.9429L10.6479 8.41255L7.28012 11.7803C6.98723 12.0732 6.51235 12.0732 6.21946 11.7803C5.92657 11.4874 5.92657 11.0125 6.21946 10.7196L9.58721 7.35189L7.05689 7.12186C6.64438 7.08436 6.34037 6.71955 6.37787 6.30704Z" fill="#4F4B5C"/>
</svg>