<svg xmlns="http://www.w3.org/2000/svg" width="18" height="18" viewBox="0 0 18 18" fill="none">
    <path d="M7.50034 14.25C7.3251 14.2503 7.15528 14.1893 7.02034 14.0775C6.9444 14.0145 6.88162 13.9372 6.83561 13.8499C6.7896 13.7627 6.76125 13.6672 6.75219 13.569C6.74313 13.4707 6.75355 13.3717 6.78283 13.2775C6.81211 13.1833 6.85969 13.0958 6.92284 13.02L10.2828 8.99999L7.04284 4.97249C6.98054 4.89577 6.93402 4.8075 6.90595 4.71274C6.87787 4.61799 6.8688 4.51862 6.87926 4.42035C6.88971 4.32208 6.91948 4.22684 6.96686 4.14011C7.01424 4.05339 7.0783 3.97688 7.15534 3.91499C7.23294 3.84671 7.32382 3.79521 7.42226 3.76372C7.52071 3.73222 7.6246 3.72142 7.72742 3.73199C7.83024 3.74255 7.92977 3.77425 8.01976 3.8251C8.10974 3.87595 8.18825 3.94486 8.25034 4.02749L11.8728 8.52749C11.9832 8.66169 12.0435 8.83002 12.0435 9.00374C12.0435 9.17745 11.9832 9.34579 11.8728 9.47999L8.12284 13.98C8.04761 14.0707 7.95203 14.1425 7.84387 14.1894C7.73572 14.2363 7.61802 14.2571 7.50034 14.25Z" fill="#4F4B5C"/>
</svg>