<svg width="24" height="24" viewBox="0 0 24 24" fill="none" xmlns="http://www.w3.org/2000/svg">
<path d="M11.5001 2L12.5001 2C12.6328 2 12.7599 2.05268 12.8537 2.14645C12.9475 2.24021 13.0001 2.36739 13.0001 2.5L13.0001 18.67L17.4401 14.22C17.4866 14.1731 17.5419 14.1359 17.6029 14.1106C17.6638 14.0852 17.7291 14.0721 17.7951 14.0721C17.8612 14.0721 17.9265 14.0852 17.9874 14.1106C18.0484 14.1359 18.1037 14.1731 18.1501 14.22L18.8501 14.93C18.897 14.9765 18.9342 15.0318 18.9596 15.0927C18.985 15.1536 18.998 15.219 18.998 15.285C18.998 15.351 18.985 15.4164 18.9596 15.4773C18.9342 15.5382 18.897 15.5935 18.8501 15.64L12.7201 21.78C12.5796 21.9207 12.389 21.9998 12.1901 22L11.8101 22C11.6117 21.9977 11.4219 21.9189 11.2801 21.78L5.15015 15.64C5.10328 15.5935 5.06609 15.5382 5.0407 15.4773C5.01532 15.4164 5.00225 15.351 5.00225 15.285C5.00225 15.219 5.01532 15.1536 5.0407 15.0927C5.06609 15.0318 5.10328 14.9765 5.15015 14.93L5.86015 14.22C5.90577 14.1734 5.96023 14.1364 6.02033 14.1112C6.08042 14.0859 6.14496 14.0729 6.21015 14.0729C6.27534 14.0729 6.33987 14.0859 6.39997 14.1112C6.46007 14.1364 6.51452 14.1734 6.56015 14.22L11.0001 18.67L11.0001 2.5C11.0001 2.36739 11.0528 2.24021 11.1466 2.14645C11.2404 2.05268 11.3675 2 11.5001 2Z" fill="#46485C"/>
</svg>
