<svg width="24" height="24" viewBox="0 0 24 24" fill="none" xmlns="http://www.w3.org/2000/svg">
<path d="M16.1667 10.3333C12.95 10.3333 10.3333 12.95 10.3333 16.1667C10.3333 19.3833 12.95 22 16.1667 22C19.3833 22 22 19.3833 22 16.1667C22 12.95 19.3833 10.3333 16.1667 10.3333ZM16.1667 20.3333C13.8667 20.3333 12 18.4667 12 16.1667C12 13.8667 13.8667 12 16.1667 12C18.4667 12 20.3333 13.8667 20.3333 16.1667C20.3333 18.4667 18.4667 20.3333 16.1667 20.3333ZM17.4167 14.0833C17.4167 14.775 16.8583 15.3333 16.1667 15.3333C15.475 15.3333 14.9167 14.775 14.9167 14.0833C14.9167 13.3917 15.475 12.8333 16.1667 12.8333C16.8583 12.8333 17.4167 13.3917 17.4167 14.0833ZM17 17V18.6667C17 19.125 16.625 19.5 16.1667 19.5C15.7083 19.5 15.3333 19.125 15.3333 18.6667V17C15.3333 16.5417 15.7083 16.1667 16.1667 16.1667C16.625 16.1667 17 16.5417 17 17ZM9.5 19.5C9.5 19.9583 9.125 20.3333 8.66667 20.3333H6.16667C3.86667 20.3333 2 18.4667 2 16.1667V6.16667C2 3.86667 3.86667 2 6.16667 2H10.9667C11.8417 2 12.7 2.35833 13.325 2.975L16.025 5.675C16.5833 6.23333 16.925 6.975 16.9917 7.75833C17.025 8.21667 16.6833 8.61667 16.225 8.65833C16.2 8.65833 16.1833 8.65833 16.1583 8.65833C15.725 8.65833 15.3667 8.325 15.325 7.89167C15.325 7.86667 15.325 7.85 15.325 7.825H12.8417C11.925 7.825 11.175 7.075 11.175 6.15833V3.68333C11.1083 3.68333 11.0417 3.66667 10.975 3.66667H6.16667C4.79167 3.66667 3.66667 4.79167 3.66667 6.16667V16.1667C3.66667 17.5417 4.79167 18.6667 6.16667 18.6667H8.66667C9.125 18.6667 9.5 19.0417 9.5 19.5Z" fill="#7357FF"/>
</svg>
