<svg width="24" height="24" viewBox="0 0 24 24" fill="none" xmlns="http://www.w3.org/2000/svg">
<path fill-rule="evenodd" clip-rule="evenodd" d="M7.04878 1.9257C7.31071 2.41192 7.1289 3.01841 6.64268 3.28035C5.41518 3.94163 4.46327 5.04246 3.92847 6.37659C3.72297 6.88922 3.14082 7.1382 2.62819 6.93271C2.11555 6.72722 1.86657 6.14506 2.07207 5.63243C2.76927 3.89315 4.02713 2.41764 5.69413 1.5196C6.18034 1.25766 6.78684 1.43948 7.04878 1.9257ZM16.9345 1.92607C17.2016 1.44267 17.81 1.2673 18.2934 1.53439C19.9363 2.44211 21.2479 3.87062 21.9324 5.63253C22.1324 6.14733 21.8772 6.72679 21.3624 6.92679C20.8476 7.1268 20.2681 6.87161 20.0681 6.35681C19.5655 5.06292 18.5897 3.98304 17.3262 3.28496C16.8428 3.01788 16.6675 2.40948 16.9345 1.92607ZM12.0022 4.68484C8.70864 4.68484 5.92998 7.5534 5.92998 11.2305V11.242L5.92992 11.242L5.90424 13.4795C5.90295 14.9933 5.41012 16.279 4.83413 17.2409H19.1784C18.6253 16.2768 18.1528 14.9887 18.1528 13.4735V13.4614L18.1528 13.4614L18.1785 11.3358C18.1756 7.60015 15.3515 4.68484 12.0022 4.68484ZM3.92998 11.2246C3.93298 6.56962 7.48587 2.68484 12.0022 2.68484C16.5779 2.68484 20.1785 6.62266 20.1785 11.3416V11.3537L20.1784 11.3537L20.1528 13.4793C20.1542 14.7844 20.6427 15.8815 21.1588 16.6375C21.5212 17.1682 21.4835 17.7951 21.3086 18.2337C21.1372 18.6632 20.6833 19.2409 19.9034 19.2409H4.1019C3.30923 19.2409 2.85655 18.6457 2.68975 18.2146C2.51893 17.7731 2.48426 17.1358 2.86333 16.6033L3.67795 17.1833L2.86333 16.6033C3.40267 15.8458 3.90424 14.7592 3.90424 13.4735V13.462L3.90431 13.462L3.92998 11.2246ZM8.19031 21.6C8.19031 21.0477 8.63803 20.6 9.19031 20.6H14.814C15.3663 20.6 15.814 21.0477 15.814 21.6C15.814 22.1523 15.3663 22.6 14.814 22.6H9.19031C8.63803 22.6 8.19031 22.1523 8.19031 21.6Z" fill="#46485C"/>
</svg>
