<svg width="167" height="53" viewBox="0 0 167 53" fill="none" xmlns="http://www.w3.org/2000/svg">
<g opacity="0.2">
<path d="M158.094 50.8249C158.094 47.3271 160.983 44.4915 164.547 44.4915C168.111 44.4915 171 47.3271 171 50.8249C171 54.3227 168.111 57.1582 164.547 57.1582C160.983 57.1582 158.094 54.3227 158.094 50.8249Z" fill="#D9D9D9"/>
<path d="M135.509 50.8249C135.509 47.3271 138.398 44.4915 141.962 44.4915C145.526 44.4915 148.415 47.3271 148.415 50.8249C148.415 54.3227 145.526 57.1582 141.962 57.1582C138.398 57.1582 135.509 54.3227 135.509 50.8249Z" fill="#D9D9D9"/>
<path d="M112.925 50.8249C112.925 47.3271 115.814 44.4915 119.377 44.4915C122.941 44.4915 125.83 47.3271 125.83 50.8249C125.83 54.3227 122.941 57.1582 119.377 57.1582C115.814 57.1582 112.925 54.3227 112.925 50.8249Z" fill="#D9D9D9"/>
<path d="M90.3396 50.8249C90.3396 47.3271 93.2287 44.4915 96.7924 44.4915C100.356 44.4915 103.245 47.3271 103.245 50.8249C103.245 54.3227 100.356 57.1582 96.7924 57.1582C93.2287 57.1582 90.3396 54.3227 90.3396 50.8249Z" fill="#D9D9D9"/>
<path d="M67.7547 50.8249C67.7547 47.3271 70.6437 44.4915 74.2075 44.4915C77.7713 44.4915 80.6604 47.3271 80.6604 50.8249C80.6604 54.3227 77.7713 57.1582 74.2075 57.1582C70.6437 57.1582 67.7547 54.3227 67.7547 50.8249Z" fill="#D9D9D9"/>
<path d="M45.1698 50.8249C45.1698 47.3271 48.0588 44.4915 51.6226 44.4915C55.1864 44.4915 58.0755 47.3271 58.0755 50.8249C58.0755 54.3227 55.1864 57.1582 51.6226 57.1582C48.0588 57.1582 45.1698 54.3227 45.1698 50.8249Z" fill="#D9D9D9"/>
<path d="M22.5849 50.8249C22.5849 47.3271 25.4739 44.4915 29.0377 44.4915C32.6015 44.4915 35.4906 47.3271 35.4906 50.8249C35.4906 54.3227 32.6015 57.1582 29.0377 57.1582C25.4739 57.1582 22.5849 54.3227 22.5849 50.8249Z" fill="#D9D9D9"/>
<path d="M0 50.8249C0 47.3271 2.88902 44.4915 6.45282 44.4915C10.0166 44.4915 12.9057 47.3271 12.9057 50.8249C12.9057 54.3227 10.0166 57.1582 6.45282 57.1582C2.88902 57.1582 0 54.3227 0 50.8249Z" fill="#D9D9D9"/>
<path d="M158.094 28.6582C158.094 25.1604 160.983 22.3249 164.547 22.3249C168.111 22.3249 171 25.1604 171 28.6582C171 32.156 168.111 34.9915 164.547 34.9915C160.983 34.9915 158.094 32.156 158.094 28.6582Z" fill="#D9D9D9"/>
<path d="M135.509 28.6582C135.509 25.1604 138.398 22.3249 141.962 22.3249C145.526 22.3249 148.415 25.1604 148.415 28.6582C148.415 32.156 145.526 34.9915 141.962 34.9915C138.398 34.9915 135.509 32.156 135.509 28.6582Z" fill="#D9D9D9"/>
<path d="M112.925 28.6582C112.925 25.1604 115.814 22.3249 119.377 22.3249C122.941 22.3249 125.83 25.1604 125.83 28.6582C125.83 32.156 122.941 34.9915 119.377 34.9915C115.814 34.9915 112.925 32.156 112.925 28.6582Z" fill="#D9D9D9"/>
<path d="M90.3396 28.6582C90.3396 25.1604 93.2287 22.3249 96.7924 22.3249C100.356 22.3249 103.245 25.1604 103.245 28.6582C103.245 32.156 100.356 34.9915 96.7924 34.9915C93.2287 34.9915 90.3396 32.156 90.3396 28.6582Z" fill="#D9D9D9"/>
<path d="M67.7547 28.6582C67.7547 25.1604 70.6437 22.3249 74.2075 22.3249C77.7713 22.3249 80.6604 25.1604 80.6604 28.6582C80.6604 32.156 77.7713 34.9915 74.2075 34.9915C70.6437 34.9915 67.7547 32.156 67.7547 28.6582Z" fill="#D9D9D9"/>
<path d="M45.1698 28.6582C45.1698 25.1604 48.0588 22.3249 51.6226 22.3249C55.1864 22.3249 58.0755 25.1604 58.0755 28.6582C58.0755 32.156 55.1864 34.9915 51.6226 34.9915C48.0588 34.9915 45.1698 32.156 45.1698 28.6582Z" fill="#D9D9D9"/>
<path d="M158.094 6.49154C158.094 2.99373 160.983 0.158203 164.547 0.158203C168.111 0.158203 171 2.99373 171 6.49154C171 9.98934 168.111 12.8249 164.547 12.8249C160.983 12.8249 158.094 9.98934 158.094 6.49154Z" fill="#D9D9D9"/>
<path d="M135.509 6.49154C135.509 2.99373 138.398 0.158203 141.962 0.158203C145.526 0.158203 148.415 2.99373 148.415 6.49154C148.415 9.98934 145.526 12.8249 141.962 12.8249C138.398 12.8249 135.509 9.98934 135.509 6.49154Z" fill="#D9D9D9"/>
<path d="M112.925 6.49154C112.925 2.99373 115.814 0.158203 119.377 0.158203C122.941 0.158203 125.83 2.99373 125.83 6.49154C125.83 9.98934 122.941 12.8249 119.377 12.8249C115.814 12.8249 112.925 9.98934 112.925 6.49154Z" fill="#D9D9D9"/>
<path d="M90.3396 6.49154C90.3396 2.99373 93.2287 0.158203 96.7924 0.158203C100.356 0.158203 103.245 2.99373 103.245 6.49154C103.245 9.98934 100.356 12.8249 96.7924 12.8249C93.2287 12.8249 90.3396 9.98934 90.3396 6.49154Z" fill="#D9D9D9"/>
</g>
</svg>
