<svg width="104" height="37" viewBox="0 0 104 37" fill="none" xmlns="http://www.w3.org/2000/svg">
<g opacity="0.2">
<path d="M6 32.1584C6 29.9493 4.20914 28.1584 2 28.1584C-0.209139 28.1584 -2 29.9493 -2 32.1584C-2 34.3676 -0.209139 36.1584 2 36.1584C4.20914 36.1584 6 34.3676 6 32.1584Z" fill="#D9D9D9"/>
<path d="M20 32.1584C20 29.9493 18.2091 28.1584 16 28.1584C13.7909 28.1584 12 29.9493 12 32.1584C12 34.3676 13.7909 36.1584 16 36.1584C18.2091 36.1584 20 34.3676 20 32.1584Z" fill="#D9D9D9"/>
<path d="M34 32.1584C34 29.9493 32.2091 28.1584 30 28.1584C27.7909 28.1584 26 29.9493 26 32.1584C26 34.3676 27.7909 36.1584 30 36.1584C32.2091 36.1584 34 34.3676 34 32.1584Z" fill="#D9D9D9"/>
<path d="M48 32.1584C48 29.9493 46.2091 28.1584 44 28.1584C41.7909 28.1584 40 29.9493 40 32.1584C40 34.3676 41.7909 36.1584 44 36.1584C46.2091 36.1584 48 34.3676 48 32.1584Z" fill="#D9D9D9"/>
<path d="M62 32.1584C62 29.9493 60.2091 28.1584 58 28.1584C55.7909 28.1584 54 29.9493 54 32.1584C54 34.3676 55.7909 36.1584 58 36.1584C60.2091 36.1584 62 34.3676 62 32.1584Z" fill="#D9D9D9"/>
<path d="M76 32.1584C76 29.9493 74.2091 28.1584 72 28.1584C69.7909 28.1584 68 29.9493 68 32.1584C68 34.3676 69.7909 36.1584 72 36.1584C74.2091 36.1584 76 34.3676 76 32.1584Z" fill="#D9D9D9"/>
<path d="M90 32.1584C90 29.9493 88.2091 28.1584 86 28.1584C83.7909 28.1584 82 29.9493 82 32.1584C82 34.3676 83.7909 36.1584 86 36.1584C88.2091 36.1584 90 34.3676 90 32.1584Z" fill="#D9D9D9"/>
<path d="M104 32.1584C104 29.9493 102.209 28.1584 100 28.1584C97.7908 28.1584 96 29.9493 96 32.1584C96 34.3676 97.7908 36.1584 100 36.1584C102.209 36.1584 104 34.3676 104 32.1584Z" fill="#D9D9D9"/>
<path d="M6 18.1584C6 15.9493 4.20914 14.1584 2 14.1584C-0.209139 14.1584 -2 15.9493 -2 18.1584C-2 20.3676 -0.209139 22.1584 2 22.1584C4.20914 22.1584 6 20.3676 6 18.1584Z" fill="#D9D9D9"/>
<path d="M20 18.1584C20 15.9493 18.2091 14.1584 16 14.1584C13.7909 14.1584 12 15.9493 12 18.1584C12 20.3676 13.7909 22.1584 16 22.1584C18.2091 22.1584 20 20.3676 20 18.1584Z" fill="#D9D9D9"/>
<path d="M34 18.1584C34 15.9493 32.2091 14.1584 30 14.1584C27.7909 14.1584 26 15.9493 26 18.1584C26 20.3676 27.7909 22.1584 30 22.1584C32.2091 22.1584 34 20.3676 34 18.1584Z" fill="#D9D9D9"/>
<path d="M48 18.1584C48 15.9493 46.2091 14.1584 44 14.1584C41.7909 14.1584 40 15.9493 40 18.1584C40 20.3676 41.7909 22.1584 44 22.1584C46.2091 22.1584 48 20.3676 48 18.1584Z" fill="#D9D9D9"/>
<path d="M62 18.1584C62 15.9493 60.2091 14.1584 58 14.1584C55.7909 14.1584 54 15.9493 54 18.1584C54 20.3676 55.7909 22.1584 58 22.1584C60.2091 22.1584 62 20.3676 62 18.1584Z" fill="#D9D9D9"/>
<path d="M76 18.1584C76 15.9493 74.2091 14.1584 72 14.1584C69.7909 14.1584 68 15.9493 68 18.1584C68 20.3676 69.7909 22.1584 72 22.1584C74.2091 22.1584 76 20.3676 76 18.1584Z" fill="#D9D9D9"/>
<path d="M6 4.15845C6 1.94931 4.20914 0.158447 2 0.158447C-0.209139 0.158447 -2 1.94931 -2 4.15845C-2 6.36758 -0.209139 8.15845 2 8.15845C4.20914 8.15845 6 6.36758 6 4.15845Z" fill="#D9D9D9"/>
<path d="M20 4.15845C20 1.94931 18.2091 0.158447 16 0.158447C13.7909 0.158447 12 1.94931 12 4.15845C12 6.36758 13.7909 8.15845 16 8.15845C18.2091 8.15845 20 6.36758 20 4.15845Z" fill="#D9D9D9"/>
<path d="M34 4.15845C34 1.94931 32.2091 0.158447 30 0.158447C27.7909 0.158447 26 1.94931 26 4.15845C26 6.36758 27.7909 8.15845 30 8.15845C32.2091 8.15845 34 6.36758 34 4.15845Z" fill="#D9D9D9"/>
<path d="M48 4.15845C48 1.94931 46.2091 0.158447 44 0.158447C41.7909 0.158447 40 1.94931 40 4.15845C40 6.36758 41.7909 8.15845 44 8.15845C46.2091 8.15845 48 6.36758 48 4.15845Z" fill="#D9D9D9"/>
</g>
</svg>
