<svg width="24" height="24" viewBox="0 0 24 24" fill="none" xmlns="http://www.w3.org/2000/svg">
<path fill-rule="evenodd" clip-rule="evenodd" d="M17.9758 4.01031C17.8591 4.00078 17.6967 4.00001 17.4002 4.00001H8.2002C7.62365 4.00001 7.25126 4.00078 6.9678 4.02393C6.69595 4.04614 6.59517 4.08384 6.54579 4.109C6.35763 4.20487 6.20487 4.35763 6.109 4.54579C6.08383 4.59518 6.04614 4.69595 6.02393 4.9678C6.00078 5.25126 6 5.62366 6 6.2002V17.2491C6.3848 17.0886 6.80705 17 7.25 17H17.402C17.698 17 17.86 16.9992 17.9765 16.9897C17.9806 16.9894 17.9846 16.989 17.9883 16.9887C17.9887 16.9843 17.9892 16.9796 17.9896 16.9747C17.9991 16.8584 18 16.6963 18 16.4001V4.6001C18 4.30394 17.9991 4.14159 17.9896 4.02517C17.9892 4.02031 17.9887 4.01572 17.9883 4.0114C17.9844 4.01103 17.9802 4.01067 17.9758 4.01031ZM17 19H7.25C6.64526 19 6.14082 19.4294 6.02501 20H16.402C16.698 20 16.86 19.9992 16.9765 19.9897C16.9806 19.9894 16.9846 19.989 16.9883 19.9887C16.9887 19.9843 16.9891 19.9796 16.9896 19.9747C16.9991 19.8584 17 19.6962 17 19.4V19ZM4.03577 19.7662C4.01245 19.6815 4 19.5923 4 19.5002L4 6.16168C3.99998 5.63451 3.99997 5.17965 4.03057 4.80499C4.06286 4.40962 4.13416 4.01625 4.32698 3.63781C4.6146 3.07333 5.07332 2.61461 5.63781 2.32699C6.01625 2.13416 6.40962 2.06287 6.80499 2.03057C7.17965 1.99997 7.63451 1.99999 8.16168 2L17.4321 2C17.6845 1.99997 17.9303 1.99994 18.1386 2.01695C18.3671 2.03561 18.637 2.07964 18.9086 2.21799C19.2867 2.41066 19.5908 2.71741 19.7816 3.09191C19.9198 3.36299 19.964 3.63247 19.9828 3.86123C20 4.0707 20 4.31793 20 4.57199V16.4283C20 16.6823 20 16.9294 19.9828 17.1388C19.964 17.3676 19.9197 17.6368 19.7816 17.9077C19.6071 18.2503 19.337 18.5381 19 18.7326L19 19.4282C19 19.6822 19 19.9293 18.9828 20.1387C18.964 20.3675 18.9197 20.6368 18.7816 20.9078C18.5915 21.281 18.2882 21.5888 17.9088 21.7821C17.6374 21.9204 17.3676 21.9644 17.1393 21.9831C16.9313 22.0001 16.6858 22 16.4339 22L5.75 22C4.7835 22 4 21.2165 4 20.25C4 20.0856 4.01221 19.924 4.03577 19.7662Z" fill="#46485C"/>
</svg>
