<svg xmlns="http://www.w3.org/2000/svg" width="24" height="24" viewBox="0 0 24 24" fill="none">
    <g clip-path="url(#clip0_8889_62798)">
        <path fill-rule="evenodd" clip-rule="evenodd" d="M18.5628 10.7947C19.8127 10.5147 21 11.4655 21 12.7463V19.4415L13 21.6815V13.9022L13.2679 13.0204C13.4773 12.331 14.0413 11.8075 14.7444 11.65L18.5628 10.7947ZM11 13.9022V21.6815L3 19.4415V12.7463C3 11.4655 4.18725 10.5147 5.43717 10.7947L9.25565 11.65C9.95872 11.8075 10.5227 12.331 10.7321 13.0204L11 13.9022ZM12 11.1771C12.5622 10.4396 13.3734 9.90758 14.3072 9.69841L18.1257 8.84307C20.6255 8.28311 23 10.1846 23 12.7463V20.9585L12 24.0385L1 20.9585V12.7463C1 10.1846 3.37451 8.28311 5.87433 8.84307L9.69282 9.69841C10.6266 9.90758 11.4378 10.4396 12 11.1771Z" fill="#7357FF"/>
        <path fill-rule="evenodd" clip-rule="evenodd" d="M12 1C9.79086 1 8 2.79086 8 5C8 7.20914 9.79086 9 12 9C14.2091 9 16 7.20914 16 5C16 2.79086 14.2091 1 12 1ZM12 2.73913C10.7514 2.73913 9.73913 3.75136 9.73913 5C9.73913 6.24864 10.7514 7.26087 12 7.26087C13.2486 7.26087 14.2609 6.24864 14.2609 5C14.2609 3.75136 13.2486 2.73913 12 2.73913Z" fill="#7357FF"/>
    </g>
    <defs>
        <clipPath id="clip0_8889_62798">
            <rect width="24" height="24" fill="white"/>
        </clipPath>
    </defs>
</svg>