<svg width="200" height="200" viewBox="0 0 200 200" fill="none" xmlns="http://www.w3.org/2000/svg">
<g id="Image Placeholder">
<g clip-path="url(#clip0_7262_9569)">
<g id="BACKGROUND">
<path id="Vector" d="M200 0H0V200H200V0Z" fill="#FFBE54"/>
</g>
<g id="OBJECT">
<path id="Vector_2" d="M200 135.6V200H0V135.6H65.272H135.72H200Z" fill="#D8983D"/>
<path id="Vector_3" d="M145.752 149.652C153.621 149.652 160 148.098 160 146.18C160 144.262 153.621 142.708 145.752 142.708C137.883 142.708 131.504 144.262 131.504 146.18C131.504 148.098 137.883 149.652 145.752 149.652Z" fill="#BC8037"/>
<path id="Vector_4" d="M142.488 49.5321C142.488 49.5321 140.432 49.4401 138.852 52.4441C137.272 55.4481 138.376 63.0681 138.376 63.0681H140.652V61.8321L141.052 63.0681H148.032L148.192 61.9921L148.476 63.0681H149.04L149.204 62.2681L149.472 63.0681H151.036C151.036 63.0681 153.096 52.6961 148.54 49.7241C145.524 47.7641 142.488 49.5321 142.488 49.5321Z" fill="#965B4D"/>
<path id="Vector_5" d="M143.244 144.02C143.244 144.02 143.096 145.584 143.084 146C143.072 146.416 142.592 147.4 140.928 147.752C139.264 148.104 137.584 147.82 137.584 146.596C137.584 145.372 139.912 142.052 139.912 142.052L143.044 141.632L143.244 144.02Z" fill="#723D33"/>
<path id="Vector_6" d="M144.44 117.744C144.844 122.149 144.726 126.587 144.088 130.964C143.04 138.516 143.04 140.804 143.04 140.804L140.4 141.224C140.4 141.224 140 136.14 140 130.824V117.396L144.44 117.744Z" fill="#965B4D"/>
<path id="Vector_7" d="M140.4 140.8C140.4 140.8 138.968 143.224 139.248 144.32C139.304 144.532 141.004 144.74 141.844 144.496C142.296 144.364 142.672 143.992 142.86 143.036C142.969 142.295 143.024 141.548 143.024 140.8H140.4Z" fill="#965B4D"/>
<path id="Vector_8" d="M147.176 143.528C147.176 143.528 147.328 145.092 147.336 145.508C147.344 145.924 147.828 146.908 149.492 147.26C151.156 147.612 152.836 147.328 152.836 146.104C152.836 144.88 150.508 141.56 150.508 141.56L147.376 141.16L147.176 143.528Z" fill="#723D33"/>
<path id="Vector_9" d="M146 117.252C145.598 121.657 145.716 126.094 146.352 130.472C147.4 138.028 147.4 140.316 147.4 140.316L150.024 140.716C150.024 140.716 150.424 135.632 150.424 130.316V116.904L146 117.252Z" fill="#965B4D"/>
<path id="Vector_10" d="M142.728 63.4922L136.78 65.2922L139.476 83.7762H150.248L152.86 65.5882L146.892 63.4922H142.728Z" fill="#965B4D"/>
<path id="Vector_11" d="M142.848 60.4638C142.848 60.4638 143.18 63.0838 142.352 64.4638C142.675 64.8359 143.079 65.1283 143.534 65.3184C143.988 65.5085 144.48 65.5911 144.972 65.5598C146.728 65.4918 147.196 64.6318 147.196 64.6318C147.196 64.6318 146.464 62.6318 146.696 60.9798C146.928 59.3278 142.848 60.4638 142.848 60.4638Z" fill="#EABE9D"/>
<path id="Vector_12" d="M148.036 53.5278C147.196 52.1158 144.804 52.0278 144.804 52.0278C144.804 52.0278 142.404 52.1158 141.576 53.5278C141.576 53.5278 140.776 54.0598 141 56.4038C141.224 58.7478 141.356 59.8558 141.576 60.1198C141.796 60.3838 143.524 62.0238 144.804 61.9318C146.088 62.0238 147.812 60.3838 148.036 60.1198C148.26 59.8558 148.388 58.7478 148.608 56.4038C148.828 54.0598 148.036 53.5278 148.036 53.5278Z" fill="#FFE1C8"/>
<path id="Vector_13" d="M139.476 83.7759C137.795 87.9033 136.727 92.2549 136.308 96.6919C135.608 104.056 139.476 117.768 139.476 117.768H150.996C150.996 117.768 153.796 102.1 152.86 95.5719C152.284 91.5803 151.411 87.6374 150.248 83.7759H139.476Z" fill="#B2715D"/>
<path id="Vector_14" d="M150 140.316C150 140.316 151.432 142.716 151.152 143.832C151.1 144.044 149.396 144.252 148.556 144.008C148.104 143.876 147.728 143.504 147.54 142.548C147.431 141.809 147.376 141.063 147.376 140.316H150Z" fill="#965B4D"/>
<path id="Vector_15" d="M136.8 65.292C136.8 65.292 134.312 67.46 134.864 71.976C135.416 76.492 138.368 84.516 138.368 84.516L142.884 96.224L146.204 95.024L141.16 81.564C141.16 81.564 138.992 67.2 136.8 65.292Z" fill="#D8983D"/>
<path id="Vector_16" d="M152.588 65.292C152.588 65.292 155.076 67.46 154.524 71.976C153.972 76.492 151.02 84.516 151.02 84.516L146.504 96.224L143.184 95.024L148.208 81.564C148.208 81.564 150.376 67.2 152.588 65.292Z" fill="#D8983D"/>
<path id="Vector_17" d="M143.264 94.7998C143.264 94.7998 142.556 97.1998 142.372 97.7838C142.188 98.3678 142.328 100.044 142.62 100.184C142.912 100.324 142.988 99.7198 142.928 99.3358C142.902 98.9813 142.922 98.625 142.988 98.2758L143.184 98.3398C143.093 99.0274 143.093 99.7241 143.184 100.412C143.356 101.072 143.788 100.688 143.772 100.244C143.772 100.244 143.88 100.78 144.248 100.46C144.616 100.14 144.876 98.7838 144.876 98.7838C144.903 99.0498 144.903 99.3178 144.876 99.5838C144.832 99.8918 144.476 100.108 144.784 100.276C145.092 100.444 145.416 99.8318 145.492 99.6438C145.568 99.4558 145.736 98.2318 145.736 98.2318C145.736 98.2318 146.588 96.5118 146.572 96.0718C146.556 95.6318 144.468 94.5358 143.264 94.7998Z" fill="#FFE1C8"/>
<path id="Vector_18" d="M145.632 50.4318C144.612 49.931 143.488 49.6801 142.352 49.6998C140.568 49.7678 137.232 53.6678 140.7 55.9318H142.032L142.352 54.4678L142.668 55.9318H145L145.368 54.4998L145.668 55.9318H146.232L146.5 54.4998L147 55.9318H148.968C148.968 55.9318 149.832 53.8678 148.968 52.1318C148.104 50.3958 145.632 50.4318 145.632 50.4318Z" fill="#965B4D"/>
<path id="Vector_19" d="M142.828 62.9678L144.828 65.5718C144.828 65.5718 144.028 66.7718 142.908 66.5998C141.788 66.4278 141.504 63.8638 141.504 63.8638L142.828 62.9678Z" fill="#D8983D"/>
<path id="Vector_20" d="M146.764 62.9678L144.764 65.5718C144.764 65.5718 145.564 66.7718 146.684 66.5998C147.804 66.4278 148.088 63.8638 148.088 63.8638L146.764 62.9678Z" fill="#D8983D"/>
<path id="Vector_21" d="M52.404 149.652C60.273 149.652 66.652 148.098 66.652 146.18C66.652 144.262 60.273 142.708 52.404 142.708C44.5351 142.708 38.156 144.262 38.156 146.18C38.156 148.098 44.5351 149.652 52.404 149.652Z" fill="#BC8037"/>
<path id="Vector_22" d="M51.432 139.796V142.48H47.788L47.376 139.796H51.432Z" fill="#965B4D"/>
<path id="Vector_23" d="M47.8519 142.072C47.8519 142.072 44.6079 145.092 43.3799 145.724C42.1519 146.356 42.4479 147.476 44.7559 147.588C47.0639 147.7 49.4559 146.584 50.2359 146.544C51.0159 146.504 51.9199 146.352 51.9879 146.06C52.3879 144.384 51.4319 142.06 51.4319 142.06L47.8519 142.072Z" fill="#723D33"/>
<path id="Vector_24" d="M54.9519 139.796V142.48H58.5959L59.0039 139.796H54.9519Z" fill="#965B4D"/>
<path id="Vector_25" d="M58.5319 142.072C58.5319 142.072 61.7759 145.092 63.0039 145.724C64.2319 146.356 63.9359 147.476 61.6239 147.588C59.3119 147.7 56.9279 146.584 56.1439 146.544C55.3599 146.504 54.4639 146.352 54.3919 146.06C53.9919 144.384 54.9519 142.06 54.9519 142.06L58.5319 142.072Z" fill="#723D33"/>
<path id="Vector_26" d="M44.0161 91.6758V104.508L46.5881 140.936H52.3081L51.8961 122.176V100.188L52.5321 99.8078L53.5481 140.936H59.7761L59.9001 98.5358L59.6481 91.6758H44.0161Z" fill="#B2715D"/>
<path id="Vector_27" d="M49.6881 64.2559L42.2361 65.9719L43.0361 90.5959C43.0516 91.0557 43.245 91.4916 43.5756 91.8117C43.9061 92.1318 44.348 92.3111 44.8081 92.3119H58.4561C58.9635 92.3066 59.45 92.1086 59.8169 91.758C60.1838 91.4075 60.4037 90.9305 60.4321 90.4239L61.5361 65.7199L53.4361 64.2559H49.6881Z" fill="#965B4D"/>
<path id="Vector_28" d="M49.5081 62.0718C49.5148 62.991 49.3991 63.9071 49.1641 64.7958C49.9597 65.5159 50.9837 65.9323 52.0561 65.9718C53.7361 65.9718 54.0561 64.7958 54.0561 64.7958C53.8216 63.8088 53.746 62.7906 53.8321 61.7798L49.5081 62.0718Z" fill="#EABE9D"/>
<path id="Vector_29" d="M46.424 55.3682C46.1932 55.6988 46.0539 56.0845 46.0202 56.4863C45.9865 56.8881 46.0596 57.2917 46.232 57.6562C46.852 58.8562 47.66 58.8962 47.66 58.8962L47.2 55.6002L46.424 55.3682Z" fill="#FFE1C8"/>
<path id="Vector_30" d="M56.6719 55.3682C56.9016 55.6993 57.04 56.0852 57.073 56.4869C57.106 56.8886 57.0325 57.2919 56.8599 57.6562C56.2439 58.8562 55.4319 58.8962 55.4319 58.8962L55.8999 55.6082L56.6719 55.3682Z" fill="#FFE1C8"/>
<path id="Vector_31" d="M47.2 53.6921C47.2 53.6921 47.26 59.4121 47.716 60.2721C48.172 61.1321 50.176 62.9601 51.952 63.0201C53.728 63.0801 55.728 60.4441 55.784 59.5841C55.84 58.7241 56.64 52.7841 55.784 51.6881C54.928 50.5921 47.652 48.7721 47.2 53.6921Z" fill="#FFE1C8"/>
<path id="Vector_32" d="M55.104 50.4358C54.8506 49.8555 54.4711 49.3389 53.9929 48.9238C53.5148 48.5086 52.9501 48.2053 52.34 48.0358C50.308 47.5278 49.448 49.0838 48.4 48.9878C47.352 48.8918 45.924 49.7878 46 50.8318C46.076 51.8758 44.8 52.2278 45.24 53.8158C45.68 55.4038 47.24 56.2958 47.24 56.2958C47.24 56.2958 48.248 55.0958 48.184 54.1678C48.12 53.2398 48.376 52.8318 48.82 52.6078C49.264 52.3838 49.868 52.3238 51.044 52.6718C52.22 53.0198 54.572 52.7358 54.572 52.7358C54.572 52.7358 54.764 53.5358 55.372 53.7198C55.98 53.9038 55.592 55.5038 56.088 56.0118C56.088 56.0118 57.536 54.4518 57.536 53.6878C57.536 52.9238 57.6 50.6918 55.104 50.4358Z" fill="#965B4D"/>
<path id="Vector_33" d="M49.4399 63.3682L51.8799 65.9722L50.4319 67.0042L48.6079 64.5002L49.4399 63.3682Z" fill="#D8983D"/>
<path id="Vector_34" d="M63.9001 70.4C63.4321 67.112 61.3601 65.668 61.3601 65.668L60.8761 80.468H45.6001V84.088C45.6001 84.088 59.2721 86.488 63.7721 85.74C68.8401 84.9 64.2161 72.604 63.9001 70.4Z" fill="#D8983D"/>
<path id="Vector_35" d="M53.8441 63.3682L51.4041 65.9722L52.8481 67.0042L54.6761 64.5002L53.8441 63.3682Z" fill="#D8983D"/>
<path id="Vector_36" d="M56.5041 79.6002L42.8001 80.2522L42.2481 65.9722C42.2481 65.9722 40.1761 67.4202 39.7081 70.7082C39.3881 72.9322 35.5921 84.5082 40.6721 85.3522C45.1161 86.0882 57.3241 83.2442 57.3241 83.2442L56.5041 79.6002Z" fill="#D8983D"/>
<path id="Vector_37" d="M57.2439 82.7998C57.6606 82.81 58.0769 82.7697 58.4839 82.6798C59.0559 82.5358 60.9759 81.5598 61.5519 81.5358C62.1279 81.5118 61.9519 81.1358 61.8199 80.9398C61.7387 80.8152 61.6491 80.6963 61.5519 80.5838C61.4006 80.3357 61.235 80.0966 61.0559 79.8678C60.8353 79.5689 60.5976 79.2831 60.3439 79.0118C60.1205 78.8493 59.8658 78.7349 59.5959 78.6758C59.4839 78.6758 56.5039 79.7718 56.5039 79.7718L57.2439 82.7998Z" fill="#FFE1C8"/>
<path id="Vector_38" d="M46.8239 78.9521C46.0161 78.2375 45.168 77.5698 44.2839 76.9521C43.6799 76.6361 41.6919 76.8721 41.1519 77.3201C40.6119 77.7681 41.2159 77.8601 41.6119 77.7481C41.8616 77.6795 42.1176 77.6366 42.3759 77.6201H42.7239L42.6959 77.8641C42.2749 77.9417 41.8603 78.0514 41.4559 78.1921C40.8199 78.4641 40.7079 78.8921 41.0239 78.9401C41.2845 78.9568 41.5459 78.927 41.7959 78.8521C41.7959 78.8521 41.0719 79.2241 41.1839 79.4321C41.2959 79.6401 42.1119 79.5041 42.2359 79.4561C42.4389 79.3993 42.6495 79.3751 42.8599 79.3841C42.8599 79.3841 41.7239 79.6681 41.6279 80.0361C41.5319 80.4041 42.0679 80.3441 42.3679 80.3281C42.6679 80.3121 43.3759 80.2321 43.3759 80.2321L47.6719 80.0081C47.4114 79.6389 47.1282 79.2862 46.8239 78.9521Z" fill="#FFE1C8"/>
<path id="Vector_39" d="M20.8681 149.652C28.7371 149.652 35.1161 148.098 35.1161 146.18C35.1161 144.262 28.7371 142.708 20.8681 142.708C12.9992 142.708 6.62012 144.262 6.62012 146.18C6.62012 148.098 12.9992 149.652 20.8681 149.652Z" fill="#BC8037"/>
<path id="Vector_40" d="M16.752 56.336C16.752 56.336 14.416 56.98 14.572 58.488C14.728 59.996 13.524 58.98 13.432 60.732C13.432 60.732 11.988 61.592 13.064 62.512C14.14 63.432 15.524 62.572 15.892 62.512C16.26 62.452 17.12 63.392 17.98 62.936C18.84 62.48 19.46 62.204 20.304 62.604C21.148 63.004 22.896 62.944 23.42 62.604C23.944 62.264 25.172 63.004 26.22 62.832C27.268 62.66 27.264 62.544 28.032 62.572C28.8 62.6 29.28 62.452 29.3 61.592C29.32 60.732 28.74 60.336 28.1 60.088C28.1 60.088 28.528 57.996 27.484 57.352C26.44 56.708 25.58 56.212 25.304 55.844C25.028 55.476 16.752 56.336 16.752 56.336Z" fill="#965B4D"/>
<path id="Vector_41" d="M19.6839 144.02C19.6839 144.02 19.5319 145.584 19.5239 146C19.5159 146.416 19.0319 147.4 17.3679 147.752C15.7039 148.104 14.0239 147.82 14.0239 146.596C14.0239 145.372 16.3479 142.052 16.3479 142.052L19.4839 141.632L19.6839 144.02Z" fill="#723D33"/>
<path id="Vector_42" d="M20.8759 117.744C21.2804 122.149 21.1636 126.586 20.5279 130.964C19.4799 138.516 19.4799 140.8 19.4799 140.8L16.8519 141.22C16.8519 141.22 16.4519 136.136 16.4519 130.82V117.396L20.8759 117.744Z" fill="#C17B5F"/>
<path id="Vector_43" d="M16.8521 140.8C16.8521 140.8 15.4201 143.224 15.7001 144.32C15.7561 144.532 17.4561 144.74 18.2961 144.496C18.7521 144.364 19.1281 143.992 19.3161 143.036C19.4227 142.295 19.4775 141.548 19.4801 140.8H16.8521Z" fill="#C17B5F"/>
<path id="Vector_44" d="M23.6001 143.528C23.6001 143.528 23.7521 145.092 23.7601 145.508C23.7681 145.924 24.2521 146.908 25.9201 147.26C27.5881 147.612 29.2601 147.328 29.2601 146.104C29.2601 144.88 26.9361 141.56 26.9361 141.56L23.8041 141.16L23.6001 143.528Z" fill="#723D33"/>
<path id="Vector_45" d="M22.4201 117.252C22.0156 121.657 22.1324 126.094 22.7681 130.472C23.8201 138.028 23.8201 140.316 23.8201 140.316L26.4441 140.716C26.4441 140.716 26.8441 135.632 26.8441 130.316V116.904L22.4201 117.252Z" fill="#C17B5F"/>
<path id="Vector_46" d="M19.164 63.4922L13.22 65.2922L15.916 83.7762H26.688L29.296 65.5882L23.328 63.4922H19.164Z" fill="#D8983D"/>
<path id="Vector_47" d="M19.2881 60.4638C19.2881 60.4638 19.6161 63.0838 18.7881 64.4638C19.111 64.8359 19.5154 65.1283 19.9698 65.3184C20.4243 65.5085 20.9165 65.5911 21.4081 65.5598C23.1681 65.4918 23.6321 64.6318 23.6321 64.6318C23.6321 64.6318 22.9041 62.6318 23.1361 60.9798C23.3681 59.3278 19.2881 60.4638 19.2881 60.4638Z" fill="#EABE9D"/>
<path id="Vector_48" d="M24.472 53.5278C23.632 52.1158 21.244 52.0278 21.244 52.0278C21.244 52.0278 18.844 52.1158 18.016 53.5278C18.016 53.5278 17.216 54.0598 17.44 56.4038C17.664 58.7478 17.792 59.8558 18.016 60.1198C18.24 60.3838 19.96 62.0238 21.244 61.9318C22.528 62.0238 24.252 60.3838 24.472 60.1198C24.692 59.8558 24.828 58.7478 25.048 56.4038C25.268 54.0598 24.472 53.5278 24.472 53.5278Z" fill="#FFE1C8"/>
<path id="Vector_49" d="M15.9161 83.7759C14.2342 87.9034 13.1656 92.2548 12.7441 96.6919C12.0441 104.056 15.9161 117.768 15.9161 117.768H27.4321C27.4321 117.768 30.2321 102.1 29.2961 95.5719C28.7203 91.5807 27.8486 87.6378 26.6881 83.7759H15.9161Z" fill="#965B4D"/>
<path id="Vector_50" d="M26.4441 140.316C26.4441 140.316 27.8761 142.716 27.5961 143.832C27.5401 144.044 25.8401 144.252 25.0001 144.008C24.5441 143.876 24.1681 143.504 23.9801 142.548C23.8741 141.809 23.8206 141.063 23.8201 140.316H26.4441Z" fill="#C17B5F"/>
<path id="Vector_51" d="M20.4719 49.6359C19.5466 49.6162 18.6212 49.6683 17.7039 49.7919C15.5519 50.0039 12.6039 52.6799 15.3999 54.7679C15.3999 54.7679 14.9999 56.7959 17.4959 56.9799C17.4959 56.9799 23.4119 56.2119 23.6319 53.4479C23.6319 53.4479 24.0319 56.3039 25.0879 56.8279C25.0879 56.8279 27.0159 54.6239 26.6159 52.7279C26.5413 52.2166 26.318 51.7384 25.9737 51.353C25.6295 50.9675 25.1796 50.6917 24.6799 50.5599C24.6799 50.5599 22.8679 48.6519 20.4719 49.6359Z" fill="#965B4D"/>
<path id="Vector_52" d="M13.22 65.292C13.22 65.292 10.728 67.46 11.284 71.976C11.84 76.492 14.8 84.516 14.8 84.516L19.32 96.224L22.636 95.024L17.6 81.564C17.6 81.564 15.432 67.2 13.22 65.292Z" fill="#E5CB83"/>
<path id="Vector_53" d="M29.0241 65.292C29.0241 65.292 31.5121 67.46 30.9601 71.976C30.4081 76.492 27.4561 84.516 27.4561 84.516L22.9401 96.224L19.6201 95.024L24.6441 81.564C24.6441 81.564 26.8001 67.2 29.0241 65.292Z" fill="#E5CB83"/>
<path id="Vector_54" d="M19.704 94.7998C19.704 94.7998 18.996 97.1998 18.812 97.7838C18.628 98.3678 18.764 100.044 19.056 100.184C19.348 100.324 19.424 99.7198 19.364 99.3358C19.3401 98.9813 19.3602 98.6253 19.424 98.2758L19.62 98.3398C19.5288 99.0274 19.5288 99.7241 19.62 100.412C19.796 101.072 20.224 100.688 20.208 100.244C20.208 100.244 20.316 100.78 20.684 100.46C21.052 100.14 21.316 98.7838 21.316 98.7838C21.3411 99.0499 21.3411 99.3177 21.316 99.5838C21.268 99.8918 20.916 100.108 21.224 100.276C21.532 100.444 21.852 99.8318 21.928 99.6438C22.004 99.4558 22.176 98.2318 22.176 98.2318C22.176 98.2318 23.028 96.5118 23.008 96.0718C22.988 95.6318 20.904 94.5358 19.704 94.7998Z" fill="#FFE1C8"/>
<path id="Vector_55" d="M175.452 149.652C183.323 149.652 189.704 148.098 189.704 146.18C189.704 144.262 183.323 142.708 175.452 142.708C167.581 142.708 161.2 144.262 161.2 146.18C161.2 148.098 167.581 149.652 175.452 149.652Z" fill="#BC8037"/>
<path id="Vector_56" d="M173.792 139.796V142.48H170.152L169.74 139.796H173.792Z" fill="#965B4D"/>
<path id="Vector_57" d="M170.212 142.072C170.212 142.072 166.972 145.092 165.74 145.724C164.508 146.356 164.8 147.476 167.12 147.6C169.44 147.724 171.816 146.596 172.6 146.556C173.384 146.516 174.28 146.364 174.352 146.072C174.752 144.396 173.792 142.072 173.792 142.072H170.212Z" fill="#723D33"/>
<path id="Vector_58" d="M177.316 139.796V142.48H180.956L181.368 139.796H177.316Z" fill="#965B4D"/>
<path id="Vector_59" d="M180.892 142.072C180.892 142.072 184.136 145.092 185.368 145.724C186.6 146.356 186.3 147.476 183.988 147.588C181.676 147.7 179.292 146.584 178.508 146.544C177.724 146.504 176.828 146.352 176.756 146.06C176.356 144.384 177.316 142.06 177.316 142.06L180.892 142.072Z" fill="#723D33"/>
<path id="Vector_60" d="M166.38 91.6758V104.508L168.952 140.936H174.672L174.256 122.176V100.188L174.892 99.8078L175.908 140.936H182.136L182.264 98.5358L182.008 91.6758H166.38Z" fill="#965B4D"/>
<path id="Vector_61" d="M172.048 64.2559L164.6 65.9719L165.4 90.5959C165.416 91.0557 165.609 91.4916 165.94 91.8117C166.27 92.1318 166.712 92.3111 167.172 92.3119H180.82C181.329 92.3113 181.817 92.1148 182.185 91.7632C182.552 91.4115 182.769 90.9318 182.792 90.4239L183.9 65.7199L175.8 64.2559H172.048Z" fill="#D8983D"/>
<path id="Vector_62" d="M171.868 62.0718C171.877 62.9912 171.761 63.9075 171.524 64.7958C172.32 65.5159 173.344 65.9323 174.416 65.9718C176.1 65.9718 176.416 64.7958 176.416 64.7958C176.182 63.8087 176.107 62.7904 176.196 61.7798L171.868 62.0718Z" fill="#EABE9D"/>
<path id="Vector_63" d="M168.8 55.3682C168.57 55.6993 168.432 56.0852 168.399 56.4869C168.366 56.8886 168.439 57.2919 168.612 57.6562C169.228 58.8562 170.04 58.8962 170.04 58.8962L169.556 55.6002L168.8 55.3682Z" fill="#FFE1C8"/>
<path id="Vector_64" d="M179.032 55.3682C179.263 55.6988 179.402 56.0845 179.436 56.4863C179.469 56.8881 179.396 57.2917 179.224 57.6562C178.604 58.8562 177.796 58.8962 177.796 58.8962L178.264 55.6082L179.032 55.3682Z" fill="#FFE1C8"/>
<path id="Vector_65" d="M169.556 53.6921C169.556 53.6921 169.612 59.4121 170.072 60.2721C170.532 61.1321 172.532 62.9601 174.304 63.0201C176.076 63.0801 178.08 60.4441 178.136 59.5841C178.192 58.7241 178.996 52.7841 178.136 51.6881C177.276 50.5921 170 48.7721 169.556 53.6921Z" fill="#FFE1C8"/>
<path id="Vector_66" d="M171.804 63.3682L174.24 65.9722L172.796 67.0042L170.972 64.5002L171.804 63.3682Z" fill="#965B4D"/>
<path id="Vector_67" d="M186.26 70.4C185.792 67.112 183.72 65.668 183.72 65.668L183.24 80.468H167.952V84.088C167.952 84.088 181.624 86.488 186.124 85.74C191.2 84.9 186.58 72.604 186.26 70.4Z" fill="#965B4D"/>
<path id="Vector_68" d="M176.204 63.3682L173.768 65.9722L175.212 67.0042L177.036 64.5002L176.204 63.3682Z" fill="#965B4D"/>
<path id="Vector_69" d="M178.868 79.5998L165.152 80.2478L164.6 65.9678C164.6 65.9678 162.528 67.4158 162.056 70.7038C161.74 72.9278 157.944 84.5038 163.024 85.3478C167.464 86.0838 179.676 83.2398 179.676 83.2398L178.868 79.5998Z" fill="#965B4D"/>
<path id="Vector_70" d="M179.6 82.7998C180.015 82.8099 180.43 82.7696 180.836 82.6798C181.408 82.5358 183.332 81.5598 183.908 81.5358C184.484 81.5118 184.308 81.1358 184.172 80.9398C184.093 80.8148 184.005 80.6958 183.908 80.5838C183.757 80.3357 183.591 80.0966 183.412 79.8678C183.191 79.5679 182.952 79.2821 182.696 79.0118C182.474 78.8498 182.221 78.7354 181.952 78.6758C181.84 78.6758 178.86 79.7718 178.86 79.7718L179.6 82.7998Z" fill="#FFE1C8"/>
<path id="Vector_71" d="M169.2 78.9521C168.392 78.2367 167.542 77.5689 166.656 76.9521C166.052 76.6361 164.068 76.8721 163.528 77.3201C162.988 77.7681 163.592 77.8601 163.988 77.7481C164.238 77.6792 164.494 77.6363 164.752 77.6201H165.1L165.072 77.8641C164.65 77.9421 164.234 78.0517 163.828 78.1921C163.192 78.4641 163.084 78.8921 163.4 78.9401C163.661 78.9564 163.922 78.9266 164.172 78.8521C164.172 78.8521 163.448 79.2241 163.56 79.4321C163.672 79.6401 164.488 79.5041 164.612 79.4561C164.815 79.3993 165.026 79.3751 165.236 79.3841C165.236 79.3841 164.1 79.6681 164.004 80.0361C163.908 80.4041 164.44 80.3441 164.744 80.3281C165.048 80.3121 165.752 80.2321 165.752 80.2321L170.048 80.0081C169.788 79.6389 169.504 79.2862 169.2 78.9521Z" fill="#FFE1C8"/>
<path id="Vector_72" d="M169.556 56.7279C169.556 56.7279 167.768 54.3279 167.9 52.4319C168.032 50.5359 169.032 50.2679 169.032 50.2679C169.032 50.2679 169.032 49.1999 170.832 48.5319C172.632 47.8639 177.064 49.2319 178.532 49.4999C180 49.7679 180.832 49.3679 181.068 50.0319C181.304 50.6959 180.468 51.5999 180.468 51.5999C180.468 51.5999 181 51.7119 180.9 52.5399C180.8 53.3679 179.7 53.6319 179.7 53.6319C179.642 54.7001 179.19 55.7088 178.432 56.4639C178.136 55.5066 177.923 54.5257 177.796 53.5319C177.796 53.5319 172.652 53.9679 171.524 52.8999C171.524 52.8999 171.124 54.2319 170.168 54.4679C170.168 54.4679 170.076 55.9559 169.556 56.7279Z" fill="#965B4D"/>
<path id="Vector_73" d="M140.032 160.016L62.0879 158.612L65.2719 135.6H135.72L140.032 160.016Z" fill="#E0C0A9"/>
<path id="Vector_74" d="M135.72 135.6H65.272L84.04 0H113.732L135.72 135.6Z" fill="#FFE1C8"/>
<path id="Vector_75" d="M100.88 170.38C122.503 170.38 140.032 165.74 140.032 160.016C140.032 154.292 122.503 149.652 100.88 149.652C79.257 149.652 61.728 154.292 61.728 160.016C61.728 165.74 79.257 170.38 100.88 170.38Z" fill="#C6A58F"/>
<path id="Vector_76" d="M96.028 156.924C96.028 156.924 94.728 160.624 95.296 161.356C95.864 162.088 96.964 162.356 98.164 162.292C98.8467 162.251 99.4997 161.998 100.031 161.568C100.563 161.137 100.946 160.551 101.128 159.892C101.464 158.424 100.896 155.324 101.128 154.392C101.36 153.46 100.7 151.756 100.7 151.756L96.896 152.924L96.028 156.924Z" fill="#723D33"/>
<path id="Vector_77" d="M104.104 161.624C104.104 161.624 104.316 163.856 104.332 164.456C104.348 165.056 105.036 166.456 107.416 166.956C109.796 167.456 112.196 167.056 112.196 165.308C112.196 163.56 108.868 158.8 108.868 158.8L104.4 158.208L104.104 161.624Z" fill="#965B4D"/>
<path id="Vector_78" d="M102.4 124.056C102.4 124.056 101.4 132.156 102.9 142.956C104.4 153.756 104.4 157.028 104.4 157.028L108.152 157.624C108.152 157.624 108.7 150.356 108.7 142.756V123.556L102.4 124.056Z" fill="#723D33"/>
<path id="Vector_79" d="M93.096 48.6559L88.564 51.1919L93.096 76.1919H108.496L112.228 50.1919L103.696 47.1919L93.096 48.6559Z" fill="#B2715D"/>
<path id="Vector_80" d="M97.9159 42.8599C97.9159 42.8599 98.4 46.6078 97.2 48.5998C97.661 49.1329 98.2395 49.5516 98.8899 49.823C99.5403 50.0944 100.245 50.2111 100.948 50.1639C103.46 50.0679 104.124 48.8358 104.124 48.8358C104.124 48.8358 103.08 45.9918 103.412 43.6358C103.744 41.2798 97.9159 42.8599 97.9159 42.8599Z" fill="#EABE9D"/>
<path id="Vector_81" d="M105.332 32.9479C104.132 30.9239 100.716 30.7959 100.716 30.7959C100.716 30.7959 97.3 30.9239 96.096 32.9479C96.096 32.9479 94.96 33.7079 95.276 37.0599C95.592 40.4119 95.78 41.9919 96.096 42.3719C96.412 42.7519 98.896 45.0879 100.716 44.9639C102.548 45.0879 105.016 42.7479 105.332 42.3719C105.648 41.9959 105.836 40.4079 106.152 37.0599C106.468 33.7119 105.332 32.9479 105.332 32.9479Z" fill="#FFE1C8"/>
<path id="Vector_82" d="M103.972 33.7399C103.972 33.7399 103.844 35.0639 101.572 35.1599C99.2999 35.2559 98.8959 36.0239 98.1239 36.2679C97.3161 36.5357 96.4408 36.5188 95.6439 36.2199C95.6439 36.2199 95.4879 41.7719 96.0999 42.3719C96.7119 42.9719 97.9999 43.9719 97.9999 43.9719C97.9999 43.9719 98.6239 46.8199 98.2199 48.0079C97.8159 49.1959 97.6599 49.0679 97.6599 49.0679C97.6599 49.0679 97.8719 53.4439 94.8999 53.1599C91.9279 52.8759 91.8319 50.6639 91.8319 50.6639C91.0858 50.3847 90.4433 49.8833 89.9912 49.2273C89.5392 48.5714 89.2993 47.7925 89.3039 46.9959C89.1759 44.0519 92.7199 43.1679 93.0959 41.4919C93.4719 39.8159 93.5719 37.5399 93.4439 37.4439C93.1341 37.3658 92.8482 37.2125 92.6117 36.9976C92.3752 36.7827 92.1953 36.5129 92.0879 36.2119C92.0879 36.2119 90.3159 35.3599 90.8199 33.1119C91.3239 30.8639 93.2199 29.8879 95.0599 29.3839C96.8999 28.8799 98.4719 26.5839 101.352 26.5839C102.146 26.5676 102.928 26.7833 103.602 27.2046C104.275 27.6259 104.811 28.2345 105.144 28.9559C105.144 28.9559 107.388 29.4919 108.116 31.5479C108.844 33.6039 107.384 36.3999 107.384 36.3999C107.384 36.3999 107.228 40.3999 108.112 41.8359C108.996 43.2719 111.312 45.4719 110.832 47.2759C110.352 49.0799 109.6 49.1079 109.6 49.1079C109.6 49.1079 109.664 52.0479 107.796 52.5239C105.928 52.9999 103.74 51.7239 103.256 49.6039C102.772 47.4839 103.376 44.0039 103.376 44.0039C103.376 44.0039 104.668 42.9119 104.952 41.6039C105.236 40.2959 105.14 36.2279 105.14 36.2279C105.14 36.2279 103.6 35.7759 103.972 33.7399Z" fill="#723D33"/>
<path id="Vector_83" d="M109.564 124.8H93.096C93.096 124.8 87.564 105.2 88.564 94.6641C89.0595 89.6595 90.1085 84.7254 91.692 79.9521C92.388 77.8601 92.948 76.5401 93.072 76.2561V76.2041H108.476C108.476 76.2041 108.664 76.7881 108.96 77.8361C110.374 82.8371 111.459 87.9253 112.208 93.0681C113.564 102.4 109.564 124.8 109.564 124.8Z" fill="#D8983D"/>
<path id="Vector_84" d="M108.148 157.028C108.148 157.028 110.768 160.764 109.796 162.056C109.324 162.684 107.284 162.66 106.084 162.308C105.436 162.12 104.884 161.592 104.628 160.224C104.475 159.164 104.398 158.095 104.396 157.024L108.148 157.028Z" fill="#723D33"/>
<path id="Vector_85" d="M108.98 77.8241L108.696 77.7521C108.696 77.7521 94.724 76.2681 92.028 86.9521C89.332 97.6361 96 124.8 96 124.8H93.096C93.096 124.8 87.564 105.2 88.564 94.6641C89.0595 89.6595 90.1085 84.7254 91.692 79.9521L93.072 76.2561V76.2041H108.476C108.476 76.2041 108.684 76.7761 108.98 77.8241Z" fill="#BC7D33"/>
<path id="Vector_86" d="M93.896 124.8C93.896 124.8 96.644 148.916 96.796 151.064C96.948 153.212 96.096 156.364 96.496 156.864C96.896 157.364 99.696 157.632 100.096 156.932C100.496 156.232 100.42 153.332 100.62 152.8C100.82 152.268 100.896 139.416 100.472 134.316C100.048 129.216 99.844 126.4 99.844 126.4V124.8H93.896Z" fill="#723D33"/>
<path id="Vector_87" d="M109.228 76.1878L98.7481 77.6238L96.5641 77.9238L92.0281 60.1878L94.0041 59.8518L105.296 57.9238L109.228 76.1878Z" fill="#FFBE54"/>
<path id="Vector_88" d="M98.7481 77.624L96.5641 77.924L92.0281 60.188L94.0041 59.8521L98.7481 77.624Z" fill="#D8983D"/>
<path id="Vector_89" d="M103.696 68.1922C101.696 68.6402 93.416 68.6642 89.876 69.1722L90.696 61.6922L88.564 51.2002C88.564 51.2002 86.896 52.6002 86.164 55.6642C85.432 58.7282 83.964 70.6002 84.564 72.2642C84.8003 72.9939 85.2713 73.625 85.9037 74.0591C86.536 74.4932 87.2942 74.7059 88.06 74.6642C90.024 74.6642 104.564 71.6642 104.564 71.6642L103.696 68.1922Z" fill="#C17B5F"/>
<path id="Vector_90" d="M101.228 74.5239C103.372 73.3239 107.792 71.2079 111.564 69.5239L110.02 60.4519L112.228 50.1919C112.228 50.1919 113.828 51.3519 114.556 54.4159C115.284 57.4799 116.228 69.2479 116.156 71.0159C115.944 76.0559 101.608 77.7519 101.608 77.7519L101.228 74.5239Z" fill="#C17B5F"/>
<path id="Vector_91" d="M103.516 68.2281C103.516 68.2281 104.796 67.1321 105.472 66.5841C106.06 66.1661 106.777 65.9705 107.496 66.0321C107.796 66.0841 107.72 66.4561 107.196 66.7561C107.196 66.7561 109.472 66.5761 109.836 66.8681C110.2 67.1601 109.72 67.6681 109.72 67.6681C109.72 67.6681 110.144 67.9081 110.144 68.2561C110.144 68.6041 109.696 68.9841 109.696 68.9841C109.763 69.1132 109.794 69.2582 109.785 69.4034C109.775 69.5486 109.727 69.6885 109.644 69.8081C109.475 70.1966 109.238 70.5515 108.944 70.8561C108.52 71.2561 104.564 71.6561 104.564 71.6561C104.564 71.6561 103.94 70.5761 103.516 68.2281Z" fill="#FFE1C8"/>
<path id="Vector_92" d="M95.076 75.7282C95.076 75.7282 96.312 74.7282 96.78 74.3602C97.248 73.9922 101.228 74.5242 101.228 74.5242L101.964 77.5922C101.964 77.5922 98.228 79.3242 97.564 79.2922C97.1765 79.2925 96.792 79.2249 96.428 79.0922C96.296 79.0242 96.312 78.4762 96.312 78.4762C96.312 78.4762 95.944 78.4562 95.828 78.2402C95.754 78.0673 95.7199 77.88 95.728 77.6922C95.647 77.6888 95.5681 77.6655 95.4984 77.6243C95.4286 77.5832 95.37 77.5254 95.328 77.4562C95.08 76.9922 95.328 76.7562 95.328 76.7562C95.328 76.7562 94.544 76.6602 95.076 75.7282Z" fill="#FFE1C8"/>
<path id="Vector_93" d="M95.944 157.172C95.944 157.172 94.5 161.7 94.4 162.684C94.3 163.668 94.68 164.6 96.732 164.532C97.6437 164.509 98.5267 164.208 99.2624 163.669C99.9981 163.13 100.551 162.379 100.848 161.516C101.217 160.441 101.485 159.333 101.648 158.208C101.88 156.332 102.68 156.732 102.28 155.1C102.083 154.191 101.629 153.358 100.972 152.7C100.972 152.7 101.216 156.408 99.148 157.636C95.324 159.9 95.944 157.172 95.944 157.172Z" fill="#965B4D"/>
<path id="Vector_94" d="M89.532 69.3318L86.2 71.2918C86.2 71.2918 87.028 68.7318 89.532 69.3318Z" fill="#965B4D"/>
<path id="Vector_95" d="M88.8 52.3081L90.672 61.5081C90.672 61.5081 91.148 54.6521 88.8 52.3081Z" fill="#965B4D"/>
<path id="Vector_96" d="M111.852 51.2002L110 60.4002C110 60.4002 109.496 53.5322 111.852 51.2002Z" fill="#965B4D"/>
<path id="Vector_97" d="M111.852 70.1242L114.4 71.6562C114.4 71.6562 114.036 69.3242 111.852 70.1242Z" fill="#965B4D"/>
<path id="Vector_98" d="M95.3879 83.7759C95.3879 83.7759 100.724 100.8 101.228 112.268C101.228 112.268 104.776 95.1479 95.3879 83.7759Z" fill="#BC7D33"/>
<path id="Vector_99" d="M40.7721 163.732C40.7721 163.732 35.6761 167.036 34.4361 175.844C33.1961 184.652 33.4441 200.288 33.4441 200.288H51.8041L40.7721 163.732Z" fill="#FFE1C8"/>
<path id="Vector_100" d="M33.8999 140.952L93.9159 124.316L120.868 200.288H51.7999L33.8999 140.952Z" fill="#837296"/>
<path id="Vector_101" d="M40.5759 145.14L58.6119 140.116L65.3279 158.86L47.0919 164.556L40.5759 145.14Z" fill="#FFE1C8"/>
<path id="Vector_102" d="M60.352 154.868L61.348 160.124L60.996 160.232L51.404 163.208L48.908 158.836L50.68 156.868L55.636 154.584L60.288 154.868H60.352Z" fill="#B2715D"/>
<path id="Vector_103" d="M52.032 153.2C52.032 153.2 52.924 155.056 52.692 156.248C53.0006 156.45 53.3518 156.578 53.7181 156.623C54.0844 156.667 54.456 156.627 54.804 156.504C56.024 156.104 56.136 155.368 56.136 155.368C55.5555 154.604 55.1289 153.735 54.88 152.808C54.632 151.544 52.032 153.2 52.032 153.2Z" fill="#EABE9D"/>
<path id="Vector_104" d="M54 147.096C53.048 146.228 51.324 146.624 51.324 146.624C51.324 146.624 49.644 147.152 49.404 148.356C49.404 148.356 48.968 148.9 49.72 150.584C50.472 152.268 50.844 153.048 51.068 153.2C51.292 153.352 52.92 154.2 53.8 153.872C54.728 153.676 55.54 152.132 55.628 151.892C55.716 151.652 55.54 150.824 55.12 149.092C54.7 147.36 54 147.096 54 147.096Z" fill="#FFE1C8"/>
<path id="Vector_105" d="M53.4401 147.684C53.4401 147.684 53.6081 148.38 52.4921 148.74C51.3761 149.1 51.3121 149.54 50.9721 149.784C50.6097 150.034 50.1699 150.146 49.7321 150.1C49.7321 150.1 50.6361 152.98 51.0481 153.2C51.4601 153.42 52.2481 153.748 52.2481 153.748C52.2481 153.748 53.0481 155.12 53.0681 155.788C53.0881 156.456 52.9761 156.412 52.9761 156.412C52.9761 156.412 53.8521 158.624 52.3441 158.916C50.8361 159.208 50.4001 158.08 50.4001 158.08C49.9688 158.038 49.5591 157.872 49.2215 157.6C48.8839 157.329 48.6331 156.964 48.5001 156.552C47.9121 155.048 49.5001 154.088 49.3881 153.168C49.3069 152.434 49.1238 151.715 48.8441 151.032C48.6703 151.034 48.4984 150.995 48.3427 150.918C48.187 150.84 48.0517 150.727 47.9481 150.588C47.6239 150.505 47.3337 150.323 47.1185 150.067C46.9032 149.811 46.7737 149.493 46.7481 149.16C46.6001 147.928 47.3721 147.16 48.1961 146.66C49.0201 146.16 49.3961 144.756 50.8521 144.388C51.2649 144.281 51.6992 144.29 52.1072 144.414C52.5151 144.539 52.8809 144.773 53.1641 145.092C53.5327 145.095 53.8962 145.179 54.2291 145.337C54.5621 145.495 54.8566 145.724 55.0921 146.008C55.8081 146.952 55.5641 148.568 55.5641 148.568C55.5641 148.568 56.1761 150.628 56.8601 151.228C57.5441 151.828 59.0601 152.616 59.1321 153.596C59.2041 154.576 58.8401 154.7 58.8401 154.7C58.8401 154.7 59.3761 156.184 58.5401 156.7C57.7041 157.216 56.4121 156.884 55.8081 155.88C55.2041 154.876 54.8961 153.004 54.8961 153.004C55.1525 152.569 55.2788 152.069 55.2601 151.564C55.0422 150.625 54.7629 149.702 54.4241 148.8C54.4241 148.8 53.6001 148.776 53.4401 147.684Z" fill="#723D33"/>
<path id="Vector_106" d="M51.4041 163.2L51.3081 163.228L48.9761 163.956C48.7561 162.904 48.5761 162 48.5361 161.5C48.3893 160.592 48.5189 159.661 48.9081 158.828L51.4041 163.2Z" fill="#B2715D"/>
<path id="Vector_107" d="M63.5721 159.436L61.3481 160.124L60.9961 160.232L60.2881 154.868V154.76C61.0996 155.198 61.7708 155.857 62.2241 156.66C62.5201 157.172 63.0321 158.236 63.5721 159.436Z" fill="#B2715D"/>
<path id="Vector_108" d="M62.1399 140.432L92.1279 132.176L92.8639 133.876L62.7639 142.224L62.1399 140.432Z" fill="#E1E1FF"/>
<path id="Vector_109" d="M63.7041 145.18L93.6881 136.924L94.4241 138.628L64.3281 146.972L63.7041 145.18Z" fill="#E1E1FF"/>
<path id="Vector_110" d="M65.2639 149.932L95.2519 141.672L95.9879 143.376L65.8919 151.724L65.2639 149.932Z" fill="#E1E1FF"/>
<path id="Vector_111" d="M66.8281 154.68L96.8161 146.424L97.5521 148.128L67.4521 156.472L66.8281 154.68Z" fill="#E1E1FF"/>
<path id="Vector_112" d="M48.3279 167.936L100.04 153.028L100.784 154.728L48.9599 169.724L48.3279 167.936Z" fill="#E1E1FF"/>
<path id="Vector_113" d="M49.8879 172.58L101.6 157.676L102.344 159.376L50.5239 174.372L49.8879 172.58Z" fill="#E1E1FF"/>
<path id="Vector_114" d="M52.072 177.224L103.784 162.32L104.528 164.02L52.704 179.016L52.072 177.224Z" fill="#E1E1FF"/>
<path id="Vector_115" d="M53.9241 181.872L105.636 166.964L106.376 168.664L54.5561 183.66L53.9241 181.872Z" fill="#E1E1FF"/>
<path id="Vector_116" d="M55.4041 186.368L107.116 171.46L107.86 173.16L56.0401 188.156L55.4041 186.368Z" fill="#E1E1FF"/>
<path id="Vector_117" d="M45.8521 190.484C45.8521 190.484 55.9641 170.084 60.5721 169.6C65.1801 169.116 61.3721 183.66 58.8761 186.764C58.8761 186.764 57.6361 196.688 56.5201 200.288H43.6001L45.8521 190.484Z" fill="#FFE1C8"/>
<path id="Vector_118" d="M96.7639 186.68L102.472 189.48L106.94 178.94L104.62 177.84L101.152 185.66L98.0119 184L96.7639 186.68Z" fill="#D8983D"/>
<path id="Vector_119" d="M67.1279 191.436L67.8079 193.796L70.5359 192.996L69.8559 190.636L70.5919 190.424L72.2199 196.064L71.4839 196.276L70.7199 193.632L67.9919 194.432L68.7559 197.076L68.0279 197.284L66.3999 191.644L67.1279 191.436Z" fill="#FCEBBB"/>
<path id="Vector_120" d="M72.58 189.864L74.204 195.504L73.476 195.712L71.8521 190.072L72.58 189.864Z" fill="#FCEBBB"/>
<path id="Vector_121" d="M73.876 189.572C74.3134 189.356 74.7701 189.182 75.24 189.052C76.016 188.828 76.56 188.824 77.004 189.052C77.1885 189.147 77.3509 189.279 77.4805 189.441C77.6101 189.603 77.7039 189.791 77.756 189.992C77.8525 190.314 77.8415 190.659 77.7246 190.974C77.6077 191.29 77.3912 191.558 77.108 191.74V191.764C77.584 191.788 77.96 192.116 78.264 192.664C78.5137 193.164 78.8083 193.641 79.144 194.088L78.392 194.304C78.0968 193.916 77.8396 193.501 77.624 193.064C77.224 192.336 76.848 192.128 76.18 192.292L75.496 192.492L76.2 194.936L75.472 195.144L73.876 189.572ZM75.344 191.932L76.088 191.716C76.868 191.492 77.236 190.916 77.052 190.28C76.84 189.552 76.224 189.384 75.452 189.6C75.208 189.66 74.9728 189.752 74.752 189.872L75.344 191.932Z" fill="#FCEBBB"/>
<path id="Vector_122" d="M82.136 190.352L79.944 190.984L80.532 193.016L82.976 192.316L83.152 192.924L80 193.84L78.376 188.2L81.42 187.32L81.596 187.932L79.28 188.6L79.792 190.384L81.984 189.752L82.136 190.352Z" fill="#FCEBBB"/>
<path id="Vector_123" d="M82.488 187.088C82.9776 186.865 83.4829 186.677 84 186.528C85.048 186.224 85.86 186.252 86.488 186.572C86.834 186.754 87.1363 187.008 87.3739 187.319C87.6115 187.629 87.7788 187.987 87.864 188.368C88.0003 188.763 88.0546 189.182 88.0236 189.599C87.9927 190.016 87.8771 190.422 87.684 190.792C87.312 191.472 86.524 191.992 85.424 192.324C84.9835 192.453 84.5362 192.557 84.084 192.636L82.488 187.088ZM84.652 191.868C84.9057 191.832 85.1559 191.774 85.4 191.696C86.956 191.248 87.552 190.136 87.112 188.612C86.736 187.28 85.74 186.648 84.2 187.092C83.9123 187.171 83.6335 187.28 83.368 187.416L84.652 191.868Z" fill="#FCEBBB"/>
<path id="Vector_124" d="M56.5359 174.656L59.5839 176.056C59.5839 176.056 62.0399 172.092 60.6399 170.988C59.2399 169.884 56.5359 174.656 56.5359 174.656Z" fill="#EDCAB0"/>
</g>
</g>
</g>
<defs>
<clipPath id="clip0_7262_9569">
<rect width="200" height="200" rx="100" fill="white"/>
</clipPath>
</defs>
</svg>
