<svg width="100" height="100" viewBox="0 0 100 100" fill="none" xmlns="http://www.w3.org/2000/svg">
<g clip-path="url(#clip0_3975_25644)">
<path d="M52.6094 63.6025C51.1047 62.3238 48.8951 62.3238 47.3904 63.6025L5.8455 98.9113C6.56562 99.5848 7.53027 100 8.59394 100H91.406C92.4697 100 93.4344 99.5848 94.1545 98.9113L52.6094 63.6025Z" fill="#FFDC00"/>
<path d="M57.1326 67.4467L94.1547 98.9113C94.9412 98.176 95.4356 97.1322 95.4356 95.9705V40.8371L57.1326 67.4467Z" fill="#FFCE00"/>
<path d="M5.84551 98.9113L42.8674 67.4467L4.56465 40.8371V95.9707C4.56465 97.1322 5.05899 98.176 5.84551 98.9113Z" fill="#FFCE00"/>
<path d="M5.84551 98.9113L42.8674 67.4467L40.5217 65.817L4.58418 96.3602C4.68106 97.3644 5.14805 98.2592 5.84551 98.9113Z" fill="#FBBD00"/>
<path d="M94.1545 98.9113L57.1326 67.4467L59.4783 65.817L95.4158 96.3602C95.3187 97.3644 94.852 98.2592 94.1545 98.9113Z" fill="#FBBD00"/>
<path d="M16.0063 31.1129V48.7859L4.56465 40.8371L16.0063 31.1129Z" fill="#FF7E00"/>
<path d="M4.56465 40.8371L16.0063 48.7859V45.1594L6.91231 38.8418L4.56465 40.8371Z" fill="#FF6700"/>
<path d="M83.9938 31.1129V48.7859L95.4354 40.8371L83.9938 31.1129Z" fill="#FF7E00"/>
<path d="M83.9936 45.1594V48.7859L95.4354 40.8371L93.0875 38.8418L83.9936 45.1594Z" fill="#FF6700"/>
<path d="M42.8674 67.4467L47.3904 63.6025C48.8951 62.3238 51.1047 62.3238 52.6094 63.6025L57.1326 67.4467L83.9938 48.7859V1.00605C83.9938 0.450391 83.5434 0 82.9877 0H17.0123C16.4566 0 16.0063 0.450391 16.0063 1.00605V48.7857L42.8674 67.4467Z" fill="#FFF0C0"/>
<path d="M57.1326 63.8203L52.6094 59.9762C51.1047 58.6975 48.8951 58.6975 47.3904 59.9762L42.8672 63.8203L16.0063 45.1594V48.7857L42.8674 67.4465L47.3906 63.6023C48.8953 62.3236 51.1049 62.3236 52.6096 63.6023L57.1328 67.4465L83.9939 48.7857V45.1594L57.1326 63.8203Z" fill="#FFE394"/>
<path d="M52.343 16.4209L55.6754 22.0391C56.0578 22.684 56.6893 23.1426 57.4207 23.3072L63.7938 24.7404C65.8121 25.1943 66.6078 27.6436 65.2418 29.1971L60.9283 34.1025C60.4332 34.6656 60.192 35.4078 60.2617 36.1543L60.8682 42.6582C61.0602 44.718 58.9768 46.2318 57.0772 45.4127L51.0789 42.8262C50.3904 42.5293 49.61 42.5293 48.9215 42.8262L42.9233 45.4127C41.0236 46.2318 38.94 44.7182 39.1322 42.6582L39.7387 36.1543C39.8082 35.4078 39.5672 34.6656 39.0721 34.1025L34.7586 29.1971C33.3926 27.6436 34.1885 25.1943 36.2067 24.7404L42.5797 23.3072C43.3111 23.1428 43.9426 22.684 44.325 22.0391L47.6574 16.4209C48.7123 14.6416 51.2877 14.6416 52.343 16.4209Z" fill="#FFDC00"/>
<path d="M60.6551 40.374C60.0861 41.675 58.5283 42.4119 57.077 41.7859L51.0787 39.1994C50.3902 38.9025 49.6098 38.9025 48.9213 39.1994L42.923 41.7859C41.4715 42.4117 39.9139 41.675 39.3449 40.374L39.132 42.658C38.94 44.7178 41.0234 46.2316 42.923 45.4125L48.9213 42.826C49.6098 42.5291 50.3902 42.5291 51.0787 42.826L57.077 45.4125C58.9766 46.2316 61.0602 44.718 60.868 42.658L60.6551 40.374Z" fill="#FFBF00"/>
</g>
<defs>
<clipPath id="clip0_3975_25644">
<rect width="100" height="100" fill="white"/>
</clipPath>
</defs>
</svg>
