<svg width="200" height="200" viewBox="0 0 200 200" fill="none" xmlns="http://www.w3.org/2000/svg">
<g clip-path="url(#clip0_7263_16998)">
<path d="M200 0H0V200H200V0Z" fill="#FFBE54"/>
<path d="M200 135.6V200H0V135.6H65.272H135.72H200Z" fill="#D8983D"/>
<path d="M145.752 149.652C153.621 149.652 160 148.098 160 146.18C160 144.262 153.621 142.708 145.752 142.708C137.883 142.708 131.504 144.262 131.504 146.18C131.504 148.098 137.883 149.652 145.752 149.652Z" fill="#BC8037"/>
<path d="M142.488 49.5316C142.488 49.5316 140.432 49.4396 138.852 52.4436C137.272 55.4476 138.376 63.0676 138.376 63.0676H140.652V61.8316L141.052 63.0676H148.032L148.192 61.9916L148.476 63.0676H149.04L149.204 62.2676L149.472 63.0676H151.036C151.036 63.0676 153.096 52.6956 148.54 49.7236C145.524 47.7636 142.488 49.5316 142.488 49.5316Z" fill="#965B4D"/>
<path d="M143.244 144.02C143.244 144.02 143.096 145.584 143.084 146C143.072 146.416 142.592 147.4 140.928 147.752C139.264 148.104 137.584 147.82 137.584 146.596C137.584 145.372 139.912 142.052 139.912 142.052L143.044 141.632L143.244 144.02Z" fill="#723D33"/>
<path d="M144.44 117.744C144.844 122.15 144.726 126.587 144.088 130.964C143.04 138.516 143.04 140.804 143.04 140.804L140.4 141.224C140.4 141.224 140 136.14 140 130.824V117.396L144.44 117.744Z" fill="#965B4D"/>
<path d="M140.4 140.8C140.4 140.8 138.968 143.224 139.248 144.32C139.304 144.532 141.004 144.74 141.844 144.496C142.296 144.364 142.672 143.992 142.86 143.036C142.969 142.295 143.024 141.548 143.024 140.8H140.4Z" fill="#965B4D"/>
<path d="M147.176 143.528C147.176 143.528 147.328 145.092 147.336 145.508C147.344 145.924 147.828 146.908 149.492 147.26C151.156 147.612 152.836 147.328 152.836 146.104C152.836 144.88 150.508 141.56 150.508 141.56L147.376 141.16L147.176 143.528Z" fill="#723D33"/>
<path d="M146 117.252C145.598 121.658 145.716 126.095 146.352 130.472C147.4 138.028 147.4 140.316 147.4 140.316L150.024 140.716C150.024 140.716 150.424 135.632 150.424 130.316V116.904L146 117.252Z" fill="#965B4D"/>
<path d="M142.728 63.4922L136.78 65.2922L139.476 83.7762H150.248L152.86 65.5882L146.892 63.4922H142.728Z" fill="#965B4D"/>
<path d="M142.848 60.4638C142.848 60.4638 143.18 63.0838 142.352 64.4638C142.675 64.8359 143.079 65.1283 143.534 65.3184C143.988 65.5085 144.48 65.5911 144.972 65.5598C146.728 65.4918 147.196 64.6318 147.196 64.6318C147.196 64.6318 146.464 62.6318 146.696 60.9798C146.928 59.3278 142.848 60.4638 142.848 60.4638Z" fill="#EABE9D"/>
<path d="M148.036 53.5283C147.196 52.1163 144.804 52.0283 144.804 52.0283C144.804 52.0283 142.404 52.1163 141.576 53.5283C141.576 53.5283 140.776 54.0603 141 56.4043C141.224 58.7483 141.356 59.8563 141.576 60.1203C141.796 60.3843 143.524 62.0243 144.804 61.9323C146.088 62.0243 147.812 60.3843 148.036 60.1203C148.26 59.8563 148.388 58.7483 148.608 56.4043C148.828 54.0603 148.036 53.5283 148.036 53.5283Z" fill="#FFE1C8"/>
<path d="M139.476 83.7764C137.795 87.9038 136.727 92.2554 136.308 96.6924C135.608 104.056 139.476 117.768 139.476 117.768H150.996C150.996 117.768 153.796 102.1 152.86 95.5724C152.284 91.5808 151.411 87.6379 150.248 83.7764H139.476Z" fill="#B2715D"/>
<path d="M150 140.316C150 140.316 151.432 142.716 151.152 143.832C151.1 144.044 149.396 144.252 148.556 144.008C148.104 143.876 147.728 143.504 147.54 142.548C147.431 141.809 147.376 141.063 147.376 140.316H150Z" fill="#965B4D"/>
<path d="M136.8 65.292C136.8 65.292 134.312 67.46 134.864 71.976C135.416 76.492 138.368 84.516 138.368 84.516L142.884 96.224L146.204 95.024L141.16 81.564C141.16 81.564 138.992 67.2 136.8 65.292Z" fill="#D8983D"/>
<path d="M152.588 65.292C152.588 65.292 155.076 67.46 154.524 71.976C153.972 76.492 151.02 84.516 151.02 84.516L146.504 96.224L143.184 95.024L148.208 81.564C148.208 81.564 150.376 67.2 152.588 65.292Z" fill="#D8983D"/>
<path d="M143.264 94.8003C143.264 94.8003 142.556 97.2003 142.372 97.7843C142.188 98.3683 142.328 100.044 142.62 100.184C142.912 100.324 142.988 99.7203 142.928 99.3363C142.902 98.9818 142.922 98.6255 142.988 98.2763L143.184 98.3403C143.093 99.0279 143.093 99.7246 143.184 100.412C143.356 101.072 143.788 100.688 143.772 100.244C143.772 100.244 143.88 100.78 144.248 100.46C144.616 100.14 144.876 98.7843 144.876 98.7843C144.903 99.0502 144.903 99.3183 144.876 99.5843C144.832 99.8923 144.476 100.108 144.784 100.276C145.092 100.444 145.416 99.8323 145.492 99.6443C145.568 99.4563 145.736 98.2323 145.736 98.2323C145.736 98.2323 146.588 96.5123 146.572 96.0723C146.556 95.6323 144.468 94.5363 143.264 94.8003Z" fill="#FFE1C8"/>
<path d="M145.632 50.4323C144.612 49.9315 143.488 49.6806 142.352 49.7003C140.568 49.7683 137.232 53.6683 140.7 55.9323H142.032L142.352 54.4683L142.668 55.9323H145L145.368 54.5003L145.668 55.9323H146.232L146.5 54.5003L147 55.9323H148.968C148.968 55.9323 149.832 53.8683 148.968 52.1323C148.104 50.3963 145.632 50.4323 145.632 50.4323Z" fill="#965B4D"/>
<path d="M142.828 62.9678L144.828 65.5718C144.828 65.5718 144.028 66.7718 142.908 66.5998C141.788 66.4278 141.504 63.8638 141.504 63.8638L142.828 62.9678Z" fill="#D8983D"/>
<path d="M146.764 62.9678L144.764 65.5718C144.764 65.5718 145.564 66.7718 146.684 66.5998C147.804 66.4278 148.088 63.8638 148.088 63.8638L146.764 62.9678Z" fill="#D8983D"/>
<path d="M52.404 149.652C60.273 149.652 66.652 148.098 66.652 146.18C66.652 144.262 60.273 142.708 52.404 142.708C44.5351 142.708 38.156 144.262 38.156 146.18C38.156 148.098 44.5351 149.652 52.404 149.652Z" fill="#BC8037"/>
<path d="M51.432 139.796V142.48H47.788L47.376 139.796H51.432Z" fill="#965B4D"/>
<path d="M47.8519 142.072C47.8519 142.072 44.6079 145.092 43.3799 145.724C42.1519 146.356 42.4479 147.476 44.7559 147.588C47.0639 147.7 49.4559 146.584 50.2359 146.544C51.0159 146.504 51.9199 146.352 51.9879 146.06C52.3879 144.384 51.4319 142.06 51.4319 142.06L47.8519 142.072Z" fill="#723D33"/>
<path d="M54.9519 139.796V142.48H58.5959L59.0039 139.796H54.9519Z" fill="#965B4D"/>
<path d="M58.5319 142.072C58.5319 142.072 61.7759 145.092 63.0039 145.724C64.2319 146.356 63.9359 147.476 61.6239 147.588C59.3119 147.7 56.9279 146.584 56.1439 146.544C55.3599 146.504 54.4639 146.352 54.3919 146.06C53.9919 144.384 54.9519 142.06 54.9519 142.06L58.5319 142.072Z" fill="#723D33"/>
<path d="M44.0161 91.6758V104.508L46.5881 140.936H52.3081L51.8961 122.176V100.188L52.5321 99.8078L53.5481 140.936H59.7761L59.9001 98.5358L59.6481 91.6758H44.0161Z" fill="#B2715D"/>
<path d="M49.6881 64.2559L42.2361 65.9719L43.0361 90.5959C43.0516 91.0557 43.245 91.4916 43.5756 91.8117C43.9061 92.1318 44.348 92.3111 44.8081 92.3119H58.4561C58.9635 92.3066 59.45 92.1086 59.8169 91.758C60.1838 91.4075 60.4037 90.9305 60.4321 90.4239L61.5361 65.7199L53.4361 64.2559H49.6881Z" fill="#965B4D"/>
<path d="M49.5081 62.0723C49.5148 62.9915 49.3991 63.9076 49.1641 64.7963C49.9597 65.5163 50.9837 65.9328 52.0561 65.9723C53.7361 65.9723 54.0561 64.7963 54.0561 64.7963C53.8216 63.8092 53.746 62.7911 53.8321 61.7803L49.5081 62.0723Z" fill="#EABE9D"/>
<path d="M46.424 55.3682C46.1932 55.6988 46.0539 56.0845 46.0202 56.4863C45.9865 56.8881 46.0596 57.2917 46.232 57.6562C46.852 58.8562 47.66 58.8962 47.66 58.8962L47.2 55.6002L46.424 55.3682Z" fill="#FFE1C8"/>
<path d="M56.6719 55.3682C56.9016 55.6993 57.04 56.0852 57.073 56.4869C57.106 56.8886 57.0325 57.2919 56.8599 57.6562C56.2439 58.8562 55.4319 58.8962 55.4319 58.8962L55.8999 55.6082L56.6719 55.3682Z" fill="#FFE1C8"/>
<path d="M47.2 53.6921C47.2 53.6921 47.26 59.4121 47.716 60.2721C48.172 61.1321 50.176 62.9601 51.952 63.0201C53.728 63.0801 55.728 60.4441 55.784 59.5841C55.84 58.7241 56.64 52.7841 55.784 51.6881C54.928 50.5921 47.652 48.7721 47.2 53.6921Z" fill="#FFE1C8"/>
<path d="M55.104 50.4358C54.8506 49.8555 54.4711 49.3389 53.9929 48.9238C53.5148 48.5086 52.9501 48.2053 52.34 48.0358C50.308 47.5278 49.448 49.0838 48.4 48.9878C47.352 48.8918 45.924 49.7878 46 50.8318C46.076 51.8758 44.8 52.2278 45.24 53.8158C45.68 55.4038 47.24 56.2958 47.24 56.2958C47.24 56.2958 48.248 55.0958 48.184 54.1678C48.12 53.2398 48.376 52.8318 48.82 52.6078C49.264 52.3838 49.868 52.3238 51.044 52.6718C52.22 53.0198 54.572 52.7358 54.572 52.7358C54.572 52.7358 54.764 53.5358 55.372 53.7198C55.98 53.9038 55.592 55.5038 56.088 56.0118C56.088 56.0118 57.536 54.4518 57.536 53.6878C57.536 52.9238 57.6 50.6918 55.104 50.4358Z" fill="#965B4D"/>
<path d="M49.4399 63.3682L51.8799 65.9722L50.4319 67.0042L48.6079 64.5002L49.4399 63.3682Z" fill="#D8983D"/>
<path d="M63.9001 70.4C63.4321 67.112 61.3601 65.668 61.3601 65.668L60.8761 80.468H45.6001V84.088C45.6001 84.088 59.2721 86.488 63.7721 85.74C68.8401 84.9 64.2161 72.604 63.9001 70.4Z" fill="#D8983D"/>
<path d="M53.8441 63.3682L51.4041 65.9722L52.8481 67.0042L54.6761 64.5002L53.8441 63.3682Z" fill="#D8983D"/>
<path d="M56.5041 79.5997L42.8001 80.2517L42.2481 65.9717C42.2481 65.9717 40.1761 67.4197 39.7081 70.7077C39.3881 72.9317 35.5921 84.5077 40.6721 85.3517C45.1161 86.0877 57.3241 83.2437 57.3241 83.2437L56.5041 79.5997Z" fill="#D8983D"/>
<path d="M57.2439 82.7998C57.6606 82.81 58.0769 82.7697 58.4839 82.6798C59.0559 82.5358 60.9759 81.5598 61.5519 81.5358C62.1279 81.5118 61.9519 81.1358 61.8199 80.9398C61.7387 80.8152 61.6491 80.6963 61.5519 80.5838C61.4006 80.3357 61.235 80.0966 61.0559 79.8678C60.8353 79.5689 60.5976 79.2831 60.3439 79.0118C60.1205 78.8493 59.8658 78.7349 59.5959 78.6758C59.4839 78.6758 56.5039 79.7718 56.5039 79.7718L57.2439 82.7998Z" fill="#FFE1C8"/>
<path d="M46.8239 78.9516C46.0161 78.2371 45.168 77.5693 44.2839 76.9516C43.6799 76.6356 41.6919 76.8716 41.1519 77.3196C40.6119 77.7676 41.2159 77.8596 41.6119 77.7476C41.8616 77.679 42.1176 77.6361 42.3759 77.6196H42.7239L42.6959 77.8636C42.2749 77.9412 41.8603 78.0509 41.4559 78.1916C40.8199 78.4636 40.7079 78.8916 41.0239 78.9396C41.2845 78.9563 41.5459 78.9265 41.7959 78.8516C41.7959 78.8516 41.0719 79.2236 41.1839 79.4316C41.2959 79.6396 42.1119 79.5036 42.2359 79.4556C42.4389 79.3989 42.6495 79.3746 42.8599 79.3836C42.8599 79.3836 41.7239 79.6676 41.6279 80.0356C41.5319 80.4036 42.0679 80.3436 42.3679 80.3276C42.6679 80.3116 43.3759 80.2316 43.3759 80.2316L47.6719 80.0076C47.4114 79.6384 47.1282 79.2857 46.8239 78.9516Z" fill="#FFE1C8"/>
<path d="M20.8681 149.652C28.7371 149.652 35.1161 148.098 35.1161 146.18C35.1161 144.262 28.7371 142.708 20.8681 142.708C12.9992 142.708 6.62012 144.262 6.62012 146.18C6.62012 148.098 12.9992 149.652 20.8681 149.652Z" fill="#BC8037"/>
<path d="M16.752 56.3355C16.752 56.3355 14.416 56.9795 14.572 58.4875C14.728 59.9955 13.524 58.9795 13.432 60.7315C13.432 60.7315 11.988 61.5915 13.064 62.5115C14.14 63.4315 15.524 62.5715 15.892 62.5115C16.26 62.4515 17.12 63.3915 17.98 62.9355C18.84 62.4795 19.46 62.2035 20.304 62.6035C21.148 63.0035 22.896 62.9435 23.42 62.6035C23.944 62.2635 25.172 63.0035 26.22 62.8315C27.268 62.6595 27.264 62.5435 28.032 62.5715C28.8 62.5995 29.28 62.4515 29.3 61.5915C29.32 60.7315 28.74 60.3355 28.1 60.0875C28.1 60.0875 28.528 57.9955 27.484 57.3515C26.44 56.7075 25.58 56.2115 25.304 55.8435C25.028 55.4755 16.752 56.3355 16.752 56.3355Z" fill="#965B4D"/>
<path d="M19.6839 144.02C19.6839 144.02 19.5319 145.584 19.5239 146C19.5159 146.416 19.0319 147.4 17.3679 147.752C15.7039 148.104 14.0239 147.82 14.0239 146.596C14.0239 145.372 16.3479 142.052 16.3479 142.052L19.4839 141.632L19.6839 144.02Z" fill="#723D33"/>
<path d="M20.8759 117.744C21.2804 122.149 21.1636 126.587 20.5279 130.964C19.4799 138.516 19.4799 140.8 19.4799 140.8L16.8519 141.22C16.8519 141.22 16.4519 136.136 16.4519 130.82V117.396L20.8759 117.744Z" fill="#C17B5F"/>
<path d="M16.8521 140.8C16.8521 140.8 15.4201 143.224 15.7001 144.32C15.7561 144.532 17.4561 144.74 18.2961 144.496C18.7521 144.364 19.1281 143.992 19.3161 143.036C19.4227 142.295 19.4775 141.548 19.4801 140.8H16.8521Z" fill="#C17B5F"/>
<path d="M23.6001 143.528C23.6001 143.528 23.7521 145.092 23.7601 145.508C23.7681 145.924 24.2521 146.908 25.9201 147.26C27.5881 147.612 29.2601 147.328 29.2601 146.104C29.2601 144.88 26.9361 141.56 26.9361 141.56L23.8041 141.16L23.6001 143.528Z" fill="#723D33"/>
<path d="M22.4201 117.252C22.0156 121.657 22.1324 126.095 22.7681 130.472C23.8201 138.028 23.8201 140.316 23.8201 140.316L26.4441 140.716C26.4441 140.716 26.8441 135.632 26.8441 130.316V116.904L22.4201 117.252Z" fill="#C17B5F"/>
<path d="M19.164 63.4922L13.22 65.2922L15.916 83.7762H26.688L29.296 65.5882L23.328 63.4922H19.164Z" fill="#D8983D"/>
<path d="M19.2881 60.4638C19.2881 60.4638 19.6161 63.0838 18.7881 64.4638C19.111 64.8359 19.5154 65.1283 19.9698 65.3184C20.4243 65.5085 20.9165 65.5911 21.4081 65.5598C23.1681 65.4918 23.6321 64.6318 23.6321 64.6318C23.6321 64.6318 22.9041 62.6318 23.1361 60.9798C23.3681 59.3278 19.2881 60.4638 19.2881 60.4638Z" fill="#EABE9D"/>
<path d="M24.472 53.5283C23.632 52.1163 21.244 52.0283 21.244 52.0283C21.244 52.0283 18.844 52.1163 18.016 53.5283C18.016 53.5283 17.216 54.0603 17.44 56.4043C17.664 58.7483 17.792 59.8563 18.016 60.1203C18.24 60.3843 19.96 62.0243 21.244 61.9323C22.528 62.0243 24.252 60.3843 24.472 60.1203C24.692 59.8563 24.828 58.7483 25.048 56.4043C25.268 54.0603 24.472 53.5283 24.472 53.5283Z" fill="#FFE1C8"/>
<path d="M15.9161 83.7764C14.2342 87.9039 13.1656 92.2553 12.7441 96.6924C12.0441 104.056 15.9161 117.768 15.9161 117.768H27.4321C27.4321 117.768 30.2321 102.1 29.2961 95.5724C28.7203 91.5812 27.8486 87.6383 26.6881 83.7764H15.9161Z" fill="#965B4D"/>
<path d="M26.4441 140.316C26.4441 140.316 27.8761 142.716 27.5961 143.832C27.5401 144.044 25.8401 144.252 25.0001 144.008C24.5441 143.876 24.1681 143.504 23.9801 142.548C23.8741 141.809 23.8206 141.063 23.8201 140.316H26.4441Z" fill="#C17B5F"/>
<path d="M20.4719 49.6364C19.5466 49.6166 18.6212 49.6688 17.7039 49.7924C15.5519 50.0044 12.6039 52.6804 15.3999 54.7684C15.3999 54.7684 14.9999 56.7964 17.4959 56.9804C17.4959 56.9804 23.4119 56.2124 23.6319 53.4484C23.6319 53.4484 24.0319 56.3044 25.0879 56.8284C25.0879 56.8284 27.0159 54.6244 26.6159 52.7284C26.5413 52.217 26.318 51.7389 25.9737 51.3534C25.6295 50.968 25.1796 50.6922 24.6799 50.5604C24.6799 50.5604 22.8679 48.6524 20.4719 49.6364Z" fill="#965B4D"/>
<path d="M13.22 65.292C13.22 65.292 10.728 67.46 11.284 71.976C11.84 76.492 14.8 84.516 14.8 84.516L19.32 96.224L22.636 95.024L17.6 81.564C17.6 81.564 15.432 67.2 13.22 65.292Z" fill="#E5CB83"/>
<path d="M29.0241 65.292C29.0241 65.292 31.5121 67.46 30.9601 71.976C30.4081 76.492 27.4561 84.516 27.4561 84.516L22.9401 96.224L19.6201 95.024L24.6441 81.564C24.6441 81.564 26.8001 67.2 29.0241 65.292Z" fill="#E5CB83"/>
<path d="M19.704 94.8003C19.704 94.8003 18.996 97.2003 18.812 97.7843C18.628 98.3683 18.764 100.044 19.056 100.184C19.348 100.324 19.424 99.7203 19.364 99.3363C19.3401 98.9818 19.3602 98.6258 19.424 98.2763L19.62 98.3403C19.5288 99.0279 19.5288 99.7246 19.62 100.412C19.796 101.072 20.224 100.688 20.208 100.244C20.208 100.244 20.316 100.78 20.684 100.46C21.052 100.14 21.316 98.7843 21.316 98.7843C21.3411 99.0504 21.3411 99.3182 21.316 99.5843C21.268 99.8923 20.916 100.108 21.224 100.276C21.532 100.444 21.852 99.8323 21.928 99.6443C22.004 99.4563 22.176 98.2323 22.176 98.2323C22.176 98.2323 23.028 96.5123 23.008 96.0723C22.988 95.6323 20.904 94.5363 19.704 94.8003Z" fill="#FFE1C8"/>
<path d="M175.452 149.652C183.323 149.652 189.704 148.098 189.704 146.18C189.704 144.262 183.323 142.708 175.452 142.708C167.581 142.708 161.2 144.262 161.2 146.18C161.2 148.098 167.581 149.652 175.452 149.652Z" fill="#BC8037"/>
<path d="M173.792 139.796V142.48H170.152L169.74 139.796H173.792Z" fill="#965B4D"/>
<path d="M170.212 142.072C170.212 142.072 166.972 145.092 165.74 145.724C164.508 146.356 164.8 147.476 167.12 147.6C169.44 147.724 171.816 146.596 172.6 146.556C173.384 146.516 174.28 146.364 174.352 146.072C174.752 144.396 173.792 142.072 173.792 142.072H170.212Z" fill="#723D33"/>
<path d="M177.316 139.796V142.48H180.956L181.368 139.796H177.316Z" fill="#965B4D"/>
<path d="M180.892 142.072C180.892 142.072 184.136 145.092 185.368 145.724C186.6 146.356 186.3 147.476 183.988 147.588C181.676 147.7 179.292 146.584 178.508 146.544C177.724 146.504 176.828 146.352 176.756 146.06C176.356 144.384 177.316 142.06 177.316 142.06L180.892 142.072Z" fill="#723D33"/>
<path d="M166.38 91.6758V104.508L168.952 140.936H174.672L174.256 122.176V100.188L174.892 99.8078L175.908 140.936H182.136L182.264 98.5358L182.008 91.6758H166.38Z" fill="#965B4D"/>
<path d="M172.048 64.2559L164.6 65.9719L165.4 90.5959C165.416 91.0557 165.609 91.4916 165.94 91.8117C166.27 92.1318 166.712 92.3111 167.172 92.3119H180.82C181.329 92.3113 181.817 92.1148 182.185 91.7632C182.552 91.4115 182.769 90.9318 182.792 90.4239L183.9 65.7199L175.8 64.2559H172.048Z" fill="#D8983D"/>
<path d="M171.868 62.0723C171.877 62.9916 171.761 63.908 171.524 64.7963C172.32 65.5163 173.344 65.9328 174.416 65.9723C176.1 65.9723 176.416 64.7963 176.416 64.7963C176.182 63.8092 176.107 62.7909 176.196 61.7803L171.868 62.0723Z" fill="#EABE9D"/>
<path d="M168.8 55.3682C168.57 55.6993 168.432 56.0852 168.399 56.4869C168.366 56.8886 168.439 57.2919 168.612 57.6562C169.228 58.8562 170.04 58.8962 170.04 58.8962L169.556 55.6002L168.8 55.3682Z" fill="#FFE1C8"/>
<path d="M179.032 55.3682C179.263 55.6988 179.402 56.0845 179.436 56.4863C179.469 56.8881 179.396 57.2917 179.224 57.6562C178.604 58.8562 177.796 58.8962 177.796 58.8962L178.264 55.6082L179.032 55.3682Z" fill="#FFE1C8"/>
<path d="M169.556 53.6921C169.556 53.6921 169.612 59.4121 170.072 60.2721C170.532 61.1321 172.532 62.9601 174.304 63.0201C176.076 63.0801 178.08 60.4441 178.136 59.5841C178.192 58.7241 178.996 52.7841 178.136 51.6881C177.276 50.5921 170 48.7721 169.556 53.6921Z" fill="#FFE1C8"/>
<path d="M171.804 63.3682L174.24 65.9722L172.796 67.0042L170.972 64.5002L171.804 63.3682Z" fill="#965B4D"/>
<path d="M186.26 70.4C185.792 67.112 183.72 65.668 183.72 65.668L183.24 80.468H167.952V84.088C167.952 84.088 181.624 86.488 186.124 85.74C191.2 84.9 186.58 72.604 186.26 70.4Z" fill="#965B4D"/>
<path d="M176.204 63.3682L173.768 65.9722L175.212 67.0042L177.036 64.5002L176.204 63.3682Z" fill="#965B4D"/>
<path d="M178.868 79.5998L165.152 80.2478L164.6 65.9678C164.6 65.9678 162.528 67.4158 162.056 70.7038C161.74 72.9278 157.944 84.5038 163.024 85.3478C167.464 86.0838 179.676 83.2398 179.676 83.2398L178.868 79.5998Z" fill="#965B4D"/>
<path d="M179.6 82.7998C180.015 82.8099 180.43 82.7696 180.836 82.6798C181.408 82.5358 183.332 81.5598 183.908 81.5358C184.484 81.5118 184.308 81.1358 184.172 80.9398C184.093 80.8148 184.005 80.6958 183.908 80.5838C183.757 80.3357 183.591 80.0966 183.412 79.8678C183.191 79.5679 182.952 79.2821 182.696 79.0118C182.474 78.8498 182.221 78.7354 181.952 78.6758C181.84 78.6758 178.86 79.7718 178.86 79.7718L179.6 82.7998Z" fill="#FFE1C8"/>
<path d="M169.2 78.9516C168.392 78.2362 167.542 77.5685 166.656 76.9516C166.052 76.6356 164.068 76.8716 163.528 77.3196C162.988 77.7676 163.592 77.8596 163.988 77.7476C164.238 77.6787 164.494 77.6358 164.752 77.6196H165.1L165.072 77.8636C164.65 77.9416 164.234 78.0512 163.828 78.1916C163.192 78.4636 163.084 78.8916 163.4 78.9396C163.661 78.9559 163.922 78.9262 164.172 78.8516C164.172 78.8516 163.448 79.2236 163.56 79.4316C163.672 79.6396 164.488 79.5036 164.612 79.4556C164.815 79.3989 165.026 79.3746 165.236 79.3836C165.236 79.3836 164.1 79.6676 164.004 80.0356C163.908 80.4036 164.44 80.3436 164.744 80.3276C165.048 80.3116 165.752 80.2316 165.752 80.2316L170.048 80.0076C169.788 79.6384 169.504 79.2857 169.2 78.9516Z" fill="#FFE1C8"/>
<path d="M169.556 56.7284C169.556 56.7284 167.768 54.3284 167.9 52.4324C168.032 50.5364 169.032 50.2684 169.032 50.2684C169.032 50.2684 169.032 49.2004 170.832 48.5324C172.632 47.8644 177.064 49.2324 178.532 49.5004C180 49.7684 180.832 49.3684 181.068 50.0324C181.304 50.6964 180.468 51.6004 180.468 51.6004C180.468 51.6004 181 51.7124 180.9 52.5404C180.8 53.3684 179.7 53.6324 179.7 53.6324C179.642 54.7006 179.19 55.7093 178.432 56.4644C178.136 55.5071 177.923 54.5262 177.796 53.5324C177.796 53.5324 172.652 53.9684 171.524 52.9004C171.524 52.9004 171.124 54.2324 170.168 54.4684C170.168 54.4684 170.076 55.9564 169.556 56.7284Z" fill="#965B4D"/>
<path d="M140.032 160.016L62.0879 158.612L65.2719 135.6H135.72L140.032 160.016Z" fill="#E0C0A9"/>
<path d="M135.72 135.6H65.272L84.04 0H113.732L135.72 135.6Z" fill="#FFE1C8"/>
<path d="M100.88 170.38C122.503 170.38 140.032 165.74 140.032 160.016C140.032 154.292 122.503 149.652 100.88 149.652C79.257 149.652 61.728 154.292 61.728 160.016C61.728 165.74 79.257 170.38 100.88 170.38Z" fill="#C6A58F"/>
<path d="M96.028 156.924C96.028 156.924 94.728 160.624 95.296 161.356C95.864 162.088 96.964 162.356 98.164 162.292C98.8467 162.251 99.4997 161.998 100.031 161.568C100.563 161.137 100.946 160.551 101.128 159.892C101.464 158.424 100.896 155.324 101.128 154.392C101.36 153.46 100.7 151.756 100.7 151.756L96.896 152.924L96.028 156.924Z" fill="#723D33"/>
<path d="M104.104 161.624C104.104 161.624 104.316 163.856 104.332 164.456C104.348 165.056 105.036 166.456 107.416 166.956C109.796 167.456 112.196 167.056 112.196 165.308C112.196 163.56 108.868 158.8 108.868 158.8L104.4 158.208L104.104 161.624Z" fill="#965B4D"/>
<path d="M102.4 124.056C102.4 124.056 101.4 132.156 102.9 142.956C104.4 153.756 104.4 157.028 104.4 157.028L108.152 157.624C108.152 157.624 108.7 150.356 108.7 142.756V123.556L102.4 124.056Z" fill="#723D33"/>
<path d="M93.096 48.6564L88.564 51.1924L93.096 76.1924H108.496L112.228 50.1924L103.696 47.1924L93.096 48.6564Z" fill="#B2715D"/>
<path d="M97.9159 42.8603C97.9159 42.8603 98.4 46.6083 97.2 48.6003C97.661 49.1334 98.2395 49.5521 98.8899 49.8235C99.5403 50.0949 100.245 50.2116 100.948 50.1643C103.46 50.0683 104.124 48.8363 104.124 48.8363C104.124 48.8363 103.08 45.9923 103.412 43.6363C103.744 41.2803 97.9159 42.8603 97.9159 42.8603Z" fill="#EABE9D"/>
<path d="M105.332 32.9479C104.132 30.9239 100.716 30.7959 100.716 30.7959C100.716 30.7959 97.3 30.9239 96.096 32.9479C96.096 32.9479 94.96 33.7079 95.276 37.0599C95.592 40.4119 95.78 41.9919 96.096 42.3719C96.412 42.7519 98.896 45.0879 100.716 44.9639C102.548 45.0879 105.016 42.7479 105.332 42.3719C105.648 41.9959 105.836 40.4079 106.152 37.0599C106.468 33.7119 105.332 32.9479 105.332 32.9479Z" fill="#FFE1C8"/>
<path d="M103.972 33.7399C103.972 33.7399 103.844 35.0639 101.572 35.1599C99.2999 35.2559 98.8959 36.0239 98.1239 36.2679C97.3161 36.5357 96.4408 36.5188 95.6439 36.2199C95.6439 36.2199 95.4879 41.7719 96.0999 42.3719C96.7119 42.9719 97.9999 43.9719 97.9999 43.9719C97.9999 43.9719 98.6239 46.8199 98.2199 48.0079C97.8159 49.1959 97.6599 49.0679 97.6599 49.0679C97.6599 49.0679 97.8719 53.4439 94.8999 53.1599C91.9279 52.8759 91.8319 50.6639 91.8319 50.6639C91.0858 50.3847 90.4433 49.8833 89.9912 49.2273C89.5392 48.5714 89.2993 47.7925 89.3039 46.9959C89.1759 44.0519 92.7199 43.1679 93.0959 41.4919C93.4719 39.8159 93.5719 37.5399 93.4439 37.4439C93.1341 37.3658 92.8482 37.2125 92.6117 36.9976C92.3752 36.7827 92.1953 36.5129 92.0879 36.2119C92.0879 36.2119 90.3159 35.3599 90.8199 33.1119C91.3239 30.8639 93.2199 29.8879 95.0599 29.3839C96.8999 28.8799 98.4719 26.5839 101.352 26.5839C102.146 26.5676 102.928 26.7833 103.602 27.2046C104.275 27.6259 104.811 28.2345 105.144 28.9559C105.144 28.9559 107.388 29.4919 108.116 31.5479C108.844 33.6039 107.384 36.3999 107.384 36.3999C107.384 36.3999 107.228 40.3999 108.112 41.8359C108.996 43.2719 111.312 45.4719 110.832 47.2759C110.352 49.0799 109.6 49.1079 109.6 49.1079C109.6 49.1079 109.664 52.0479 107.796 52.5239C105.928 52.9999 103.74 51.7239 103.256 49.6039C102.772 47.4839 103.376 44.0039 103.376 44.0039C103.376 44.0039 104.668 42.9119 104.952 41.6039C105.236 40.2959 105.14 36.2279 105.14 36.2279C105.14 36.2279 103.6 35.7759 103.972 33.7399Z" fill="#723D33"/>
<path d="M109.564 124.8H93.096C93.096 124.8 87.564 105.2 88.564 94.6641C89.0595 89.6595 90.1085 84.7254 91.692 79.9521C92.388 77.8601 92.948 76.5401 93.072 76.2561V76.2041H108.476C108.476 76.2041 108.664 76.7881 108.96 77.8361C110.374 82.8371 111.459 87.9253 112.208 93.0681C113.564 102.4 109.564 124.8 109.564 124.8Z" fill="#D8983D"/>
<path d="M108.148 157.028C108.148 157.028 110.768 160.764 109.796 162.056C109.324 162.684 107.284 162.66 106.084 162.308C105.436 162.12 104.884 161.592 104.628 160.224C104.475 159.165 104.398 158.095 104.396 157.024L108.148 157.028Z" fill="#723D33"/>
<path d="M108.98 77.8241L108.696 77.7521C108.696 77.7521 94.724 76.2681 92.028 86.9521C89.332 97.6361 96 124.8 96 124.8H93.096C93.096 124.8 87.564 105.2 88.564 94.6641C89.0595 89.6595 90.1085 84.7254 91.692 79.9521L93.072 76.2561V76.2041H108.476C108.476 76.2041 108.684 76.7761 108.98 77.8241Z" fill="#BC7D33"/>
<path d="M93.896 124.8C93.896 124.8 96.644 148.916 96.796 151.064C96.948 153.212 96.096 156.364 96.496 156.864C96.896 157.364 99.696 157.632 100.096 156.932C100.496 156.232 100.42 153.332 100.62 152.8C100.82 152.268 100.896 139.416 100.472 134.316C100.048 129.216 99.844 126.4 99.844 126.4V124.8H93.896Z" fill="#723D33"/>
<path d="M109.228 76.1878L98.7481 77.6238L96.5641 77.9238L92.0281 60.1878L94.0041 59.8518L105.296 57.9238L109.228 76.1878Z" fill="#FFBE54"/>
<path d="M98.7481 77.6236L96.5641 77.9236L92.0281 60.1876L94.0041 59.8516L98.7481 77.6236Z" fill="#D8983D"/>
<path d="M103.696 68.1922C101.696 68.6402 93.416 68.6642 89.876 69.1722L90.696 61.6922L88.564 51.2002C88.564 51.2002 86.896 52.6002 86.164 55.6642C85.432 58.7282 83.964 70.6002 84.564 72.2642C84.8003 72.9939 85.2713 73.625 85.9037 74.0591C86.536 74.4932 87.2942 74.7059 88.06 74.6642C90.024 74.6642 104.564 71.6642 104.564 71.6642L103.696 68.1922Z" fill="#C17B5F"/>
<path d="M101.228 74.5244C103.372 73.3244 107.792 71.2084 111.564 69.5244L110.02 60.4524L112.228 50.1924C112.228 50.1924 113.828 51.3524 114.556 54.4164C115.284 57.4804 116.228 69.2484 116.156 71.0164C115.944 76.0564 101.608 77.7524 101.608 77.7524L101.228 74.5244Z" fill="#C17B5F"/>
<path d="M103.516 68.2277C103.516 68.2277 104.796 67.1316 105.472 66.5836C106.06 66.1656 106.777 65.97 107.496 66.0316C107.796 66.0836 107.72 66.4556 107.196 66.7556C107.196 66.7556 109.472 66.5756 109.836 66.8676C110.2 67.1596 109.72 67.6676 109.72 67.6676C109.72 67.6676 110.144 67.9076 110.144 68.2556C110.144 68.6036 109.696 68.9836 109.696 68.9836C109.763 69.1127 109.794 69.2577 109.785 69.4029C109.775 69.5481 109.727 69.688 109.644 69.8076C109.475 70.1961 109.238 70.551 108.944 70.8556C108.52 71.2556 104.564 71.6556 104.564 71.6556C104.564 71.6556 103.94 70.5757 103.516 68.2277Z" fill="#FFE1C8"/>
<path d="M95.076 75.7282C95.076 75.7282 96.312 74.7282 96.78 74.3602C97.248 73.9922 101.228 74.5242 101.228 74.5242L101.964 77.5922C101.964 77.5922 98.228 79.3242 97.564 79.2922C97.1765 79.2925 96.792 79.2249 96.428 79.0922C96.296 79.0242 96.312 78.4762 96.312 78.4762C96.312 78.4762 95.944 78.4562 95.828 78.2402C95.754 78.0673 95.7199 77.88 95.728 77.6922C95.647 77.6888 95.5681 77.6655 95.4984 77.6243C95.4286 77.5832 95.37 77.5254 95.328 77.4562C95.08 76.9922 95.328 76.7562 95.328 76.7562C95.328 76.7562 94.544 76.6602 95.076 75.7282Z" fill="#FFE1C8"/>
<path d="M95.944 157.172C95.944 157.172 94.5 161.7 94.4 162.684C94.3 163.668 94.68 164.6 96.732 164.532C97.6437 164.509 98.5267 164.208 99.2624 163.669C99.9981 163.13 100.551 162.379 100.848 161.516C101.217 160.441 101.485 159.333 101.648 158.208C101.88 156.332 102.68 156.732 102.28 155.1C102.083 154.191 101.629 153.358 100.972 152.7C100.972 152.7 101.216 156.408 99.148 157.636C95.324 159.9 95.944 157.172 95.944 157.172Z" fill="#965B4D"/>
<path d="M89.532 69.3323L86.2 71.2923C86.2 71.2923 87.028 68.7323 89.532 69.3323Z" fill="#965B4D"/>
<path d="M88.8 52.3076L90.672 61.5076C90.672 61.5076 91.148 54.6516 88.8 52.3076Z" fill="#965B4D"/>
<path d="M111.852 51.2002L110 60.4002C110 60.4002 109.496 53.5322 111.852 51.2002Z" fill="#965B4D"/>
<path d="M111.852 70.1242L114.4 71.6562C114.4 71.6562 114.036 69.3242 111.852 70.1242Z" fill="#965B4D"/>
<path d="M95.3879 83.7764C95.3879 83.7764 100.724 100.8 101.228 112.268C101.228 112.268 104.776 95.1484 95.3879 83.7764Z" fill="#BC7D33"/>
<path d="M40.7721 163.732C40.7721 163.732 35.6761 167.036 34.4361 175.844C33.1961 184.652 33.4441 200.288 33.4441 200.288H51.8041L40.7721 163.732Z" fill="#FFE1C8"/>
<path d="M33.8999 140.952L93.9159 124.316L120.868 200.288H51.7999L33.8999 140.952Z" fill="#837296"/>
<path d="M40.5759 145.14L58.6119 140.116L65.3279 158.86L47.0919 164.556L40.5759 145.14Z" fill="#FFE1C8"/>
<path d="M60.352 154.868L61.348 160.124L60.996 160.232L51.404 163.208L48.908 158.836L50.68 156.868L55.636 154.584L60.288 154.868H60.352Z" fill="#B2715D"/>
<path d="M52.032 153.2C52.032 153.2 52.924 155.056 52.692 156.248C53.0006 156.45 53.3518 156.578 53.7181 156.622C54.0844 156.667 54.456 156.626 54.804 156.504C56.024 156.104 56.136 155.368 56.136 155.368C55.5555 154.604 55.1289 153.734 54.88 152.808C54.632 151.544 52.032 153.2 52.032 153.2Z" fill="#EABE9D"/>
<path d="M54 147.096C53.048 146.228 51.324 146.624 51.324 146.624C51.324 146.624 49.644 147.152 49.404 148.356C49.404 148.356 48.968 148.9 49.72 150.584C50.472 152.268 50.844 153.048 51.068 153.2C51.292 153.352 52.92 154.2 53.8 153.872C54.728 153.676 55.54 152.132 55.628 151.892C55.716 151.652 55.54 150.824 55.12 149.092C54.7 147.36 54 147.096 54 147.096Z" fill="#FFE1C8"/>
<path d="M53.4401 147.684C53.4401 147.684 53.6081 148.38 52.4921 148.74C51.3761 149.1 51.3121 149.54 50.9721 149.784C50.6097 150.034 50.1699 150.146 49.7321 150.1C49.7321 150.1 50.6361 152.98 51.0481 153.2C51.4601 153.42 52.2481 153.748 52.2481 153.748C52.2481 153.748 53.0481 155.12 53.0681 155.788C53.0881 156.456 52.9761 156.412 52.9761 156.412C52.9761 156.412 53.8521 158.624 52.3441 158.916C50.8361 159.208 50.4001 158.08 50.4001 158.08C49.9688 158.039 49.5591 157.872 49.2215 157.601C48.8839 157.329 48.6331 156.965 48.5001 156.552C47.9121 155.048 49.5001 154.088 49.3881 153.168C49.3069 152.435 49.1238 151.716 48.8441 151.032C48.6703 151.034 48.4984 150.995 48.3427 150.918C48.187 150.841 48.0517 150.728 47.9481 150.588C47.6239 150.506 47.3337 150.323 47.1185 150.067C46.9032 149.811 46.7737 149.494 46.7481 149.16C46.6001 147.928 47.3721 147.16 48.1961 146.66C49.0201 146.16 49.3961 144.756 50.8521 144.388C51.2649 144.281 51.6992 144.291 52.1072 144.415C52.5151 144.539 52.8809 144.774 53.1641 145.092C53.5327 145.096 53.8962 145.179 54.2291 145.338C54.5621 145.496 54.8566 145.725 55.0921 146.008C55.8081 146.952 55.5641 148.568 55.5641 148.568C55.5641 148.568 56.1761 150.628 56.8601 151.228C57.5441 151.828 59.0601 152.616 59.1321 153.596C59.2041 154.576 58.8401 154.7 58.8401 154.7C58.8401 154.7 59.3761 156.184 58.5401 156.7C57.7041 157.216 56.4121 156.884 55.8081 155.88C55.2041 154.876 54.8961 153.004 54.8961 153.004C55.1525 152.569 55.2788 152.069 55.2601 151.564C55.0422 150.626 54.7629 149.702 54.4241 148.8C54.4241 148.8 53.6001 148.776 53.4401 147.684Z" fill="#723D33"/>
<path d="M51.4041 163.2L51.3081 163.228L48.9761 163.956C48.7561 162.904 48.5761 162 48.5361 161.5C48.3893 160.592 48.5189 159.661 48.9081 158.828L51.4041 163.2Z" fill="#B2715D"/>
<path d="M63.5721 159.436L61.3481 160.124L60.9961 160.232L60.2881 154.868V154.76C61.0996 155.198 61.7708 155.857 62.2241 156.66C62.5201 157.172 63.0321 158.236 63.5721 159.436Z" fill="#B2715D"/>
<path d="M62.1399 140.432L92.1279 132.176L92.8639 133.876L62.7639 142.224L62.1399 140.432Z" fill="#E1E1FF"/>
<path d="M63.7041 145.18L93.6881 136.924L94.4241 138.628L64.3281 146.972L63.7041 145.18Z" fill="#E1E1FF"/>
<path d="M65.2639 149.932L95.2519 141.672L95.9879 143.376L65.8919 151.724L65.2639 149.932Z" fill="#E1E1FF"/>
<path d="M66.8281 154.68L96.8161 146.424L97.5521 148.128L67.4521 156.472L66.8281 154.68Z" fill="#E1E1FF"/>
<path d="M48.3279 167.936L100.04 153.028L100.784 154.728L48.9599 169.724L48.3279 167.936Z" fill="#E1E1FF"/>
<path d="M49.8879 172.58L101.6 157.676L102.344 159.376L50.5239 174.372L49.8879 172.58Z" fill="#E1E1FF"/>
<path d="M52.072 177.224L103.784 162.32L104.528 164.02L52.704 179.016L52.072 177.224Z" fill="#E1E1FF"/>
<path d="M53.9241 181.872L105.636 166.964L106.376 168.664L54.5561 183.66L53.9241 181.872Z" fill="#E1E1FF"/>
<path d="M55.4041 186.368L107.116 171.46L107.86 173.16L56.0401 188.156L55.4041 186.368Z" fill="#E1E1FF"/>
<path d="M45.8521 190.484C45.8521 190.484 55.9641 170.084 60.5721 169.6C65.1801 169.116 61.3721 183.66 58.8761 186.764C58.8761 186.764 57.6361 196.688 56.5201 200.288H43.6001L45.8521 190.484Z" fill="#FFE1C8"/>
<path d="M96.7639 186.68L102.472 189.48L106.94 178.94L104.62 177.84L101.152 185.66L98.0119 184L96.7639 186.68Z" fill="#D8983D"/>
<path d="M67.1279 191.436L67.8079 193.796L70.5359 192.996L69.8559 190.636L70.5919 190.424L72.2199 196.064L71.4839 196.276L70.7199 193.632L67.9919 194.432L68.7559 197.076L68.0279 197.284L66.3999 191.644L67.1279 191.436Z" fill="#FCEBBB"/>
<path d="M72.58 189.864L74.204 195.504L73.476 195.712L71.8521 190.072L72.58 189.864Z" fill="#FCEBBB"/>
<path d="M73.876 189.572C74.3134 189.357 74.7701 189.183 75.24 189.052C76.016 188.828 76.56 188.824 77.004 189.052C77.1885 189.147 77.3509 189.28 77.4805 189.442C77.6101 189.604 77.7039 189.791 77.756 189.992C77.8525 190.315 77.8415 190.659 77.7246 190.975C77.6077 191.29 77.3912 191.559 77.108 191.74V191.764C77.584 191.788 77.96 192.116 78.264 192.664C78.5137 193.165 78.8083 193.641 79.144 194.088L78.392 194.304C78.0968 193.917 77.8396 193.501 77.624 193.064C77.224 192.336 76.848 192.128 76.18 192.292L75.496 192.492L76.2 194.936L75.472 195.144L73.876 189.572ZM75.344 191.932L76.088 191.716C76.868 191.492 77.236 190.916 77.052 190.28C76.84 189.552 76.224 189.384 75.452 189.6C75.208 189.661 74.9728 189.752 74.752 189.872L75.344 191.932Z" fill="#FCEBBB"/>
<path d="M82.136 190.352L79.944 190.984L80.532 193.016L82.976 192.316L83.152 192.924L80 193.84L78.376 188.2L81.42 187.32L81.596 187.932L79.28 188.6L79.792 190.384L81.984 189.752L82.136 190.352Z" fill="#FCEBBB"/>
<path d="M82.488 187.088C82.9776 186.865 83.4829 186.677 84 186.528C85.048 186.224 85.86 186.252 86.488 186.572C86.834 186.754 87.1363 187.008 87.3739 187.319C87.6115 187.629 87.7788 187.987 87.864 188.368C88.0003 188.763 88.0546 189.182 88.0236 189.599C87.9927 190.016 87.8771 190.422 87.684 190.792C87.312 191.472 86.524 191.992 85.424 192.324C84.9835 192.453 84.5362 192.557 84.084 192.636L82.488 187.088ZM84.652 191.868C84.9057 191.832 85.1559 191.774 85.4 191.696C86.956 191.248 87.552 190.136 87.112 188.612C86.736 187.28 85.74 186.648 84.2 187.092C83.9123 187.171 83.6335 187.28 83.368 187.416L84.652 191.868Z" fill="#FCEBBB"/>
<path d="M56.5359 174.656L59.5839 176.056C59.5839 176.056 62.0399 172.092 60.6399 170.988C59.2399 169.884 56.5359 174.656 56.5359 174.656Z" fill="#EDCAB0"/>
<rect width="500" height="500" fill="black" style="mix-blend-mode:color"/>
</g>
<defs>
<clipPath id="clip0_7263_16998">
<rect width="200" height="200" rx="100" fill="white"/>
</clipPath>
</defs>
</svg>
