<svg width="24" height="24" viewBox="0 0 24 24" fill="none" xmlns="http://www.w3.org/2000/svg">
<path d="M1 8.6125V3.5125C1 2.125 2.125 1 3.5125 1L8.6125 1C10 1 11.125 2.125 11.125 3.5125V10.375C11.125 10.7875 10.7875 11.125 10.375 11.125H3.5125C2.125 11.125 1 10 1 8.6125ZM9.37704 3.5125C9.37704 2.95 9.175 2.75 8.6125 2.75L3.5125 2.75C2.95 2.75 2.75 2.95 2.75 3.5125V8.6125C2.75 9.175 2.95 9.42174 3.5125 9.42174H9.37704V3.5125Z" fill="#46485C"/>
<path d="M15.4373 1H20.5373C21.9248 1 23.0498 2.125 23.0498 3.5125V8.6125C23.0498 10 21.9248 11.125 20.5373 11.125L13.6748 11.125C13.2623 11.125 12.9248 10.7875 12.9248 10.375V3.5125C12.9248 2.125 14.0498 1 15.4373 1ZM20.5373 9.37704C21.0998 9.37704 21.2998 9.175 21.2998 8.6125V3.5125C21.2998 2.95 21.0998 2.75 20.5373 2.75H15.4373C14.8748 2.75 14.6281 2.95 14.6281 3.5125V9.37704H20.5373Z" fill="#46485C"/>
<path d="M8.6125 22.25H3.5125C2.125 22.25 1 21.125 1 19.7375V14.6375C1 13.25 2.125 12.125 3.5125 12.125H10.375C10.7875 12.125 11.125 12.4625 11.125 12.875V19.7375C11.125 21.125 10 22.25 8.6125 22.25ZM3.5125 13.873C2.95 13.873 2.75 14.075 2.75 14.6375V19.7375C2.75 20.3 2.95 20.5 3.5125 20.5H8.6125C9.175 20.5 9.42174 20.3 9.42174 19.7375V13.873H3.5125Z" fill="#46485C"/>
<path d="M23.0498 14.6375V19.7375C23.0498 21.125 21.9248 22.25 20.5373 22.25H15.4373C14.0498 22.25 12.9248 21.125 12.9248 19.7375L12.9248 12.875C12.9248 12.4625 13.2623 12.125 13.6748 12.125L20.5373 12.125C21.9248 12.125 23.0498 13.25 23.0498 14.6375ZM14.6728 19.7375C14.6728 20.3 14.8748 20.5 15.4373 20.5H20.5373C21.0998 20.5 21.2998 20.3 21.2998 19.7375V14.6375C21.2998 14.075 21.0998 13.8283 20.5373 13.8283L14.6728 13.8283L14.6728 19.7375Z" fill="#46485C"/>
</svg>
