<svg width="24" height="24" viewBox="0 0 24 24" fill="none" xmlns="http://www.w3.org/2000/svg">
<path d="M21.1667 20.3333H6.16667C5.50363 20.3333 4.86774 20.0699 4.3989 19.6011C3.93006 19.1323 3.66667 18.4964 3.66667 17.8333V2.83333C3.66667 2.61232 3.57887 2.40036 3.42259 2.24408C3.26631 2.0878 3.05435 2 2.83333 2C2.61232 2 2.40036 2.0878 2.24408 2.24408C2.0878 2.40036 2 2.61232 2 2.83333V17.8333C2.00132 18.938 2.44073 19.997 3.22185 20.7782C4.00296 21.5593 5.062 21.9987 6.16667 22H21.1667C21.3877 22 21.5996 21.9122 21.7559 21.7559C21.9122 21.5996 22 21.3877 22 21.1667C22 20.9457 21.9122 20.7337 21.7559 20.5774C21.5996 20.4211 21.3877 20.3333 21.1667 20.3333Z" fill="#E09400"/>
<path d="M7 18.6667C7.22101 18.6667 7.43297 18.5789 7.58926 18.4226C7.74554 18.2663 7.83333 18.0543 7.83333 17.8333V12C7.83333 11.779 7.74554 11.567 7.58926 11.4107C7.43297 11.2545 7.22101 11.1667 7 11.1667C6.77899 11.1667 6.56702 11.2545 6.41074 11.4107C6.25446 11.567 6.16667 11.779 6.16667 12V17.8333C6.16667 18.0543 6.25446 18.2663 6.41074 18.4226C6.56702 18.5789 6.77899 18.6667 7 18.6667Z" fill="#E09400"/>
<path d="M10.3333 10.3333V17.8333C10.3333 18.0543 10.4211 18.2663 10.5774 18.4226C10.7337 18.5789 10.9457 18.6667 11.1667 18.6667C11.3877 18.6667 11.5996 18.5789 11.7559 18.4226C11.9122 18.2663 12 18.0543 12 17.8333V10.3333C12 10.1123 11.9122 9.90036 11.7559 9.74408C11.5996 9.5878 11.3877 9.5 11.1667 9.5C10.9457 9.5 10.7337 9.5878 10.5774 9.74408C10.4211 9.90036 10.3333 10.1123 10.3333 10.3333Z" fill="#E09400"/>
<path d="M14.5 12.8333V17.8333C14.5 18.0543 14.5878 18.2663 14.7441 18.4226C14.9004 18.5789 15.1123 18.6667 15.3333 18.6667C15.5543 18.6667 15.7663 18.5789 15.9226 18.4226C16.0789 18.2663 16.1667 18.0543 16.1667 17.8333V12.8333C16.1667 12.6123 16.0789 12.4004 15.9226 12.2441C15.7663 12.0878 15.5543 12 15.3333 12C15.1123 12 14.9004 12.0878 14.7441 12.2441C14.5878 12.4004 14.5 12.6123 14.5 12.8333Z" fill="#E09400"/>
<path d="M18.6667 9.5V17.8333C18.6667 18.0543 18.7545 18.2663 18.9107 18.4226C19.067 18.5789 19.279 18.6667 19.5 18.6667C19.721 18.6667 19.933 18.5789 20.0893 18.4226C20.2455 18.2663 20.3333 18.0543 20.3333 17.8333V9.5C20.3333 9.27899 20.2455 9.06703 20.0893 8.91074C19.933 8.75446 19.721 8.66667 19.5 8.66667C19.279 8.66667 19.067 8.75446 18.9107 8.91074C18.7545 9.06703 18.6667 9.27899 18.6667 9.5Z" fill="#E09400"/>
<path d="M6.99982 9.49998C7.22082 9.49994 7.43275 9.41211 7.58899 9.25582L10.5773 6.26748C10.7362 6.11617 10.9471 6.03177 11.1665 6.03177C11.3859 6.03177 11.5968 6.11617 11.7557 6.26748L13.5657 8.07748C14.0345 8.54616 14.6702 8.80945 15.3332 8.80945C15.9961 8.80945 16.6318 8.54616 17.1007 8.07748L21.7557 3.42248C21.9075 3.26531 21.9914 3.05481 21.9896 2.83632C21.9877 2.61782 21.9 2.40881 21.7455 2.2543C21.591 2.09979 21.382 2.01215 21.1635 2.01025C20.945 2.00836 20.7345 2.09235 20.5773 2.24415L15.9223 6.89832C15.7661 7.05454 15.5541 7.14231 15.3332 7.14231C15.1122 7.14231 14.9003 7.05454 14.744 6.89832L12.934 5.08915C12.4652 4.62047 11.8294 4.35718 11.1665 4.35718C10.5036 4.35718 9.86781 4.62047 9.39899 5.08915L6.41066 8.07748C6.29415 8.19403 6.21481 8.3425 6.18267 8.50412C6.15053 8.66575 6.16703 8.83328 6.23009 8.98553C6.29315 9.13778 6.39993 9.26791 6.53694 9.35948C6.67395 9.45106 6.83503 9.49995 6.99982 9.49998Z" fill="#E09400"/>
</svg>
