<svg xmlns="http://www.w3.org/2000/svg" width="24" height="24" viewBox="0 0 24 24" fill="none">
    <path fill-rule="evenodd" clip-rule="evenodd" d="M1.40039 12C1.40039 6.14581 6.14617 1.40002 12.0004 1.40002C13.6617 1.40002 15.2363 1.7829 16.6384 2.46616C17.1349 2.70809 17.3413 3.30669 17.0993 3.80316C16.8574 4.29964 16.2588 4.50598 15.7623 4.26405C14.6272 3.71088 13.3515 3.40002 12.0004 3.40002C7.25074 3.40002 3.40039 7.25038 3.40039 12C3.40039 16.7497 7.25074 20.6 12.0004 20.6C16.75 20.6 20.6004 16.7497 20.6004 12C20.6004 11.4477 21.0481 11 21.6004 11C22.1527 11 22.6004 11.4477 22.6004 12C22.6004 17.8542 17.8546 22.6 12.0004 22.6C6.14617 22.6 1.40039 17.8542 1.40039 12ZM20.5075 5.29292C20.898 5.68344 20.898 6.31661 20.5075 6.70713L12.1075 15.1071C11.717 15.4977 11.0838 15.4977 10.6933 15.1071L8.29328 12.7071C7.90276 12.3166 7.90276 11.6834 8.29328 11.2929C8.68381 10.9024 9.31697 10.9024 9.7075 11.2929L11.4004 12.9858L19.0933 5.29292C19.4838 4.90239 20.117 4.90239 20.5075 5.29292Z" fill="#4DCC8F"/>
</svg>