<svg width="24" height="24" viewBox="0 0 24 24" fill="none" xmlns="http://www.w3.org/2000/svg">
<path fill-rule="evenodd" clip-rule="evenodd" d="M12 23C18.0751 23 23 18.0751 23 12C23 9.61495 22.2409 7.40719 20.9512 5.60512L10.2529 16.3035C10.2472 16.3091 10.2381 16.3091 10.2324 16.3035L6.29289 12.3639C6.10536 12.1764 6 11.9221 6 11.6568C6 11.1046 6.44772 10.6568 7 10.6568C7.26522 10.6568 7.51957 10.7622 7.70711 10.9497L10.2426 13.4853L19.6409 4.08696C17.6621 2.17576 14.9684 1 12 1C5.92487 1 1 5.92487 1 12C1 18.0751 5.92487 23 12 23Z" fill="#46485C"/>
</svg>
