<svg width="24" height="24" viewBox="0 0 24 24" fill="none" xmlns="http://www.w3.org/2000/svg">
<path fill-rule="evenodd" clip-rule="evenodd" d="M1.3999 12C1.3999 6.14581 6.14568 1.40002 11.9999 1.40002C13.6612 1.40002 15.2359 1.7829 16.638 2.46616C17.1344 2.70809 17.3408 3.30669 17.0988 3.80316C16.8569 4.29964 16.2583 4.50598 15.7618 4.26405C14.6267 3.71088 13.351 3.40002 11.9999 3.40002C7.25025 3.40002 3.3999 7.25038 3.3999 12C3.3999 16.7497 7.25025 20.6 11.9999 20.6C16.7495 20.6 20.5999 16.7497 20.5999 12C20.5999 11.4477 21.0476 11 21.5999 11C22.1522 11 22.5999 11.4477 22.5999 12C22.5999 17.8542 17.8541 22.6 11.9999 22.6C6.14568 22.6 1.3999 17.8542 1.3999 12ZM20.507 5.29292C20.8975 5.68344 20.8975 6.31661 20.507 6.70713L12.107 15.1071C11.7165 15.4977 11.0833 15.4977 10.6928 15.1071L8.2928 12.7071C7.90227 12.3166 7.90227 11.6834 8.2928 11.2929C8.68332 10.9024 9.31648 10.9024 9.70701 11.2929L11.3999 12.9858L19.0928 5.29292C19.4833 4.90239 20.1165 4.90239 20.507 5.29292Z" fill="#46485C"/>
</svg>
