<svg width="24" height="24" viewBox="0 0 24 24" fill="none" xmlns="http://www.w3.org/2000/svg">
<g clip-path="url(#clip0_66_1713)">
<path fill-rule="evenodd" clip-rule="evenodd" d="M24 12C24 18.6276 18.6276 24 12 24C5.3724 24 0 18.6276 0 12C0 5.3724 5.3724 0 12 0C18.6276 0 24 5.3724 24 12ZM9.45478 7.75728C8.98615 7.28865 8.22635 7.28865 7.75772 7.75728C7.28909 8.22591 7.28909 8.98571 7.75772 9.45434L10.3034 12L7.75772 14.5457C7.28909 15.0143 7.28909 15.7741 7.75772 16.2427C8.22635 16.7114 8.98615 16.7114 9.45478 16.2427L12.0005 13.6971L14.5461 16.2427C15.0148 16.7114 15.7745 16.7114 16.2432 16.2427C16.7118 15.7741 16.7118 15.0143 16.2432 14.5457L13.6975 12L16.2432 9.45434C16.7118 8.98571 16.7118 8.22591 16.2432 7.75728C15.7745 7.28865 15.0148 7.28865 14.5461 7.75728L12.0005 10.303L9.45478 7.75728Z" fill="#393F52"/>
</g>
<defs>
<clipPath id="clip0_66_1713">
<rect width="24" height="24" fill="white"/>
</clipPath>
</defs>
</svg>
