<svg width="246" height="170" viewBox="0 0 246 170" fill="none" xmlns="http://www.w3.org/2000/svg">
<rect width="244.619" height="169.683" transform="translate(0.690308 0.158447)" fill="white"/>
<g opacity="0.5">
<path d="M80.9478 133.632C80.9478 132.16 82.1484 130.968 83.6295 130.968C85.1106 130.968 86.3112 132.16 86.3112 133.632C86.3112 135.103 85.1106 136.295 83.6295 136.295C82.1484 136.295 80.9478 135.103 80.9478 133.632Z" fill="#D9D9D9"/>
<path d="M71.5618 133.632C71.5618 132.16 72.7625 130.968 74.2435 130.968C75.7246 130.968 76.9252 132.16 76.9252 133.632C76.9252 135.103 75.7246 136.295 74.2435 136.295C72.7625 136.295 71.5618 135.103 71.5618 133.632Z" fill="#D9D9D9"/>
<path d="M62.1758 133.632C62.1758 132.16 63.3765 130.968 64.8575 130.968C66.3386 130.968 67.5392 132.16 67.5392 133.632C67.5392 135.103 66.3386 136.295 64.8575 136.295C63.3765 136.295 62.1758 135.103 62.1758 133.632Z" fill="#D9D9D9"/>
<path d="M52.7898 133.632C52.7898 132.16 53.9905 130.968 55.4716 130.968C56.9526 130.968 58.1533 132.16 58.1533 133.632C58.1533 135.103 56.9526 136.295 55.4716 136.295C53.9905 136.295 52.7898 135.103 52.7898 133.632Z" fill="#D9D9D9"/>
<path d="M43.4039 133.632C43.4039 132.16 44.6045 130.968 46.0856 130.968C47.5666 130.968 48.7673 132.16 48.7673 133.632C48.7673 135.103 47.5666 136.295 46.0856 136.295C44.6045 136.295 43.4039 135.103 43.4039 133.632Z" fill="#D9D9D9"/>
<path d="M34.0179 133.632C34.0179 132.16 35.2185 130.968 36.6996 130.968C38.1807 130.968 39.3813 132.16 39.3813 133.632C39.3813 135.103 38.1807 136.295 36.6996 136.295C35.2185 136.295 34.0179 135.103 34.0179 133.632Z" fill="#D9D9D9"/>
<path d="M24.6319 133.632C24.6319 132.16 25.8325 130.968 27.3136 130.968C28.7947 130.968 29.9953 132.16 29.9953 133.632C29.9953 135.103 28.7947 136.295 27.3136 136.295C25.8325 136.295 24.6319 135.103 24.6319 133.632Z" fill="#D9D9D9"/>
<path d="M15.2459 133.632C15.2459 132.16 16.4465 130.968 17.9276 130.968C19.4087 130.968 20.6093 132.16 20.6093 133.632C20.6093 135.103 19.4087 136.295 17.9276 136.295C16.4465 136.295 15.2459 135.103 15.2459 133.632Z" fill="#D9D9D9"/>
<path d="M80.9478 124.308C80.9478 122.837 82.1484 121.645 83.6295 121.645C85.1106 121.645 86.3112 122.837 86.3112 124.308C86.3112 125.78 85.1106 126.972 83.6295 126.972C82.1484 126.972 80.9478 125.78 80.9478 124.308Z" fill="#D9D9D9"/>
<path d="M71.5618 124.308C71.5618 122.837 72.7625 121.645 74.2435 121.645C75.7246 121.645 76.9252 122.837 76.9252 124.308C76.9252 125.78 75.7246 126.972 74.2435 126.972C72.7625 126.972 71.5618 125.78 71.5618 124.308Z" fill="#D9D9D9"/>
<path d="M62.1758 124.308C62.1758 122.837 63.3765 121.645 64.8575 121.645C66.3386 121.645 67.5392 122.837 67.5392 124.308C67.5392 125.78 66.3386 126.972 64.8575 126.972C63.3765 126.972 62.1758 125.78 62.1758 124.308Z" fill="#D9D9D9"/>
<path d="M52.7898 124.308C52.7898 122.837 53.9905 121.645 55.4716 121.645C56.9526 121.645 58.1533 122.837 58.1533 124.308C58.1533 125.78 56.9526 126.972 55.4716 126.972C53.9905 126.972 52.7898 125.78 52.7898 124.308Z" fill="#D9D9D9"/>
<path d="M43.4039 124.308C43.4039 122.837 44.6045 121.645 46.0856 121.645C47.5666 121.645 48.7673 122.837 48.7673 124.308C48.7673 125.78 47.5666 126.972 46.0856 126.972C44.6045 126.972 43.4039 125.78 43.4039 124.308Z" fill="#D9D9D9"/>
<path d="M34.0179 124.308C34.0179 122.837 35.2185 121.645 36.6996 121.645C38.1807 121.645 39.3813 122.837 39.3813 124.308C39.3813 125.78 38.1807 126.972 36.6996 126.972C35.2185 126.972 34.0179 125.78 34.0179 124.308Z" fill="#D9D9D9"/>
<path d="M80.9478 114.985C80.9478 113.514 82.1484 112.322 83.6295 112.322C85.1106 112.322 86.3112 113.514 86.3112 114.985C86.3112 116.456 85.1106 117.649 83.6295 117.649C82.1484 117.649 80.9478 116.456 80.9478 114.985Z" fill="#D9D9D9"/>
<path d="M71.5618 114.985C71.5618 113.514 72.7625 112.322 74.2435 112.322C75.7246 112.322 76.9252 113.514 76.9252 114.985C76.9252 116.456 75.7246 117.649 74.2435 117.649C72.7625 117.649 71.5618 116.456 71.5618 114.985Z" fill="#D9D9D9"/>
<path d="M62.1758 114.985C62.1758 113.514 63.3765 112.322 64.8575 112.322C66.3386 112.322 67.5392 113.514 67.5392 114.985C67.5392 116.456 66.3386 117.649 64.8575 117.649C63.3765 117.649 62.1758 116.456 62.1758 114.985Z" fill="#D9D9D9"/>
<path d="M52.7898 114.985C52.7898 113.514 53.9905 112.322 55.4716 112.322C56.9526 112.322 58.1533 113.514 58.1533 114.985C58.1533 116.456 56.9526 117.649 55.4716 117.649C53.9905 117.649 52.7898 116.456 52.7898 114.985Z" fill="#D9D9D9"/>
</g>
<g opacity="0.2">
<path d="M146.472 17.3776C146.472 18.8488 145.271 20.0414 143.79 20.0414C142.309 20.0414 141.108 18.8488 141.108 17.3776C141.108 15.9065 142.309 14.7139 143.79 14.7139C145.271 14.7139 146.472 15.9065 146.472 17.3776Z" fill="#D9D9D9"/>
<path d="M155.858 17.3776C155.858 18.8488 154.657 20.0414 153.176 20.0414C151.695 20.0414 150.494 18.8488 150.494 17.3776C150.494 15.9065 151.695 14.7139 153.176 14.7139C154.657 14.7139 155.858 15.9065 155.858 17.3776Z" fill="#D9D9D9"/>
<path d="M165.244 17.3776C165.244 18.8488 164.043 20.0414 162.562 20.0414C161.081 20.0414 159.88 18.8488 159.88 17.3776C159.88 15.9065 161.081 14.7139 162.562 14.7139C164.043 14.7139 165.244 15.9065 165.244 17.3776Z" fill="#D9D9D9"/>
<path d="M174.63 17.3776C174.63 18.8488 173.429 20.0414 171.948 20.0414C170.467 20.0414 169.266 18.8488 169.266 17.3776C169.266 15.9065 170.467 14.7139 171.948 14.7139C173.429 14.7139 174.63 15.9065 174.63 17.3776Z" fill="#D9D9D9"/>
<path d="M184.016 17.3776C184.016 18.8488 182.815 20.0414 181.334 20.0414C179.853 20.0414 178.652 18.8488 178.652 17.3776C178.652 15.9065 179.853 14.7139 181.334 14.7139C182.815 14.7139 184.016 15.9065 184.016 17.3776Z" fill="#D9D9D9"/>
<path d="M193.402 17.3776C193.402 18.8488 192.201 20.0414 190.72 20.0414C189.239 20.0414 188.038 18.8488 188.038 17.3776C188.038 15.9065 189.239 14.7139 190.72 14.7139C192.201 14.7139 193.402 15.9065 193.402 17.3776Z" fill="#D9D9D9"/>
<path d="M202.788 17.3776C202.788 18.8488 201.587 20.0414 200.106 20.0414C198.625 20.0414 197.424 18.8488 197.424 17.3776C197.424 15.9065 198.625 14.7139 200.106 14.7139C201.587 14.7139 202.788 15.9065 202.788 17.3776Z" fill="#D9D9D9"/>
<path d="M212.174 17.3776C212.174 18.8488 210.973 20.0414 209.492 20.0414C208.011 20.0414 206.81 18.8488 206.81 17.3776C206.81 15.9065 208.011 14.7139 209.492 14.7139C210.973 14.7139 212.174 15.9065 212.174 17.3776Z" fill="#D9D9D9"/>
<path d="M146.472 26.7008C146.472 28.1719 145.271 29.3645 143.79 29.3645C142.309 29.3645 141.108 28.1719 141.108 26.7008C141.108 25.2296 142.309 24.037 143.79 24.037C145.271 24.037 146.472 25.2296 146.472 26.7008Z" fill="#D9D9D9"/>
<path d="M155.858 26.7008C155.858 28.1719 154.657 29.3645 153.176 29.3645C151.695 29.3645 150.494 28.1719 150.494 26.7008C150.494 25.2296 151.695 24.037 153.176 24.037C154.657 24.037 155.858 25.2296 155.858 26.7008Z" fill="#D9D9D9"/>
<path d="M165.244 26.7008C165.244 28.1719 164.043 29.3645 162.562 29.3645C161.081 29.3645 159.88 28.1719 159.88 26.7008C159.88 25.2296 161.081 24.037 162.562 24.037C164.043 24.037 165.244 25.2296 165.244 26.7008Z" fill="#D9D9D9"/>
<path d="M174.63 26.7008C174.63 28.1719 173.429 29.3645 171.948 29.3645C170.467 29.3645 169.266 28.1719 169.266 26.7008C169.266 25.2296 170.467 24.037 171.948 24.037C173.429 24.037 174.63 25.2296 174.63 26.7008Z" fill="#D9D9D9"/>
<path d="M184.016 26.7008C184.016 28.1719 182.815 29.3645 181.334 29.3645C179.853 29.3645 178.652 28.1719 178.652 26.7008C178.652 25.2296 179.853 24.037 181.334 24.037C182.815 24.037 184.016 25.2296 184.016 26.7008Z" fill="#D9D9D9"/>
<path d="M193.402 26.7008C193.402 28.1719 192.201 29.3645 190.72 29.3645C189.239 29.3645 188.038 28.1719 188.038 26.7008C188.038 25.2296 189.239 24.037 190.72 24.037C192.201 24.037 193.402 25.2296 193.402 26.7008Z" fill="#D9D9D9"/>
<path d="M146.472 36.0239C146.472 37.4951 145.271 38.6877 143.79 38.6877C142.309 38.6877 141.108 37.4951 141.108 36.0239C141.108 34.5528 142.309 33.3602 143.79 33.3602C145.271 33.3602 146.472 34.5528 146.472 36.0239Z" fill="#D9D9D9"/>
<path d="M155.858 36.0239C155.858 37.4951 154.657 38.6877 153.176 38.6877C151.695 38.6877 150.494 37.4951 150.494 36.0239C150.494 34.5528 151.695 33.3602 153.176 33.3602C154.657 33.3602 155.858 34.5528 155.858 36.0239Z" fill="#D9D9D9"/>
<path d="M165.244 36.0239C165.244 37.4951 164.043 38.6877 162.562 38.6877C161.081 38.6877 159.88 37.4951 159.88 36.0239C159.88 34.5528 161.081 33.3602 162.562 33.3602C164.043 33.3602 165.244 34.5528 165.244 36.0239Z" fill="#D9D9D9"/>
<path d="M174.63 36.0239C174.63 37.4951 173.429 38.6877 171.948 38.6877C170.467 38.6877 169.266 37.4951 169.266 36.0239C169.266 34.5528 170.467 33.3602 171.948 33.3602C173.429 33.3602 174.63 34.5528 174.63 36.0239Z" fill="#D9D9D9"/>
</g>
<path opacity="0.2" d="M27.379 24.6843H27.7967L27.6904 24.2803C26.0944 18.2154 21.0566 14.4697 14.4237 14.4697C10.3179 14.4697 6.79973 15.9388 4.30773 18.4658C1.81605 20.9924 0.368284 24.5583 0.368284 28.7196C0.368284 32.881 1.81613 36.4374 4.30818 38.9544C6.80043 41.4716 10.3186 42.9306 14.4237 42.9306C21.055 42.9306 26.094 39.2253 27.6904 33.1589L27.7967 32.7549H27.379H20.0649H19.8629L19.775 32.9368C18.7048 35.1509 16.7614 36.2563 14.3459 36.2563C12.3877 36.2563 10.7565 35.5315 9.61158 34.2441C8.46372 32.9533 7.78177 31.0704 7.78177 28.7196C7.78177 26.3688 8.46372 24.4859 9.61158 23.1951C10.7565 21.9077 12.3877 21.1828 14.3459 21.1828C16.7614 21.1828 18.7048 22.2882 19.775 24.5024L19.8629 24.6843H20.0649H27.379ZM60.9555 42.4141V42.7361H61.2775H67.9303H68.2523V42.4141V27.7747L73.7756 42.527L73.8539 42.7361H74.0772H79.4461H79.6697L79.7478 42.5266L85.2321 27.8203V42.4141V42.7361H85.5541H92.2069H92.5289V42.4141V15.1029V14.7809H92.2069H84.387H84.1692L84.0881 14.983L76.799 33.1497L69.4348 14.9819L69.3533 14.7809H69.1363H61.2775H60.9555V15.1029V42.4141ZM96.6689 42.4141V42.7361H96.9909H103.644H103.966V42.4141V15.1029V14.7809H103.644H96.9909H96.6689V15.1029V42.4141ZM126.244 14.7809H125.922V15.1029V30.9505L115.387 14.926L115.291 14.7809H115.118H108.465H108.143V15.1029V42.4141V42.7361H108.465H115.118H115.44V42.4141V26.6401L125.976 42.5916L126.071 42.7361H126.244H132.897H133.219V42.4141V15.1029V14.7809H132.897H126.244ZM163.202 24.0618H163.617L163.514 23.6596C162.032 17.8913 157.137 14.4697 150.48 14.4697C146.317 14.4697 142.76 15.9379 140.244 18.4646C137.727 20.9912 136.269 24.5575 136.269 28.7196C136.269 32.8824 137.737 36.4393 140.264 38.956C142.791 41.4726 146.357 42.9306 150.519 42.9306C157.876 42.9306 162.541 38.1124 163.978 33.2855L163.991 33.2405V33.1936V27.0078V26.6858H163.669H149.196H148.874V27.0078V31.9098V32.2318H149.196H157.182C156.688 33.5126 155.95 34.5149 155.001 35.2153C153.951 35.9906 152.62 36.412 151.025 36.412C148.7 36.412 146.875 35.6952 145.63 34.4003C144.384 33.1037 143.683 31.1884 143.683 28.7196C143.683 26.4101 144.373 24.5484 145.552 23.2674C146.73 21.9889 148.42 21.2607 150.48 21.2607C152.88 21.2607 154.624 22.1913 155.567 23.8957L155.659 24.0618H155.849H163.202ZM1.04045 74.1163H0.706889L0.718627 74.4497C0.819313 77.3092 2.06294 79.5108 4.048 80.9894C6.02413 82.4614 8.71384 83.2027 11.7004 83.2027C14.9549 83.2027 17.5265 82.2294 19.2886 80.6396C21.0517 79.0487 21.982 76.8595 21.982 74.4772C21.982 72.0986 21.0983 70.4328 19.7681 69.2144C18.4523 68.0091 16.7127 67.2538 15.018 66.6506C14.4504 66.4486 13.8918 66.2647 13.3534 66.0874C12.2573 65.7264 11.2447 65.3929 10.4092 64.9904C9.16849 64.3927 8.48205 63.7176 8.48205 62.728C8.48205 61.9537 8.75111 61.4184 9.16741 61.0749C9.59191 60.7246 10.2086 60.5418 10.9533 60.56L10.9542 60.56C11.7882 60.5782 12.4689 60.8309 12.9507 61.2573C13.43 61.6815 13.7378 62.2993 13.7912 63.0995L13.8112 63.4002H14.1125H21.3099H21.6491L21.6314 63.0613C21.4908 60.3687 20.3809 58.2369 18.5222 56.7844C16.6706 55.3376 14.1042 54.5861 11.0779 54.5861C8.1686 54.5861 5.60316 55.3179 3.75701 56.7392C1.90186 58.1674 0.796592 60.2752 0.796237 62.9601C0.776388 65.4693 1.65075 67.202 2.98711 68.4507C4.30893 69.6858 6.06391 70.4292 7.77392 71.0131C8.32757 71.2021 8.88585 71.3773 9.4251 71.5466C9.71709 71.6382 10.0035 71.7281 10.2806 71.8174C11.0773 72.0745 11.8062 72.3301 12.4254 72.6241C13.6704 73.2153 14.374 73.9109 14.374 74.983C14.374 75.6885 14.1028 76.2355 13.6295 76.6133C13.148 76.9977 12.4286 77.2287 11.5058 77.2287C10.6293 77.2287 9.91404 76.9919 9.39834 76.5401C8.88469 76.0901 8.53316 75.3955 8.44178 74.4086L8.41471 74.1163H8.12113H1.04045ZM104.702 54.9751H104.38V55.2972V71.1448L93.8446 55.1203L93.7492 54.9751H93.5755H86.9228H86.6008V55.2972V82.6083V82.9304H86.9228H93.5755H93.8975V82.6083V66.8344L104.434 82.7858L104.529 82.9304H104.702H111.355H111.677V82.6083V55.2972V54.9751H111.355H104.702ZM43.6096 43.0084C51.5236 43.0084 57.8984 37.0733 57.8984 28.6807C57.8984 20.2874 51.5619 14.3918 43.6096 14.3918C35.6992 14.3918 29.2429 20.2846 29.2429 28.6807C29.2429 37.0756 35.698 43.0084 43.6096 43.0084ZM43.6096 36.2952C41.4725 36.2952 39.7539 35.5385 38.567 34.2273C37.377 32.9128 36.6953 31.0116 36.6953 28.6807C36.6953 26.3098 37.3776 24.4096 38.5662 23.1057C39.7519 21.8051 41.4701 21.0661 43.6096 21.0661C45.7088 21.0661 47.4178 21.8042 48.6043 23.1057C49.7936 24.4102 50.485 26.3109 50.485 28.6807C50.485 31.0105 49.7942 32.9121 48.6036 34.2273C47.4158 35.5394 45.7064 36.2952 43.6096 36.2952ZM38.6705 83.2027C46.5845 83.2027 52.9594 77.2676 52.9594 68.8749C52.9594 60.4817 46.6228 54.5861 38.6705 54.5861C30.7601 54.5861 24.3039 60.4788 24.3039 68.8749C24.3039 77.2699 30.7589 83.2027 38.6705 83.2027ZM38.6705 76.4895C36.5334 76.4895 34.8148 75.7327 33.6279 74.4216C32.4379 73.107 31.7562 71.2059 31.7562 68.8749C31.7562 66.504 32.4385 64.6038 33.6272 63.2999C34.8128 61.9994 36.531 61.2604 38.6705 61.2604C40.7697 61.2604 42.4787 61.9984 43.6652 63.2999C44.8545 64.6045 45.5459 66.5051 45.5459 68.8749C45.5459 71.2047 44.8551 73.1063 43.6645 74.4216C42.4767 75.7337 40.7673 76.4895 38.6705 76.4895ZM69.2549 83.2027C77.1688 83.2027 83.5437 77.2676 83.5437 68.8749C83.5437 60.4817 77.2071 54.5861 69.2549 54.5861C61.3445 54.5861 54.8882 60.4788 54.8882 68.8749C54.8882 77.2699 61.3432 83.2027 69.2549 83.2027ZM69.2549 76.4895C67.1177 76.4895 65.3992 75.7327 64.2123 74.4216C63.0222 73.107 62.3406 71.2059 62.3406 68.8749C62.3406 66.504 63.0228 64.6038 64.2115 63.2999C65.3972 61.9994 67.1153 61.2604 69.2549 61.2604C71.3541 61.2604 73.063 61.9984 74.2496 63.2999C75.4389 64.6045 76.1302 66.5051 76.1302 68.8749C76.1302 71.2047 75.4395 73.1063 74.2488 74.4216C73.061 75.7337 71.3516 76.4895 69.2549 76.4895Z" fill="white" stroke="black" stroke-width="0.644048"/>
<path d="M114.139 0.782303C102.021 4.98253 99.3796 16.9621 98.2921 24.1185C97.6277 31.0566 98.191 40.1348 100.156 49.3982L120.198 44.1874C124.393 43.0967 129.481 43.8739 130.724 50.098C132.122 57.0989 126.995 59.8993 124.393 61.4562L108.546 72.6397C111.719 78.3254 115.371 82.6846 120.412 86.8009C121.42 87.4748 122.994 88.5266 122.994 88.5266C122.994 88.5266 133.714 94.1269 142.104 91.3266C158.132 85.9765 158.883 59.5896 150.959 36.7201C143.036 13.8506 126.161 -3.38463 114.139 0.782303Z" fill="url(#paint0_linear_6105_6834)"/>
<path d="M120.198 44.1874L100.156 49.3982C101.861 57.4309 104.619 65.603 108.546 72.6397L124.393 61.4562C114.877 63.6331 110.682 48.6979 120.198 44.1874Z" fill="url(#paint1_linear_6105_6834)"/>
<path d="M51.2177 69.3908C48.4822 70.1735 47.117 72.4341 46.7367 75.4583C45.6034 84.4716 53.2203 100.267 59.3895 103.928C60.9788 104.872 62.4719 105.01 63.6947 104.019C63.3573 102.965 63.1434 101.98 63.336 101.595C63.7089 100.848 65.3558 99.2609 67.0648 98.3274C68.7737 97.394 70.3273 97.8607 70.3273 97.8607C71.2595 97.8607 73.6746 97.3023 73.8441 97.1356C74.2144 96.905 74.594 96.6785 74.9881 96.4618C67.0647 93.1935 58.2091 74.5245 63.8019 62.4274C58.9104 65.9141 54.453 68.4652 51.2177 69.3908Z" fill="url(#paint2_linear_6105_6834)"/>
<path d="M120.198 44.1874C110.682 48.6979 114.877 63.6331 124.393 61.4562C126.995 59.8993 132.122 57.0989 130.724 50.098C129.481 43.8739 124.393 43.0967 120.198 44.1874Z" fill="#FF5050"/>
<path d="M85.7081 112.796C86.7779 113.088 88.9707 112.329 88.9707 112.329L94.0976 110.462C94.0976 110.462 90.6902 111.094 88.5046 110.929C83.4715 110.548 77.6293 106.884 76.8525 105.328C76.0757 103.773 75.4543 101.595 75.4543 99.2609C75.4543 96.9273 73.8441 97.1356 73.8441 97.1356C73.6746 97.3023 71.2595 97.8607 70.3273 97.8607C70.3273 97.8607 72.1917 97.8607 72.1917 99.7276C72.1917 101.595 72.4872 103.628 73.5899 105.795C76.071 110.669 84.6383 112.504 85.7081 112.796Z" fill="url(#paint3_linear_6105_6834)"/>
<path d="M94.0976 110.462L88.9707 112.329C96.4433 113.65 88.1543 120.248 83.2852 120.715C96.1907 120.247 101.399 109.091 94.0976 110.462Z" fill="url(#paint4_radial_6105_6834)"/>
<path d="M70.3273 97.8607C70.3273 97.8607 68.7737 97.394 67.0648 98.3274C65.3558 99.2609 63.7089 100.848 63.336 101.595C63.1434 101.98 63.3573 102.965 63.6947 104.019C64.0103 105.005 64.2667 105.696 64.7343 106.728C68.374 114.765 77.2254 120.357 82.4455 120.73C82.7289 120.73 83.0089 120.725 83.2852 120.715C88.1543 120.248 96.4433 113.65 88.9707 112.329C88.9707 112.329 86.7779 113.088 85.7081 112.796C84.6383 112.504 76.071 110.669 73.5899 105.795C72.4872 103.628 72.1917 101.595 72.1917 99.7276C72.1917 97.8607 70.3273 97.8607 70.3273 97.8607Z" fill="#F1F1F1"/>
<path d="M46.7367 75.4583C40.9284 77.4807 33.9728 84.9791 39.5658 96.9273C45.1588 108.875 54.0244 106.418 59.3895 103.928C53.2203 100.267 45.6034 84.4716 46.7367 75.4583Z" fill="url(#paint5_linear_6105_6834)"/>
<path d="M100.156 49.3982C98.191 40.1348 97.6277 31.0566 98.2921 24.1185C97.4742 32.66 78.6411 51.8494 63.8019 62.4274C58.2091 74.5245 67.0647 93.1935 74.9881 96.4618C89.1057 88.6986 99.6906 81.9921 120.412 86.8009C115.371 82.6846 111.719 78.3254 108.546 72.6397C104.619 65.603 101.861 57.4309 100.156 49.3982Z" fill="url(#paint6_linear_6105_6834)"/>
<path opacity="0.2" d="M109.018 90.6123H109.435L109.329 90.2083C107.733 84.1433 102.695 80.3976 96.0623 80.3976C91.9566 80.3976 88.4383 81.8668 85.9463 84.3937C83.4547 86.9204 82.0069 90.4862 82.0069 94.6476C82.0069 98.809 83.4547 102.365 85.9468 104.882C88.439 107.4 91.9572 108.859 96.0623 108.859C102.694 108.859 107.733 105.153 109.329 99.0869L109.435 98.6829H109.018H101.704H101.501L101.414 98.8648C100.343 101.079 98.4 102.184 95.9845 102.184C94.0263 102.184 92.3951 101.459 91.2502 100.172C90.1023 98.8813 89.4204 96.9984 89.4204 94.6476C89.4204 92.2968 90.1023 90.4139 91.2502 89.1231C92.3951 87.8357 94.0263 87.1108 95.9845 87.1108C98.4 87.1108 100.343 88.2162 101.414 90.4304L101.501 90.6123H101.704H109.018ZM142.594 108.342V108.664H142.916H149.569H149.891V108.342V93.7027L155.414 108.455L155.493 108.664H155.716H161.085H161.308L161.386 108.455L166.871 93.7483V108.342V108.664H167.193H173.845H174.167V108.342V81.0309V80.7089H173.845H166.026H165.808L165.727 80.911L158.438 99.0776L151.073 80.9099L150.992 80.7089H150.775H142.916H142.594V81.0309V108.342ZM178.308 108.342V108.664H178.63H185.282H185.604V108.342V81.0309V80.7089H185.282H178.63H178.308V81.0309V108.342ZM207.883 80.7089H207.561V81.0309V96.8785L197.025 80.854L196.93 80.7089H196.756H190.103H189.781V81.0309V108.342V108.664H190.103H196.756H197.078V108.342V92.5681L207.614 108.52L207.71 108.664H207.883H214.536H214.858V108.342V81.0309V80.7089H214.536H207.883ZM244.841 89.9898H245.256L245.153 89.5876C243.67 83.8193 238.776 80.3976 232.119 80.3976C227.956 80.3976 224.399 81.8659 221.882 84.3926C219.366 86.9192 217.908 90.4855 217.908 94.6476C217.908 98.8104 219.376 102.367 221.903 104.884C224.429 107.401 227.996 108.859 232.158 108.859C239.515 108.859 244.18 104.04 245.616 99.2135L245.63 99.1685V99.1216V92.9358V92.6137H245.308H230.835H230.513V92.9358V97.8378V98.1598H230.835H238.821C238.327 99.4406 237.589 100.443 236.64 101.143C235.589 101.919 234.258 102.34 232.663 102.34C230.338 102.34 228.513 101.623 227.269 100.328C226.023 99.0317 225.321 97.1163 225.321 94.6476C225.321 92.3381 226.011 90.4763 227.191 89.1953C228.368 87.9168 230.059 87.1886 232.119 87.1886C234.519 87.1886 236.263 88.1193 237.206 89.8236L237.298 89.9898H237.488H244.841ZM82.6791 140.044H82.3455L82.3572 140.378C82.4579 143.237 83.7015 145.439 85.6866 146.917C87.6627 148.389 90.3525 149.131 93.339 149.131C96.5935 149.131 99.1652 148.157 100.927 146.568C102.69 144.977 103.621 142.788 103.621 140.405C103.621 138.027 102.737 136.361 101.407 135.142C100.091 133.937 98.3513 133.182 96.6566 132.579C96.089 132.377 95.5304 132.193 94.992 132.015C93.8959 131.654 92.8833 131.321 92.0478 130.918C90.8071 130.321 90.1207 129.646 90.1207 128.656C90.1207 127.882 90.3897 127.346 90.806 127.003C91.2305 126.653 91.8472 126.47 92.5919 126.488L92.5928 126.488C93.4268 126.506 94.1075 126.759 94.5894 127.185C95.0686 127.609 95.3764 128.227 95.4298 129.028L95.4498 129.328H95.7511H102.948H103.288L103.27 128.989C103.129 126.297 102.02 124.165 100.161 122.712C98.3092 121.266 95.7428 120.514 92.7165 120.514C89.8072 120.514 87.2418 121.246 85.3956 122.667C83.5405 124.095 82.4352 126.203 82.4348 128.888C82.415 131.397 83.2894 133.13 84.6257 134.379C85.9475 135.614 87.7025 136.357 89.4125 136.941C89.9662 137.13 90.5245 137.305 91.0637 137.475C91.3557 137.566 91.6421 137.656 91.9192 137.745C92.7159 138.002 93.4448 138.258 94.0641 138.552C95.3091 139.143 96.0126 139.839 96.0126 140.911C96.0126 141.616 95.7415 142.163 95.2681 142.541C94.7866 142.926 94.0672 143.157 93.1445 143.157C92.2679 143.157 91.5526 142.92 91.037 142.468C90.5233 142.018 90.1718 141.324 90.0804 140.337L90.0533 140.044H89.7597H82.6791ZM186.341 120.903H186.019V121.225V137.073L175.483 121.048L175.388 120.903H175.214H168.561H168.239V121.225V148.536V148.858H168.561H175.214H175.536V148.536V132.762L186.072 148.714L186.168 148.858H186.341H192.994H193.316V148.536V121.225V120.903H192.994H186.341ZM125.248 108.936C133.162 108.936 139.537 103.001 139.537 94.6087C139.537 86.2154 133.2 80.3198 125.248 80.3198C117.338 80.3198 110.882 86.2125 110.882 94.6087C110.882 103.004 117.337 108.936 125.248 108.936ZM125.248 102.223C123.111 102.223 121.393 101.466 120.206 100.155C119.016 98.8408 118.334 96.9396 118.334 94.6087C118.334 92.2377 119.016 90.3375 120.205 89.0337C121.391 87.7331 123.109 86.9941 125.248 86.9941C127.347 86.9941 129.056 87.7321 130.243 89.0337C131.432 90.3382 132.124 92.2389 132.124 94.6087C132.124 96.9385 131.433 98.8401 130.242 100.155C129.054 101.467 127.345 102.223 125.248 102.223ZM120.309 149.131C128.223 149.131 134.598 143.196 134.598 134.803C134.598 126.41 128.261 120.514 120.309 120.514C112.399 120.514 105.942 126.407 105.942 134.803C105.942 143.198 112.398 149.131 120.309 149.131ZM120.309 142.417C118.172 142.417 116.453 141.661 115.267 140.35C114.077 139.035 113.395 137.134 113.395 134.803C113.395 132.432 114.077 130.532 115.266 129.228C116.451 127.927 118.17 127.188 120.309 127.188C122.408 127.188 124.117 127.926 125.304 129.228C126.493 130.532 127.184 132.433 127.184 134.803C127.184 137.133 126.494 139.034 125.303 140.35C124.115 141.662 122.406 142.417 120.309 142.417ZM150.893 149.131C158.807 149.131 165.182 143.196 165.182 134.803C165.182 126.41 158.846 120.514 150.893 120.514C142.983 120.514 136.527 126.407 136.527 134.803C136.527 143.198 142.982 149.131 150.893 149.131ZM150.893 142.417C148.756 142.417 147.038 141.661 145.851 140.35C144.661 139.035 143.979 137.134 143.979 134.803C143.979 132.432 144.661 130.532 145.85 129.228C147.036 127.927 148.754 127.188 150.893 127.188C152.993 127.188 154.702 127.926 155.888 129.228C157.077 130.532 157.769 132.433 157.769 134.803C157.769 137.133 157.078 139.034 155.887 140.35C154.7 141.662 152.99 142.417 150.893 142.417Z" fill="white" stroke="black" stroke-width="0.644048"/>
<path d="M80.3176 92.9352C80.3176 84.7652 85.9977 79.0073 94.051 79.0073C100.548 79.0073 105.45 82.6643 107.006 88.5778H99.6922C98.5639 86.2435 96.502 85.0764 93.9732 85.0764C89.8881 85.0764 87.087 88.111 87.087 92.9352C87.087 97.7594 89.8881 100.794 93.9732 100.794C96.502 100.794 98.5639 99.6268 99.6922 97.2925H107.006C105.45 103.206 100.548 106.824 94.051 106.824C85.9977 106.824 80.3176 101.105 80.3176 92.9352Z" fill="#D81919"/>
<path d="M137.204 92.8963C137.204 101.105 130.979 106.902 123.237 106.902C115.495 106.902 109.192 101.105 109.192 92.8963C109.192 84.6874 115.495 78.9294 123.237 78.9294C131.018 78.9294 137.204 84.6874 137.204 92.8963ZM116.001 92.8963C116.001 97.6816 118.802 100.833 123.237 100.833C127.594 100.833 130.434 97.6816 130.434 92.8963C130.434 88.0332 127.594 84.9597 123.237 84.9597C118.802 84.9597 116.001 88.0332 116.001 92.8963Z" fill="#D81919"/>
<path d="M140.905 106.63V79.3185H148.764L156.428 98.2262L164.014 79.3185H171.834V106.63H165.181V90.2507L159.073 106.63H153.704L147.558 90.2118V106.63H140.905Z" fill="#D81919"/>
<path d="M176.618 106.63V79.3185H183.271V106.63H176.618Z" fill="#D81919"/>
<path d="M205.872 79.3185H212.524V106.63H205.872L194.745 89.7839V106.63H188.092V79.3185H194.745L205.872 96.2421V79.3185Z" fill="#D81919"/>
<path d="M230.107 79.0073C236.643 79.0073 241.39 82.3531 242.829 87.9554H235.476C234.465 86.1268 232.597 85.1542 230.107 85.1542C225.828 85.1542 222.988 88.1888 222.988 92.9352C222.988 97.9928 225.867 100.95 230.652 100.95C233.959 100.95 236.254 99.1988 237.266 96.1254H228.824V91.2234H243.296V97.4092C241.896 102.117 237.344 106.824 230.146 106.824C221.976 106.824 216.218 101.105 216.218 92.9352C216.218 84.7652 221.937 79.0073 230.107 79.0073Z" fill="#D81919"/>
<path d="M101.287 138.693C101.287 143.284 97.708 147.096 91.3276 147.096C85.453 147.096 80.8622 144.178 80.6677 138.654H87.7484C87.9429 140.755 89.2657 141.766 91.1331 141.766C93.0783 141.766 94.3233 140.794 94.3233 139.199C94.3233 134.141 80.6677 136.864 80.7455 127.177C80.7455 122.003 84.9861 119.124 90.7051 119.124C96.6576 119.124 100.665 122.08 100.937 127.294H93.7397C93.623 125.543 92.3781 124.493 90.5884 124.454C88.9933 124.415 87.7873 125.232 87.7873 126.944C87.7873 131.69 101.287 129.55 101.287 138.693Z" fill="#D81919"/>
<path d="M132.265 133.091C132.265 141.299 126.04 147.096 118.298 147.096C110.556 147.096 104.253 141.299 104.253 133.091C104.253 124.882 110.556 119.124 118.298 119.124C126.079 119.124 132.265 124.882 132.265 133.091ZM111.061 133.091C111.061 137.876 113.863 141.027 118.298 141.027C122.655 141.027 125.495 137.876 125.495 133.091C125.495 128.227 122.655 125.154 118.298 125.154C113.863 125.154 111.061 128.227 111.061 133.091Z" fill="#D81919"/>
<path d="M162.849 133.091C162.849 141.299 156.624 147.096 148.882 147.096C141.14 147.096 134.837 141.299 134.837 133.091C134.837 124.882 141.14 119.124 148.882 119.124C156.663 119.124 162.849 124.882 162.849 133.091ZM141.646 133.091C141.646 137.876 144.447 141.027 148.882 141.027C153.239 141.027 156.08 137.876 156.08 133.091C156.08 128.227 153.239 125.154 148.882 125.154C144.447 125.154 141.646 128.227 141.646 133.091Z" fill="#D81919"/>
<path d="M184.33 119.513H190.982V146.824H184.33L173.203 129.978V146.824H166.55V119.513H173.203L184.33 136.436V119.513Z" fill="#D81919"/>
<line x1="199.571" y1="143.925" x2="215.524" y2="143.925" stroke="#FF5050" stroke-width="6"/>
<defs>
<linearGradient id="paint0_linear_6105_6834" x1="98.0982" y1="62.6996" x2="158.251" y2="35.6914" gradientUnits="userSpaceOnUse">
<stop stop-color="#D9D9D9"/>
<stop offset="1" stop-color="white"/>
</linearGradient>
<linearGradient id="paint1_linear_6105_6834" x1="104.157" y1="63.633" x2="124.212" y2="52.4551" gradientUnits="userSpaceOnUse">
<stop stop-color="#F5F5F5"/>
<stop offset="1" stop-color="#F5F5F5"/>
</linearGradient>
<linearGradient id="paint2_linear_6105_6834" x1="66.8706" y1="58.4991" x2="55.6551" y2="111.699" gradientUnits="userSpaceOnUse">
<stop stop-color="#FF5050"/>
<stop offset="1" stop-color="#CF4C4C"/>
</linearGradient>
<linearGradient id="paint3_linear_6105_6834" x1="71.0654" y1="98.6374" x2="90.6583" y2="112.147" gradientUnits="userSpaceOnUse">
<stop stop-color="#DEDEDE"/>
<stop offset="1" stop-color="#F7F7F7"/>
</linearGradient>
<radialGradient id="paint4_radial_6105_6834" cx="0" cy="0" r="1" gradientUnits="userSpaceOnUse" gradientTransform="translate(90.6409 111.239) rotate(75.2758) scale(9.16887 9.00255)">
<stop stop-color="#F4F4F4"/>
<stop offset="1" stop-color="#DEDEDE"/>
</radialGradient>
<linearGradient id="paint5_linear_6105_6834" x1="40.3039" y1="97.704" x2="52.4304" y2="90.7175" gradientUnits="userSpaceOnUse">
<stop stop-color="#E8E8E8"/>
<stop offset="1" stop-color="#F3F3F3"/>
</linearGradient>
<linearGradient id="paint6_linear_6105_6834" x1="75.2601" y1="99.1041" x2="101.426" y2="15.1141" gradientUnits="userSpaceOnUse">
<stop stop-color="#F1F1F1"/>
<stop offset="1" stop-color="#FAFAFA"/>
</linearGradient>
</defs>
</svg>
