<svg xmlns="http://www.w3.org/2000/svg" width="19" height="18" viewBox="0 0 19 18" fill="none">
<path fill-rule="evenodd" clip-rule="evenodd" d="M8.75 7.5C8.33579 7.5 8 7.83579 8 8.25V15C8 15.4142 8.33579 15.75 8.75 15.75H15.5C15.9142 15.75 16.25 15.4142 16.25 15V8.25C16.25 7.83579 15.9142 7.5 15.5 7.5H8.75ZM6.5 8.25C6.5 7.00736 7.50736 6 8.75 6H15.5C16.7426 6 17.75 7.00736 17.75 8.25V15C17.75 16.2426 16.7426 17.25 15.5 17.25H8.75C7.50736 17.25 6.5 16.2426 6.5 15V8.25Z" fill="#7357FF"/>
<path fill-rule="evenodd" clip-rule="evenodd" d="M3.5 2.25C3.30109 2.25 3.11032 2.32902 2.96967 2.46967C2.82902 2.61032 2.75 2.80109 2.75 3V9.75C2.75 9.94891 2.82902 10.1397 2.96967 10.2803C3.11032 10.421 3.30109 10.5 3.5 10.5H4.25C4.66421 10.5 5 10.8358 5 11.25C5 11.6642 4.66421 12 4.25 12H3.5C2.90326 12 2.33097 11.7629 1.90901 11.341C1.48705 10.919 1.25 10.3467 1.25 9.75V3C1.25 2.40326 1.48705 1.83097 1.90901 1.40901C2.33097 0.987053 2.90326 0.75 3.5 0.75H10.25C10.8467 0.75 11.419 0.987053 11.841 1.40901C12.2629 1.83097 12.5 2.40326 12.5 3V3.75C12.5 4.16421 12.1642 4.5 11.75 4.5C11.3358 4.5 11 4.16421 11 3.75V3C11 2.80109 10.921 2.61032 10.7803 2.46967C10.6397 2.32902 10.4489 2.25 10.25 2.25H3.5Z" fill="#7357FF"/>
</svg>