<svg width="24" height="24" viewBox="0 0 24 24" fill="none" xmlns="http://www.w3.org/2000/svg">
<path d="M21.3702 2.20367H6.03683C4.86068 2.20367 3.90723 3.15713 3.90723 4.33327V13.7037C3.90723 14.8798 4.86068 15.8333 6.03683 15.8333H21.3702C22.5464 15.8333 23.4998 14.8798 23.4998 13.7037V4.33327C23.4998 3.15713 22.5464 2.20367 21.3702 2.20367Z" fill="#FE9C39"/>
<path d="M23.5 4.33327V13.7033C23.5 14.2682 23.2756 14.81 22.8761 15.2094C22.4767 15.6089 21.9349 15.8333 21.37 15.8333H14.47C12.3463 14.5998 10.5834 12.8308 9.35699 10.7031C8.13063 8.57528 7.48377 6.16307 7.48098 3.70717C7.48002 3.20489 7.50703 2.70295 7.56188 2.20367H21.37C21.9348 2.20367 22.4765 2.42803 22.876 2.8274C23.2754 3.22676 23.4999 3.76843 23.5 4.33327Z" fill="#FED154"/>
<path d="M23.4999 4.33327V10.5391C18.7806 10.3391 14.9387 6.77807 14.3467 2.20367H21.3699C21.9347 2.20367 22.4764 2.42803 22.8759 2.8274C23.2753 3.22676 23.4998 3.76843 23.4999 4.33327Z" fill="#FEEC88"/>
<path d="M3.90723 6.03699H23.4998V8.59259H3.90723V6.03699Z" fill="#C6E5FF"/>
<path d="M23.4999 6.03699V8.59259H8.35826C8.05004 7.76443 7.82183 6.90865 7.67676 6.03699H23.4999Z" fill="#EAF7FF"/>
<path d="M23.5002 6.03699V8.59259H18.0738C17.1427 7.89044 16.3474 7.02441 15.7271 6.03699H23.5002Z" fill="white"/>
<path d="M17.963 8.16669H2.6296C1.45345 8.16669 0.5 9.12014 0.5 10.2963V19.6667C0.5 20.8428 1.45345 21.7963 2.6296 21.7963H17.963C19.1391 21.7963 20.0926 20.8428 20.0926 19.6667V10.2963C20.0926 9.12014 19.1391 8.16669 17.963 8.16669Z" fill="#566FF8"/>
<path d="M13.2778 19.6667H11.5741C11.5176 19.6676 11.4615 19.6572 11.4091 19.6362C11.3567 19.6152 11.3089 19.5839 11.2687 19.5443C11.2284 19.5046 11.1965 19.4574 11.1747 19.4053C11.1528 19.3532 11.1416 19.2973 11.1416 19.2408C11.1416 19.1843 11.1528 19.1283 11.1747 19.0762C11.1965 19.0241 11.2284 18.9769 11.2687 18.9372C11.3089 18.8976 11.3567 18.8664 11.4091 18.8453C11.4615 18.8243 11.5176 18.8139 11.5741 18.8148H13.2778C13.3897 18.8165 13.4963 18.8622 13.5748 18.9418C13.6533 19.0215 13.6973 19.1289 13.6973 19.2408C13.6973 19.3526 13.6533 19.46 13.5748 19.5397C13.4963 19.6194 13.3897 19.665 13.2778 19.6667Z" fill="white"/>
<path d="M17.111 19.6667H15.4073C15.2954 19.665 15.1887 19.6194 15.1103 19.5397C15.0318 19.46 14.9878 19.3526 14.9878 19.2408C14.9878 19.1289 15.0318 19.0216 15.1103 18.9419C15.1887 18.8622 15.2954 18.8165 15.4073 18.8148H17.111C17.2228 18.8165 17.3295 18.8622 17.408 18.9419C17.4864 19.0216 17.5304 19.1289 17.5304 19.2408C17.5304 19.3526 17.4864 19.46 17.408 19.5397C17.3295 19.6194 17.2228 19.665 17.111 19.6667Z" fill="white"/>
<path d="M20.0928 10.2963V19.6663C20.0928 20.2312 19.8684 20.773 19.4689 21.1725C19.0695 21.5719 18.5277 21.7963 17.9628 21.7963H14.7816C8.26477 20.5863 3.31987 14.9563 3.22607 8.16632H17.9632C18.528 8.16643 19.0697 8.39088 19.4691 8.79032C19.8684 9.18977 20.0928 9.73148 20.0928 10.2963Z" fill="#6C95F8"/>
<path d="M20.0928 10.2963V14.7983C19.9522 14.8068 19.8075 14.8111 19.6669 14.8111C17.6289 14.8162 15.6417 14.1761 13.9898 12.9825C12.3379 11.789 11.1062 10.1032 10.4712 8.16669H17.9632C18.528 8.16679 19.0696 8.39119 19.4689 8.79055C19.8683 9.1899 20.0927 9.73151 20.0928 10.2963Z" fill="#8FB6F8"/>
<path d="M6.88889 17.537C6.88854 17.6498 6.84356 17.758 6.76377 17.8378C6.68397 17.9176 6.57584 17.9626 6.46299 17.963H3.48149C3.36965 17.9613 3.26297 17.9156 3.18449 17.8359C3.106 17.7563 3.06201 17.6489 3.06201 17.537C3.06201 17.4252 3.106 17.3178 3.18449 17.2381C3.26297 17.1584 3.36965 17.1128 3.48149 17.1111H6.46299C6.5381 17.1113 6.61173 17.132 6.67589 17.1711L6.68009 17.1754C6.75693 17.2194 6.81803 17.2865 6.85478 17.3671C6.85058 17.3713 6.85478 17.3713 6.85478 17.3713C6.87709 17.4237 6.88869 17.48 6.88889 17.537Z" fill="#C6E5FF"/>
<path d="M9.01849 19.2407C9.02013 19.2637 9.01725 19.2869 9.00999 19.3089C8.99533 19.4088 8.945 19.5001 8.86828 19.5659C8.79156 19.6317 8.69363 19.6675 8.59259 19.6667H3.48149C3.36965 19.6649 3.26297 19.6193 3.18449 19.5396C3.106 19.4599 3.06201 19.3526 3.06201 19.2407C3.06201 19.1289 3.106 19.0215 3.18449 18.9418C3.26297 18.8621 3.36965 18.8165 3.48149 18.8148H8.59259C8.70544 18.8151 8.81357 18.8601 8.89336 18.9399C8.97316 19.0197 9.01814 19.1278 9.01849 19.2407Z" fill="#C6E5FF"/>
<path d="M8.16676 11.5741V14.13C8.1661 14.3557 8.07614 14.572 7.91652 14.7316C7.7569 14.8913 7.5406 14.9812 7.31486 14.9819H3.90746C3.68174 14.9812 3.46545 14.8913 3.30584 14.7316C3.14624 14.572 3.0563 14.3557 3.05566 14.13V11.5741C3.05575 11.4183 3.09872 11.2656 3.17986 11.1326C3.261 10.9996 3.37718 10.8915 3.51566 10.8202C3.63589 10.755 3.77068 10.7212 3.90746 10.7222H7.31486C7.54061 10.7228 7.75692 10.8128 7.91655 10.9724C8.07617 11.132 8.16613 11.3483 8.16676 11.5741Z" fill="#C6E5FF"/>
<path d="M6.85488 17.3667C6.79538 17.3028 6.73568 17.2389 6.68018 17.175C6.75702 17.219 6.81812 17.2861 6.85488 17.3667Z" fill="#FEEC88"/>
<path d="M8.16673 11.5741V14.13C8.16607 14.3557 8.0761 14.572 7.91648 14.7317C7.75686 14.8913 7.54056 14.9812 7.31483 14.9819H5.10843C4.35587 13.6899 3.81795 12.2843 3.51562 10.82C3.63586 10.7548 3.77065 10.7211 3.90743 10.722H7.31483C7.5406 10.7226 7.75695 10.8126 7.91658 10.9723C8.07621 11.132 8.16614 11.3483 8.16673 11.5741Z" fill="#EAF7FF"/>
<path d="M9.01849 19.2407C9.02014 19.2638 9.01725 19.287 9.00999 19.3089C8.79289 19.1513 8.57999 18.9894 8.37549 18.8148H8.59259C8.70544 18.8152 8.81357 18.8601 8.89337 18.9399C8.97316 19.0197 9.01815 19.1279 9.01849 19.2407Z" fill="#EAF7FF"/>
</svg>
