<svg width="24" height="24" viewBox="0 0 24 24" fill="none" xmlns="http://www.w3.org/2000/svg">
<path d="M19.191 2.15625H3.27502C3.17382 2.15624 3.07361 2.17617 2.98011 2.2149C2.88661 2.25362 2.80165 2.31039 2.73009 2.38195C2.65853 2.45351 2.60177 2.53846 2.56304 2.63196C2.52432 2.72546 2.50439 2.82567 2.50439 2.92687V13.875H19.9616V2.92687C19.9616 2.82567 19.9417 2.72546 19.9029 2.63196C19.8642 2.53846 19.8074 2.45351 19.7359 2.38195C19.6643 2.31039 19.5794 2.25362 19.4859 2.2149C19.3924 2.17617 19.2922 2.15624 19.191 2.15625V2.15625Z" fill="#73849B"/>
<path d="M3.91064 2.92687C3.91064 2.82567 3.93057 2.72546 3.96929 2.63196C4.00802 2.53846 4.06478 2.45351 4.13634 2.38195C4.2079 2.31039 4.29286 2.25362 4.38636 2.2149C4.47986 2.17617 4.58007 2.15624 4.68127 2.15625H3.27502C3.17382 2.15624 3.07361 2.17617 2.98011 2.2149C2.88661 2.25362 2.80165 2.31039 2.73009 2.38195C2.65853 2.45351 2.60177 2.53846 2.56304 2.63196C2.52432 2.72546 2.50439 2.82567 2.50439 2.92687V13.4213H3.91064" fill="#91A6BC"/>
<path d="M4.96143 12.7903V15.4875H16.3267V12.7903H4.96143Z" fill="#D4E1F4"/>
<path d="M22.8488 12.1233H16.4935C16.4101 12.1232 16.3274 12.1396 16.2503 12.1715C16.1732 12.2034 16.1031 12.2502 16.0441 12.3092C15.9851 12.3681 15.9383 12.4382 15.9063 12.5153C15.8744 12.5924 15.8579 12.675 15.8579 12.7584V21.2086C15.858 21.3771 15.925 21.5387 16.0442 21.6578C16.1634 21.7769 16.325 21.8438 16.4935 21.8438H22.8488C23.0174 21.8438 23.179 21.7769 23.2982 21.6578C23.4174 21.5387 23.4844 21.3771 23.4845 21.2086V12.7584C23.4845 12.675 23.468 12.5924 23.4361 12.5153C23.4041 12.4382 23.3573 12.3681 23.2983 12.3092C23.2392 12.2502 23.1692 12.2034 23.0921 12.1715C23.0149 12.1396 22.9323 12.1232 22.8488 12.1233Z" fill="#6D7486"/>
<path d="M5.89875 19.8928V21.1261C5.89881 21.2204 5.88029 21.3137 5.84425 21.4008C5.8082 21.4879 5.75534 21.567 5.68869 21.6337C5.62204 21.7004 5.5429 21.7532 5.4558 21.7893C5.3687 21.8253 5.27535 21.8438 5.18109 21.8438H1.23328C1.04295 21.8437 0.860419 21.7681 0.725835 21.6335C0.591251 21.499 0.515637 21.3164 0.515625 21.1261V19.8928H5.89875Z" fill="#6D7486"/>
<path d="M0.515625 13.4213H5.89875V19.8928H0.515625V13.4213Z" fill="#FB6771"/>
<path d="M5.18109 12.0642H1.23328C1.04295 12.0642 0.860419 12.1398 0.725835 12.2744C0.591251 12.409 0.515637 12.5915 0.515625 12.7819V13.4212H5.89875V12.7819C5.89881 12.6876 5.88029 12.5943 5.84425 12.5072C5.8082 12.4201 5.75534 12.3409 5.68869 12.2743C5.62204 12.2076 5.5429 12.1548 5.4558 12.1187C5.3687 12.0827 5.27535 12.0641 5.18109 12.0642V12.0642Z" fill="#6D7486"/>
<path d="M16.811 13.1714H22.5307V20.16H16.811V13.1714Z" fill="#88CED8"/>
<path d="M14.0093 17.4169C14.1611 17.4168 14.3114 17.4467 14.4517 17.5047C14.592 17.5628 14.7194 17.648 14.8268 17.7553C14.9341 17.8627 15.0193 17.9901 15.0773 18.1304C15.1354 18.2706 15.1653 18.421 15.1652 18.5728H7.07178C7.07172 18.4209 7.1016 18.2706 7.1597 18.1303C7.2178 17.99 7.30299 17.8625 7.41039 17.7551C7.51779 17.6478 7.64529 17.5627 7.78562 17.5046C7.92594 17.4466 8.07633 17.4167 8.22818 17.4169C8.32939 17.4169 8.4296 17.3969 8.5231 17.3582C8.6166 17.3195 8.70155 17.2627 8.77311 17.1912C8.84467 17.1196 8.90144 17.0346 8.94016 16.9412C8.97889 16.8477 8.99881 16.7474 8.99881 16.6462V15.4875H13.2382V16.6462C13.2383 16.8507 13.3196 17.0467 13.4642 17.1912C13.6088 17.3357 13.8048 17.4169 14.0093 17.4169V17.4169Z" fill="#BDCBDB"/>
<path d="M11.1182 13.7536C11.1944 13.7536 11.2689 13.7762 11.3323 13.8185C11.3957 13.8609 11.445 13.9211 11.4742 13.9915C11.5034 14.0619 11.511 14.1393 11.4961 14.2141C11.4813 14.2888 11.4446 14.3575 11.3907 14.4114C11.3368 14.4653 11.2681 14.502 11.1934 14.5168C11.1186 14.5317 11.0412 14.5241 10.9708 14.4949C10.9004 14.4657 10.8402 14.4163 10.7978 14.353C10.7555 14.2896 10.7329 14.2151 10.7329 14.1389C10.733 14.0368 10.7736 13.9388 10.8459 13.8666C10.9181 13.7943 11.0161 13.7537 11.1182 13.7536V13.7536Z" fill="#6D7486"/>
<path d="M0.515625 13.4213H1.92188V19.8928H0.515625V13.4213Z" fill="#FF99A3"/>
<path d="M2.63953 12.0642H1.23328C1.04295 12.0642 0.860419 12.1398 0.725835 12.2744C0.591251 12.409 0.515637 12.5915 0.515625 12.7819V13.4212H1.92188V12.7819C1.92189 12.5915 1.9975 12.409 2.13209 12.2744C2.26667 12.1398 2.4492 12.0642 2.63953 12.0642Z" fill="#B0B5CA"/>
<path d="M1.92188 21.1261V19.8928H0.515625V21.1261C0.515637 21.3164 0.591251 21.499 0.725835 21.6335C0.860419 21.7681 1.04295 21.8437 1.23328 21.8438H2.63953C2.4492 21.8437 2.26667 21.7681 2.13209 21.6335C1.9975 21.499 1.92189 21.3164 1.92188 21.1261Z" fill="#B0B5CA"/>
<path d="M16.811 13.1714H18.2173V20.16H16.811V13.1714Z" fill="#ADF2F7"/>
<path d="M10.8225 17.6981H10.8042C10.7296 17.6981 10.6581 17.6684 10.6053 17.6157C10.5526 17.5629 10.5229 17.4914 10.5229 17.4168C10.5229 17.3422 10.5526 17.2707 10.6053 17.2179C10.6581 17.1652 10.7296 17.1356 10.8042 17.1356H10.8225C10.8971 17.1356 10.9687 17.1652 11.0214 17.2179C11.0741 17.2707 11.1038 17.3422 11.1038 17.4168C11.1038 17.4914 11.0741 17.5629 11.0214 17.6157C10.9687 17.6684 10.8971 17.6981 10.8225 17.6981Z" fill="#B0B5CA"/>
<path d="M20.0122 21.2037H19.3306C19.256 21.2037 19.1844 21.1741 19.1317 21.1214C19.0789 21.0686 19.0493 20.9971 19.0493 20.9225C19.0493 20.8479 19.0789 20.7764 19.1317 20.7236C19.1844 20.6709 19.256 20.6412 19.3306 20.6412H20.0122C20.0868 20.6412 20.1583 20.6709 20.2111 20.7236C20.2638 20.7764 20.2934 20.8479 20.2934 20.9225C20.2934 20.9971 20.2638 21.0686 20.2111 21.1214C20.1583 21.1741 20.0868 21.2037 20.0122 21.2037V21.2037Z" fill="#4A5160"/>
<path d="M3.20724 21.2382C3.12501 21.2382 3.04462 21.2138 2.97626 21.1681C2.90789 21.1225 2.8546 21.0575 2.82314 20.9815C2.79168 20.9056 2.78345 20.822 2.7995 20.7413C2.81555 20.6607 2.85515 20.5866 2.9133 20.5284C2.97145 20.4703 3.04554 20.4307 3.12619 20.4147C3.20684 20.3986 3.29044 20.4069 3.36641 20.4383C3.44238 20.4698 3.50731 20.5231 3.553 20.5915C3.59868 20.6598 3.62307 20.7402 3.62307 20.8225C3.62294 20.9327 3.57909 21.0384 3.50113 21.1163C3.42318 21.1943 3.31748 21.2381 3.20724 21.2382Z" fill="#4A5160"/>
<path d="M11.5034 17.4168C11.5034 17.4914 11.5331 17.563 11.5858 17.6157C11.6385 17.6684 11.7101 17.6981 11.7847 17.6981H14.0473C14.1142 17.698 14.1789 17.6741 14.2297 17.6306C14.2806 17.5872 14.3143 17.527 14.3248 17.4609C14.222 17.4317 14.1157 17.4169 14.0088 17.4169C13.8949 17.417 13.7824 17.3918 13.6794 17.3432C13.5764 17.2945 13.4855 17.2236 13.4132 17.1356H11.7847C11.7101 17.1356 11.6386 17.1652 11.5858 17.218C11.5331 17.2707 11.5034 17.3422 11.5034 17.4168V17.4168Z" fill="#B0B5CA"/>
</svg>
