<svg width="24" height="24" viewBox="0 0 24 24" fill="none" xmlns="http://www.w3.org/2000/svg">
<path fill-rule="evenodd" clip-rule="evenodd" d="M18.0207 6.70708C18.4112 7.0976 18.4112 7.73077 18.0207 8.12129L8.12117 18.0208C7.73064 18.4113 7.09748 18.4113 6.70696 18.0208C6.31643 17.6303 6.31643 16.9971 6.70696 16.6066L16.6065 6.70708C16.997 6.31655 17.6301 6.31655 18.0207 6.70708Z" fill="#46485C"/>
<path fill-rule="evenodd" clip-rule="evenodd" d="M18.7785 11.7071C19.169 12.0976 19.169 12.7308 18.7785 13.1213L13.1216 18.7781C12.7311 19.1687 12.0979 19.1687 11.7074 18.7781C11.3169 18.3876 11.3169 17.7545 11.7074 17.3639L17.3643 11.7071C17.7548 11.3166 18.388 11.3166 18.7785 11.7071Z" fill="#46485C"/>
</svg>
