<svg width="24" height="24" viewBox="0 0 24 24" fill="none" xmlns="http://www.w3.org/2000/svg">
<path d="M2 21H8C8.6 21 9 20.6 9 20C9 19.4 8.6 19 8 19H3.1C3.6 15.6 6.6 13 10 13C12.8 13 15.1 10.8 15.1 8.00002C15.1 5.20002 12.9 2.90002 10.1 2.90002C7.3 2.90002 5 5.10002 5 7.90002C5 9.30002 5.6 10.7 6.6 11.7C3.2 13 1 16.3 1 20C1 20.6 1.4 21 2 21ZM10 5.00002C11.7 5.00002 13 6.30002 13 8.00002C13 9.70002 11.7 11 10 11C8.3 11 7 9.70002 7 8.00002C7 6.30002 8.3 5.00002 10 5.00002ZM20.2 9.30002C19.8 8.90002 19.2 8.90002 18.8 9.30002L12.5 15.6C12.2 15.9 12.3 15.9 11 19.7C10.7 20.5 11.5 21.2 12.3 21C16.1 19.7 16.1 19.8 16.4 19.5L22.7 13.2C23.1 12.8 23.1 12.2 22.7 11.8L20.2 9.30002ZM15.2 17.9L13.6 18.4L14.1 16.8L19.5 11.4L20.6 12.5L15.2 17.9Z" fill="#393F52"/>
</svg>
