<svg width="300" height="173" viewBox="0 0 300 173" fill="none" xmlns="http://www.w3.org/2000/svg">
<g clip-path="url(#clip0_7075_55422)">
<path d="M57.4474 24.9774C93.06 11.7206 129.257 23.4415 153.802 48.9683C178.347 74.4951 229.869 31.3488 257.191 56.8344C275.837 74.227 267.297 118.944 241.729 138.314C206.978 164.638 101.293 151.28 78.4286 146.8C52.0903 141.638 32.8354 125.979 25.0123 106.972C6.16459 61.1748 41.7103 30.84 57.4474 24.9774Z" fill="#E7F3FE"/>
<path d="M179.171 43.3945C179.294 42.3018 179.356 41.2031 179.356 40.1035C179.356 39.5165 179.337 38.9338 179.303 38.3553L173.879 36.5985C173.551 34.346 172.905 32.1519 171.958 30.0827L175.558 25.6452C174.729 24.1816 173.776 22.7922 172.71 21.4922L167.285 23.267C165.698 21.6398 163.89 20.2454 161.914 19.1251L162.223 13.4104C160.696 12.7131 159.112 12.1501 157.488 11.7275L154.138 16.3627C151.901 15.9842 149.621 15.9243 147.367 16.1848L144.266 11.3777C142.622 11.7132 141.01 12.1908 139.448 12.8053L139.455 18.5286C137.423 19.5418 135.544 20.8379 133.874 22.3783L128.553 20.3155C127.418 21.5581 126.392 22.8961 125.486 24.3147L128.844 28.9379C127.789 30.954 127.027 33.1107 126.58 35.3428L121.072 36.8125C120.95 37.9052 120.888 39.0039 120.887 40.1035C120.887 40.6906 120.907 41.2733 120.94 41.8517L126.364 43.612C126.692 45.8645 127.339 48.0585 128.285 50.1277L124.685 54.5653C125.514 56.0289 126.467 57.4183 127.533 58.7183L132.958 56.9435C134.545 58.5694 136.353 59.9626 138.328 61.0819L138.02 66.7967C139.547 67.4939 141.131 68.057 142.755 68.4796L146.107 63.8443C148.344 64.2229 150.624 64.2828 152.878 64.0222L155.98 68.8294C157.624 68.494 159.237 68.0164 160.8 67.4018L160.793 61.6784C162.824 60.665 164.702 59.3686 166.372 57.8279L171.693 59.8907C172.826 58.6491 173.852 57.3123 174.758 55.8949L171.4 51.2717C172.455 49.2558 173.217 47.099 173.663 44.8668L179.171 43.3945ZM150.122 51.6009C147.854 51.6011 145.637 50.9268 143.751 49.6635C141.865 48.4001 140.395 46.6043 139.527 44.5033C138.659 42.4022 138.432 40.0902 138.874 37.8597C139.317 35.6292 140.409 33.5803 142.013 31.9722C143.616 30.3641 145.66 29.269 147.884 28.8253C150.108 28.3817 152.414 28.6095 154.509 29.4798C156.605 30.3502 158.396 31.8241 159.656 33.7151C160.916 35.6061 161.588 37.8293 161.588 40.1035C161.588 43.1528 160.38 46.0772 158.229 48.2334C156.079 50.3896 153.163 51.6009 150.122 51.6009Z" fill="#9EC8FF"/>
<path d="M165.76 53.2168C165.679 53.2167 165.599 53.1934 165.531 53.1496C165.462 53.1058 165.407 53.0432 165.372 52.9693C165.338 52.8953 165.325 52.813 165.336 52.732C165.346 52.6511 165.379 52.5747 165.431 52.512C167.555 49.9449 168.986 46.8731 169.584 43.5918C170.183 40.3106 169.93 36.9301 168.85 33.7751C168.829 33.7214 168.82 33.6641 168.823 33.6068C168.825 33.5495 168.839 33.4932 168.863 33.4412C168.888 33.3893 168.922 33.3428 168.965 33.3045C169.007 33.2661 169.057 33.2367 169.111 33.218C169.165 33.1993 169.223 33.1917 169.28 33.1955C169.337 33.1994 169.392 33.2146 169.444 33.2404C169.495 33.2662 169.54 33.3021 169.577 33.3458C169.614 33.3895 169.642 33.4402 169.66 33.4949C170.788 36.7893 171.052 40.3193 170.427 43.7457C169.802 47.1721 168.309 50.3797 166.09 53.0603C166.05 53.1092 166 53.1485 165.943 53.1755C165.886 53.2026 165.824 53.2167 165.76 53.2168Z" fill="white"/>
<path d="M164.1 26.0792C163.991 26.0791 163.886 26.0373 163.807 25.9624C161.889 24.1459 159.619 22.7438 157.139 21.8428C157.086 21.8235 157.038 21.794 156.996 21.7558C156.955 21.7177 156.921 21.6717 156.897 21.6206C156.849 21.5173 156.844 21.399 156.883 21.2919C156.922 21.1848 157.001 21.0975 157.104 21.0493C157.207 21.0011 157.325 20.9959 157.432 21.0349C160.022 21.9765 162.392 23.4416 164.394 25.3392C164.456 25.3983 164.5 25.4748 164.518 25.5588C164.537 25.6429 164.53 25.7306 164.498 25.8106C164.467 25.8907 164.412 25.9593 164.341 26.0077C164.27 26.056 164.186 26.0819 164.1 26.0818V26.0792Z" fill="white"/>
<path d="M145.674 21.2867C145.569 21.2868 145.468 21.2486 145.39 21.1791C145.312 21.1097 145.261 21.0139 145.248 20.9098C145.236 20.8057 145.261 20.7005 145.32 20.614C145.379 20.5275 145.468 20.4656 145.57 20.4401C147.193 20.0307 148.86 19.824 150.534 19.8248C150.648 19.8248 150.757 19.87 150.837 19.9506C150.917 20.0312 150.963 20.1405 150.963 20.2545C150.963 20.3685 150.917 20.4778 150.837 20.5584C150.757 20.639 150.648 20.6842 150.534 20.6842C148.931 20.6836 147.334 20.8816 145.779 21.2739C145.744 21.2823 145.709 21.2867 145.674 21.2867Z" fill="white"/>
<path d="M87.0119 116.197C87.097 115.44 87.1396 114.679 87.1396 113.917C87.1396 113.511 87.1274 113.107 87.1028 112.706L83.3468 111.488C83.1197 109.927 82.6718 108.407 82.0165 106.974L84.5074 103.897C83.9336 102.883 83.274 101.921 82.5359 101.021L78.7782 102.25C77.6795 101.123 76.4273 100.158 75.0591 99.3834L75.2725 95.4246C74.215 94.9418 73.1177 94.5519 71.9931 94.2591L69.6728 97.4693C68.1229 97.2075 66.5439 97.1662 64.9825 97.3464L62.8345 94.0167C61.6959 94.2498 60.5795 94.5807 59.4976 95.006L59.5028 98.97C58.0956 99.6713 56.7942 100.568 55.6371 101.634L51.9514 100.208C51.166 101.068 50.4557 101.994 49.8282 102.976L52.1545 106.178C51.424 107.574 50.8958 109.068 50.5859 110.614L46.7708 111.632C46.6862 112.389 46.6435 113.15 46.6431 113.912C46.6431 114.319 46.6568 114.723 46.6799 115.123L50.4368 116.342C50.6637 117.902 51.1117 119.422 51.7671 120.855L49.2762 123.929C49.8499 124.942 50.5095 125.905 51.2476 126.805L55.0045 125.575C56.1037 126.702 57.3561 127.667 58.7245 128.443L58.5102 132.396C59.5678 132.88 60.6654 133.27 61.7905 133.562L64.1142 130.361C65.0329 130.517 65.963 130.595 66.8948 130.595C67.5329 130.594 68.1705 130.558 68.8045 130.485L70.9525 133.814C72.0912 133.582 73.2077 133.251 74.2894 132.825V128.86C75.6967 128.159 76.9981 127.262 78.1551 126.196L81.8408 127.622C82.6259 126.762 83.3359 125.837 83.9631 124.855L81.6376 121.653C82.3651 120.257 82.8901 118.764 83.1968 117.219L87.0119 116.197ZM66.8905 121.881C65.3197 121.881 63.7841 121.414 62.478 120.539C61.1719 119.664 60.1539 118.42 59.5528 116.965C58.9516 115.51 58.7944 113.908 59.1008 112.364C59.4073 110.819 60.1637 109.4 61.2745 108.286C62.3852 107.172 63.8004 106.414 65.341 106.106C66.8817 105.799 68.4786 105.957 69.9299 106.56C71.3811 107.162 72.6216 108.183 73.4943 109.493C74.367 110.802 74.8328 112.342 74.8328 113.917C74.8326 116.029 73.9957 118.055 72.5063 119.548C71.0169 121.042 68.9969 121.881 66.8905 121.881Z" fill="#9EC8FF"/>
<path d="M77.7233 123.132C77.6419 123.132 77.5622 123.109 77.4934 123.065C77.4247 123.021 77.3699 122.958 77.3354 122.884C77.3008 122.81 77.288 122.728 77.2984 122.647C77.3089 122.566 77.3421 122.49 77.3942 122.427C78.8503 120.666 79.8307 118.56 80.2412 116.31C80.6517 114.06 80.4786 111.741 79.7385 109.578C79.7049 109.471 79.7141 109.355 79.7644 109.255C79.8146 109.155 79.9018 109.079 80.0074 109.042C80.113 109.006 80.2286 109.012 80.3297 109.06C80.4308 109.107 80.5093 109.193 80.5485 109.298C81.3368 111.601 81.5214 114.069 81.0844 116.464C80.6475 118.86 79.6037 121.103 78.0533 122.977C78.013 123.026 77.9626 123.065 77.9055 123.091C77.8485 123.118 77.7863 123.132 77.7233 123.132Z" fill="white"/>
<path d="M76.5727 104.336C76.4638 104.336 76.3589 104.294 76.2796 104.219C74.9643 102.973 73.4079 102.011 71.7067 101.394C71.6011 101.354 71.5153 101.274 71.4681 101.171C71.4208 101.068 71.4159 100.951 71.4544 100.845C71.4929 100.738 71.5717 100.652 71.6736 100.603C71.7756 100.555 71.8925 100.548 71.999 100.586C73.81 101.244 75.4668 102.267 76.8667 103.594C76.9296 103.653 76.9732 103.73 76.992 103.814C77.0109 103.898 77.004 103.986 76.9722 104.066C76.9405 104.146 76.8854 104.215 76.8142 104.264C76.7429 104.312 76.6588 104.338 76.5727 104.337V104.336Z" fill="white"/>
<path d="M63.8098 101.016C63.7052 101.016 63.6042 100.978 63.5258 100.909C63.4473 100.839 63.397 100.744 63.3841 100.639C63.3713 100.535 63.3968 100.43 63.456 100.344C63.5151 100.257 63.6038 100.195 63.7052 100.17C64.8403 99.8837 66.0063 99.7394 67.1767 99.7401C67.2903 99.7401 67.3993 99.7853 67.4797 99.8659C67.5601 99.9465 67.6052 100.056 67.6052 100.17C67.6052 100.284 67.5601 100.393 67.4797 100.474C67.3993 100.554 67.2903 100.6 67.1767 100.6C66.0771 100.599 64.9816 100.735 63.9152 101.004C63.8808 101.012 63.8454 101.017 63.8098 101.016Z" fill="white"/>
<path d="M196.678 65.2917C196.678 65.07 196.672 64.8494 196.66 64.6299L199.475 62.3634C199.257 61.2476 198.914 60.16 198.453 59.1214L194.818 58.8455C193.992 57.5389 192.924 56.4029 191.672 55.4987L191.66 51.8665C190.637 51.3282 189.556 50.91 188.438 50.6202L185.952 53.301C184.454 53.1371 182.939 53.2561 181.485 53.6517L178.637 51.3903C177.57 51.8561 176.561 52.4439 175.629 53.142L176.168 56.7424C175.098 57.8097 174.237 59.0689 173.631 60.4545L170.087 61.2788C169.782 62.3966 169.607 63.5458 169.563 64.7038L172.684 66.5088C172.839 68.0556 173.293 69.5575 174.02 70.9308L172.457 74.2166C173.127 75.1352 173.897 75.9755 174.753 76.7221L178.096 75.4079C179.435 76.2841 180.936 76.882 182.51 77.1664L184.087 80.423C184.275 80.4299 184.463 80.4351 184.653 80.4351C185.582 80.4341 186.508 80.3478 187.42 80.1772L188.486 76.7272C190.018 76.21 191.43 75.388 192.638 74.3103L196.152 75.1028C196.877 74.2501 197.505 73.3196 198.026 72.3284L195.987 69.3253C196.445 68.0302 196.679 66.666 196.678 65.2917ZM184.518 70.6059C183.516 70.6059 182.536 70.308 181.703 69.7497C180.87 69.1915 180.221 68.398 179.837 67.4697C179.454 66.5414 179.353 65.5199 179.549 64.5344C179.744 63.5488 180.227 62.6436 180.935 61.9331C181.644 61.2226 182.547 60.7387 183.53 60.5427C184.512 60.3466 185.531 60.4473 186.457 60.8318C187.383 61.2163 188.174 61.8675 188.731 62.703C189.287 63.5384 189.585 64.5207 189.585 65.5255C189.585 66.1927 189.454 66.8533 189.199 67.4697C188.944 68.0861 188.571 68.6461 188.101 69.1179C187.63 69.5897 187.072 69.9639 186.457 70.2192C185.842 70.4745 185.183 70.6059 184.518 70.6059Z" fill="#9EC8FF"/>
<g opacity="0.8">
<path d="M243.514 36.0244H239.16C238.351 36.0235 237.576 35.701 237.005 35.1277C236.433 34.5544 236.111 33.7771 236.11 32.9663V28.6001C236.111 27.7895 236.433 27.0124 237.005 26.4393C237.577 25.8662 238.352 25.5438 239.16 25.5429H243.514C244.323 25.5438 245.098 25.8662 245.669 26.4393C246.241 27.0124 246.563 27.7895 246.564 28.6001V32.9663C246.563 33.7771 246.242 34.5544 245.67 35.1277C245.098 35.701 244.323 36.0235 243.514 36.0244ZM239.16 26.7462C238.67 26.7467 238.2 26.9421 237.853 27.2897C237.506 27.6372 237.311 28.1085 237.31 28.6001V32.9663C237.311 33.4581 237.506 33.9296 237.853 34.2774C238.199 34.6251 238.67 34.8207 239.16 34.8211H243.514C244.005 34.8207 244.475 34.6251 244.822 34.2774C245.169 33.9296 245.364 33.4581 245.364 32.9663V28.6001C245.363 28.1085 245.168 27.6372 244.821 27.2897C244.475 26.9421 244.005 26.7467 243.514 26.7462H239.16Z" fill="#9EC8FF"/>
</g>
<g opacity="0.8">
<path d="M223.024 36.0244H218.668C217.86 36.0233 217.085 35.7007 216.514 35.1274C215.942 34.5541 215.621 33.777 215.62 32.9663V28.6001C215.621 27.7896 215.942 27.0125 216.514 26.4394C217.085 25.8662 217.86 25.5438 218.668 25.5429H223.024C223.832 25.5438 224.607 25.8662 225.178 26.4394C225.75 27.0125 226.072 27.7896 226.072 28.6001V32.9663C226.072 33.777 225.75 34.5541 225.179 35.1274C224.607 35.7007 223.832 36.0233 223.024 36.0244ZM218.668 26.7462C218.178 26.7469 217.708 26.9424 217.362 27.29C217.015 27.6375 216.82 28.1087 216.82 28.6001V32.9663C216.82 33.458 217.015 33.9294 217.362 34.2771C217.708 34.6248 218.178 34.8204 218.668 34.8211H223.024C223.514 34.8204 223.984 34.6248 224.331 34.2771C224.677 33.9294 224.872 33.458 224.872 32.9663V28.6001C224.872 28.1087 224.677 27.6375 224.33 27.29C223.984 26.9424 223.514 26.7469 223.024 26.7462H218.668Z" fill="#9EC8FF"/>
</g>
<path d="M221.118 33.482H221.093C221.018 33.4783 220.945 33.4583 220.879 33.4234C220.813 33.3885 220.755 33.3396 220.71 33.28L217.58 29.1872C217.501 29.0784 217.468 28.9429 217.487 28.8096C217.506 28.6763 217.576 28.5558 217.683 28.4738C217.789 28.3919 217.924 28.355 218.057 28.371C218.19 28.3871 218.312 28.4548 218.396 28.5597L221.156 32.1696L228.362 24.4282C228.408 24.378 228.464 24.3374 228.525 24.3088C228.587 24.2802 228.654 24.2641 228.721 24.2615C228.789 24.2589 228.857 24.2698 228.921 24.2935C228.984 24.3173 229.043 24.3535 229.092 24.3999C229.142 24.4464 229.182 24.5023 229.21 24.5643C229.238 24.6264 229.253 24.6934 229.255 24.7615C229.257 24.8295 229.246 24.8973 229.222 24.9609C229.197 25.0246 229.161 25.0827 229.114 25.1321L221.494 33.3187C221.446 33.3704 221.388 33.4115 221.323 33.4396C221.258 33.4677 221.188 33.4821 221.118 33.482Z" fill="#F37168"/>
<path d="M257.905 148.784C240.076 147.91 179.437 149.391 160.994 149.968C142.551 150.544 121.143 149.206 110.022 147.238C98.9015 145.27 34.6218 147.41 37.5386 152.698C40.4555 157.987 66.1783 155.065 95.3486 157.193C124.519 159.32 190.123 156.927 204.921 157.193C219.718 157.458 233.292 156.661 252.359 155.597C271.426 154.533 268.239 149.29 257.905 148.784Z" fill="#CCE2FF"/>
<path d="M75.6975 38.1112H38.4341V99.3559H75.6975V38.1112Z" fill="#99BBEB"/>
<path d="M74.4731 39.3592H40.3862V97.0215H74.4731V39.3592Z" fill="white"/>
<path d="M50.5815 62.482C51.8673 59.7136 54.0358 58.8275 57.6015 58.8275C61.8478 58.8275 64.0524 60.3746 64.6773 62.6153C57.0735 62.7201 50.5815 62.482 50.5815 62.482Z" fill="#9BD6E8"/>
<path d="M56.1197 45.3653C54.3197 45.8707 54.4011 46.884 53.8054 47.8235C53.2097 48.7629 51.9043 49.3903 51.7483 50.0169C51.5923 50.6435 52.1494 51.949 51.4911 52.6813C50.8328 53.4136 50.6057 53.7772 50.8663 54.5086C51.1268 55.24 51.6994 56.3883 51.7517 56.5456C51.804 56.7029 52.5325 57.7987 53.418 57.9551C54.3034 58.1116 55.9697 58.3728 56.8028 58.7381C57.636 59.1034 60.3171 58.2706 61.8025 58.323C63.288 58.3754 64.302 57.2761 64.1983 56.5456C64.0945 55.815 65.2945 54.3521 65.292 53.099C65.292 51.7531 63.7294 50.7492 63.3128 49.8613C62.8963 48.9735 63.3583 47.4075 61.8 46.4827C60.8125 45.8956 60.1337 45.9481 59.3528 45.6868C58.572 45.4255 57.2648 45.0447 56.1197 45.3653Z" fill="#3A384D"/>
<path d="M58.3062 61.0373C57.8999 61.6389 57.6016 61.6638 57.1611 61.0373C56.8096 60.5388 56.1196 59.4042 56.1196 58.8327V53.1007C56.1203 52.824 56.2303 52.5588 56.4254 52.3631C56.6206 52.1674 56.8851 52.0571 57.1611 52.0565H58.3062C58.5823 52.0569 58.8471 52.1671 59.0424 52.3628C59.2377 52.5585 59.3478 52.8238 59.3485 53.1007V58.8335C59.3485 59.4068 58.6713 60.4975 58.3062 61.0373Z" fill="#F09959"/>
<path d="M58.3062 52.0556H57.1611C56.8849 52.0563 56.6203 52.1666 56.4251 52.3625C56.2299 52.5584 56.1201 52.8238 56.1196 53.1007V58.2147C57.4053 58.6255 58.5796 57.809 59.3485 56.8894V53.1007C59.348 52.8237 59.2381 52.5581 59.0427 52.3622C58.8473 52.1663 58.5825 52.056 58.3062 52.0556Z" fill="#E38540"/>
<path d="M57.7339 56.8447C59.6463 56.8447 61.1967 54.7263 61.1967 52.1132C61.1967 49.5001 59.6463 47.3817 57.7339 47.3817C55.8214 47.3817 54.271 49.5001 54.271 52.1132C54.271 54.7263 55.8214 56.8447 57.7339 56.8447Z" fill="#F09959"/>
<path d="M59.3484 48.3478C57.161 52.0556 53.9321 51.6894 53.9321 51.6894C53.9321 51.6894 54.0101 46.7809 56.5747 46.5196C59.1393 46.2583 60.6496 47.2932 61.1707 48.9941C61.6918 50.695 61.1707 51.8201 61.1707 51.8201C60.626 51.3615 60.1976 50.7797 59.921 50.1226C59.6851 49.5465 59.4937 48.9532 59.3484 48.3478Z" fill="#3A384D"/>
<path d="M54.3908 53.6644C54.8453 53.4478 54.9512 52.7179 54.6272 52.0341C54.3032 51.3502 53.6721 50.9713 53.2175 51.1878C52.763 51.4043 52.6572 52.1343 52.9812 52.8181C53.3051 53.502 53.9363 53.8809 54.3908 53.6644Z" fill="#F09959"/>
<path d="M60.6857 52.0401C60.3626 52.7277 60.468 53.454 60.9232 53.6731C61.3783 53.8923 62.0083 53.5107 62.3323 52.8274C62.6563 52.1441 62.5509 51.4135 62.0957 51.1944C61.6406 50.9752 61.0097 51.3568 60.6857 52.0401Z" fill="#F09959"/>
<path d="M59.0356 54.6796C59.0356 54.6796 58.4528 55.4368 57.7336 55.4368C57.0145 55.4368 56.4316 54.6796 56.4316 54.6796H59.0356Z" fill="white"/>
<path d="M61.8567 69.988H53.1139C52.8493 69.9803 52.5981 69.8694 52.4136 69.679C52.2292 69.4886 52.126 69.2336 52.126 68.9682C52.126 68.7027 52.2292 68.4477 52.4136 68.2573C52.5981 68.0669 52.8493 67.9561 53.1139 67.9484H61.8567C62.1213 67.9561 62.3725 68.0669 62.557 68.2573C62.7415 68.4477 62.8446 68.7027 62.8446 68.9682C62.8446 69.2336 62.7415 69.4886 62.557 69.679C62.3725 69.8694 62.1213 69.9803 61.8567 69.988Z" fill="#99BBEB"/>
<path d="M63.458 73.1208H51.5094C51.2448 73.1131 50.9936 73.0023 50.8091 72.8119C50.6247 72.6215 50.5215 72.3665 50.5215 72.101C50.5215 71.8356 50.6247 71.5806 50.8091 71.3902C50.9936 71.1998 51.2448 71.0889 51.5094 71.0812H63.458C63.7226 71.0889 63.9738 71.1998 64.1582 71.3902C64.3427 71.5806 64.4459 71.8356 64.4459 72.101C64.4459 72.3665 64.3427 72.6215 64.1582 72.8119C63.9738 73.0023 63.7226 73.1131 63.458 73.1208Z" fill="#99BBEB"/>
<path d="M72.0154 84.3861H42.9514C42.7988 84.3803 42.6543 84.3154 42.5484 84.2051C42.4425 84.0947 42.3833 83.9475 42.3833 83.7944C42.3833 83.6412 42.4425 83.494 42.5484 83.3837C42.6543 83.2733 42.7988 83.2084 42.9514 83.2026H72.0154C72.168 83.2084 72.3124 83.2733 72.4184 83.3837C72.5243 83.494 72.5835 83.6412 72.5835 83.7944C72.5835 83.9475 72.5243 84.0947 72.4184 84.2051C72.3124 84.3154 72.168 84.3803 72.0154 84.3861Z" fill="#99BBEB"/>
<path d="M72.0154 87.1365H42.9514C42.7988 87.1307 42.6543 87.0658 42.5484 86.9554C42.4425 86.8451 42.3833 86.6979 42.3833 86.5447C42.3833 86.3916 42.4425 86.2444 42.5484 86.134C42.6543 86.0237 42.7988 85.9588 42.9514 85.953H72.0154C72.168 85.9588 72.3124 86.0237 72.4184 86.134C72.5243 86.2444 72.5835 86.3916 72.5835 86.5447C72.5835 86.6979 72.5243 86.8451 72.4184 86.9554C72.3124 87.0658 72.168 87.1307 72.0154 87.1365Z" fill="#99BBEB"/>
<path d="M72.0154 89.8869H42.9514C42.7988 89.881 42.6543 89.8161 42.5484 89.7058C42.4425 89.5955 42.3833 89.4482 42.3833 89.2951C42.3833 89.1419 42.4425 88.9947 42.5484 88.8844C42.6543 88.7741 42.7988 88.7092 42.9514 88.7033H72.0154C72.168 88.7092 72.3124 88.7741 72.4184 88.8844C72.5243 88.9947 72.5835 89.1419 72.5835 89.2951C72.5835 89.4482 72.5243 89.5955 72.4184 89.7058C72.3124 89.8161 72.168 89.881 72.0154 89.8869Z" fill="#99BBEB"/>
<path d="M67.9499 63.1619H47.0168C46.7375 63.1617 46.4697 63.0503 46.2722 62.8523C46.0747 62.6542 45.9636 62.3857 45.9634 62.1056V42.7594C45.9636 42.4793 46.0747 42.2107 46.2722 42.0127C46.4697 41.8146 46.7375 41.7033 47.0168 41.703H67.9499C68.2287 41.7042 68.4956 41.8159 68.6924 42.0139C68.8891 42.2118 68.9997 42.4799 69 42.7594V62.1056C68.9997 62.3851 68.8891 62.6531 68.6924 62.8511C68.4956 63.049 68.2287 63.1608 67.9499 63.1619ZM47.0168 42.5625C46.965 42.5632 46.9154 42.5842 46.8787 42.6209C46.8421 42.6577 46.8212 42.7074 46.8205 42.7594V62.1056C46.8212 62.1576 46.8421 62.2073 46.8787 62.244C46.9154 62.2808 46.965 62.3018 47.0168 62.3024H67.9499C68.0018 62.3018 68.0513 62.2808 68.088 62.244C68.1247 62.2073 68.1456 62.1576 68.1462 62.1056V42.7594C68.1456 42.7074 68.1247 42.6577 68.088 42.6209C68.0513 42.5842 68.0018 42.5632 67.9499 42.5625H47.0168Z" fill="#99BBEB"/>
<path d="M50.0373 75.7809L50.6433 77.0126L51.9985 77.2103L51.0179 78.1686L51.2493 79.5214L50.0373 78.8828L48.8253 79.5214L49.0567 78.1686L48.0762 77.2103L49.4313 77.0126L50.0373 75.7809Z" fill="#99BBEB"/>
<path d="M55.0012 75.7809L55.6072 77.0126L56.9623 77.2103L55.9818 78.1686L56.2132 79.5214L55.0012 78.8828L53.7892 79.5214L54.0206 78.1686L53.04 77.2103L54.3952 77.0126L55.0012 75.7809Z" fill="#99BBEB"/>
<path d="M59.9655 75.7809L60.5715 77.0126L61.9267 77.2103L60.9461 78.1686L61.1775 79.5214L59.9655 78.8828L58.7535 79.5214L58.985 78.1686L58.0044 77.2103L59.3595 77.0126L59.9655 75.7809Z" fill="#99BBEB"/>
<path d="M64.9294 75.7809L65.5354 77.0126L66.8905 77.2103L65.91 78.1686L66.1414 79.5214L64.9294 78.8828L63.7174 79.5214L63.9488 78.1686L62.9683 77.2103L64.3234 77.0126L64.9294 75.7809Z" fill="#99BBEB"/>
<path d="M158.774 38.1112H121.51V99.3559H158.774V38.1112Z" fill="#99BBEB"/>
<path d="M157.548 39.3592H123.461V97.0215H157.548V39.3592Z" fill="white"/>
<path d="M135.277 51.8012C135.277 54.5438 136.923 58.9702 140.809 58.8284C144.694 58.6865 145.554 54.4673 145.705 53.2769C145.856 52.0865 135.277 51.8012 135.277 51.8012Z" fill="#7A4E34"/>
<path d="M133.658 62.482C134.943 59.7136 137.112 58.8275 140.678 58.8275C144.923 58.8275 147.128 60.3746 147.753 62.6153C140.15 62.7201 133.658 62.482 133.658 62.482Z" fill="#D54A41"/>
<path d="M141.382 61.0373C140.975 61.6389 140.678 61.6638 140.236 61.0373C139.886 60.5388 139.195 59.4042 139.195 58.8327V53.1007C139.196 52.824 139.305 52.5588 139.501 52.3631C139.696 52.1674 139.96 52.0571 140.236 52.0565H141.382C141.658 52.0571 141.923 52.1674 142.118 52.3631C142.313 52.5588 142.423 52.824 142.424 53.1007V58.8335C142.424 59.4068 141.747 60.4975 141.382 61.0373Z" fill="#F09959"/>
<path d="M141.382 52.0556H140.236C139.96 52.0563 139.695 52.1666 139.5 52.3625C139.305 52.5584 139.195 52.8238 139.195 53.1007V58.2147C140.481 58.6255 141.656 57.809 142.424 56.8894V53.1007C142.423 52.8238 142.313 52.5584 142.118 52.3625C141.923 52.1666 141.658 52.0563 141.382 52.0556Z" fill="#E38540"/>
<path d="M140.809 56.8447C142.722 56.8447 144.272 54.7263 144.272 52.1132C144.272 49.5001 142.722 47.3817 140.809 47.3817C138.897 47.3817 137.346 49.5001 137.346 52.1132C137.346 54.7263 138.897 56.8447 140.809 56.8447Z" fill="#F09959"/>
<path d="M142.714 48.5171C142.303 49.9722 141.401 49.955 140.143 50.4329C138.884 50.9107 138.284 51.3912 137.873 52.3237C137.348 53.5107 138.111 56.9719 138.111 56.9719C138.111 56.9719 134.927 54.5833 135.295 50.8257C135.662 47.068 137.873 45.6129 139.952 45.6129C142.03 45.6129 142.822 46.8832 142.822 46.8832C142.822 46.8832 143.93 46.8883 144.977 48.132C146.385 49.8046 145.952 53.8665 144.977 55.3216C144.002 56.7768 143.348 57.2323 143.374 57.1678C143.4 57.1034 144.284 53.7608 143.808 51.6946C143.332 49.6284 142.714 48.5171 142.714 48.5171Z" fill="#7A4E34"/>
<path d="M142.114 54.6796C142.114 54.6796 141.532 55.4368 140.812 55.4368C140.093 55.4368 139.511 54.6796 139.511 54.6796H142.114Z" fill="white"/>
<path d="M144.932 69.988H136.189C136.053 69.9919 135.918 69.9685 135.791 69.919C135.664 69.8695 135.548 69.7951 135.451 69.7C135.353 69.6049 135.275 69.4911 135.222 69.3654C135.169 69.2397 135.142 69.1047 135.142 68.9682C135.142 68.8317 135.169 68.6966 135.222 68.5709C135.275 68.4452 135.353 68.3315 135.451 68.2364C135.548 68.1413 135.664 68.0668 135.791 68.0173C135.918 67.9679 136.053 67.9444 136.189 67.9484H144.932C145.197 67.9561 145.448 68.0669 145.632 68.2573C145.817 68.4477 145.92 68.7027 145.92 68.9682C145.92 69.2336 145.817 69.4886 145.632 69.679C145.448 69.8694 145.197 69.9803 144.932 69.988Z" fill="#99BBEB"/>
<path d="M146.533 73.1208H134.585C134.449 73.1248 134.314 73.1013 134.187 73.0519C134.06 73.0024 133.944 72.9279 133.847 72.8328C133.749 72.7377 133.671 72.624 133.618 72.4983C133.565 72.3726 133.538 72.2375 133.538 72.101C133.538 71.9646 133.565 71.8295 133.618 71.7038C133.671 71.5781 133.749 71.4643 133.847 71.3692C133.944 71.2741 134.06 71.1997 134.187 71.1502C134.314 71.1007 134.449 71.0773 134.585 71.0812H146.533C146.797 71.0889 147.049 71.1998 147.233 71.3902C147.417 71.5806 147.521 71.8356 147.521 72.101C147.521 72.3665 147.417 72.6215 147.233 72.8119C147.049 73.0023 146.797 73.1131 146.533 73.1208Z" fill="#99BBEB"/>
<path d="M155.091 84.3861H126.028C125.948 84.3892 125.869 84.3761 125.795 84.3477C125.721 84.3194 125.653 84.2763 125.596 84.221C125.538 84.1658 125.493 84.0995 125.462 84.0262C125.431 83.9529 125.415 83.874 125.415 83.7944C125.415 83.7147 125.431 83.6359 125.462 83.5625C125.493 83.4892 125.538 83.423 125.596 83.3677C125.653 83.3125 125.721 83.2694 125.795 83.241C125.869 83.2126 125.948 83.1996 126.028 83.2026H155.091C155.17 83.1996 155.249 83.2126 155.324 83.241C155.398 83.2694 155.466 83.3125 155.523 83.3677C155.58 83.423 155.626 83.4892 155.657 83.5625C155.688 83.6359 155.704 83.7147 155.704 83.7944C155.704 83.874 155.688 83.9529 155.657 84.0262C155.626 84.0995 155.58 84.1658 155.523 84.221C155.466 84.2763 155.398 84.3194 155.324 84.3477C155.249 84.3761 155.17 84.3892 155.091 84.3861Z" fill="#99BBEB"/>
<path d="M155.091 87.1365H126.028C125.948 87.1395 125.869 87.1265 125.795 87.0981C125.721 87.0697 125.653 87.0266 125.596 86.9714C125.538 86.9161 125.493 86.8499 125.462 86.7766C125.431 86.7032 125.415 86.6244 125.415 86.5447C125.415 86.4651 125.431 86.3862 125.462 86.3129C125.493 86.2396 125.538 86.1733 125.596 86.1181C125.653 86.0628 125.721 86.0197 125.795 85.9914C125.869 85.963 125.948 85.9499 126.028 85.953H155.091C155.17 85.9499 155.249 85.963 155.324 85.9914C155.398 86.0197 155.466 86.0628 155.523 86.1181C155.58 86.1733 155.626 86.2396 155.657 86.3129C155.688 86.3862 155.704 86.4651 155.704 86.5447C155.704 86.6244 155.688 86.7032 155.657 86.7766C155.626 86.8499 155.58 86.9161 155.523 86.9714C155.466 87.0266 155.398 87.0697 155.324 87.0981C155.249 87.1265 155.17 87.1395 155.091 87.1365Z" fill="#99BBEB"/>
<path d="M155.091 89.8869H126.028C125.948 89.8899 125.869 89.8768 125.795 89.8485C125.721 89.8201 125.653 89.777 125.596 89.7217C125.538 89.6665 125.493 89.6002 125.462 89.5269C125.431 89.4536 125.415 89.3748 125.415 89.2951C125.415 89.2154 125.431 89.1366 125.462 89.0633C125.493 88.99 125.538 88.9237 125.596 88.8685C125.653 88.8132 125.721 88.7701 125.795 88.7417C125.869 88.7134 125.948 88.7003 126.028 88.7033H155.091C155.17 88.7003 155.249 88.7134 155.324 88.7417C155.398 88.7701 155.466 88.8132 155.523 88.8685C155.58 88.9237 155.626 88.99 155.657 89.0633C155.688 89.1366 155.704 89.2154 155.704 89.2951C155.704 89.3748 155.688 89.4536 155.657 89.5269C155.626 89.6002 155.58 89.6665 155.523 89.7217C155.466 89.777 155.398 89.8201 155.324 89.8485C155.249 89.8768 155.17 89.8899 155.091 89.8869Z" fill="#99BBEB"/>
<path d="M151.029 63.1619H130.092C129.813 63.1617 129.545 63.0503 129.347 62.8523C129.15 62.6542 129.039 62.3857 129.039 62.1056V42.7594C129.039 42.4793 129.15 42.2107 129.347 42.0127C129.545 41.8146 129.813 41.7033 130.092 41.703H151.029C151.308 41.7033 151.576 41.8146 151.773 42.0127C151.971 42.2107 152.082 42.4793 152.082 42.7594V62.1056C152.082 62.3857 151.971 62.6542 151.773 62.8523C151.576 63.0503 151.308 63.1617 151.029 63.1619ZM130.092 42.5625C130.04 42.5632 129.991 42.5842 129.954 42.6209C129.917 42.6577 129.896 42.7074 129.896 42.7594V62.1056C129.896 62.1576 129.917 62.2073 129.954 62.244C129.991 62.2808 130.04 62.3018 130.092 62.3024H151.029C151.08 62.3018 151.13 62.2808 151.167 62.244C151.203 62.2073 151.224 62.1576 151.225 62.1056V42.7594C151.224 42.7074 151.203 42.6577 151.167 42.6209C151.13 42.5842 151.08 42.5632 151.029 42.5625H130.092Z" fill="#99BBEB"/>
<path d="M133.113 75.7809L133.719 77.0126L135.074 77.2103L134.093 78.1686L134.325 79.5214L133.113 78.8828L131.901 79.5214L132.132 78.1686L131.151 77.2103L132.507 77.0126L133.113 75.7809Z" fill="#99BBEB"/>
<path d="M138.077 75.7809L138.683 77.0126L140.038 77.2103L139.058 78.1686L139.289 79.5214L138.077 78.8828L136.865 79.5214L137.097 78.1686L136.116 77.2103L137.471 77.0126L138.077 75.7809Z" fill="#99BBEB"/>
<path d="M143.041 75.7809L143.647 77.0126L145.002 77.2103L144.021 78.1686L144.253 79.5214L143.041 78.8828L141.829 79.5214L142.06 78.1686L141.08 77.2103L142.435 77.0126L143.041 75.7809Z" fill="#99BBEB"/>
<path d="M148.005 75.7809L148.611 77.0126L149.967 77.2103L148.986 78.1686L149.217 79.5214L148.005 78.8828L146.793 79.5214L147.024 78.1686L146.043 77.2103L147.399 77.0126L148.005 75.7809Z" fill="#99BBEB"/>
<path opacity="0.2" d="M125.699 98.743H66.8906L71.0503 38.3382H127.819L125.699 98.743Z" fill="#99BBEB"/>
<path d="M123.964 26.9078H73.0679V110.558H123.964V26.9078Z" fill="#99BBEB"/>
<path d="M122.292 28.6122H75.7339V107.371H122.292V28.6122Z" fill="white"/>
<path d="M94.6741 45.1548C94.6415 45.0576 93.8263 40.3657 93.7312 38.5418C93.6361 36.718 96.6558 36.4567 96.6558 36.4567C96.6558 36.4567 99.1243 35.1211 100.911 35.8052C102.699 36.4894 103.911 37.6402 104.727 39.0713C105.542 40.5023 104.013 44.9717 104.013 44.9717L94.6741 45.1548Z" fill="#2E2D3D"/>
<path d="M89.0717 60.2285C89.0606 60.1511 89.2808 58.3049 89.2885 58.2302C89.7 54.3427 94.4794 53.2451 99.2477 53.2451C104.851 53.2451 108.652 54.2765 109.259 58.3161C109.277 58.4347 109.602 60.2852 109.584 60.4098C99.1988 60.5534 89.0717 60.2285 89.0717 60.2285Z" fill="#D5E1E8"/>
<path d="M100.21 56.2662C99.6547 57.0879 99.2475 57.1257 98.645 56.2662C98.1658 55.5864 96.5664 54.0316 96.5664 53.2486L97.223 45.4272C97.2241 45.0493 97.3743 44.6872 97.6407 44.4199C97.9071 44.1526 98.2681 44.0018 98.645 44.0005H100.21C100.587 44.0016 100.948 44.1523 101.215 44.4196C101.482 44.6869 101.632 45.0492 101.633 45.4272L101.938 53.2486C101.938 54.0333 100.708 55.5296 100.21 56.2662Z" fill="#F09959"/>
<path d="M100.21 43.9987H98.6453C98.2685 44.0001 97.9074 44.1509 97.641 44.4182C97.3746 44.6855 97.2245 45.0476 97.2233 45.4255L96.6533 52.3659C98.4105 52.9271 100.783 51.7866 101.832 50.5309L101.633 45.4255C101.632 45.0475 101.482 44.6852 101.215 44.4179C100.949 44.1506 100.587 43.9999 100.21 43.9987Z" fill="#E38540"/>
<path d="M94.0576 53.8193L96.5665 58.4691C96.5665 58.4691 97.9088 57.3612 98.0391 57.5787C98.1693 57.7961 97.8008 60.537 97.8008 60.537C97.8008 60.537 100.79 60.5774 100.92 60.4511C101.05 60.3247 100.313 57.4738 100.616 57.4738C100.92 57.4738 101.832 58.2998 101.832 58.2998L104.633 53.8236L104.018 53.6731L99.4285 56.145L94.5205 53.723L94.0576 53.8193Z" fill="#BDCCD4"/>
<path d="M96.9268 55.962L98.7902 57.2151L98.2125 60.543L100.725 60.4021L100.097 57.3758L101.642 55.962L100.917 55.2761H97.6519L96.9268 55.962Z" fill="#D54A41"/>
<path d="M96.6961 51.5408L94.3921 53.7393C94.3921 53.7393 96.7398 57.9259 96.8692 57.9259C96.9987 57.9259 98.8621 55.6173 98.8621 55.6173L100.054 55.5967L101.94 57.5787L104.128 53.6955L101.9 51.3233C101.9 51.3233 99.9935 55.0191 99.6472 55.1051C99.301 55.191 99.2984 55.2357 99.0181 55.0191C98.7378 54.8025 96.6961 51.5408 96.6961 51.5408Z" fill="#D5E1E8"/>
<path d="M99.428 50.5403C102.04 50.5403 104.158 47.647 104.158 44.0778C104.158 40.5087 102.04 37.6153 99.428 37.6153C96.8158 37.6153 94.6982 40.5087 94.6982 44.0778C94.6982 47.647 96.8158 50.5403 99.428 50.5403Z" fill="#F09959"/>
<path d="M95.1821 43.9781C95.6244 44.9124 95.4795 45.9094 94.8581 46.205C94.2367 46.5007 93.3752 45.9833 92.9329 45.049C92.4906 44.1148 92.6355 43.1186 93.2561 42.823C93.8766 42.5273 94.7398 43.0447 95.1821 43.9781Z" fill="#F09959"/>
<path d="M103.457 43.9781C103.015 44.9124 103.16 45.9094 103.78 46.205C104.401 46.5007 105.263 45.9833 105.706 45.049C106.148 44.1148 106.004 43.1186 105.382 42.823C104.761 42.5273 103.903 43.0447 103.457 43.9781Z" fill="#F09959"/>
<path d="M101.526 46.7302C101.526 46.7302 100.583 48.2558 99.4279 48.2558C98.2724 48.2558 97.3296 46.7302 97.3296 46.7302H101.526Z" fill="white"/>
<path d="M96.6531 39.6815C98.6023 38.3132 99.4817 38.5419 100.939 40.7894C102.396 43.037 104.156 43.0774 104.156 43.0774L104.383 40.7464C104.383 40.7464 102.205 36.5212 99.2811 37.0756C96.3574 37.6299 94.6954 40.2686 94.6954 40.2686C94.6954 40.2686 94.5531 45.2141 94.9611 45.3834C95.3691 45.5527 95.4154 43.7865 95.7077 43.428C96 43.0696 95.4154 41.3756 95.8054 40.5917C96.1954 39.8079 96.6531 39.6815 96.6531 39.6815Z" fill="#2E2D3D"/>
<path d="M102.923 42.223C103.604 42.9699 103.346 45.9369 103.703 45.9042C104.061 45.8716 104.191 43.0679 104.093 42.7765C103.996 42.4852 102.923 42.223 102.923 42.223Z" fill="#2E2D3D"/>
<path d="M109.949 70.4469H88.2221C87.8597 70.4379 87.5152 70.2872 87.262 70.027C87.0089 69.7668 86.8672 69.4176 86.8672 69.0541C86.8672 68.6906 87.0089 68.3415 87.262 68.0813C87.5152 67.8211 87.8597 67.6704 88.2221 67.6613H109.949C110.134 67.6567 110.319 67.6893 110.491 67.7572C110.664 67.8252 110.821 67.927 110.954 68.0568C111.086 68.1866 111.192 68.3417 111.264 68.513C111.336 68.6843 111.373 68.8683 111.373 69.0541C111.373 69.24 111.336 69.424 111.264 69.5953C111.192 69.7666 111.086 69.9217 110.954 70.0515C110.821 70.1812 110.664 70.2831 110.491 70.351C110.319 70.4189 110.134 70.4516 109.949 70.4469Z" fill="#99BBEB"/>
<path d="M107.246 74.7263H90.9264C90.7411 74.731 90.5567 74.6983 90.3842 74.6304C90.2116 74.5625 90.0544 74.4607 89.9217 74.3309C89.789 74.2011 89.6835 74.046 89.6115 73.8747C89.5395 73.7034 89.5024 73.5194 89.5024 73.3335C89.5024 73.1477 89.5395 72.9637 89.6115 72.7924C89.6835 72.6211 89.789 72.466 89.9217 72.3362C90.0544 72.2064 90.2116 72.1046 90.3842 72.0367C90.5567 71.9687 90.7411 71.9361 90.9264 71.9407H107.246C107.608 71.9498 107.952 72.1005 108.206 72.3607C108.459 72.6209 108.6 72.97 108.6 73.3335C108.6 73.6971 108.459 74.0462 108.206 74.3064C107.952 74.5666 107.608 74.7173 107.246 74.7263Z" fill="#99BBEB"/>
<path d="M118.935 90.1155H79.2378C79.132 90.1155 79.0273 90.0946 78.9295 90.054C78.8318 90.0134 78.7429 89.9539 78.6681 89.8789C78.5933 89.8038 78.534 89.7148 78.4935 89.6167C78.453 89.5187 78.4321 89.4137 78.4321 89.3076C78.4321 89.2015 78.453 89.0964 78.4935 88.9984C78.534 88.9004 78.5933 88.8113 78.6681 88.7363C78.7429 88.6613 78.8318 88.6018 78.9295 88.5612C79.0273 88.5206 79.132 88.4996 79.2378 88.4996H118.935C119.041 88.4996 119.145 88.5206 119.243 88.5612C119.341 88.6018 119.43 88.6613 119.504 88.7363C119.579 88.8113 119.639 88.9004 119.679 88.9984C119.72 89.0964 119.74 89.2015 119.74 89.3076C119.74 89.4137 119.72 89.5187 119.679 89.6167C119.639 89.7148 119.579 89.8038 119.504 89.8789C119.43 89.9539 119.341 90.0134 119.243 90.054C119.145 90.0946 119.041 90.1155 118.935 90.1155Z" fill="#99BBEB"/>
<path d="M118.935 93.8715H79.2378C79.0242 93.8715 78.8192 93.7863 78.6681 93.6348C78.517 93.4833 78.4321 93.2778 78.4321 93.0635C78.4321 92.8493 78.517 92.6438 78.6681 92.4922C78.8192 92.3407 79.0242 92.2556 79.2378 92.2556H118.935C119.148 92.2556 119.353 92.3407 119.504 92.4922C119.656 92.6438 119.74 92.8493 119.74 93.0635C119.74 93.2778 119.656 93.4833 119.504 93.6348C119.353 93.7863 119.148 93.8715 118.935 93.8715Z" fill="#99BBEB"/>
<path d="M118.935 97.6283H79.2378C79.0285 97.6214 78.8301 97.5333 78.6845 97.3824C78.5389 97.2316 78.4575 97.0299 78.4575 96.8199C78.4575 96.61 78.5389 96.4083 78.6845 96.2574C78.8301 96.1066 79.0285 96.0184 79.2378 96.0116H118.935C119.144 96.0184 119.342 96.1066 119.488 96.2574C119.634 96.4083 119.715 96.61 119.715 96.8199C119.715 97.0299 119.634 97.2316 119.488 97.3824C119.342 97.5333 119.144 97.6214 118.935 97.6283Z" fill="#99BBEB"/>
<path d="M113.382 60.9668H84.7896C84.4486 60.9668 84.1216 60.831 83.8805 60.5892C83.6394 60.3474 83.5039 60.0195 83.5039 59.6776V33.2569C83.5039 32.9149 83.6394 32.587 83.8805 32.3452C84.1216 32.1035 84.4486 31.9676 84.7896 31.9676H113.382C113.723 31.9676 114.05 32.1035 114.291 32.3452C114.532 32.587 114.668 32.9149 114.668 33.2569V59.681C114.667 60.0223 114.531 60.3494 114.29 60.5904C114.049 60.8314 113.723 60.9668 113.382 60.9668ZM84.7896 32.8305C84.676 32.8305 84.5669 32.8758 84.4866 32.9564C84.4062 33.037 84.361 33.1463 84.361 33.2603V59.681C84.361 59.795 84.4062 59.9043 84.4866 59.9849C84.5669 60.0655 84.676 60.1107 84.7896 60.1107H113.382C113.496 60.1107 113.605 60.0655 113.685 59.9849C113.766 59.9043 113.811 59.795 113.811 59.681V33.2569C113.811 33.1429 113.766 33.0336 113.685 32.953C113.605 32.8724 113.496 32.8271 113.382 32.8271L84.7896 32.8305Z" fill="#99BBEB"/>
<path d="M85.4715 78.3594L86.2995 80.0414L88.1501 80.3113L86.8113 81.6203L87.1275 83.4691L85.4715 82.5958L83.8164 83.4691L84.1318 81.6203L82.793 80.3113L84.6435 80.0414L85.4715 78.3594Z" fill="#99BBEB"/>
<path d="M92.2518 78.3594L93.0798 80.0414L94.9312 80.3113L93.5915 81.6203L93.9078 83.4691L92.2518 82.5958L90.5967 83.4691L90.913 81.6203L89.5732 80.3113L91.4247 80.0414L92.2518 78.3594Z" fill="#99BBEB"/>
<path d="M99.0316 78.3594L99.8596 80.0414L101.711 80.3113L100.371 81.6203L100.688 83.4691L99.0316 82.5958L97.3765 83.4691L97.6927 81.6203L96.353 80.3113L98.2045 80.0414L99.0316 78.3594Z" fill="#99BBEB"/>
<path d="M105.813 78.3594L106.64 80.0414L108.491 80.3113L107.152 81.6203L107.468 83.4691L105.813 82.5958L104.157 83.4691L104.473 81.6203L103.133 80.3113L104.985 80.0414L105.813 78.3594Z" fill="#99BBEB"/>
<path d="M112.7 78.3594L113.528 80.0414L115.379 80.3113L114.039 81.6203L114.356 83.4691L112.7 82.5958L111.044 83.4691L111.361 81.6203L110.021 80.3113L111.872 80.0414L112.7 78.3594Z" fill="#99BBEB"/>
<path d="M205.707 105.377H140.396C140.003 105.377 139.685 105.696 139.685 106.089V107.157C139.685 107.551 140.003 107.87 140.396 107.87H205.707C206.1 107.87 206.418 107.551 206.418 107.157V106.089C206.418 105.696 206.1 105.377 205.707 105.377Z" fill="#2E5B9A"/>
<path d="M222.524 71.9588C223.408 75.0865 221.247 78.3104 218.866 78.9877C216.485 79.665 214.786 77.5394 213.902 74.4109C213.017 71.2824 214.229 68.1977 216.61 67.5204C218.991 66.8431 221.638 68.8294 222.524 71.9588Z" fill="#F09959"/>
<path d="M209.174 132.579C209.174 132.579 215.276 142.082 216.101 142.494C216.926 142.907 218.985 143.01 218.212 144.557C217.439 146.104 217.13 152.202 216.412 152.511C215.694 152.82 209.51 153.542 210.437 152.511C211.364 151.48 211.934 151.995 212.402 150.135C212.87 148.275 213.528 144.764 212.652 144.041C211.776 143.317 206.417 136.815 206.417 136.815L209.174 132.579Z" fill="#F09959"/>
<path d="M178.463 136.659C178.463 136.659 171.046 148.918 169.672 150.02C168.298 151.122 163.766 152.771 167.475 153.05C171.184 153.329 172.969 151.81 175.304 151.122C177.639 150.434 180.524 150.02 179.425 148.229C178.326 146.438 178.782 142.53 181.151 140.051C183.52 137.572 178.463 136.659 178.463 136.659Z" fill="#F09959"/>
<path d="M216.315 108.234C216.315 108.234 197.954 107.752 190.674 113.743C186.416 120.217 176.114 139.317 175.313 141.418C175.862 141.969 178.953 142.965 180.327 142.826C184.379 137.981 189.735 133.793 191.865 129.992C194.49 125.31 195.299 122.968 199.557 122.554C203.816 122.141 213.431 120.764 216.315 120.764C219.2 120.764 216.315 108.234 216.315 108.234Z" fill="#6791C9"/>
<path d="M232.328 153.083H231.365L224.463 124.208H226.581L232.328 153.083Z" fill="#2E5B9A"/>
<path d="M203.495 153.083H204.458L212.378 123.187H210.261L203.495 153.083Z" fill="#2E5B9A"/>
<path d="M226.776 106.973L216.101 108.821C216.101 108.821 201.914 108.951 195.43 110.162C189.53 111.264 188.659 117.984 195.43 127.241C199.275 132.499 202.526 136.695 209.174 141.423C210.866 140.178 211.513 139.704 211.98 136.711C211.499 136.049 210.254 131.909 209.867 131.099C206.189 123.391 201.281 120.588 201.21 119.829C202.034 118.486 223.04 126.829 227.216 121.922C231.207 117.235 226.776 106.973 226.776 106.973Z" fill="#75A1DE"/>
<path d="M227.219 82.7385C224.408 82.3423 221.545 82.8786 218.866 84.8228C216.526 87.2147 213.879 91.1589 214.041 97.6661C214.246 105.93 212.765 106.46 214.311 108.733C220.756 111.397 231.778 122.867 229.182 110.576C227.302 101.675 233.304 95.0404 228.463 85.1674C228.069 84.3638 227.576 83.5842 227.219 82.7385Z" fill="#F37168"/>
<path d="M214.039 100.776C213.914 105.084 213.307 106.353 213.771 107.704C216.398 107.973 221.204 109.027 222.405 110.712C223.776 112.64 225.153 112.916 224.512 111.493C223.87 110.069 222.176 108.05 224.786 101.117C227.396 94.1843 228.632 89.501 226.072 84.6801L214.039 100.776Z" fill="#D54A41"/>
<path d="M227.219 82.7385C225.488 78.6284 225.063 74.0112 225.063 74.0112L220.53 75.3538C220.53 75.3538 223.106 81.139 220.634 83.2043C220.017 83.7132 219.427 84.2533 218.866 84.8227C221.545 82.8786 224.408 82.3423 227.219 82.7385Z" fill="#F09959"/>
<path d="M225.2 75.1036C224.931 74.8638 224.6 74.5656 224.242 74.2527L220.543 75.3495L220.535 75.3701C220.621 75.5746 221.564 77.7767 221.69 79.897C222.791 79.2275 223.998 78.1342 225.375 76.2253C225.305 75.8015 225.246 75.4242 225.2 75.1036Z" fill="#E38540"/>
<path d="M224.033 84.0312C219.364 85.6642 219.882 90.5994 215.586 97.8689C213.357 101.634 211.3 101.577 211.3 101.577C207.449 101.557 203.602 101.313 199.779 100.845C195.828 100.361 195.579 101.541 198.321 102.525C203.861 104.511 209.611 106.65 214.246 106.135C218.882 105.619 226.811 93.758 227.219 90.6707C227.785 86.4025 226.384 83.2061 224.033 84.0312Z" fill="#F09959"/>
<path d="M221.629 125.411C221.338 125.411 221.042 125.411 220.736 125.4C216.932 125.306 214.341 124.779 212.261 124.354C209.831 123.859 208.49 123.587 206.935 124.333C206.792 124.404 206.637 124.446 206.478 124.457C206.319 124.468 206.159 124.446 206.009 124.394C205.858 124.342 205.719 124.261 205.6 124.155C205.481 124.048 205.384 123.919 205.316 123.775C205.247 123.631 205.207 123.474 205.2 123.315C205.192 123.155 205.216 122.996 205.27 122.845C205.325 122.695 205.409 122.557 205.517 122.44C205.625 122.323 205.755 122.228 205.9 122.162C208.183 121.067 210.094 121.457 212.738 121.996C214.727 122.401 217.202 122.906 220.796 122.994C224.817 123.095 227.269 122.497 228.51 121.115C229.617 119.883 229.941 117.814 229.53 114.604C229.389 113.505 229.248 112.591 229.124 111.785C228.773 109.51 228.541 108.003 228.828 105.683C229.094 103.525 229.807 100.652 231.458 95.079C231.503 94.9276 231.577 94.7865 231.676 94.6638C231.776 94.5411 231.898 94.4393 232.037 94.3641C232.176 94.2889 232.328 94.2419 232.484 94.2256C232.641 94.2094 232.8 94.2242 232.951 94.2694C233.102 94.3145 233.243 94.3891 233.365 94.4888C233.487 94.5884 233.589 94.7113 233.664 94.8503C233.739 94.9894 233.786 95.1418 233.802 95.2991C233.818 95.4563 233.803 95.6152 233.758 95.7666C230.683 106.151 230.839 107.162 231.495 111.419C231.622 112.24 231.765 113.17 231.91 114.299C232.418 118.258 231.904 120.937 230.293 122.728C228.635 124.572 225.943 125.411 221.629 125.411Z" fill="#2E5B9A"/>
<path d="M178.972 146.991C174.05 149.405 171.4 150.789 169.822 150.656C169.45 150.625 169.142 150.587 168.88 150.546C167.124 151.587 164.322 152.816 167.475 153.05C171.184 153.326 172.969 151.81 175.304 151.122C177.639 150.434 180.524 150.02 179.425 148.229C179.202 147.847 179.049 147.427 178.972 146.991Z" fill="#D54A41"/>
<path d="M216.638 142.696C216.517 146.604 215.981 150.476 213.598 151.205C213.045 151.381 212.46 151.433 211.884 151.359C211.509 151.824 211.052 151.829 210.437 152.513C209.511 153.544 215.691 152.823 216.412 152.513C217.133 152.202 217.441 146.109 218.212 144.559C218.847 143.288 217.57 142.991 216.638 142.696Z" fill="#D54A41"/>
<path d="M197.679 105.718H182.044C181.815 105.718 181.591 105.652 181.399 105.529C181.206 105.406 181.052 105.23 180.956 105.022L174.638 91.3858C174.508 91.0971 174.497 90.7687 174.607 90.4719C174.717 90.1751 174.94 89.9338 175.226 89.8003C175.512 89.6668 175.84 89.652 176.137 89.7589C176.434 89.8659 176.677 90.086 176.814 90.3716L182.814 103.311H197.684C198.002 103.311 198.307 103.438 198.532 103.664C198.757 103.889 198.884 104.195 198.884 104.515C198.884 104.834 198.757 105.14 198.532 105.365C198.307 105.591 198.002 105.718 197.684 105.718H197.679Z" fill="#75A1DE"/>
<path d="M200.951 100.985C197.792 100.94 194.658 99.0516 193.102 99.3266C191.545 99.6016 186.463 103.138 187.102 103.275C187.74 103.413 191.771 101.319 191.908 101.287C192.046 101.255 192.916 102.737 195.068 103.282C197.219 103.827 195.083 101.664 201.754 103.685C206.094 104.998 200.951 100.985 200.951 100.985Z" fill="#F09959"/>
<path d="M226.755 78.9877L227.219 82.7385C227.219 82.7385 223.131 82.9826 221.097 84.13C219.062 85.2774 216.06 88.5976 216.06 88.5976L218.513 84.3629L218.866 81.6538L226.755 78.9877Z" fill="#F2E5DE"/>
<path d="M225.015 83.5791C221.979 83.0084 220.574 85.7373 218.605 90.1903C216.636 94.6433 213.275 100.053 212.605 100.75C211.935 101.447 201.341 100.75 201.341 100.75C201.341 100.75 201.021 103.826 201.341 104.194C201.662 104.562 203.494 104.515 203.494 104.515C203.494 104.515 204.226 105.102 204.913 105.566C205.599 106.03 211.414 106.902 214.116 106.765C216.818 106.627 219.29 106.398 219.656 105.984C220.022 105.571 227.4 94.1843 227.853 90.0983C228.307 86.0123 226.564 83.8704 225.015 83.5791Z" fill="#F2E5DE"/>
<path d="M216.06 64.8474C210.317 65.1224 211.218 73.786 211.218 73.786C211.218 73.786 212.709 74.2476 215.834 73.731C215.594 72.8011 215.697 70.4254 215.697 70.4254C215.697 70.4254 216.06 72.3533 216.521 73.5248C217.182 73.8282 217.929 73.5591 219.2 73.2506C219.853 76.001 221.696 77.1664 222.958 77.5644C224.354 78.0044 225.83 78.5287 227.478 77.7027C229.126 76.8768 228.22 68.428 227.344 66.7296C226.031 64.1795 223.847 61.8976 220.07 63.1026C218.175 63.7068 216.06 64.8474 216.06 64.8474Z" fill="#303C60"/>
<path d="M226.047 75.1355L228.395 78.5734C228.395 78.5734 225.793 85.0935 233.361 88.0467C239.289 90.3604 238.59 94.4361 235.912 98.5325C233.235 102.629 237.514 106.217 237.514 106.217C237.514 106.217 238.167 101.676 243.927 100.82C251.779 99.6507 254.002 89.0798 248.137 83.7939C243.284 79.4191 241.807 83.0419 238.521 79.1166C235.236 75.1913 229.035 77.8428 229.035 77.8428L226.761 74.5183L226.047 75.1355Z" fill="#303C60"/>
<path d="M250.839 94.4422C250.802 94.4421 250.767 94.4327 250.735 94.4146C250.704 94.3966 250.677 94.3707 250.659 94.3394C250.64 94.3081 250.63 94.2725 250.63 94.2361C250.629 94.1997 250.638 94.1638 250.655 94.1319C252.627 90.5134 251.019 86.13 250.209 84.9422C250.123 84.8167 250.037 84.6844 249.952 84.5537C249.155 83.3083 248.164 81.757 242.877 80.8029C241.604 80.5726 240.573 79.8136 239.482 79.01C237.226 77.3504 234.671 75.4698 229.119 78.0319C229.069 78.0491 229.015 78.0472 228.967 78.0265C228.919 78.0058 228.881 77.9679 228.859 77.9201C228.838 77.8724 228.835 77.8183 228.851 77.7685C228.867 77.7188 228.902 77.6769 228.947 77.6512C234.723 74.9868 237.384 76.9447 239.732 78.6731C240.784 79.4466 241.776 80.1781 242.955 80.3921C248.421 81.3788 249.469 83.0152 250.306 84.3303C250.392 84.4618 250.471 84.5881 250.553 84.7076C251.402 85.9521 253.09 90.5444 251.022 94.3339C251.004 94.3667 250.977 94.394 250.945 94.413C250.913 94.4321 250.876 94.4421 250.839 94.4422Z" fill="#303C60"/>
<path d="M224.793 78.6594C224.385 78.6568 223.977 78.624 223.574 78.5614C221.565 78.2588 218.869 77.114 218.658 70.685C218.656 70.6566 218.659 70.628 218.668 70.6009C218.677 70.5739 218.691 70.5489 218.71 70.5275C218.729 70.5062 218.752 70.4889 218.777 70.4768C218.803 70.4647 218.831 70.458 218.86 70.457C218.888 70.4561 218.916 70.461 218.943 70.4714C218.969 70.4818 218.993 70.4975 219.013 70.5175C219.034 70.5376 219.05 70.5616 219.06 70.588C219.071 70.6144 219.076 70.6428 219.075 70.6713C219.161 73.3211 219.687 75.2824 220.634 76.4995C221.353 77.4234 222.307 77.9477 223.634 78.1471C225.494 78.4264 226.726 78.0818 227.297 77.1235C227.326 77.0756 227.372 77.041 227.426 77.0273C227.48 77.0136 227.537 77.0219 227.584 77.0504C227.632 77.0789 227.667 77.1252 227.68 77.1792C227.694 77.2332 227.686 77.2905 227.657 77.3383C227.133 78.2176 226.173 78.6594 224.793 78.6594Z" fill="#303C60"/>
<path d="M146.686 153.083H148.228L154.231 107.075H150.837L146.686 153.083Z" fill="#2E5B9A"/>
<path d="M199.044 153.083H197.501L191.499 107.075H194.894L199.044 153.083Z" fill="#2E5B9A"/>
<path d="M259.555 114.247C262.224 116.692 261.063 119.135 259.09 123.675C257.117 128.215 256.769 144.973 256.769 144.973L258.398 144.74C258.398 144.74 258.165 127.515 260.369 122.86C262.573 118.205 263.503 115.877 265.476 117.39C267.449 118.902 259.555 114.247 259.555 114.247Z" fill="#74B570"/>
<path d="M258.086 111.083C258.41 109.634 260.335 108.067 262.91 106.738C262.527 108.874 261.299 112.367 262.567 113.084C264.281 114.05 262.734 109.173 263.395 106.492C265.935 105.263 268.626 104.378 271.399 103.86L271.389 103.889C269.879 107.73 267.906 109.243 268.719 109.824C269.33 110.263 271.321 105.826 273.947 103.55C275.919 103.444 277.59 103.713 278.576 104.496C280.102 105.707 281.127 106.783 279.592 110.472C278.715 111.102 277.578 111.552 276.258 111.684C272.776 112.033 271.151 112.15 273.589 113.317C274.782 113.887 276.783 113.285 278.405 112.919C277.879 113.891 277.232 114.991 276.446 116.245C275.979 116.995 275.433 117.693 274.817 118.327C273.695 118.542 272.716 118.545 272.199 118.322C270.57 117.623 266.395 115.412 265.35 116.345C264.328 117.257 273.089 117.834 272.482 120.15C268.235 122.603 263.376 121.44 262.517 119.183C261.371 116.155 257.112 115.443 258.086 111.083Z" fill="#9CD499"/>
<path d="M266.867 127.632C262.224 124.14 257.465 127.399 255.028 131.123C252.591 134.848 254.331 143.228 254.331 143.228C254.331 143.228 255.26 143.228 255.26 142.879C255.26 142.53 252.706 132.986 258.742 128.679C262.518 125.985 265.242 127.282 265.59 128.563C265.938 129.844 264.081 132.173 264.081 132.173L266.867 127.632Z" fill="#74B570"/>
<path d="M256.189 120.455C260.831 120.455 262.341 127.674 261.064 131.861C259.787 136.047 258.046 143.848 258.046 143.848L256.886 142.684C256.886 142.684 261.297 131.744 260.252 126.856C259.207 121.968 256.652 121.153 256.19 121.153C255.728 121.153 256.189 120.455 256.189 120.455Z" fill="#9CD499"/>
<path d="M260.083 131.893C260.402 131.456 260.821 131.102 261.305 130.861C261.243 131.198 261.163 131.531 261.064 131.859C260.482 133.768 259.804 136.426 259.238 138.754C259.187 138.456 259.108 137.996 258.981 137.288C258.952 137.116 258.929 136.938 258.913 136.745C259.392 135.151 259.783 133.531 260.083 131.893Z" fill="#74B570"/>
<path d="M261.352 131.928C270.173 128.204 265.526 123.092 273.303 126.468C273.85 126.706 274.518 127.306 275.188 128.132C274.391 128.375 273.551 128.442 272.725 128.33C270.403 127.981 271.215 129.843 275.046 130.307C275.656 130.369 276.258 130.496 276.841 130.687C278.666 134.201 279.488 138.825 275.626 140.433C274.865 140.75 273.925 140.93 272.877 140.998C271.686 140.053 273.169 134.552 271.335 135.312C269.571 136.04 271.887 140.023 271.569 141.026C269.829 140.994 267.901 140.709 266.059 140.252C265.33 139.843 264.773 139.294 264.602 138.571C264.021 136.127 267.851 134.617 267.968 132.519C268.074 130.593 266.564 136.757 262.562 137.663C258.943 135.969 257.229 133.669 261.352 131.928Z" fill="#9CD499"/>
<path d="M255.067 125.343C255.995 123.366 253.558 122.899 253.674 124.412C253.777 125.752 253.788 129.012 252.417 129.899C250.052 129.641 246.834 128.686 244.403 127.234C244.371 127.026 244.407 126.814 244.505 126.627C245.549 124.532 252.281 122.786 250.192 122.088C248.528 121.532 245.612 124.815 243.263 126.472C241.852 125.398 240.906 124.119 240.906 122.69C240.906 120.756 243.25 118.565 246.28 117.521C247.643 117.66 248.909 118.407 250.889 119.532C253.811 121.192 253.135 118.507 250.374 116.913C252.76 117.037 255.138 118.059 256.893 120.501C256.893 120.501 256.727 121.544 257.828 123.159C260.834 127.563 257.365 130.135 253.219 129.967C253.451 128.799 254.425 126.71 255.067 125.343Z" fill="#9CD499"/>
<path d="M266.588 127.435C268.857 129.193 271.379 131.25 274.473 132.646C277.568 134.043 276.95 138.595 276.95 138.595C276.95 138.595 277.413 134.664 274.834 133.319C272.255 131.973 270.553 130.371 268.593 130.059C266.632 129.748 265.549 129.439 265.549 129.439C265.549 129.439 266.168 128.198 265.806 127.732C265.444 127.266 266.588 127.435 266.588 127.435Z" fill="#74B570"/>
<path d="M277.776 106.781C269.47 109.005 263.383 114.334 262.248 115.627C261.113 116.92 261.113 117.282 261.113 117.282L261.99 118.938L262.402 118.731C262.402 118.731 261.732 117.334 263.486 115.524C266.511 112.401 270.192 109.937 272.721 108.851C275.249 107.764 277.776 106.781 277.776 106.781Z" fill="#74B570"/>
<path d="M258.022 152.881H254.851C253.767 152.881 252.728 152.45 251.962 151.681C251.195 150.913 250.765 149.871 250.765 148.784V141.473H262.108V148.784C262.108 149.871 261.678 150.913 260.912 151.681C260.145 152.45 259.106 152.881 258.022 152.881Z" fill="#75A1DE"/>
<path d="M262.107 142.781H250.763V143.582H262.107V142.781Z" fill="white"/>
<path d="M262.107 144.241H250.763V144.712H262.107V144.241Z" fill="white"/>
<path d="M47.9051 142.929H50.6111C51.1829 142.929 51.6465 142.464 51.6465 141.89V139.656C51.6465 139.082 51.1829 138.617 50.6111 138.617H47.9051C47.3332 138.617 46.8696 139.082 46.8696 139.656V141.89C46.8696 142.464 47.3332 142.929 47.9051 142.929Z" fill="#9EC8FF"/>
<path d="M39.2195 142.929H41.9255C42.4974 142.929 42.9609 142.464 42.9609 141.89V139.656C42.9609 139.082 42.4974 138.617 41.9255 138.617H39.2195C38.6477 138.617 38.1841 139.082 38.1841 139.656V141.89C38.1841 142.464 38.6477 142.929 39.2195 142.929Z" fill="#9EC8FF"/>
<path d="M30.533 142.929H33.239C33.8108 142.929 34.2744 142.464 34.2744 141.89V139.656C34.2744 139.082 33.8108 138.617 33.239 138.617H30.533C29.9611 138.617 29.4976 139.082 29.4976 139.656V141.89C29.4976 142.464 29.9611 142.929 30.533 142.929Z" fill="#9EC8FF"/>
<path d="M277.708 59.8761V62.5903C277.708 62.8657 277.598 63.1298 277.404 63.3245C277.21 63.5192 276.947 63.6286 276.672 63.6286H274.444C274.169 63.6286 273.906 63.5192 273.711 63.3245C273.517 63.1298 273.408 62.8657 273.408 62.5903V59.8761C273.409 59.6012 273.518 59.3377 273.712 59.1436C273.906 58.9494 274.169 58.8404 274.444 58.8404H276.672C276.946 58.8402 277.209 58.9491 277.404 59.1433C277.598 59.3375 277.707 59.6011 277.708 59.8761Z" fill="#9EC8FF"/>
<path d="M277.708 68.5853V71.2995C277.708 71.4362 277.681 71.5716 277.629 71.6978C277.576 71.8241 277.5 71.9387 277.403 72.0352C277.307 72.1317 277.192 72.2081 277.066 72.26C276.94 72.3119 276.805 72.3384 276.669 72.3378H274.44C274.167 72.336 273.905 72.2258 273.712 72.0313C273.52 71.8368 273.412 71.5737 273.412 71.2995V68.5853C273.412 68.3116 273.521 68.0492 273.713 67.8552C273.906 67.6612 274.167 67.5514 274.44 67.5496H276.669C276.805 67.549 276.94 67.5754 277.065 67.6272C277.191 67.679 277.306 67.7551 277.402 67.8513C277.499 67.9475 277.576 68.0619 277.628 68.1878C277.68 68.3138 277.707 68.4488 277.708 68.5853Z" fill="#9EC8FF"/>
<path d="M277.708 77.2945V80.0087C277.708 80.2839 277.599 80.5477 277.405 80.7423C277.21 80.9369 276.947 81.0461 276.673 81.0461H274.444C274.17 81.0461 273.906 80.9368 273.712 80.742C273.518 80.5473 273.409 80.2833 273.409 80.0079V77.2936C273.41 77.0189 273.519 76.7557 273.713 76.5617C273.907 76.3677 274.17 76.2588 274.444 76.2588H276.672C276.946 76.2586 277.209 76.3675 277.404 76.5617C277.598 76.7559 277.707 77.0195 277.708 77.2945Z" fill="#9EC8FF"/>
</g>
<defs>
<clipPath id="clip0_7075_55422">
<rect width="300" height="171.898" fill="white" transform="translate(0 0.5)"/>
</clipPath>
</defs>
</svg>
