<svg width="150" height="150" viewBox="0 0 150 150" fill="none" xmlns="http://www.w3.org/2000/svg">
<path fill-rule="evenodd" clip-rule="evenodd" d="M82.8703 30.4781H28.125C24.2414 30.4781 21.0938 33.6258 21.0938 37.5094H128.906V27.5977C128.906 24.7687 126.614 22.4742 123.785 22.4742C116.564 22.4742 97.9359 22.4742 91.4063 22.4742C88.9547 22.4742 86.693 23.7891 85.4766 25.9148L82.8703 30.4781Z" fill="#8B75FF"/>
<path fill-rule="evenodd" clip-rule="evenodd" d="M131.173 102.727C133.43 86.475 136.266 66.068 137.96 53.857C138.38 50.8359 137.47 47.782 135.469 45.4805C133.465 43.1813 130.566 41.8594 127.514 41.8594C103.617 41.8594 46.3828 41.8594 22.486 41.8594C19.4344 41.8594 16.5352 43.1813 14.5313 45.4805C12.5297 47.782 11.6203 50.8359 12.0399 53.857C12.8695 59.8359 14.407 70.9055 15.5813 79.3617C15.6703 80.0039 16.2633 80.4516 16.9031 80.3625C17.543 80.2734 17.993 79.6805 17.9039 79.0406L14.3602 53.5359C14.0344 51.1852 14.7422 48.8086 16.2985 47.0203C17.857 45.232 20.1141 44.2031 22.486 44.2031H127.514C129.886 44.2031 132.143 45.232 133.702 47.0203C135.258 48.8086 135.966 51.1852 135.64 53.5359L128.852 102.403C128.763 103.045 129.211 103.636 129.851 103.725C130.493 103.814 131.084 103.366 131.173 102.727Z" fill="#BCAFFF"/>
<path fill-rule="evenodd" clip-rule="evenodd" d="M16.6406 86.9953C18.375 99.4711 20.0813 111.757 21.1547 119.482C21.8789 124.697 26.3367 128.578 31.6008 128.578H118.399C122.438 128.578 126.002 126.295 127.77 122.878C128.067 122.304 127.842 121.596 127.268 121.298C126.691 121.001 125.984 121.226 125.688 121.8C124.313 124.458 121.54 126.234 118.399 126.234C99.1102 126.234 50.8898 126.234 31.6008 126.234C27.5063 126.234 24.0375 123.216 23.475 119.161C22.4016 111.434 20.6953 99.1477 18.9633 86.6742C18.8742 86.032 18.2813 85.5844 17.6414 85.6734C17.0016 85.7625 16.5539 86.3555 16.6406 86.9953Z" fill="#BCAFFF"/>
<path fill-rule="evenodd" clip-rule="evenodd" d="M35.1586 108.717C35.1586 111.954 37.7836 114.577 41.018 114.577H59.768C63.0047 114.577 65.6273 111.954 65.6273 108.717V104.03C65.6273 100.795 63.0047 98.1703 59.768 98.1703H41.018C38.7891 98.1703 36.8484 99.4172 35.8594 101.252C35.5523 101.822 35.7656 102.532 36.3352 102.839C36.9023 103.146 37.6148 102.933 37.9219 102.366C38.5148 101.264 39.6797 100.514 41.018 100.514H59.768C61.7109 100.514 63.2836 102.089 63.2836 104.03V108.717C63.2836 110.66 61.7109 112.233 59.768 112.233H41.018C39.0773 112.233 37.5023 110.66 37.5023 108.717C37.5023 108.07 36.9773 107.545 36.3305 107.545C35.6836 107.545 35.1586 108.07 35.1586 108.717Z" fill="#BCAFFF"/>
<path fill-rule="evenodd" clip-rule="evenodd" d="M99.6094 61.1719C86.6742 61.1719 76.1719 71.6742 76.1719 84.6094C76.1719 97.5445 86.6742 108.047 99.6094 108.047C112.545 108.047 123.047 97.5445 123.047 84.6094C123.047 71.6742 112.545 61.1719 99.6094 61.1719ZM99.6094 65.8594C109.957 65.8594 118.359 74.2617 118.359 84.6094C118.359 94.957 109.957 103.359 99.6094 103.359C89.2617 103.359 80.8594 94.957 80.8594 84.6094C80.8594 74.2617 89.2617 65.8594 99.6094 65.8594Z" fill="#8B75FF"/>
<path fill-rule="evenodd" clip-rule="evenodd" d="M113.257 100.777L135.12 122.639C136.034 123.553 137.52 123.553 138.434 122.639C139.348 121.725 139.348 120.239 138.434 119.325L116.571 97.4625C115.657 96.5461 114.171 96.5461 113.257 97.4625C112.343 98.3766 112.343 99.8625 113.257 100.777Z" fill="#8B75FF"/>
</svg>
