<svg width="24" height="24" viewBox="0 0 24 24" fill="none" xmlns="http://www.w3.org/2000/svg">
<path d="M15.5556 16.4444C15.7913 16.4444 16.0174 16.538 16.1841 16.7047C16.3508 16.8714 16.4444 17.0975 16.4444 17.3333C16.4444 17.569 16.3508 17.7951 16.1841 17.9618C16.0174 18.1285 15.7913 18.2222 15.5556 18.2222H14.6667C14.4309 18.2222 14.2048 18.1285 14.0381 17.9618C13.8714 17.7951 13.7778 17.569 13.7778 17.3333C13.7778 17.0975 13.8714 16.8714 14.0381 16.7047C14.2048 16.538 14.4309 16.4444 14.6667 16.4444H15.5556ZM13.7778 14.6666C13.542 14.6666 13.3159 14.573 13.1492 14.4063C12.9825 14.2396 12.8889 14.0135 12.8889 13.7777V12.8888H11.1111V13.7777C11.1111 14.0135 11.0175 14.2396 10.8508 14.4063C10.6841 14.573 10.458 14.6666 10.2222 14.6666C9.98648 14.6666 9.76038 14.573 9.59368 14.4063C9.42698 14.2396 9.33333 14.0135 9.33333 13.7777V10.2222C9.33333 9.51491 9.61428 8.83664 10.1144 8.33654C10.6145 7.83644 11.2928 7.55549 12 7.55549C12.7072 7.55549 13.3855 7.83644 13.8856 8.33654C14.3857 8.83664 14.6667 9.51491 14.6667 10.2222V13.7777C14.6667 14.0135 14.573 14.2396 14.4063 14.4063C14.2396 14.573 14.0135 14.6666 13.7778 14.6666ZM12.8889 11.111V10.2222C12.8889 9.98641 12.7952 9.76032 12.6285 9.59362C12.4618 9.42692 12.2357 9.33327 12 9.33327C11.7643 9.33327 11.5382 9.42692 11.3715 9.59362C11.2048 9.76032 11.1111 9.98641 11.1111 10.2222V11.111H12.8889ZM11.368 15.8222L9.93511 17.271C9.89498 17.3114 9.84089 17.3348 9.784 17.3365C9.7271 17.3381 9.67174 17.3179 9.62933 17.2799L9.08178 16.711C8.91675 16.542 8.69134 16.4455 8.45513 16.4426C8.21892 16.4398 7.99125 16.5309 7.82222 16.6959C7.65319 16.861 7.55664 17.0864 7.5538 17.3226C7.55097 17.5588 7.64209 17.7865 7.80711 17.9555L8.36356 18.5279C8.73935 18.903 9.24861 19.1137 9.77956 19.1137C10.3105 19.1137 10.8198 18.903 11.1956 18.5279L12.632 17.0666C12.7791 16.8957 12.8557 16.6753 12.8464 16.4501C12.8371 16.2248 12.7425 16.0115 12.5819 15.8534C12.4212 15.6952 12.2065 15.604 11.9811 15.5982C11.7557 15.5924 11.5366 15.6724 11.368 15.8222ZM20 7.2506V18.2222C19.9986 19.4005 19.5299 20.5301 18.6967 21.3633C17.8635 22.1965 16.7339 22.6652 15.5556 22.6666H8.44445C7.26614 22.6652 6.1365 22.1965 5.30331 21.3633C4.47012 20.5301 4.00141 19.4005 4 18.2222V5.77771C4.00141 4.5994 4.47012 3.46976 5.30331 2.63657C6.1365 1.80338 7.26614 1.33468 8.44445 1.33327H14.0827C14.6666 1.33176 15.2451 1.44608 15.7846 1.66961C16.3241 1.89313 16.814 2.22142 17.2258 2.63549L18.6978 4.10749C19.1118 4.51929 19.4401 5.00912 19.6637 5.54863C19.8872 6.08814 20.0015 6.66662 20 7.2506ZM15.9689 3.89238C15.8425 3.76674 15.7041 3.65389 15.5556 3.55549V5.77771H17.7778C17.6791 5.62913 17.566 5.49068 17.44 5.36438L15.9689 3.89238ZM18.2222 7.55549H15.5556C15.0841 7.55549 14.6319 7.36819 14.2985 7.03479C13.9651 6.70139 13.7778 6.24921 13.7778 5.77771V3.11104H8.44445C7.7372 3.11104 7.05892 3.392 6.55883 3.89209C6.05873 4.39219 5.77778 5.07047 5.77778 5.77771V18.2222C5.77778 18.9294 6.05873 19.6077 6.55883 20.1078C7.05892 20.6079 7.7372 20.8888 8.44445 20.8888H15.5556C16.2628 20.8888 16.9411 20.6079 17.4412 20.1078C17.9413 19.6077 18.2222 18.9294 18.2222 18.2222V7.55549Z" fill="#0BAA60"/>
</svg>
