<svg width="24" height="24" viewBox="0 0 24 24" fill="none" xmlns="http://www.w3.org/2000/svg">
<path d="M6.58921 21.8312C5.48762 20.5794 4.38608 19.2775 3.68504 17.7253C2.98406 16.0729 2.78376 14.1702 3.13427 12.3677C3.48479 10.5651 4.2859 8.86265 5.43758 7.4106C5.33745 8.6624 5.78809 9.96424 6.63929 10.9156C6.13856 8.51218 6.93972 5.90845 8.54199 4.00575C10.1443 2.10305 12.3474 0.8512 14.6507 0C13.4991 1.20172 13.3489 3.10442 13.7995 4.70674C14.2501 6.30901 15.2015 7.71102 16.0527 9.16308C16.9039 10.6151 17.7051 12.1173 17.7552 13.7696C18.2058 12.9184 18.7065 12.0672 19.007 11.1159C19.3074 10.1645 19.4576 9.16308 19.2073 8.21171C20.1086 9.3133 20.6093 10.4148 20.8596 11.8169C21.11 13.2189 21.0599 14.6709 20.9097 16.0729C20.7094 17.6252 20.3089 19.2275 19.4577 20.5293C18.4562 22.0815 16.8539 23.1831 15.1014 23.7839C11.9969 24.3347 8.94255 23.8841 6.58921 21.8312Z" fill="#F3705A"/>
<path d="M10.3946 23.6838C14.5005 25.2861 18.5562 20.4292 16.303 16.6738C16.303 16.6237 16.2529 16.6237 16.2529 16.5737C16.4532 18.6266 15.9525 20.1287 15.0011 20.98C15.5019 19.7783 15.1514 18.3762 14.5505 17.1745C13.9496 16.0229 13.0984 14.9714 12.4475 13.8698C11.7965 12.7182 11.2959 11.4163 11.5963 10.1144C10.3946 11.0157 9.54338 12.3677 9.19286 13.8197C8.84235 15.2718 9.04265 16.8741 9.69359 18.226C8.94252 17.6753 8.39175 16.774 8.34166 15.8226C7.5405 16.774 7.03982 18.0257 7.08986 19.2775C7.08991 21.2303 8.64209 22.9828 10.3946 23.6838Z" fill="#FFD15C"/>
</svg>
