<svg width="24" height="24" viewBox="0 0 24 24" fill="none" xmlns="http://www.w3.org/2000/svg">
<path fill-rule="evenodd" clip-rule="evenodd" d="M6.66666 5.25245L9.53149 8.11728C11.0326 7.16091 12.9674 7.16091 14.4685 8.11728L17.3333 5.25245C14.2165 2.78252 9.78354 2.78252 6.66666 5.25245ZM18.7476 6.66666L15.8827 9.53149C16.8391 11.0326 16.8391 12.9674 15.8827 14.4685L18.7476 17.3333C21.2175 14.2165 21.2175 9.78354 18.7476 6.66666ZM17.3333 18.7476L14.4685 15.8827C12.9674 16.8391 11.0326 16.8391 9.53149 15.8827L6.66666 18.7476C9.78354 21.2175 14.2165 21.2175 17.3333 18.7476ZM5.25245 17.3333L8.11728 14.4685C7.16091 12.9674 7.16091 11.0326 8.11728 9.53149L5.25245 6.66666C2.78252 9.78354 2.78252 14.2165 5.25245 17.3333ZM4.50467 4.50467C8.64423 0.365112 15.3558 0.365112 19.4953 4.50467C23.6349 8.64423 23.6349 15.3558 19.4953 19.4953C15.3558 23.6349 8.64423 23.6349 4.50467 19.4953C0.365111 15.3558 0.365111 8.64423 4.50467 4.50467ZM13.8385 10.1615C12.8231 9.14616 11.1769 9.14616 10.1615 10.1615C9.14616 11.1769 9.14616 12.8231 10.1615 13.8385C11.1769 14.8538 12.8231 14.8538 13.8385 13.8385C14.8538 12.8231 14.8538 11.1769 13.8385 10.1615Z" fill="#46485C"/>
</svg>
