<svg width="24" height="24" viewBox="0 0 24 24" fill="none" xmlns="http://www.w3.org/2000/svg">
<path fill-rule="evenodd" clip-rule="evenodd" d="M12.182 3.45364C12.0763 3.38215 11.9245 3.38215 11.8188 3.45364L3.49879 9.08015C3.4248 9.13019 3.40039 9.19528 3.40039 9.24381V19.7741C3.40039 20.1835 3.76435 20.6 4.32039 20.6H19.6804C20.2364 20.6 20.6004 20.1835 20.6004 19.7741V9.24381C20.6004 9.19528 20.576 9.13019 20.502 9.08015L12.182 3.45364ZM10.6984 1.79691C11.4809 1.26773 12.5199 1.26773 13.3024 1.79691L21.6224 7.42343C22.2237 7.83008 22.6004 8.5043 22.6004 9.24381V19.7741C22.6004 21.3816 21.2451 22.6 19.6804 22.6H4.32039C2.75566 22.6 1.40039 21.3816 1.40039 19.7741V9.24381C1.40039 8.5043 1.77708 7.83008 2.37841 7.42343L10.6984 1.79691ZM6.20039 17.4C6.20039 16.8477 6.64811 16.4 7.20039 16.4H16.8004C17.3527 16.4 17.8004 16.8477 17.8004 17.4C17.8004 17.9523 17.3527 18.4 16.8004 18.4H7.20039C6.64811 18.4 6.20039 17.9523 6.20039 17.4Z" fill="#4F4B5C"/>
</svg>
