<svg width="39" height="10" viewBox="0 0 39 10" fill="none" xmlns="http://www.w3.org/2000/svg">
<path d="M0.64012 9.48981V0.510181H2.30418V4.21506H6.7312V0.510181H8.39525V9.48981H6.7312V5.65934H2.30418V9.48981H0.64012Z" fill="#0D1D3F"/>
<path d="M10.9284 5.96075V0.510181H12.5924V5.96075C12.5924 7.39247 13.3251 8.10833 14.7903 8.10833C16.2555 8.10833 16.9881 7.39247 16.9881 5.96075V0.510181H18.6521V5.96075C18.6521 8.35532 17.3648 9.55261 14.7903 9.55261C12.2157 9.55261 10.9284 8.35532 10.9284 5.96075Z" fill="#0D1D3F"/>
<path d="M21.022 9.11304V7.60597C21.9221 7.94088 22.9393 8.10833 24.0738 8.10833C25.4511 8.10833 26.1398 7.64784 26.1398 6.72685C26.1398 6.05704 25.7169 5.72213 24.8713 5.72213H23.4647C21.6269 5.72213 20.708 4.88487 20.708 3.21035C20.708 1.36837 22.0162 0.447386 24.6327 0.447386C25.6374 0.447386 26.5898 0.593907 27.4898 0.886949V2.39402C26.5898 2.05911 25.6374 1.89166 24.6327 1.89166C23.1256 1.89166 22.3721 2.33122 22.3721 3.21035C22.3721 3.88016 22.7363 4.21506 23.4647 4.21506H24.8713C26.8263 4.21506 27.8038 5.05232 27.8038 6.72685C27.8038 8.61069 26.5605 9.55261 24.0738 9.55261C22.9393 9.55261 21.9221 9.40608 21.022 9.11304Z" fill="#0D1D3F"/>
<path d="M30.7828 9.48981H29.0748L32.8864 0.510181H34.6761L38.5693 9.48981H36.7797L35.7561 7.04082H32.7734L33.3448 5.59654H35.1533L33.7404 2.22447L30.7828 9.48981Z" fill="#0D1D3F"/>
<path fill-rule="evenodd" clip-rule="evenodd" d="M0.64012 9.70415C0.521744 9.70415 0.425781 9.60819 0.425781 9.48981V0.510181C0.425781 0.391805 0.521744 0.295842 0.64012 0.295842H2.30418C2.42255 0.295842 2.51852 0.391805 2.51852 0.510181V4.00072H6.51686V0.510181C6.51686 0.391805 6.61282 0.295842 6.7312 0.295842H8.39525C8.51363 0.295842 8.60959 0.391805 8.60959 0.510181V9.48981C8.60959 9.60819 8.51363 9.70415 8.39525 9.70415H6.7312C6.61282 9.70415 6.51686 9.60819 6.51686 9.48981V5.87368H2.51852V9.48981C2.51852 9.60819 2.42255 9.70415 2.30418 9.70415H0.64012ZM2.30418 5.65934H6.7312V9.48981H8.39525V0.510181H6.7312V4.21506H2.30418V0.510181H0.64012V9.48981H2.30418V5.65934ZM10.7141 0.510181C10.7141 0.391805 10.81 0.295842 10.9284 0.295842H12.5924C12.7108 0.295842 12.8068 0.391805 12.8068 0.510181V5.96075C12.8068 6.6423 12.9808 7.11438 13.2917 7.41813C13.6035 7.72278 14.0895 7.89399 14.7903 7.89399C15.4911 7.89399 15.977 7.72278 16.2888 7.41813C16.5997 7.11438 16.7737 6.6423 16.7737 5.96075V0.510181C16.7737 0.391805 16.8697 0.295842 16.9881 0.295842H18.6521C18.7705 0.295842 18.8665 0.391805 18.8665 0.510181V5.96075C18.8665 7.19522 18.5339 8.15934 17.8326 8.81159C17.1343 9.46112 16.1069 9.76694 14.7903 9.76694C13.4736 9.76694 12.4462 9.46112 11.7479 8.81159C11.0466 8.15934 10.7141 7.19522 10.7141 5.96075V0.510181ZM20.9556 9.31685C20.8674 9.28812 20.8077 9.20585 20.8077 9.11304V7.60597C20.8077 7.53577 20.842 7.47002 20.8997 7.42996C20.9573 7.3899 21.0309 7.38061 21.0967 7.40509C21.969 7.72964 22.9603 7.89399 24.0738 7.89399C24.7453 7.89399 25.2114 7.7805 25.5041 7.58478C25.7816 7.39927 25.9254 7.12518 25.9254 6.72685C25.9254 6.43999 25.8374 6.25841 25.6896 6.14133C25.5322 6.0167 25.2716 5.93647 24.8713 5.93647H23.4647C22.5175 5.93647 21.767 5.72112 21.2528 5.25262C20.7349 4.78068 20.4937 4.08605 20.4937 3.21035C20.4937 2.23178 20.8454 1.47003 21.5658 0.962864C22.2724 0.465385 23.3059 0.233047 24.6327 0.233047C25.6585 0.233047 26.6334 0.382705 27.5562 0.68314C27.6444 0.711872 27.7042 0.794139 27.7042 0.886949V2.39402C27.7042 2.46422 27.6698 2.52997 27.6122 2.57003C27.5545 2.61009 27.4809 2.61938 27.4151 2.5949C26.54 2.2693 25.6131 2.106 24.6327 2.106C23.893 2.106 23.3733 2.21512 23.0452 2.40648C22.7349 2.58748 22.5864 2.84629 22.5864 3.21035C22.5864 3.50738 22.6663 3.69211 22.7903 3.80611C22.9177 3.92324 23.1293 4.00072 23.4647 4.00072H24.8713C25.8744 4.00072 26.6668 4.21482 27.2101 4.68022C27.7598 5.15107 28.0182 5.84713 28.0182 6.72685C28.0182 7.72026 27.6872 8.49696 27.0007 9.01701C26.3255 9.52856 25.3381 9.76694 24.0738 9.76694C22.9211 9.76694 21.8809 9.6181 20.9556 9.31685ZM27.2755 2.31777C26.4389 2.0337 25.558 1.89166 24.6327 1.89166C23.1256 1.89166 22.3721 2.33122 22.3721 3.21035C22.3721 3.88016 22.7363 4.21506 23.4647 4.21506H24.8713C26.8263 4.21506 27.8038 5.05232 27.8038 6.72685C27.8038 8.61069 26.5605 9.55261 24.0738 9.55261C22.9393 9.55261 21.9221 9.40608 21.022 9.11304V7.60597C21.0927 7.63229 21.1642 7.65757 21.2363 7.68182C22.0826 7.96616 23.0285 8.10833 24.0738 8.10833C25.4511 8.10833 26.1398 7.64784 26.1398 6.72685C26.1398 6.05704 25.7169 5.72213 24.8713 5.72213H23.4647C21.6269 5.72213 20.708 4.88487 20.708 3.21035C20.708 1.36837 22.0162 0.447386 24.6327 0.447386C25.6374 0.447386 26.5898 0.593907 27.4898 0.886949V2.39402C27.4187 2.36756 27.3473 2.34214 27.2755 2.31777ZM30.9813 9.57063C30.9484 9.65136 30.87 9.70415 30.7828 9.70415H29.0748C29.0029 9.70415 28.9357 9.66808 28.896 9.60811C28.8563 9.54814 28.8494 9.47226 28.8775 9.40606L32.6891 0.426432C32.7227 0.347258 32.8004 0.295842 32.8864 0.295842H34.6761C34.7615 0.295842 34.8387 0.346554 34.8727 0.42492L38.766 9.40455C38.7947 9.4708 38.7881 9.54706 38.7485 9.60742C38.7089 9.66779 38.6415 9.70415 38.5693 9.70415H36.7797C36.6932 9.70415 36.6152 9.65222 36.5819 9.57246L35.6134 7.25516H32.7734C32.7024 7.25516 32.636 7.22002 32.5961 7.16132C32.5562 7.10262 32.548 7.02797 32.5741 6.96197L33.1455 5.51769C33.1779 5.43592 33.2569 5.38221 33.3448 5.38221H34.8311L33.7433 2.78593L30.9813 9.57063ZM30.7828 9.48981H29.0748L32.8864 0.510181H34.6761L38.5693 9.48981H36.7797L35.7561 7.04082H32.7734L33.3448 5.59654H35.1533L33.7404 2.22447L30.7828 9.48981ZM10.9284 5.96075C10.9284 8.35532 12.2157 9.55261 14.7903 9.55261C17.3648 9.55261 18.6521 8.35532 18.6521 5.96075V0.510181H16.9881V5.96075C16.9881 7.39247 16.2555 8.10833 14.7903 8.10833C13.3251 8.10833 12.5924 7.39247 12.5924 5.96075V0.510181H10.9284V5.96075Z" fill="#0D1D3F"/>
</svg>
