<svg width="142" height="36" viewBox="0 0 142 36" fill="none" xmlns="http://www.w3.org/2000/svg">
<g id="Vector">
<path d="M1.68286 34.4826V1.51739H7.7918V15.1184H24.0439V1.51739H30.1528V34.4826H24.0439V20.4205H7.7918V34.4826H1.68286Z" fill="white"/>
<path d="M39.4522 21.527V1.51739H45.5612V21.527C45.5612 26.783 48.2506 29.411 53.6296 29.411C59.0085 29.411 61.698 26.783 61.698 21.527V1.51739H67.8069V21.527C67.8069 30.3178 63.0812 34.7131 53.6296 34.7131C44.178 34.7131 39.4522 30.3178 39.4522 21.527Z" fill="white"/>
<path d="M76.507 33.0995V27.5668C79.8112 28.7963 83.5457 29.411 87.7106 29.411C92.7668 29.411 95.2949 27.7205 95.2949 24.3395C95.2949 21.8805 93.7427 20.6511 90.6382 20.6511H85.4745C78.7277 20.6511 75.3544 17.5774 75.3544 11.43C75.3544 4.66791 80.157 1.28686 89.7622 1.28686C93.4507 1.28686 96.947 1.82476 100.251 2.90054V8.43317C96.947 7.2037 93.4507 6.58896 89.7622 6.58896C84.2296 6.58896 81.4633 8.20264 81.4633 11.43C81.4633 13.889 82.8004 15.1184 85.4745 15.1184H90.6382C97.8153 15.1184 101.404 18.1921 101.404 24.3395C101.404 31.2552 96.8394 34.7131 87.7106 34.7131C83.5457 34.7131 79.8112 34.1752 76.507 33.0995Z" fill="white"/>
<path d="M112.34 34.4826H106.07L120.063 1.51739H126.633L140.925 34.4826H134.355L130.598 25.4921H119.648L121.745 20.19H128.385L123.198 7.81075L112.34 34.4826Z" fill="white"/>
<path fill-rule="evenodd" clip-rule="evenodd" d="M1.68286 35.2695C1.24829 35.2695 0.895996 34.9172 0.895996 34.4826V1.51739C0.895996 1.08282 1.24829 0.730526 1.68286 0.730526H7.7918C8.22637 0.730526 8.57866 1.08282 8.57866 1.51739V14.3316H23.257V1.51739C23.257 1.08282 23.6093 0.730526 24.0439 0.730526H30.1528C30.5874 0.730526 30.9397 1.08282 30.9397 1.51739V34.4826C30.9397 34.9172 30.5874 35.2695 30.1528 35.2695H24.0439C23.6093 35.2695 23.257 34.9172 23.257 34.4826V21.2074H8.57866V34.4826C8.57866 34.9172 8.22637 35.2695 7.7918 35.2695H1.68286ZM7.7918 20.4205H24.0439V34.4826H30.1528V1.51739H24.0439V15.1184H7.7918V1.51739H1.68286V34.4826H7.7918V20.4205ZM38.6654 1.51739C38.6654 1.08282 39.0177 0.730526 39.4522 0.730526H45.5612C45.9958 0.730526 46.348 1.08282 46.348 1.51739V21.527C46.348 24.0291 46.987 25.7621 48.1282 26.8773C49.2728 27.9957 51.0569 28.6242 53.6296 28.6242C56.2023 28.6242 57.9864 27.9957 59.131 26.8773C60.2722 25.7621 60.9111 24.0291 60.9111 21.527V1.51739C60.9111 1.08282 61.2634 0.730526 61.698 0.730526H67.8069C68.2415 0.730526 68.5938 1.08282 68.5938 1.51739V21.527C68.5938 26.0589 67.373 29.5983 64.7985 31.9928C62.2347 34.3773 58.4631 35.5 53.6296 35.5C48.7961 35.5 45.0244 34.3773 42.4607 31.9928C39.8862 29.5983 38.6654 26.0589 38.6654 21.527V1.51739ZM76.2634 33.8477C75.9394 33.7422 75.7201 33.4402 75.7201 33.0995V27.5668C75.7201 27.3091 75.8463 27.0677 76.058 26.9207C76.2696 26.7736 76.5399 26.7395 76.7814 26.8294C79.9835 28.0208 83.6228 28.6242 87.7106 28.6242C90.1758 28.6242 91.8869 28.2076 92.9614 27.489C93.9799 26.808 94.508 25.8018 94.508 24.3395C94.508 23.2864 94.1848 22.6198 93.6421 22.19C93.0645 21.7324 92.1077 21.4379 90.6382 21.4379H85.4745C81.997 21.4379 79.242 20.6473 77.3544 18.9274C75.4529 17.1949 74.5675 14.6448 74.5675 11.43C74.5675 7.83757 75.8587 5.04109 78.5034 3.17924C81.0975 1.35294 84.8913 0.5 89.7622 0.5C93.5283 0.5 97.1072 1.04941 100.495 2.15234C100.819 2.25782 101.038 2.55983 101.038 2.90054V8.43317C101.038 8.69089 100.912 8.93227 100.7 9.07934C100.489 9.22641 100.218 9.26051 99.9768 9.17064C96.7644 7.97533 93.3614 7.37582 89.7622 7.37582C87.0467 7.37582 85.1388 7.7764 83.9345 8.4789C82.7954 9.14338 82.2502 10.0935 82.2502 11.43C82.2502 12.5204 82.5436 13.1986 82.9987 13.6171C83.4663 14.0471 84.2431 14.3316 85.4745 14.3316H90.6382C94.3208 14.3316 97.2296 15.1175 99.2243 16.8261C101.242 18.5546 102.191 21.1099 102.191 24.3395C102.191 27.9864 100.976 30.8377 98.4557 32.7469C95.9767 34.6249 92.3519 35.5 87.7106 35.5C83.4789 35.5 79.6601 34.9536 76.2634 33.8477ZM99.4643 8.15324C96.3932 7.11039 93.1592 6.58896 89.7622 6.58896C84.2296 6.58896 81.4633 8.20264 81.4633 11.43C81.4633 13.889 82.8004 15.1184 85.4745 15.1184H90.6382C97.8153 15.1184 101.404 18.1921 101.404 24.3395C101.404 31.2552 96.8394 34.7131 87.7106 34.7131C83.5457 34.7131 79.8112 34.1752 76.507 33.0995V27.5668C76.7666 27.6634 77.0289 27.7562 77.2939 27.8453C80.4007 28.8891 83.873 29.411 87.7106 29.411C92.7668 29.411 95.2949 27.7205 95.2949 24.3395C95.2949 21.8805 93.7427 20.6511 90.6382 20.6511H85.4745C78.7277 20.6511 75.3544 17.5774 75.3544 11.43C75.3544 4.66791 80.157 1.28686 89.7622 1.28686C93.4507 1.28686 96.947 1.82476 100.251 2.90054V8.43317C99.9901 8.33602 99.7278 8.24271 99.4643 8.15324ZM113.069 34.7793C112.948 35.0757 112.66 35.2695 112.34 35.2695H106.07C105.806 35.2695 105.559 35.1371 105.413 34.9169C105.268 34.6968 105.242 34.4182 105.345 34.1752L119.338 1.20994C119.462 0.919279 119.747 0.730526 120.063 0.730526H126.633C126.946 0.730526 127.23 0.916697 127.354 1.20438L141.647 34.1696C141.753 34.4128 141.728 34.6928 141.583 34.9144C141.438 35.136 141.19 35.2695 140.925 35.2695H134.355C134.038 35.2695 133.752 35.0788 133.629 34.786L130.074 26.279H119.648C119.387 26.279 119.143 26.15 118.997 25.9345C118.85 25.719 118.82 25.4449 118.916 25.2026L121.014 19.9005C121.133 19.6003 121.423 19.4031 121.745 19.4031H127.202L123.208 9.87193L113.069 34.7793ZM112.34 34.4826H106.07L120.063 1.51739H126.633L140.925 34.4826H134.355L130.598 25.4921H119.648L121.745 20.19H128.385L123.198 7.81075L112.34 34.4826ZM39.4522 21.527C39.4522 30.3178 44.178 34.7131 53.6296 34.7131C63.0812 34.7131 67.8069 30.3178 67.8069 21.527V1.51739H61.698V21.527C61.698 26.783 59.0085 29.411 53.6296 29.411C48.2506 29.411 45.5612 26.783 45.5612 21.527V1.51739H39.4522V21.527Z" fill="white"/>
</g>
</svg>
