<svg width="23" height="20" viewBox="0 0 23 20" fill="none" xmlns="http://www.w3.org/2000/svg">
<path d="M3.5815 0.466095C3.5815 2.57632 4.49954 4.49211 5.90069 5.90294C5.18461 6.21082 4.52518 6.55811 3.86835 6.90927L3.76813 6.96286L3.67158 7.02281C3.37026 7.20995 3.07614 7.40773 2.78976 7.61562C1.18147 5.67462 0.214844 3.18318 0.214844 0.466095H3.5815Z" fill="#FF33FF"/>
<path d="M19.2926 19.5339C19.2926 17.3988 18.4399 15.4627 17.0562 14.0473C17.702 13.781 18.359 13.4553 19.0712 13.0548L19.1377 13.0174L19.2025 12.9772C19.5038 12.79 19.7979 12.5923 20.0843 12.3844C21.6926 14.3254 22.6592 16.8168 22.6592 19.5339H19.2926Z" fill="#FF33FF"/>
<path d="M11.437 19.5339C12.9865 19.5339 14.2426 18.2785 14.2426 16.7298C14.2426 15.1811 12.9865 13.9257 11.437 13.9257C9.88757 13.9257 8.63149 15.1811 8.63149 16.7298C8.63149 18.2785 9.88757 19.5339 11.437 19.5339Z" fill="#FF33FF"/>
<path d="M0.214844 19.5339C0.214844 15.5087 2.33621 11.9788 5.52247 9.99999C7.34796 9.02403 8.74895 8.31754 11.437 8.31754C15.4162 8.31754 19.2926 4.80233 19.2926 0.466095H22.6592C22.6592 4.49125 20.5379 8.02119 17.3516 9.99999C15.3663 11.1164 14.0579 11.4827 11.437 11.6824C7.09854 11.6824 3.5815 15.1977 3.5815 19.5339H0.214844Z" fill="#12DFA3"/>
<path d="M11.437 6.07427C12.9865 6.07427 14.2426 4.81884 14.2426 3.27018C14.2426 1.72153 12.9865 0.466095 11.437 0.466095C9.88757 0.466095 8.63149 1.72153 8.63149 3.27018C8.63149 4.81884 9.88757 6.07427 11.437 6.07427Z" fill="#12DFA3"/>
</svg>
