<svg width="100" height="100" viewBox="0 0 100 100" fill="none" xmlns="http://www.w3.org/2000/svg">
<g id="Vector">
<path d="M12.7908 99.9999H76.6976C76.7005 97.6631 76.5138 95.3299 76.1395 93.0232C71.8604 61.5814 42.9767 37.2093 8.13953 37.2093C7.75135 37.2015 7.36306 37.2171 6.97674 37.2558C4.6449 37.2562 2.31516 37.396 0 37.6744L6.77218e-05 87.2092C6.77218e-05 87.6016 0.0177347 87.9898 0.0523166 88.3732C0.168505 89.6543 0.477613 90.9128 0.971142 92.1055C1.0325 92.2538 1.09659 92.4007 1.16337 92.5464C2.43448 95.3111 4.66263 97.5446 7.42344 98.8227C7.57891 98.8945 7.73594 98.9632 7.89446 99.0288C9.09282 99.5247 10.3576 99.8344 11.645 99.9493C12.0224 99.9828 12.4046 99.9999 12.7908 99.9999Z" fill="#E2E2E4"/>
<path d="M86.0464 26.7442C86.0464 33.8083 80.3199 39.5349 73.2558 39.5349C66.1917 39.5349 60.4651 33.8083 60.4651 26.7442C60.4651 19.6801 66.1917 13.9535 73.2558 13.9535C80.3199 13.9535 86.0464 19.6801 86.0464 26.7442Z" fill="white"/>
<path fill-rule="evenodd" clip-rule="evenodd" d="M6.77218e-05 87.2092C6.77218e-05 87.6016 0.0177347 87.9898 0.0523166 88.3732C0.0172783 87.9869 -0.000215682 87.5985 6.77218e-05 87.2092ZM1.16337 92.5464C1.09659 92.4007 1.0325 92.2538 0.971142 92.1055C0.477613 90.9128 0.168505 89.6543 0.0523166 88.3732C0.185636 89.8511 0.570352 91.2566 1.16337 92.5464ZM7.42344 98.8227C4.66263 97.5446 2.43448 95.3111 1.16337 92.5464C1.79572 93.9253 2.66908 95.1819 3.74358 96.2564C4.81024 97.323 6.05633 98.1915 7.42344 98.8227ZM7.42344 98.8227C7.57891 98.8945 7.73594 98.9632 7.89446 99.0288C9.09282 99.5247 10.3576 99.8344 11.645 99.9493C10.1489 99.8165 8.7268 99.4261 7.42344 98.8227Z" fill="white"/>
<path fill-rule="evenodd" clip-rule="evenodd" d="M87.2093 0H12.7908C5.72665 0 6.77218e-05 5.72659 6.77218e-05 12.7907L0 37.6744C2.31516 37.396 4.6449 37.2562 6.97674 37.2558C7.36306 37.2171 7.75135 37.2015 8.13953 37.2093C42.9767 37.2093 71.8604 61.5814 76.1395 93.0232C76.5138 95.3299 76.7005 97.6631 76.6976 99.9999H87.2093C94.2734 99.9999 100 94.2734 100 87.2092V12.7907C100 5.72659 94.2734 0 87.2093 0ZM73.2558 39.5349C80.3199 39.5349 86.0464 33.8083 86.0464 26.7442C86.0464 19.6801 80.3199 13.9535 73.2558 13.9535C66.1917 13.9535 60.4651 19.6801 60.4651 26.7442C60.4651 33.8083 66.1917 39.5349 73.2558 39.5349Z" fill="#ECECED"/>
</g>
</svg>
