<svg width="100" height="100" viewBox="0 0 100 100" fill="none" xmlns="http://www.w3.org/2000/svg">
<g id="fi_1027530" clip-path="url(#clip0_9779_1724)">
<path id="Vector" d="M99.273 50.0002C99.273 65.0631 92.5631 78.5581 81.9693 87.6606C79.6496 89.6561 77.1435 91.4389 74.4793 92.9807C72.4392 94.1639 70.3058 95.2051 68.0955 96.0905C65.8345 96.9961 63.4926 97.7417 61.0816 98.3088C58.4844 98.9227 55.8101 99.3319 53.073 99.5184C51.9385 99.5975 50.7918 99.636 49.6371 99.636C48.4824 99.636 47.3355 99.5975 46.2011 99.5184C43.464 99.3321 40.7879 98.9227 38.1906 98.3088C35.7797 97.7417 33.4377 96.9959 31.1787 96.0905C28.9683 95.2051 26.8351 94.1637 24.7949 92.9807C22.1308 91.4389 19.6226 89.6542 17.3029 87.6606C6.70935 78.5559 0.00134277 65.0612 0.00134277 50.0002C0.00134277 22.5872 22.224 0.364502 49.6371 0.364502C77.0502 0.364502 99.273 22.587 99.273 50.0002Z" fill="#FFCC4E"/>
<path id="Vector_2" d="M96.5502 66.2543C89.8199 85.6852 71.3574 99.636 49.6373 99.636C41.6793 99.636 34.159 97.7639 27.4916 94.4354C17.2361 74.8383 9.03712 54.2039 3.03829 32.8647C2.03145 29.2867 1.08731 25.6867 0.206063 22.0703C-0.750187 18.1481 1.71544 14.2055 5.65997 13.3405C10.4311 12.2951 15.2002 11.2477 19.9713 10.2002C33.2918 7.27894 46.6105 4.3555 59.9311 1.43401C60.5125 1.30647 61.0959 1.17874 61.6773 1.0512C62.4654 0.878936 63.2535 0.704717 64.0438 0.532647C66.2643 0.0465138 68.4684 0.640069 70.1115 1.97308C71.2906 2.92522 72.1801 4.25843 72.575 5.84261C72.5871 5.89124 72.5992 5.94183 72.6135 5.99046C73.4725 9.42249 74.4045 12.8321 75.4094 16.2174C76.6289 20.3219 77.9539 24.3901 79.3844 28.4198C84.0217 41.4932 89.7652 54.1492 96.5502 66.2543Z" fill="#F2F2F2"/>
<g id="Group">
<path id="Vector_3" d="M75.4094 16.2174L55.8733 70.2819L51.6633 48.0287L61.6776 1.0512C62.4657 0.878936 63.2538 0.704717 64.044 0.532647C66.2645 0.0465138 68.4686 0.640069 70.1118 1.97308C71.2909 2.92522 72.1803 4.25843 72.5752 5.84261C72.5874 5.89124 72.5995 5.94183 72.6137 5.99046C73.4727 9.42229 74.4045 12.8321 75.4094 16.2174Z" fill="#D5D4E2"/>
<path id="Vector_4" d="M96.5502 66.2543C89.8199 85.6852 71.3574 99.636 49.6373 99.636C41.6793 99.636 34.159 97.7639 27.4916 94.4354C25.3258 90.2985 23.2533 86.1149 21.274 81.8887C23.2473 83.2665 25.3239 84.5041 27.4916 85.5862C34.159 88.9149 41.6793 90.7868 49.6373 90.7868C69.4188 90.7868 86.4994 79.2145 94.4736 62.47C95.1543 63.7381 95.8473 64.9983 96.5502 66.2543Z" fill="#D5D4E2"/>
<path id="Vector_5" d="M15.6002 36.887C14.2956 36.887 13.0895 36.0401 12.6924 34.7266C12.2069 33.12 13.1153 31.4239 14.7219 30.9384L66.9915 15.136C68.5987 14.6505 70.2942 15.5591 70.7797 17.1655C71.2653 18.7722 70.3569 20.4682 68.7502 20.9538L16.4807 36.7561C16.1875 36.8446 15.8915 36.887 15.6002 36.887Z" fill="#D5D4E2"/>
<path id="Vector_6" d="M23.3006 55.1205C22.0732 55.1205 20.9174 54.3717 20.4576 53.1557C19.8641 51.5858 20.6553 49.8318 22.2252 49.2383L70.4428 31.0047C72.0123 30.4109 73.7666 31.2024 74.3602 32.7723C74.9537 34.3422 74.1625 36.0961 72.5926 36.6897L24.375 54.9232C24.0209 55.057 23.6576 55.1205 23.3006 55.1205Z" fill="#D5D4E2"/>
<path id="Vector_7" d="M32.3174 74.7721C31.1743 74.7721 30.0792 74.1241 29.5628 73.0202C28.8516 71.4998 29.5075 69.6909 31.0278 68.9797L60.9106 55.0006C62.4307 54.2895 64.2397 54.9454 64.951 56.4657C65.6622 57.986 65.0063 59.795 63.486 60.5061L33.6032 74.4852C33.1868 74.6799 32.7487 74.7721 32.3174 74.7721Z" fill="#D5D4E2"/>
<path id="Vector_8" d="M78.742 55.3334L67.5868 62.6258L55.8739 70.2822L55.4735 56.2945L55.093 42.9727L60.5295 43.2107L75.1438 43.8551L78.742 55.3334Z" fill="#D5D4E2"/>
</g>
<path id="Vector_9" d="M55.8739 70.2822L55.4735 56.2945L55.093 42.9727L60.5295 43.2107L62.821 48.4719L55.8739 70.2822Z" fill="#CBCBD3"/>
<path id="Vector_10" d="M99.4754 15.666L94.717 24.7699L71.068 12.409L75.8264 3.30506C77.0045 1.05096 79.7865 0.179087 82.0405 1.35702L97.5272 9.45174C99.7813 10.6301 100.653 13.4121 99.4754 15.666Z" fill="#CF3067"/>
<path id="Vector_11" d="M99.4754 15.666L94.717 24.7699L78.2883 16.183L83.0467 7.07907C84.2249 4.82517 87.0069 3.9531 89.2608 5.13103L97.5276 9.45173C99.7813 10.6301 100.653 13.4121 99.4754 15.666Z" fill="#F14881"/>
<path id="Vector_12" d="M94.6076 24.9789L78.742 55.3332C75.4771 53.6267 71.4459 54.8902 69.7394 58.1551C71.4459 54.8902 70.1824 50.859 66.9176 49.1525C63.6527 47.4461 59.6215 48.7095 57.915 51.9744C59.6215 48.7095 58.358 44.6783 55.0931 42.9719L70.9588 12.6176L94.6076 24.9789Z" fill="#2176C4"/>
<path id="Vector_13" d="M94.6076 24.9789L78.742 55.3332C75.4772 53.6267 71.4459 54.8902 69.7395 58.1551C71.4459 54.8902 70.1824 50.859 66.9176 49.1525L82.7832 18.7982L94.6076 24.9789Z" fill="#72BAED"/>
<path id="Vector_14" d="M88.6951 21.8889L69.7392 58.1555C71.4457 54.8907 70.1822 50.8594 66.9173 49.153C63.6525 47.4465 59.6212 48.71 57.9148 51.9749L76.8707 15.7083L88.6951 21.8889Z" fill="#55ACE5"/>
<path id="Vector_15" d="M96.0724 25.7447C95.7092 26.4396 95.1006 26.9207 94.4092 27.1375C93.7177 27.3543 92.9431 27.3064 92.2484 26.9433L70.6924 15.6765C69.3049 14.9513 68.7683 13.2402 69.4935 11.8525C69.8568 11.1576 70.4654 10.6765 71.1568 10.4597C71.8482 10.2429 72.6228 10.2908 73.3175 10.6539L94.8736 21.9209C96.2613 22.6459 96.7978 24.3572 96.0724 25.7447Z" fill="#CBCBD3"/>
<path id="Vector_16" d="M96.0725 25.7448C95.7092 26.4397 95.1006 26.9207 94.4092 27.1375C93.7178 27.3543 92.9432 27.3065 92.2484 26.9434L77.1803 19.0674C75.7928 18.3422 75.2562 16.6311 75.9814 15.2434C76.3447 14.5485 76.9533 14.0674 77.6447 13.8506C78.3361 13.6338 79.1107 13.6817 79.8055 14.0448L94.8736 21.9207C96.2613 22.6459 96.7979 24.3573 96.0725 25.7448Z" fill="#D5D4E2"/>
<path id="Vector_17" d="M67.5867 62.6258L55.8736 70.282L55.4734 56.2945C57.0216 56.2482 58.5947 56.4605 60.1216 56.9496C60.88 57.1912 61.6263 57.5018 62.3546 57.8824C64.5544 59.0318 66.3203 60.685 67.5867 62.6258Z" fill="#454A5B"/>
<path id="Vector_18" d="M55.8738 70.2823L55.4736 56.2948C57.0219 56.2485 58.5949 56.4608 60.1219 56.9499L55.8738 70.2823Z" fill="#33384A"/>
</g>
<defs>
<clipPath id="clip0_9779_1724">
<rect width="100" height="100" fill="white"/>
</clipPath>
</defs>
</svg>
