<svg width="24" height="24" viewBox="0 0 24 24" fill="none" xmlns="http://www.w3.org/2000/svg">
<g clip-path="url(#clip0_66_1700)">
<path fill-rule="evenodd" clip-rule="evenodd" d="M12 24C13.5762 24.0021 15.1372 23.6926 16.5934 23.0894C18.0496 22.4862 19.3722 21.6012 20.4852 20.4852C21.6012 19.3722 22.4862 18.0496 23.0894 16.5934C23.6926 15.1372 24.0021 13.5762 24 12C24.002 10.4239 23.6925 8.86284 23.0894 7.40667C22.4862 5.95049 21.6012 4.62787 20.4852 3.51481C19.3722 2.39883 18.0496 1.51381 16.5934 0.910621C15.1372 0.307433 13.5762 -0.00203214 12 1.00655e-05C10.4239 -0.00199927 8.86284 0.307481 7.40667 0.910667C5.95049 1.51385 4.62787 2.39885 3.51481 3.51481C2.39885 4.62787 1.51385 5.95049 0.910667 7.40667C0.307481 8.86284 -0.00199927 10.4239 1.00655e-05 12C-0.00203214 13.5762 0.307433 15.1372 0.910621 16.5934C1.51381 18.0496 2.39883 19.3722 3.51481 20.4852C4.62787 21.6012 5.95049 22.4862 7.40667 23.0894C8.86284 23.6925 10.4239 24.002 12 24ZM11.9998 4.20005C12.3976 4.20005 12.7792 4.35808 13.0605 4.63939C13.3418 4.92069 13.4998 5.30222 13.4998 5.70005C13.4998 6.09787 13.3418 6.4794 13.0605 6.76071C12.7792 7.04201 12.3976 7.20005 11.9998 7.20005C11.602 7.20005 11.2204 7.04201 10.9391 6.76071C10.6578 6.4794 10.4998 6.09787 10.4998 5.70005C10.4998 5.30222 10.6578 4.92069 10.9391 4.63939C11.2204 4.35808 11.602 4.20005 11.9998 4.20005ZM11.0998 8.40005C10.4371 8.40005 9.8998 8.93731 9.8998 9.60005C9.8998 10.2628 10.4371 10.8 11.0998 10.8L11.0998 16.8H10.1998C9.53706 16.8 8.9998 17.3373 8.9998 18C8.9998 18.6628 9.53706 19.2 10.1998 19.2H12.2998H14.3998C15.0625 19.2 15.5998 18.6628 15.5998 18C15.5998 17.3373 15.0625 16.8 14.3998 16.8H13.4998V9.60005C13.4998 8.93731 12.9625 8.40005 12.2998 8.40005H11.0998Z" fill="#393F52"/>
</g>
<defs>
<clipPath id="clip0_66_1700">
<rect width="24" height="24" fill="white"/>
</clipPath>
</defs>
</svg>
