<svg width="100" height="74" viewBox="0 0 100 74" fill="none" xmlns="http://www.w3.org/2000/svg">
<g id="fi_873360" clip-path="url(#clip0_9779_1612)">
<path id="Vector" d="M99.9999 4.39124V65.2608C99.9959 67.5667 99.0818 69.7775 97.4565 71.4131L58.6956 32.6522L58.0868 31.7173L99.9999 4.39124Z" fill="#F6B445"/>
<path id="Vector_2" d="M97.4565 71.413C95.821 73.0384 93.6101 73.9524 91.3043 73.9565H8.69569C6.38985 73.9524 4.17899 73.0384 2.54346 71.413L41.3044 32.6521L41.8479 31.8043L50.0001 36.9999L58.087 31.7173L58.6956 32.6521L97.4565 71.413Z" fill="#F6A645"/>
<path id="Vector_3" d="M41.848 31.8044L41.3044 32.6522L2.54352 71.4131C0.918177 69.7776 0.00411523 67.5667 3.91438e-05 65.2609V8.73923C-0.00261031 7.86206 0.129251 6.98957 0.391343 6.15234L2.17402 6.56525L41.848 31.8044Z" fill="#F6B445"/>
<path id="Vector_4" d="M100 4.39121L58.0871 31.7173L50.0002 36.9999L41.848 31.8043L2.17403 6.56519L0.391357 6.15208C1.5239 2.51764 4.88891 0.0424383 8.69577 0.0434573H89.1306C97.8261 0.0434573 100 4.39121 100 4.39121Z" fill="#FED049"/>
</g>
<defs>
<clipPath id="clip0_9779_1612">
<rect width="100" height="74" fill="white"/>
</clipPath>
</defs>
</svg>
