<svg width="24" height="24" viewBox="0 0 24 24" fill="none" xmlns="http://www.w3.org/2000/svg">
<path d="M7.3125 0H16.6875C17.7188 0 18.5625 0.84375 18.5625 1.875V22.125C18.5625 23.1562 17.7188 24 16.6875 24H7.3125C6.28125 24 5.4375 23.1562 5.4375 22.125V1.875C5.4375 0.84375 6.28125 0 7.3125 0Z" fill="#4D4D4D"/>
<mask id="mask0_379_2726" style="mask-type:alpha" maskUnits="userSpaceOnUse" x="5" y="0" width="14" height="24">
<path d="M7.3125 0H16.6875C17.7188 0 18.5625 0.84375 18.5625 1.875V22.125C18.5625 23.1562 17.7188 24 16.6875 24H7.3125C6.28125 24 5.4375 23.1562 5.4375 22.125V1.875C5.4375 0.84375 6.28125 0 7.3125 0Z" fill="black"/>
</mask>
<g mask="url(#mask0_379_2726)">
<path opacity="0.2" d="M5 24L19 0V24H5Z" fill="#3B3B3B"/>
</g>
<path d="M6.9375 3.375H17.0625C17.2688 3.375 17.4375 3.54375 17.4375 3.75V20.25C17.4375 20.4563 17.2688 20.625 17.0625 20.625H6.9375C6.73125 20.625 6.5625 20.4563 6.5625 20.25V3.75C6.5625 3.54375 6.73125 3.375 6.9375 3.375Z" fill="#CCCCCC"/>
<g clip-path="url(#clip0_379_2726)">
<path d="M15.2166 13.5579C15.2035 13.5377 15.1862 13.5206 15.1659 13.5077C15.1456 13.4948 15.1227 13.4865 15.0989 13.4832C14.4642 13.4003 14.0169 12.8186 14.0998 12.1839C14.1583 11.7356 14.4723 11.3622 14.9039 11.2276C14.9916 11.1995 15.0399 11.1057 15.0118 11.018C15.0074 11.0044 15.0013 10.9913 14.9936 10.9793C14.8499 10.7199 14.6487 10.4968 14.4056 10.327C14.1624 10.1573 13.8836 10.0454 13.5906 9.99994C13.2914 10.0142 12.9965 10.0774 12.7176 10.1869C12.5173 10.2675 12.3059 10.3169 12.0906 10.3333C11.8754 10.3169 11.6639 10.2675 11.4636 10.1869C11.1848 10.0774 10.8899 10.0142 10.5906 9.99994C9.96831 9.99994 8.75732 10.8823 8.75732 12.4999C8.75732 14.0372 9.87864 15.9999 10.7573 15.9999C11.0926 16.0029 11.4238 15.9266 11.724 15.7772C11.837 15.7149 11.962 15.6771 12.0906 15.6665C12.2193 15.6772 12.3443 15.7149 12.4573 15.7772C12.7575 15.9266 13.0887 16.0029 13.424 15.9999C14.1206 15.9999 14.907 14.8039 15.2363 13.6956C15.2431 13.6726 15.2449 13.6484 15.2415 13.6246C15.2381 13.6008 15.2296 13.5781 15.2166 13.5579V13.5579Z" fill="white"/>
<path d="M11.924 9.99998C12.936 9.99887 13.7562 9.17872 13.7573 8.16667C13.7573 8.07462 13.6827 8 13.5906 8C12.5786 8.00111 11.7584 8.82126 11.7573 9.83331C11.7573 9.92536 11.8319 9.99998 11.924 9.99998Z" fill="white"/>
</g>
<mask id="mask1_379_2726" style="mask-type:alpha" maskUnits="userSpaceOnUse" x="6" y="3" width="12" height="18">
<path d="M6.9375 3.375H17.0625C17.2688 3.375 17.4375 3.54375 17.4375 3.75V20.25C17.4375 20.4563 17.2688 20.625 17.0625 20.625H6.9375C6.73125 20.625 6.5625 20.4563 6.5625 20.25V3.75C6.5625 3.54375 6.73125 3.375 6.9375 3.375Z" fill="#CCCCCC"/>
</mask>
<g mask="url(#mask1_379_2726)">
<path opacity="0.2" d="M5.34375 23.625L18.7031 0.328125V23.625H5.34375Z" fill="#3B3B3B"/>
</g>
<path d="M12 21.375C12.525 21.375 12.9375 21.7875 12.9375 22.3125C12.9375 22.8375 12.525 23.25 12 23.25C11.475 23.25 11.0625 22.8375 11.0625 22.3125C11.0625 21.7875 11.475 21.375 12 21.375ZM10.875 1.3125H13.125C13.3313 1.3125 13.5 1.48125 13.5 1.6875C13.5 1.89375 13.3313 2.0625 13.125 2.0625H10.875C10.6687 2.0625 10.5 1.89375 10.5 1.6875C10.5 1.48125 10.6687 1.3125 10.875 1.3125Z" fill="#CCCCCC"/>
<defs>
<clipPath id="clip0_379_2726">
<rect width="8" height="8" fill="white" transform="translate(8 8)"/>
</clipPath>
</defs>
</svg>
