<svg width="103" height="24" viewBox="0 0 103 24" fill="none" xmlns="http://www.w3.org/2000/svg">
<path fill-rule="evenodd" clip-rule="evenodd" d="M6.25969 17.9376C6.9477 18.315 7.79543 18.5037 8.80287 18.5037C9.50317 18.5037 10.1359 18.4063 10.701 18.2115C11.2785 18.0046 11.7638 17.7063 12.1569 17.3168C12.5501 16.9273 12.8511 16.4525 13.0599 15.8926C13.2688 15.3326 13.3732 14.6692 13.3732 13.9023L13.3732 8.19964L13.3732 5.53946H10.4615H6.82713V8.19964H10.4615V13.7745C10.4615 14.517 10.3079 15.0587 10.0007 15.3996C9.6936 15.7282 9.26974 15.8926 8.72916 15.8926C8.27458 15.8926 7.85686 15.783 7.47599 15.5639C7.10742 15.3326 6.73884 15.0161 6.37026 14.6144L4.58266 16.5864C5.02496 17.1099 5.58397 17.5603 6.25969 17.9376Z" fill="#00BDA5"/>
<path d="M52.6796 8.19564H48.7055V5.57056H59.5271V8.19564H55.553V18.5111H52.6796V8.19564Z" fill="#00BDA5"/>
<path fill-rule="evenodd" clip-rule="evenodd" d="M22.3902 18.5514C26.0239 18.5514 28.9696 15.6327 28.9696 12.0324C28.9696 8.43214 26.0239 5.51352 22.3902 5.51352C18.7565 5.51352 15.8108 8.43214 15.8108 12.0324C15.8108 15.6327 18.7565 18.5514 22.3902 18.5514ZM22.3902 15.9623C24.5807 15.9623 26.3565 14.2029 26.3565 12.0324C26.3565 9.86203 24.5807 8.10255 22.3902 8.10255C20.1996 8.10255 18.4238 9.86203 18.4238 12.0324C18.4238 14.2029 20.1996 15.9623 22.3902 15.9623Z" fill="#00BDA5"/>
<path d="M36.9741 12.0583C40.6078 12.0583 43.5535 9.1397 43.5535 5.5394L40.9405 5.53941C40.9405 7.70983 39.1647 9.4693 36.9741 9.4693C34.7836 9.4693 33.0078 7.70983 33.0078 5.53941L30.3947 5.5394C30.3947 9.1397 33.3404 12.0583 36.9741 12.0583Z" fill="#00BDA5"/>
<ellipse cx="22.3902" cy="12.0324" rx="1.63667" ry="1.62162" fill="#FF7A59"/>
<ellipse cx="37.1054" cy="16.0787" rx="2.455" ry="2.43243" fill="#FF7A59"/>
<ellipse cx="79.7295" cy="12.0216" rx="1.63667" ry="1.62162" fill="#FF7A59"/>
<rect x="61.4918" y="5.53812" width="2.946" height="12.973" fill="#00BDA5"/>
<rect x="66.0744" y="5.53812" width="5.23733" height="2.59459" fill="#00BDA5"/>
<rect x="66.0744" y="10.7273" width="2.61867" height="2.59459" fill="#FF7A59"/>
<rect x="87.0238" y="5.53812" width="2.946" height="12.973" fill="#00BDA5"/>
<rect x="95.2071" y="5.53812" width="2.946" height="12.973" fill="#00BDA5"/>
<rect x="91.2791" y="10.7273" width="2.61867" height="2.59459" fill="#FF7A59"/>
<rect x="66.0744" y="15.9165" width="5.23733" height="2.59459" fill="#00BDA5"/>
<path fill-rule="evenodd" clip-rule="evenodd" d="M81.9561 15.1646C81.2851 15.6801 80.4426 15.9869 79.5278 15.9869C77.3373 15.9869 75.5615 14.2275 75.5615 12.057C75.5615 9.88662 77.3373 8.12715 79.5278 8.12715C80.5813 8.12715 81.5389 8.53411 82.2492 9.19802L83.9607 7.23982C82.7913 6.18275 81.2355 5.53812 79.5278 5.53812C75.8941 5.53812 72.9484 8.45674 72.9484 12.057C72.9484 15.6573 75.8941 18.576 79.5278 18.576C81.0969 18.576 82.5376 18.0318 83.6683 17.1235L81.9561 15.1646Z" fill="#00BDA5"/>
</svg>
