<svg width="24" height="24" viewBox="0 0 24 24" fill="none" xmlns="http://www.w3.org/2000/svg">
<path fill-rule="evenodd" clip-rule="evenodd" d="M3.86753 3.86809C4.25806 3.47756 4.89122 3.47756 5.28174 3.86809L8.67586 7.2622C9.06638 7.65273 9.06638 8.28589 8.67586 8.67641C8.28533 9.06694 7.65217 9.06694 7.26164 8.67641L3.86753 5.2823C3.47701 4.89178 3.47701 4.25861 3.86753 3.86809ZM20.1321 3.86845C20.5226 4.25898 20.5226 4.89214 20.1321 5.28266L16.738 8.67678C16.3475 9.0673 15.7143 9.0673 15.3238 8.67678C14.9333 8.28625 14.9333 7.65309 15.3238 7.26256L18.7179 3.86845C19.1084 3.47793 19.7416 3.47793 20.1321 3.86845ZM0.5 12C0.5 11.4477 0.947715 11 1.5 11H6.3C6.85228 11 7.3 11.4477 7.3 12C7.3 12.5523 6.85228 13 6.3 13H1.5C0.947715 13 0.5 12.5523 0.5 12ZM16.7 12C16.7 11.4477 17.1477 11 17.7 11H22.5C23.0523 11 23.5 11.4477 23.5 12C23.5 12.5523 23.0523 13 22.5 13H17.7C17.1477 13 16.7 12.5523 16.7 12ZM15.3238 15.3232C15.7143 14.9326 16.3475 14.9326 16.738 15.3232L20.1321 18.7173C20.5226 19.1078 20.5226 19.741 20.1321 20.1315C19.7416 20.522 19.1084 20.522 18.7179 20.1315L15.3238 16.7374C14.9333 16.3469 14.9333 15.7137 15.3238 15.3232ZM8.67586 15.3235C9.06638 15.7141 9.06638 16.3472 8.67586 16.7377L5.28174 20.1319C4.89122 20.5224 4.25806 20.5224 3.86753 20.1319C3.47701 19.7413 3.47701 19.1082 3.86753 18.7176L7.26164 15.3235C7.65217 14.933 8.28533 14.933 8.67586 15.3235ZM12 16.7C12.5523 16.7 13 17.1477 13 17.7V22.5C13 23.0523 12.5523 23.5 12 23.5C11.4477 23.5 11 23.0523 11 22.5V17.7C11 17.1477 11.4477 16.7 12 16.7Z" fill="#4F4B5C"/>
<path d="M12 0.5C12.5523 0.5 13 0.947715 13 1.5V6.3C13 6.85228 12.5523 7.3 12 7.3C11.4477 7.3 11 6.85228 11 6.3V1.5C11 0.947715 11.4477 0.5 12 0.5Z" fill="#8D8A95"/>
</svg>
