<svg width="16" height="16" viewBox="0 0 16 16" fill="none" xmlns="http://www.w3.org/2000/svg">
<g id="Icon / lock">
<path id="Vector" fill-rule="evenodd" clip-rule="evenodd" d="M8 2.66683C7.26362 2.66683 6.66667 3.26378 6.66667 4.00016V5.3335H9.33333V4.00016C9.33333 3.26378 8.73638 2.66683 8 2.66683ZM4.80013 6.66683C4.41577 6.66683 4.1675 6.66735 3.97853 6.68278C3.7973 6.69759 3.73012 6.72272 3.69719 6.73949C3.57175 6.80341 3.46991 6.90525 3.406 7.03069C3.38922 7.06361 3.36409 7.1308 3.34929 7.31203C3.33385 7.501 3.33333 7.74926 3.33333 8.13363V11.867C3.33333 12.2513 3.33385 12.4995 3.34929 12.6883C3.36408 12.8693 3.38919 12.9364 3.406 12.9694C3.47011 13.0952 3.57213 13.1973 3.69719 13.261C3.73 13.2777 3.79703 13.3028 3.97792 13.3176C4.16655 13.333 4.41433 13.3335 4.79796 13.3335H11.2021C11.5857 13.3335 11.8333 13.333 12.0218 13.3176C12.2024 13.3028 12.2694 13.2777 12.3023 13.261C12.4281 13.1969 12.5304 13.0945 12.5941 12.9694C12.6109 12.9365 12.636 12.8696 12.6507 12.6889C12.6661 12.5005 12.6667 12.2529 12.6667 11.8692V8.13143C12.6667 7.7478 12.6661 7.50003 12.6507 7.3114C12.636 7.13052 12.6109 7.0635 12.5941 7.03069C12.5306 6.90597 12.4284 6.80377 12.3023 6.73949C12.2692 6.72266 12.2022 6.69757 12.0213 6.68278C11.8325 6.66735 11.5845 6.66683 11.2001 6.66683H4.80013ZM5.33333 5.3335V4.00016C5.33333 2.5274 6.52724 1.3335 8 1.3335C9.47276 1.3335 10.6667 2.5274 10.6667 4.00016V5.3335L11.2259 5.3335C11.5773 5.33348 11.8803 5.33347 12.1299 5.35388C12.3935 5.37542 12.6554 5.42299 12.9076 5.55148C13.2832 5.74286 13.59 6.04832 13.7822 6.42537C13.9106 6.67749 13.9581 6.93953 13.9796 7.2028C14 7.45226 14 7.75503 14 8.10575V11.8949C14 12.2456 14 12.5483 13.9796 12.7976C13.9581 13.0609 13.9106 13.3227 13.7822 13.5747C13.5902 13.9514 13.2836 14.2574 12.9076 14.449C12.6555 14.5774 12.3937 14.6249 12.1305 14.6465C11.8811 14.6669 11.5784 14.6668 11.2277 14.6668H4.77228C4.42155 14.6668 4.11878 14.6669 3.86932 14.6465C3.60605 14.625 3.344 14.5775 3.09187 14.449C2.71517 14.257 2.40954 13.9507 2.21799 13.5747C2.08947 13.3225 2.04192 13.0604 2.02038 12.7969C1.99998 12.5472 1.99999 12.2441 2 11.8927V8.10795C1.99999 7.7565 1.99998 7.45326 2.02038 7.20349C2.04191 6.93991 2.08944 6.67766 2.21799 6.42537C2.40973 6.04904 2.71555 5.74323 3.09187 5.55148C3.34416 5.42293 3.60641 5.3754 3.86999 5.35387C4.11977 5.33347 4.423 5.33348 4.77445 5.3335L5.33333 5.3335Z" fill="#0084FF"/>
</g>
</svg>
