<svg width="24" height="24" viewBox="0 0 24 24" fill="none" xmlns="http://www.w3.org/2000/svg">
<path fill-rule="evenodd" clip-rule="evenodd" d="M21.1708 20.895C20.5855 21.4754 19.7934 21.8 18.9693 21.8L15.2634 21.8C14.7111 21.8 14.2634 21.3523 14.2634 20.8C14.2634 20.2477 14.7111 19.8 15.2634 19.8L18.9693 19.8C19.2684 19.8 19.5536 19.6821 19.7625 19.4749C19.9712 19.2679 20.0869 18.989 20.0869 18.7L20.0869 6.09999C20.0869 5.81096 19.9712 5.53207 19.7625 5.32512C19.5536 5.1179 19.2684 4.99999 18.9693 4.99999L15.2634 4.99999C14.7111 4.99999 14.2634 4.55227 14.2634 3.99999C14.2634 3.4477 14.7111 2.99999 15.2634 2.99999L18.9693 2.99999C19.7934 2.99999 20.5855 3.32458 21.1708 3.90501C21.7564 4.48571 22.0869 5.2751 22.0869 6.09999L22.0869 18.7C22.0869 19.5249 21.7564 20.3143 21.1708 20.895ZM8.27608 17.9231C7.87672 18.3046 7.24373 18.2901 6.86224 17.8907L2.27709 13.0907C1.9079 12.7042 1.9079 12.0957 2.27709 11.7092L6.86224 6.90925C7.24373 6.50989 7.87673 6.4954 8.27609 6.87688C8.67544 7.25837 8.68994 7.89137 8.30845 8.29073L5.33836 11.4L15.0002 11.4C15.5525 11.4 16.0002 11.8477 16.0002 12.4C16.0002 12.9523 15.5525 13.4 15.0002 13.4L5.33836 13.4L8.30845 16.5092C8.68994 16.9086 8.67544 17.5416 8.27608 17.9231Z" fill="#46485C"/>
</svg>
