<svg width="24" height="24" viewBox="0 0 24 24" fill="none" xmlns="http://www.w3.org/2000/svg">
<path d="M16.193 2.79038C17.6905 2.90232 19.0981 3.548 20.1598 4.61C20.7424 5.19227 21.2047 5.88365 21.52 6.64463C21.8354 7.40561 21.9977 8.22127 21.9977 9.045C21.9977 9.86873 21.8354 10.6844 21.52 11.4454C21.2047 12.2063 20.7424 12.8977 20.1598 13.48L12.7098 20.93C12.6168 21.0237 12.5062 21.0981 12.3844 21.1489C12.2625 21.1997 12.1318 21.2258 11.9998 21.2258C11.8678 21.2258 11.7371 21.1997 11.6152 21.1489C11.4934 21.0981 11.3828 21.0237 11.2898 20.93L3.83979 13.48C2.71461 12.3627 2.05457 10.8605 1.99259 9.27601C1.93061 7.69152 2.47129 6.14239 3.50576 4.94058C4.54023 3.73877 5.99164 2.97356 7.56771 2.79903C9.14378 2.62451 10.7274 3.05363 11.9998 4C13.2076 3.10766 14.6955 2.67843 16.193 2.79038Z" fill="#46485C"/>
</svg>
