<svg width="24" height="24" viewBox="0 0 24 24" fill="none" xmlns="http://www.w3.org/2000/svg">
<path fill-rule="evenodd" clip-rule="evenodd" d="M12.0012 1.40002C10.863 1.40002 9.77145 1.85216 8.96665 2.65695C8.57731 3.04629 8.27051 3.50274 8.05751 3.9991L9.71007 5.65166C9.72036 5.05834 9.96053 4.49151 10.3809 4.07117C10.8106 3.64144 11.3934 3.40002 12.0012 3.40002C12.6089 3.40002 13.1917 3.64144 13.6214 4.07117C14.0512 4.50089 14.2926 5.08373 14.2926 5.69145V10.08C14.2926 10.13 14.2909 10.1798 14.2877 10.2293L15.9099 11.8515C16.1597 11.3002 16.2926 10.697 16.2926 10.08V5.69145C16.2926 4.5533 15.8404 3.46175 15.0356 2.65695C14.2308 1.85216 13.1393 1.40002 12.0012 1.40002ZM14.3415 13.6772L12.8662 12.2019C12.5941 12.3128 12.3007 12.3715 12.0012 12.3715C11.3934 12.3715 10.8106 12.13 10.3809 11.7003C9.95114 11.2706 9.70972 10.6877 9.70972 10.08V9.04543L7.70972 7.04543V10.08C7.70972 11.2182 8.16185 12.3097 8.96665 13.1145C9.77145 13.9193 10.863 14.3715 12.0012 14.3715C12.8383 14.3715 13.6503 14.1268 14.3415 13.6772ZM16.0501 15.3858L17.4741 16.8098C16.1887 17.854 14.6353 18.5056 13.0001 18.6952V21.6C13.0001 22.1523 12.5523 22.6 12.0001 22.6C11.4478 22.6 11.0001 22.1523 11.0001 21.6V18.6952C9.27654 18.4954 7.64391 17.7823 6.32009 16.6372C4.74241 15.2725 3.70881 13.3855 3.40837 11.3212C3.32883 10.7747 3.7074 10.2671 4.25393 10.1876C4.80045 10.1081 5.30798 10.4866 5.38752 11.0331C5.61875 12.6219 6.41425 14.0743 7.6285 15.1246C8.84275 16.1749 10.3946 16.753 12.0001 16.753C13.4671 16.753 14.8893 16.2703 16.0501 15.3858ZM19.1109 15.0524L17.6681 13.6097C18.1541 12.8314 18.4784 11.9553 18.6126 11.0331C18.6921 10.4866 19.1997 10.1081 19.7462 10.1876C20.2927 10.2671 20.6713 10.7747 20.5917 11.3212C20.3949 12.6733 19.8836 13.9494 19.1109 15.0524Z" fill="#46485C"/>
<path d="M3.29289 3.70711C3.68342 3.31658 4.31658 3.31658 4.70711 3.70711L20.2635 19.2635C20.654 19.654 20.654 20.2871 20.2635 20.6777C19.8729 21.0682 19.2398 21.0682 18.8492 20.6777L3.29289 5.12132C2.90237 4.7308 2.90237 4.09763 3.29289 3.70711Z" fill="#46485C"/>
</svg>
