<svg width="24" height="24" viewBox="0 0 24 24" fill="none" xmlns="http://www.w3.org/2000/svg">
<g clip-path="url(#clip0_1519_9817)">
<path d="M12 1.03125C5.65734 1.03125 0.515625 6.17297 0.515625 12.5156C0.515625 15.4949 1.65023 18.2091 3.51075 20.25L3.79373 20.2969H20.2063L20.4893 20.25C22.3498 18.2091 23.4844 15.4949 23.4844 12.5156C23.4844 6.17297 18.3427 1.03125 12 1.03125Z" fill="#FFBD86"/>
<path d="M19.1163 3.20264H13.334C12.9426 3.20264 12.6223 3.49087 12.6223 3.84314C12.6223 4.19536 12.9426 4.4835 13.334 4.4835H13.6329C14.0243 4.4835 14.3445 4.77173 14.3445 5.12395C14.3445 5.47612 14.0243 5.76421 13.6329 5.76421H13.1788C12.7874 5.76421 12.4673 6.05254 12.4673 6.40467C12.4673 6.75689 12.7874 7.04503 13.1788 7.04503H16.5546L17.2087 5.76482C17.2041 5.76473 17.1996 5.76421 17.1949 5.76421H16.7721C16.3808 5.76421 16.0606 5.47612 16.0606 5.12395C16.0606 4.77173 16.3808 4.4835 16.7721 4.4835H19.1163C19.5077 4.4835 19.8279 4.19536 19.8279 3.84314C19.8279 3.49087 19.5077 3.20264 19.1163 3.20264Z" fill="#FFE5C2"/>
<path d="M19.5693 9.81512H19.0369C19.0187 10.2103 18.9867 10.6013 18.942 10.987H19.5693C20.4974 10.987 21.2525 11.7421 21.2525 12.6702V13.4722C21.2525 14.4003 20.4974 15.1554 19.5693 15.1554H17.8545C17.6777 15.5635 17.4825 15.955 17.2695 16.3272H19.5693C21.1436 16.3272 22.4244 15.0465 22.4244 13.4722V12.6702C22.4244 11.0959 21.1436 9.81512 19.5693 9.81512Z" fill="#DFF6FD"/>
<path d="M15.9134 18.2349C17.7951 16.2983 19.0496 13.0053 19.1008 9.25154C19.1026 9.12034 18.9976 9.01257 18.8664 9.01257H5.13332C5.00207 9.01257 4.89712 9.12034 4.89895 9.25154C4.95014 13.0053 6.20465 16.2983 8.08635 18.2349H15.9134Z" fill="#F2FBFF"/>
<path d="M9.49199 3.53906H9.07129L9.83015 4.29792C10.2483 4.43934 10.5502 4.8352 10.5502 5.30044V9.99694H11.2534V5.30044C11.2534 4.32919 10.4632 3.53906 9.49199 3.53906Z" fill="white"/>
<path d="M5.33582 0.068625L1.05304 4.35141C0.961488 4.44295 0.961488 4.59131 1.05304 4.68286L4.58647 8.2163C4.67802 8.30784 4.82638 8.30784 4.91793 8.2163L8.09652 5.0377C8.21502 4.9192 8.36788 4.84116 8.53335 4.81462L9.84585 4.6043C9.97414 4.58372 10.0251 4.42645 9.93322 4.33458L5.66727 0.068625C5.57572 -0.022875 5.42732 -0.022875 5.33582 0.068625Z" fill="#D6694B"/>
<path d="M2.3075 5.81041L6.7873 1.33061C6.81266 1.30526 6.84229 1.28711 6.87379 1.27516L5.66722 0.0685991C5.57568 -0.0229478 5.42732 -0.0229478 5.33577 0.0685991L1.05304 4.35138C0.961488 4.44293 0.961488 4.59129 1.05304 4.68283L2.25641 5.88626C2.26836 5.85879 2.28505 5.83286 2.3075 5.81041Z" fill="#C4573A"/>
<path d="M18.5675 5.1464C18.1076 4.8809 17.5192 5.05485 17.2776 5.52768L14.9941 9.99689H16.5699L18.8805 6.45675C19.1714 6.01106 19.0284 5.41251 18.5675 5.1464Z" fill="#CBC4CC"/>
<path d="M17.893 6.03076C18.0939 5.63752 18.5347 5.45204 18.9419 5.55315C18.8643 5.38857 18.7377 5.24476 18.5675 5.14646C18.1076 4.88096 17.5192 5.05492 17.2776 5.52774L14.9941 9.99695H15.8666L17.893 6.03076Z" fill="#B5ADB6"/>
<path d="M9.49692 18.2349H14.5034C15.1313 17.7679 15.7163 17.1242 16.2338 16.3191C17.0003 15.1266 17.5548 13.6852 17.868 12.1063L17.7223 12.0594H6.27811L6.13232 12.1063C6.4455 13.6852 7.00007 15.1266 7.76657 16.3191C8.28403 17.1242 8.86903 17.7678 9.49692 18.2349Z" fill="#EA9B58"/>
<path d="M9.4349 18.188H11.8812C11.2767 17.7253 10.713 17.0978 10.2126 16.3191C9.44606 15.1266 8.89153 13.6852 8.57831 12.1063H6.13232C6.4455 13.6852 7.00007 15.1266 7.76657 16.3191C8.26697 17.0976 8.8305 17.7251 9.4349 18.188Z" fill="#D88A55"/>
<path d="M6.13216 12.1063H17.8679C17.99 11.4905 18.0755 10.8537 18.1225 10.2026C18.1323 10.0664 18.0252 9.95007 17.8886 9.95007H6.11139C5.9748 9.95007 5.86774 10.0664 5.87758 10.2026C5.92455 10.8537 6.01 11.4905 6.13216 12.1063Z" fill="#FFE5C2"/>
<path d="M8.56643 9.95007H6.11139C5.9748 9.95007 5.86774 10.0664 5.87758 10.2026C5.92455 10.8537 6.01 11.4905 6.13221 12.1063H8.58724C8.46508 11.4905 8.37963 10.8537 8.33266 10.2026C8.32277 10.0664 8.42988 9.95007 8.56643 9.95007Z" fill="#FED2A4"/>
<path d="M6.36241 20.2969H17.6377C18.3862 19.9625 18.9252 19.2146 18.9798 18.3357C18.9848 18.2554 18.9197 18.188 18.8393 18.188H5.16086C5.08047 18.188 5.01532 18.2554 5.02029 18.3357C5.0749 19.2146 5.61396 19.9625 6.36241 20.2969Z" fill="#DFF6FD"/>
<path d="M6.26416 20.25H8.70597C8.00899 19.8958 7.51427 19.1756 7.4621 18.3357C7.45713 18.2554 7.52229 18.188 7.60268 18.188H5.16086C5.08047 18.188 5.01532 18.2554 5.02029 18.3357C5.07246 19.1756 5.56718 19.8958 6.26416 20.25Z" fill="#C8EFFE"/>
<path d="M5.28127 21.6094L5.04736 21.6562C6.9773 23.1266 9.38658 24 12.0001 24C14.6136 24 17.0228 23.1266 18.9528 21.6562L18.7232 21.6094H5.28127Z" fill="#D6694B"/>
<path d="M5.04726 21.6562H18.9527C19.5064 21.2344 20.021 20.7637 20.4892 20.25H3.51074C3.97898 20.7637 4.49352 21.2344 5.04726 21.6562Z" fill="#C4573A"/>
<path d="M5.62799 20.25H3.51074C3.97902 20.7637 4.49357 21.2344 5.0473 21.6562H18.9527C19.1873 21.4775 19.4144 21.2895 19.6343 21.0938H7.24321C6.86366 21.0938 6.49588 20.9622 6.20249 20.7214L5.62799 20.25Z" fill="#A74B30"/>
<path d="M15.0227 0.796875H12.6646C12.2733 0.796875 11.9531 1.08506 11.9531 1.43733C11.9531 1.7895 12.2733 2.07764 12.6646 2.07764H15.0227C15.4141 2.07764 15.7343 1.7895 15.7343 1.43733C15.7343 1.08506 15.4141 0.796875 15.0227 0.796875Z" fill="#FFE5C2"/>
</g>
<defs>
<clipPath id="clip0_1519_9817">
<rect width="24" height="24" fill="white"/>
</clipPath>
</defs>
</svg>
