<svg width="24" height="24" viewBox="0 0 24 24" fill="none" xmlns="http://www.w3.org/2000/svg">
<rect width="24" height="24" fill="#A50064"/>
<g clip-path="url(#clip0_1680_10508)">
<path d="M20.0738 1.88434H4.18154C2.70893 1.88434 1.51514 3.12787 1.51514 4.66184V19.1435C1.51514 20.6775 2.70893 21.921 4.18154 21.921H20.0738C21.5464 21.921 22.7402 20.6775 22.7402 19.1435V4.66184C22.7402 3.12787 21.5464 1.88434 20.0738 1.88434Z" fill="#A50064"/>
<path d="M17.2126 3.5126C15.1232 3.5126 13.4297 5.20766 13.4297 7.29654C13.4297 9.38543 15.1277 11.0805 17.2126 11.0805C19.2975 11.0805 20.9999 9.38543 20.9999 7.29654C20.9999 5.20766 19.3064 3.5126 17.2126 3.5126ZM17.2126 8.91099C16.7943 8.91901 16.39 8.75372 16.0886 8.45143C15.7872 8.14914 15.6134 7.73458 15.6052 7.29884C15.6268 6.86997 15.8056 6.46608 16.1047 6.17047C16.4037 5.87486 16.8003 5.71006 17.2126 5.71006C17.6249 5.71006 18.0214 5.87486 18.3205 6.17047C18.6196 6.46608 18.7983 6.86997 18.82 7.29884C18.8118 7.73458 18.638 8.14914 18.3366 8.45143C18.0352 8.75372 17.6309 8.91901 17.2126 8.91099ZM12.3485 6.35458V11.0966H10.1641V6.33155C10.1641 6.15442 10.0965 5.98454 9.9763 5.85928C9.85605 5.73403 9.69297 5.66366 9.52292 5.66366C9.35287 5.66366 9.18978 5.73403 9.06954 5.85928C8.9493 5.98454 8.88174 6.15442 8.88174 6.33155V11.0966H6.70617V6.33155C6.70617 6.15442 6.63862 5.98454 6.51838 5.85928C6.39813 5.73403 6.23505 5.66366 6.065 5.66366C5.89495 5.66366 5.73186 5.73403 5.61162 5.85928C5.49137 5.98454 5.42382 6.15442 5.42382 6.33155V11.0966H3.25488V6.35458C3.27114 5.58571 3.57927 4.85489 4.11178 4.32221C4.6443 3.78952 5.35778 3.49839 6.09595 3.5126C6.70704 3.51129 7.30289 3.71119 7.79838 4.08376C8.29346 3.71208 8.88834 3.51224 9.4986 3.5126C10.2381 3.49653 10.9535 3.78677 11.4878 4.31959C12.0222 4.85241 12.3317 5.58429 12.3485 6.35458ZM17.2126 12.7088C15.1232 12.7088 13.4297 14.4015 13.4297 16.4927C13.4297 18.5839 15.1277 20.2836 17.2126 20.2836C19.2975 20.2836 20.9955 18.5908 20.9955 16.5019C20.9955 14.413 19.3064 12.7088 17.2126 12.7088ZM17.2126 18.1072C16.9093 18.095 16.6162 17.9901 16.3696 17.8057C16.1231 17.6214 15.934 17.3655 15.826 17.0701C15.718 16.7746 15.6957 16.4526 15.762 16.1441C15.8283 15.8356 15.9802 15.5542 16.1988 15.3349C16.4175 15.1156 16.6932 14.9681 16.9916 14.9108C17.2901 14.8535 17.5982 14.8888 17.8775 15.0124C18.1569 15.1361 18.3951 15.3425 18.5627 15.6061C18.7303 15.8697 18.8197 16.1788 18.82 16.495C18.8171 16.7115 18.7732 16.9254 18.6907 17.1242C18.6083 17.323 18.489 17.5029 18.3397 17.6535C18.1903 17.8042 18.0139 17.9226 17.8204 18.0021C17.627 18.0815 17.4205 18.1203 17.2126 18.1164V18.1072ZM12.3485 15.56V20.2928H10.1641V15.5346C10.1641 15.3575 10.0965 15.1876 9.9763 15.0624C9.85605 14.9371 9.69297 14.8667 9.52292 14.8667C9.35287 14.8667 9.18978 14.9371 9.06954 15.0624C8.9493 15.1876 8.88174 15.3575 8.88174 15.5346V20.2928H6.70617V15.5346C6.70617 15.3575 6.63862 15.1876 6.51838 15.0624C6.39813 14.9371 6.23505 14.8667 6.065 14.8667C5.89495 14.8667 5.73186 14.9371 5.61162 15.0624C5.49137 15.1876 5.42382 15.3575 5.42382 15.5346V20.2928H3.25488V15.56C3.2615 15.1784 3.34026 14.8019 3.48665 14.452C3.63305 14.1021 3.84422 13.7857 4.10808 13.5209C4.37194 13.2561 4.68332 13.0481 5.02441 12.9088C5.3655 12.7694 5.72962 12.7014 6.09595 12.7088C6.70665 12.7077 7.30221 12.9067 7.79838 13.2776C8.29352 12.9063 8.88851 12.7073 9.4986 12.7088C9.86558 12.7005 10.2305 12.7678 10.5725 12.9067C10.9145 13.0456 11.2268 13.2535 11.4916 13.5183C11.7563 13.7832 11.9683 14.0999 12.1153 14.4502C12.2624 14.8005 12.3416 15.1777 12.3485 15.56Z" fill="white"/>
</g>
<defs>
<clipPath id="clip0_1680_10508">
<rect width="18" height="17.4" fill="white" transform="translate(3 3)"/>
</clipPath>
</defs>
</svg>
