<svg width="24" height="24" viewBox="0 0 24 24" fill="none" xmlns="http://www.w3.org/2000/svg">
<path d="M23.3298 2.34729H0.670219C0.300141 2.34729 0 2.64743 0 3.01751V15.2985L11.7883 16.9884L24 15.2985V3.01751C24 2.64743 23.6998 2.34729 23.3298 2.34729V2.34729Z" fill="#4D4D4D"/>
<path d="M23.3299 2.34729H14.7189L5.50928 17.5704H23.3299C23.7 17.5704 24.0001 17.2703 24.0001 16.8997V3.01751C24.0001 2.64743 23.7 2.34729 23.3299 2.34729V2.34729Z" fill="#3B3B3B"/>
<path d="M14.1358 17.2375L14.6384 21.3924H9.3623L9.86494 17.2375H14.1358Z" fill="#808080"/>
<path d="M14.4691 19.9944L14.1356 17.2375H9.86477L9.53125 19.9944H14.4691Z" fill="#616161"/>
<path d="M6.88336 15.2985H0V16.8997C0 17.2703 0.300141 17.5704 0.670219 17.5704H23.3298C23.6999 17.5704 24 17.2703 24 16.8997V15.2985H6.88336Z" fill="#CCCCCC"/>
<path d="M6.88375 15.2985L5.50928 17.5704H23.3299C23.7 17.5704 24.0001 17.2703 24.0001 16.8997V15.2986L6.88375 15.2985V15.2985Z" fill="#ADADAD"/>
<path d="M16.5145 21.6526H7.48584C7.3926 21.6526 7.30318 21.6155 7.23725 21.5496C7.17132 21.4837 7.13428 21.3943 7.13428 21.301C7.13428 21.2078 7.17132 21.1184 7.23725 21.0524C7.30318 20.9865 7.3926 20.9495 7.48584 20.9495H16.5145C16.6077 20.9495 16.6971 20.9865 16.7631 21.0524C16.829 21.1183 16.8661 21.2078 16.8661 21.301C16.8661 21.3942 16.829 21.4837 16.7631 21.5496C16.6972 21.6155 16.6078 21.6526 16.5145 21.6526V21.6526Z" fill="#CCCCCC"/>
</svg>
