<svg width="24" height="24" viewBox="0 0 24 24" fill="none" xmlns="http://www.w3.org/2000/svg">
<path fill-rule="evenodd" clip-rule="evenodd" d="M11.2928 1.69292C11.6833 1.30239 12.3165 1.30239 12.707 1.69292L16.0702 5.05606C16.4607 5.44658 16.4607 6.07975 16.0702 6.47027C15.6796 6.8608 15.0465 6.8608 14.6559 6.47027L12.9999 4.81424L12.9999 11H19.1857L17.5296 9.34399C17.1391 8.95346 17.1391 8.3203 17.5296 7.92977C17.9202 7.53925 18.5533 7.53925 18.9439 7.92977L22.307 11.2929C22.4945 11.4805 22.5999 11.7348 22.5999 12C22.5999 12.2652 22.4945 12.5196 22.307 12.7071L18.9439 16.0703C18.5533 16.4608 17.9202 16.4608 17.5296 16.0703C17.1391 15.6797 17.1391 15.0466 17.5296 14.6561L19.1857 13H12.9999L12.9999 19.1858L14.6559 17.5298C15.0465 17.1392 15.6796 17.1392 16.0701 17.5298C16.4607 17.9203 16.4607 18.5535 16.0701 18.944L12.707 22.3071C12.5195 22.4947 12.2651 22.6 11.9999 22.6C11.7347 22.6 11.4803 22.4947 11.2928 22.3071L7.92965 18.944C7.53913 18.5535 7.53913 17.9203 7.92965 17.5298C8.32018 17.1392 8.95334 17.1392 9.34387 17.5298L10.9999 19.1858L10.9999 13H4.81412L6.47015 14.6561C6.86068 15.0466 6.86068 15.6797 6.47015 16.0703C6.07963 16.4608 5.44646 16.4608 5.05594 16.0703L1.6928 12.7071C1.30227 12.3166 1.30227 11.6834 1.6928 11.2929L5.05594 7.92977C5.44646 7.53925 6.07963 7.53925 6.47015 7.92977C6.86068 8.3203 6.86068 8.95346 6.47015 9.34399L4.81412 11H10.9999L10.9999 4.81424L9.34386 6.47027C8.95334 6.8608 8.32018 6.8608 7.92965 6.47027C7.53913 6.07975 7.53913 5.44658 7.92965 5.05606L11.2928 1.69292Z" fill="#46485C"/>
</svg>
