<svg width="24" height="24" viewBox="0 0 24 24" fill="none" xmlns="http://www.w3.org/2000/svg">
<g clip-path="url(#clip0_3210_22380)">
<path d="M13.296 18H16.016V12.784C16.016 10.384 14.592 8.976 12.384 8.976C11.088 8.976 9.968 9.696 9.376 10.64C8.768 9.568 7.68 8.976 6.336 8.976C5.168 8.976 4.256 9.472 3.728 10.192V9.072H0.992V18H3.728V13.152C3.728 11.984 4.4 11.344 5.44 11.344C6.48 11.344 7.152 11.984 7.152 13.152V18H9.872V13.152C9.872 11.984 10.544 11.344 11.584 11.344C12.624 11.344 13.296 11.984 13.296 13.152V18ZM25.1775 15.408C25.1295 12.08 20.2975 13.088 20.2975 11.664C20.2975 11.232 20.6495 10.976 21.2895 10.976C22.0575 10.976 22.5215 11.376 22.6015 11.984H25.1295C24.9535 10.224 23.6735 8.944 21.3695 8.944C19.0335 8.944 17.7375 10.192 17.7375 11.712C17.7375 14.992 22.6015 13.952 22.6015 15.392C22.6015 15.792 22.2335 16.112 21.5295 16.112C20.7775 16.112 20.2175 15.696 20.1535 15.072H17.4495C17.5775 16.8 19.1775 18.128 21.5615 18.128C23.8015 18.128 25.1775 16.96 25.1775 15.408Z" fill="#4F4B5C"/>
</g>
<defs>
<clipPath id="clip0_3210_22380">
<rect width="24" height="24" fill="white"/>
</clipPath>
</defs>
</svg>
