<svg width="49" height="49" viewBox="0 0 49 49" fill="none" xmlns="http://www.w3.org/2000/svg">
<g id="Multiple Choice" clip-path="url(#clip0_7582_1937)">
<g id="Group">
<g id="Group_2">
<g id="Group_3">
<path id="Vector" d="M48.3292 17.4028L43.3051 26.6315C43.0398 27.1209 42.5101 27.4059 41.9551 27.3609C41.4001 27.315 40.9248 26.9465 40.742 26.4206L39.9676 24.1931C38.927 24.8568 37.6211 25.8346 36.3423 27.1884C34.2976 29.354 30.5569 34.4765 29.2247 39.0056C28.812 40.5414 26.4236 40.1849 26.4694 38.6043L26.5163 24.449C26.5172 24.1546 26.61 23.8687 26.7825 23.6306C27.6722 22.3978 28.6547 21.2315 29.701 20.1646C32.3138 17.4984 34.9351 15.8231 36.9461 14.8031L36.1192 12.1903C35.9476 11.6484 36.1192 11.0568 36.5532 10.6903C36.9873 10.3246 37.5986 10.2553 38.1039 10.5159L47.7386 15.4809C48.0752 15.6543 48.3274 15.9553 48.439 16.3171C48.5495 16.679 48.5101 17.0709 48.3292 17.4028Z" fill="#6680FF"/>
</g>
</g>
<g id="Group_4">
<path id="Vector_2" d="M24.5002 0.452637L28.325 20.3459L24.5002 40.2392L19.672 33.4311V10.9526H17.3751C16.8163 10.9526 16.3101 10.6217 16.086 10.1089C15.8629 9.59701 15.9632 9.00076 16.3438 8.59014L23.4689 0.902637C23.7352 0.615762 24.1083 0.452637 24.5002 0.452637Z" fill="#FF4D4D"/>
</g>
<path id="Vector_3" d="M32.9142 10.1089C32.6901 10.6217 32.1838 10.9526 31.6251 10.9526H29.3282L29.2982 47.0042L24.5 40.2392V0.452637C24.8919 0.452637 25.265 0.615762 25.5313 0.902637L32.6563 8.59014C33.037 9.00076 33.1373 9.59701 32.9142 10.1089Z" fill="#7357FF"/>
<path id="Vector_4" d="M24.5 27.2812L27.0561 43.8661L24.5 48.4528H21.0782C20.3019 48.4528 19.6719 47.8228 19.6719 47.0465C19.6719 46.1118 19.6335 45.2587 19.5528 44.4384C19.22 41.0118 18.4963 37.8178 17.4022 34.9443C16.2482 31.9087 14.6516 29.2996 12.6574 27.1884C11.3787 25.8346 10.0737 24.8568 9.03306 24.1931L8.25868 26.4206C8.07587 26.9465 7.60056 27.315 7.04556 27.3609C6.49149 27.4059 5.96087 27.1209 5.69556 26.6315L0.671307 17.4028C0.490369 17.0709 0.450994 16.679 0.561619 16.3171C0.673182 15.9553 0.925369 15.6543 1.26193 15.4809L10.8967 10.5159C11.402 10.2553 12.0133 10.3246 12.4473 10.6903C12.8814 11.0568 13.053 11.6484 12.8814 12.1903L12.0545 14.8031C14.0655 15.8231 16.6867 17.4984 19.2996 20.1646C20.3459 21.2315 21.3284 22.3978 22.2181 23.6306C23.0478 24.7771 23.81 25.9968 24.5 27.2812Z" fill="#FFC34D"/>
<path id="Vector_5" d="M29.2981 47.0044C29.3103 47.3841 29.1669 47.7525 28.9025 48.0253C28.6372 48.2991 28.2734 48.4528 27.8928 48.4528H24.5V27.2812C25.1656 28.5178 25.7656 29.8134 26.2934 31.1606C28.1094 35.7966 29.1201 41.1262 29.2981 47.0044Z" fill="#FF7733"/>
</g>
</g>
<defs>
<clipPath id="clip0_7582_1937">
<rect width="48" height="48" fill="white" transform="translate(0.5 0.452637)"/>
</clipPath>
</defs>
</svg>
