<svg width="511" height="511" viewBox="0 0 511 511" fill="none" xmlns="http://www.w3.org/2000/svg">
<g clip-path="url(#clip0_962_5871)">
<path d="M503.513 192.129V472.639H126.322C120.005 472.639 114.895 467.519 114.895 461.212V153.485C114.895 147.167 120.005 142.057 126.322 142.057H264.911C267.935 142.057 270.839 143.255 272.985 145.401L304.942 177.358C307.088 179.504 309.992 180.701 313.026 180.701H492.086C498.393 180.701 503.513 185.821 503.513 192.129Z" fill="white"/>
<path d="M349.299 208.559C349.299 223.945 336.827 236.417 321.441 236.417C306.055 236.417 293.584 223.945 293.584 208.559C293.584 193.173 306.055 180.7 321.441 180.7C336.827 180.7 349.299 193.173 349.299 208.559Z" fill="#B9D7FF"/>
<path d="M219.18 274.317C224.211 279.337 220.658 287.94 213.541 287.94H125.574C121.971 287.94 118.408 287.761 114.895 287.421V153.484C114.895 147.166 120.005 142.056 126.322 142.056H225.638C230.269 154.043 232.814 167.077 232.814 180.7C232.814 210.312 220.807 237.12 201.405 256.532L219.18 274.317Z" fill="#B9D7FF"/>
<path d="M503.513 192.129V472.639H465.567V192.129C465.567 185.821 460.457 180.701 454.14 180.701H492.085C498.393 180.701 503.513 185.821 503.513 192.129Z" fill="#B9D7FF"/>
<path d="M408.008 180.705H313.024C309.993 180.705 307.086 179.501 304.943 177.358L272.986 145.402C271.925 144.341 270.665 143.499 269.279 142.925C267.893 142.351 266.407 142.055 264.907 142.055H126.319C120.009 142.055 114.893 147.17 114.893 153.482V461.212C114.893 467.521 120.009 472.637 126.319 472.637H503.512V192.132C503.512 185.82 498.396 180.705 492.087 180.705H444.962" stroke="#1576ED" stroke-width="14.9707" stroke-miterlimit="10" stroke-linecap="round" stroke-linejoin="round"/>
<path d="M386.966 329.34L503.513 472.642H120.325C118.627 472.642 116.95 472.264 115.417 471.534C113.884 470.805 112.532 469.743 111.461 468.425L10.0693 343.759C3.99625 336.292 9.30986 325.123 18.934 325.123H378.101C379.799 325.123 381.476 325.502 383.009 326.231C384.543 326.961 385.894 328.023 386.966 329.34Z" fill="#7CB7FF"/>
<path d="M503.513 472.638H454.369L337.828 329.339C336.756 328.023 335.405 326.961 333.872 326.231C332.339 325.5 330.663 325.12 328.965 325.117H378.099C381.542 325.117 384.796 326.674 386.962 329.339L503.513 472.638Z" fill="#B9D7FF"/>
<path d="M253.921 325.123H18.9339C9.30976 325.123 3.99618 336.292 10.0683 343.759L111.46 468.425C112.531 469.743 113.883 470.805 115.417 471.534C116.95 472.264 118.627 472.642 120.325 472.642H503.513L386.966 329.34C385.894 328.023 384.543 326.961 383.009 326.231C381.476 325.502 379.799 325.123 378.101 325.123H290.875" stroke="#1576ED" stroke-width="14.9707" stroke-miterlimit="10" stroke-linecap="round" stroke-linejoin="round"/>
<path d="M416.733 439.029H315.913C314.375 439.029 312.858 438.674 311.481 437.991C310.103 437.308 308.902 436.316 307.97 435.093L282.133 401.143C279.632 397.858 281.975 393.13 286.103 393.13H386.925C388.462 393.13 389.979 393.485 391.356 394.168C392.734 394.851 393.935 395.843 394.866 397.066L420.704 431.017C423.204 434.302 420.862 439.029 416.733 439.029Z" fill="#F8F3F1"/>
<path d="M416.733 439.027H384.297C388.429 439.027 390.774 434.306 388.269 431.013L362.43 397.069C361.501 395.845 360.301 394.851 358.925 394.167C357.548 393.483 356.032 393.127 354.495 393.127H386.922C390.046 393.127 392.98 394.584 394.866 397.069L420.705 431.013C423.201 434.306 420.865 439.027 416.733 439.027Z" fill="#EEE2DD"/>
<path d="M416.733 439.029H315.913C314.375 439.029 312.858 438.674 311.481 437.991C310.103 437.308 308.902 436.316 307.97 435.093L282.133 401.143C279.632 397.858 281.975 393.13 286.103 393.13H386.925C388.462 393.13 389.979 393.485 391.356 394.168C392.734 394.851 393.935 395.843 394.866 397.066L420.704 431.017C423.205 434.302 420.862 439.029 416.733 439.029Z" stroke="#1576ED" stroke-width="14.9707" stroke-miterlimit="10" stroke-linecap="round" stroke-linejoin="round"/>
<path d="M255.499 439.027H209.702" stroke="#1576ED" stroke-width="14.9707" stroke-miterlimit="10" stroke-linecap="round" stroke-linejoin="round"/>
<path d="M238.787 414.2H219.348" stroke="#1576ED" stroke-width="14.9707" stroke-miterlimit="10" stroke-linecap="round" stroke-linejoin="round"/>
<path d="M232.814 145.601C232.814 86.3743 184.801 38.3614 125.574 38.3614C66.4029 38.3614 18.3331 86.4301 18.3341 145.602C18.3351 204.829 66.348 252.841 125.574 252.841H213.54C220.653 252.841 224.215 244.242 219.185 239.213L201.403 221.432C220.81 202.025 232.814 175.214 232.814 145.601Z" fill="white"/>
<path d="M152.456 118.689C151.361 117.607 149.884 117 148.344 117C146.805 117 145.328 117.607 144.233 118.689L125.072 137.85L105.91 118.689C103.661 116.439 99.937 116.439 97.6873 118.689C95.4376 120.939 95.4376 124.662 97.6873 126.912L116.848 146.073L97.6873 165.234C95.4376 167.484 95.4376 171.208 97.6873 173.457C98.8509 174.621 100.325 175.164 101.799 175.164C103.273 175.164 104.747 174.621 105.91 173.457L125.072 154.296L144.233 173.457C145.396 174.621 146.87 175.164 148.344 175.164C149.818 175.164 151.292 174.621 152.456 173.457C154.705 171.208 154.705 167.484 152.456 165.234L133.295 146.073L152.456 126.912C154.783 124.662 154.783 120.939 152.456 118.689Z" fill="#1576ED"/>
<path d="M219.18 239.217C224.211 244.247 220.658 252.84 213.541 252.84H177.372C184.478 252.84 188.041 244.247 183.011 239.217L171.985 228.184C168.317 224.514 168.085 218.656 171.428 214.69C187.16 196.03 196.645 171.92 196.645 145.6C196.645 92.5441 158.11 48.4805 107.499 39.8874C112.459 39.0396 117.472 38.5437 122.502 38.4033C182.476 36.7146 231.801 83.7843 232.799 143.775C233.304 174.109 221.205 201.631 201.405 221.432L219.18 239.217Z" fill="#B9D7FF"/>
<path d="M188.364 58.6646C170.713 45.8946 149.025 38.3614 125.574 38.3614C66.4019 38.3614 18.3331 86.4301 18.3341 145.602C18.3341 204.829 66.347 252.841 125.573 252.841H213.54C220.653 252.841 224.215 244.242 219.185 239.213L201.403 221.431C220.81 202.025 232.814 175.214 232.814 145.601C232.814 123.171 225.923 102.354 214.15 85.1397" stroke="#1576ED" stroke-width="14.9707" stroke-miterlimit="10" stroke-linecap="round" stroke-linejoin="round"/>
<path d="M349.299 184.977C349.299 200.363 336.827 212.835 321.441 212.835C306.055 212.835 293.584 200.363 293.584 184.977C293.584 169.591 306.055 157.119 321.441 157.119C336.827 157.119 349.299 169.591 349.299 184.977Z" fill="white"/>
<path d="M349.297 184.974C349.297 200.365 336.822 212.841 321.443 212.841C316.471 212.852 311.589 211.519 307.312 208.984C318.247 206.463 326.395 196.673 326.395 184.974C326.395 173.287 318.26 163.484 307.325 160.964C311.6 158.438 316.477 157.11 321.443 157.119C336.822 157.119 349.297 169.595 349.297 184.974Z" fill="#B9D7FF"/>
<path d="M349.299 184.977C349.299 200.363 336.827 212.835 321.441 212.835C306.055 212.835 293.584 200.363 293.584 184.977C293.584 169.591 306.055 157.119 321.441 157.119C336.827 157.119 349.299 169.591 349.299 184.977Z" stroke="#1576ED" stroke-width="14.9707" stroke-miterlimit="10" stroke-linecap="round" stroke-linejoin="round"/>
<path d="M440.989 129.592C440.989 141.734 431.146 151.575 419.005 151.575C406.864 151.575 397.021 141.734 397.021 129.592C397.021 117.45 406.864 107.608 419.005 107.608C431.146 107.608 440.989 117.45 440.989 129.592Z" fill="white"/>
<path d="M440.987 129.589C440.987 141.735 431.141 151.58 419.006 151.58C415.082 151.589 411.229 150.537 407.854 148.535C416.484 146.546 422.913 138.82 422.913 129.589C422.913 120.366 416.494 112.63 407.864 110.641C411.238 108.648 415.087 107.601 419.006 107.608C431.141 107.608 440.987 117.452 440.987 129.589Z" fill="#B9D7FF"/>
<path d="M440.989 129.592C440.989 141.734 431.146 151.575 419.005 151.575C406.864 151.575 397.021 141.734 397.021 129.592C397.021 117.45 406.864 107.608 419.005 107.608C431.146 107.608 440.989 117.45 440.989 129.592Z" stroke="#1576ED" stroke-width="14.9707" stroke-miterlimit="10" stroke-linecap="round" stroke-linejoin="round"/>
<path d="M367.529 80.0666L348.843 98.752" stroke="#1576ED" stroke-width="14.9707" stroke-miterlimit="10" stroke-linecap="round" stroke-linejoin="round"/>
<path d="M367.529 98.752L348.843 80.0666" stroke="#1576ED" stroke-width="14.9707" stroke-miterlimit="10" stroke-linecap="round" stroke-linejoin="round"/>
<path d="M58.2379 264.635L33.5502 289.322" stroke="#1576ED" stroke-width="14.9707" stroke-miterlimit="10" stroke-linecap="round" stroke-linejoin="round"/>
<path d="M58.2379 289.322L33.5502 264.635" stroke="#1576ED" stroke-width="14.9707" stroke-miterlimit="10" stroke-linecap="round" stroke-linejoin="round"/>
</g>
<defs>
<clipPath id="clip0_962_5871">
<rect width="511" height="511" fill="white"/>
</clipPath>
</defs>
</svg>
