<svg width="512" height="512" viewBox="0 0 512 512" fill="none" xmlns="http://www.w3.org/2000/svg">
<path d="M450.327 311.156H243.821L187.811 244.519H394.318L450.327 311.156Z" fill="#F3F3F4"/>
<path d="M15.5151 311.156H131.801L187.811 244.519H71.5248L15.5151 311.156Z" fill="#F3F3F4"/>
<path d="M243.821 311.156L187.811 244.519V472.048H394.318V311.156H243.821Z" fill="#F9F8FF"/>
<path d="M131.801 311.156H71.5248V472.048H187.811V244.519L131.801 311.156Z" fill="#E2DCFF"/>
<path d="M397.576 231.564L382.138 216.126C379.501 219.462 376.708 222.72 373.605 225.823C370.502 228.926 367.244 231.719 363.908 234.356L379.345 249.794C377.561 257.552 379.733 266.085 385.784 272.136L455.292 341.644C464.679 351.03 479.961 351.03 489.348 341.644C498.735 332.257 498.735 316.975 489.348 307.588L419.84 238.08C413.867 231.874 405.411 229.779 397.576 231.564Z" fill="#E2DCFF"/>
<path d="M296.65 257.629C356.76 257.629 405.488 208.9 405.488 148.79C405.488 88.6803 356.76 39.9515 296.65 39.9515C236.54 39.9515 187.811 88.6803 187.811 148.79C187.811 208.9 236.54 257.629 296.65 257.629Z" fill="#F9F8FF"/>
<path d="M296.65 226.599C286.427 226.637 276.299 224.64 266.856 220.724C257.413 216.808 248.844 211.052 241.648 203.792C211.316 173.459 211.316 124.044 241.648 93.7115C256.388 78.9721 275.859 70.9042 296.65 70.9042C317.44 70.9042 336.989 78.9721 351.651 93.7115C381.983 124.044 381.983 173.459 351.651 203.792C344.455 211.052 335.886 216.808 326.443 220.724C317 224.64 306.872 226.637 296.65 226.599Z" fill="#F3F3F4"/>
<path d="M355.84 89.6C340.015 73.7745 319.069 65.0861 296.65 65.0861C274.23 65.0861 253.285 73.7745 237.537 89.6C204.955 122.259 204.955 175.321 237.537 207.903C253.362 223.728 274.308 232.417 296.65 232.417C318.991 232.417 340.015 223.728 355.84 207.903C388.422 175.321 388.422 122.259 355.84 89.6ZM347.617 199.68C334.041 213.256 315.966 220.781 296.727 220.781C277.488 220.781 259.413 213.256 245.838 199.68C217.755 171.598 217.755 125.905 245.838 97.823C259.413 84.2473 277.488 76.7224 296.727 76.7224C315.966 76.7224 334.041 84.2473 347.617 97.823C375.699 125.905 375.699 171.598 347.617 199.68Z" fill="#BCAFFF"/>
<path d="M493.537 303.321L424.029 233.813C420.858 230.647 417.015 228.236 412.784 226.759C408.554 225.281 404.045 224.776 399.593 225.28L389.818 215.505C421.935 170.744 417.978 107.908 377.794 67.6461C333.11 22.9624 260.344 22.9624 215.583 67.6461C170.899 112.33 170.899 185.096 215.583 229.857C237.925 252.199 267.326 263.37 296.65 263.37C320.078 263.37 343.505 256.078 363.365 241.881L373.139 251.656C372.131 260.655 375.156 269.653 381.673 276.092L451.181 345.6C456.999 351.418 464.679 354.366 472.359 354.366C480.039 354.366 487.719 351.418 493.537 345.6C505.173 333.964 505.173 315.035 493.537 303.321ZM223.806 221.634C204.335 202.162 193.629 176.33 193.629 148.79C193.629 121.251 204.335 95.4182 223.806 75.9467C243.278 56.4751 269.11 45.7697 296.65 45.7697C324.189 45.7697 350.022 56.4751 369.493 75.9467C388.965 95.4182 399.67 121.251 399.67 148.79C399.67 176.33 388.965 202.162 369.493 221.634C350.022 241.105 324.189 251.811 296.65 251.811C269.11 251.811 243.278 241.105 223.806 221.634ZM485.314 337.455C478.177 344.592 466.618 344.592 459.481 337.455L389.973 267.947C385.552 263.525 383.767 257.164 385.086 251.035C385.307 250.085 385.28 249.094 385.009 248.156C384.737 247.219 384.23 246.367 383.535 245.682L372.519 234.667C374.303 233.115 376.087 231.641 377.716 229.935C379.423 228.228 380.897 226.444 382.448 224.737L393.464 235.753C394.861 237.149 396.878 237.77 398.817 237.304C405.023 235.908 411.307 237.692 415.806 242.192L485.314 311.699C488.805 315.19 490.667 319.767 490.667 324.655C490.667 329.542 488.805 333.964 485.314 337.455Z" fill="#BCAFFF"/>
<path d="M136.223 314.958L187.811 253.595L239.399 314.958C240.485 316.276 242.114 317.052 243.821 317.052H392.068C395.248 317.052 397.886 314.415 397.886 311.234C397.886 308.053 395.248 305.416 392.068 305.416H246.536L200.301 250.415H205.808C208.989 250.415 211.627 247.777 211.627 244.596C211.627 241.416 208.989 238.778 205.808 238.778H71.5248C69.8182 238.778 68.1891 239.554 67.103 240.873L11.0933 307.51C9.61938 309.217 9.30908 311.699 10.24 313.716C11.1709 315.733 13.2654 317.052 15.5151 317.052H131.801C133.508 316.975 135.137 316.199 136.223 314.958ZM28.0048 305.338L74.24 250.337H175.321L129.086 305.338H28.0048Z" fill="#BCAFFF"/>
<path d="M276.015 416.272H215.195C212.015 416.272 209.377 418.909 209.377 422.09C209.377 425.27 212.015 427.908 215.195 427.908H276.015C279.195 427.908 281.833 425.27 281.833 422.09C281.833 418.909 279.195 416.272 276.015 416.272Z" fill="#BCAFFF"/>
<path d="M276.015 438.846H215.195C212.015 438.846 209.377 441.484 209.377 444.664C209.377 447.845 212.015 450.482 215.195 450.482H276.015C277.558 450.482 279.037 449.869 280.129 448.778C281.22 447.687 281.833 446.207 281.833 444.664C281.833 443.121 281.22 441.641 280.129 440.55C279.037 439.459 277.558 438.846 276.015 438.846Z" fill="#BCAFFF"/>
<path d="M324.034 121.406C322.939 120.324 321.462 119.717 319.922 119.717C318.383 119.717 316.906 120.324 315.811 121.406L296.65 140.567L277.488 121.406C275.239 119.156 271.515 119.156 269.265 121.406C267.016 123.656 267.016 127.379 269.265 129.629L288.427 148.79L269.265 167.952C267.016 170.201 267.016 173.925 269.265 176.175C270.429 177.338 271.903 177.881 273.377 177.881C274.851 177.881 276.325 177.338 277.488 176.175L296.65 157.013L315.811 176.175C316.975 177.338 318.449 177.881 319.922 177.881C321.396 177.881 322.87 177.338 324.034 176.175C326.284 173.925 326.284 170.201 324.034 167.952L304.873 148.79L324.034 129.629C326.361 127.379 326.361 123.656 324.034 121.406Z" fill="#BCAFFF"/>
<path d="M394.318 328.611C391.137 328.611 388.499 331.249 388.499 334.429V466.23H193.629V280.669C193.629 277.488 190.992 274.851 187.811 274.851C184.63 274.851 181.993 277.488 181.993 280.669V466.23H77.343V334.429C77.343 331.249 74.7054 328.611 71.5248 328.611C68.3442 328.611 65.7067 331.249 65.7067 334.429V472.048C65.7067 475.229 68.3442 477.867 71.5248 477.867H394.318C397.498 477.867 400.136 475.229 400.136 472.048V334.429C400.136 331.249 397.498 328.611 394.318 328.611Z" fill="#BCAFFF"/>
</svg>
