<svg width="511" height="511" viewBox="0 0 511 511" fill="none" xmlns="http://www.w3.org/2000/svg">
<g clip-path="url(#clip0_962_5871)">
<path d="M503.513 192.129V472.639H126.322C120.005 472.639 114.895 467.519 114.895 461.212V153.485C114.895 147.167 120.005 142.057 126.322 142.057H264.911C267.935 142.057 270.839 143.255 272.985 145.401L304.942 177.358C307.088 179.504 309.992 180.701 313.026 180.701H492.086C498.393 180.701 503.513 185.821 503.513 192.129Z" fill="white"/>
<path d="M349.299 208.559C349.299 223.945 336.827 236.417 321.441 236.417C306.055 236.417 293.584 223.945 293.584 208.559C293.584 193.173 306.055 180.7 321.441 180.7C336.827 180.7 349.299 193.173 349.299 208.559Z" fill="#F9F8FF"/>
<path d="M219.18 274.317C224.211 279.337 220.658 287.94 213.541 287.94H125.574C121.971 287.94 118.408 287.761 114.895 287.421V153.484C114.895 147.166 120.005 142.056 126.322 142.056H225.638C230.269 154.043 232.814 167.077 232.814 180.7C232.814 210.312 220.807 237.12 201.405 256.532L219.18 274.317Z" fill="#F9F8FF"/>
<path d="M503.513 192.129V472.639H465.567V192.129C465.567 185.821 460.458 180.701 454.14 180.701H492.086C498.393 180.701 503.513 185.821 503.513 192.129Z" fill="#F9F8FF"/>
<path fill-rule="evenodd" clip-rule="evenodd" d="M126.319 465.152C124.142 465.152 122.378 463.387 122.378 461.212V153.482C122.378 151.305 124.142 149.54 126.319 149.54H264.907C265.424 149.54 265.937 149.642 266.415 149.84C266.893 150.038 267.327 150.329 267.693 150.695L299.65 182.651C299.65 182.651 299.65 182.651 299.65 182.651C303.197 186.197 308.007 188.19 313.023 188.191H408.008C412.142 188.191 415.494 184.839 415.494 180.705C415.494 176.571 412.142 173.22 408.008 173.22H313.024C311.979 173.22 310.976 172.805 310.237 172.065L278.279 140.109C276.523 138.353 274.438 136.96 272.144 136.009C269.849 135.059 267.39 134.57 264.907 134.57H126.319C115.875 134.57 107.408 143.036 107.408 153.482V461.212C107.408 471.656 115.875 480.123 126.319 480.123H503.512C507.646 480.123 510.998 476.771 510.998 472.637V192.132C510.998 181.686 502.53 173.22 492.087 173.22H444.962C440.828 173.22 437.477 176.571 437.477 180.705C437.477 184.839 440.828 188.191 444.962 188.191H492.087C494.262 188.191 496.027 189.954 496.027 192.132V465.152H126.319Z" fill="#BCAFFF"/>
<path d="M386.966 329.34L503.513 472.642H120.325C118.627 472.642 116.95 472.264 115.417 471.534C113.884 470.805 112.532 469.743 111.461 468.425L10.0693 343.759C3.99625 336.292 9.30986 325.123 18.934 325.123H378.101C379.799 325.123 381.476 325.502 383.009 326.231C384.543 326.961 385.894 328.023 386.966 329.34Z" fill="#E2DCFF"/>
<path d="M503.513 472.638H454.369L337.828 329.339C336.756 328.023 335.405 326.961 333.872 326.231C332.339 325.5 330.663 325.12 328.965 325.117H378.099C381.542 325.117 384.796 326.674 386.962 329.339L503.513 472.638Z" fill="#F9F8FF"/>
<path fill-rule="evenodd" clip-rule="evenodd" d="M120.325 465.157C119.739 465.157 119.161 465.026 118.632 464.774C118.103 464.523 117.637 464.157 117.267 463.702M117.267 463.702L15.8756 339.036C15.8756 339.036 15.8756 339.036 15.8756 339.036C13.7821 336.461 15.6134 332.609 18.9339 332.609H253.921C258.055 332.609 261.407 329.257 261.407 325.123C261.407 320.989 258.055 317.638 253.921 317.638H18.9339C3.0062 317.638 -5.78952 336.123 4.26098 348.482L105.652 473.148C107.426 475.328 109.664 477.087 112.201 478.294C114.739 479.501 117.514 480.127 120.325 480.128H503.513C506.401 480.128 509.032 478.466 510.273 475.858C511.513 473.249 511.143 470.16 509.32 467.919L392.773 324.617C390.999 322.437 388.762 320.679 386.225 319.472C383.687 318.265 380.912 317.638 378.101 317.638H290.875C286.741 317.638 283.39 320.989 283.39 325.123C283.39 329.257 286.741 332.609 290.875 332.609H378.101C378.686 332.609 379.265 332.739 379.794 332.991C380.323 333.242 380.789 333.609 381.158 334.063C381.158 334.063 381.159 334.063 381.158 334.063L487.777 465.157H120.325C120.325 465.157 120.325 465.157 120.325 465.157" fill="#BCAFFF"/>
<path d="M416.733 439.029H315.913C314.375 439.029 312.858 438.674 311.481 437.991C310.103 437.308 308.902 436.316 307.97 435.093L282.133 401.143C279.632 397.858 281.975 393.13 286.103 393.13H386.925C388.462 393.13 389.979 393.485 391.356 394.168C392.734 394.851 393.935 395.843 394.866 397.066L420.704 431.017C423.205 434.302 420.862 439.029 416.733 439.029Z" fill="white" fill-opacity="0.64"/>
<path d="M416.733 439.027H384.297C388.429 439.027 390.774 434.306 388.269 431.013L362.43 397.069C361.501 395.845 360.301 394.851 358.925 394.167C357.548 393.483 356.032 393.127 354.495 393.127H386.922C390.046 393.127 392.98 394.584 394.866 397.069L420.705 431.013C423.201 434.306 420.865 439.027 416.733 439.027Z" fill="black" fill-opacity="0.04"/>
<path fill-rule="evenodd" clip-rule="evenodd" d="M308.157 444.698C310.568 445.892 313.222 446.514 315.912 446.514H416.733C427.055 446.514 432.911 434.697 426.661 426.484L400.823 392.533C400.823 392.533 400.823 392.533 400.823 392.533C399.193 390.392 397.091 388.656 394.681 387.462C392.27 386.267 389.616 385.645 386.925 385.645H286.103C275.783 385.645 269.925 397.463 276.176 405.676C276.176 405.676 276.177 405.677 276.176 405.676L302.014 439.626C303.643 441.767 305.746 443.503 308.157 444.698ZM315.913 431.544C315.528 431.544 315.149 431.455 314.805 431.284C314.46 431.113 314.16 430.865 313.927 430.56C313.927 430.559 313.927 430.56 313.927 430.56L291.138 400.615H386.924C386.924 400.615 386.924 400.615 386.924 400.615C387.308 400.615 387.688 400.704 388.032 400.875C388.376 401.046 388.677 401.294 388.909 401.599L411.699 431.544H315.913C315.913 431.544 315.913 431.544 315.913 431.544Z" fill="#BCAFFF"/>
<path fill-rule="evenodd" clip-rule="evenodd" d="M202.217 439.027C202.217 443.161 205.568 446.512 209.702 446.512H255.499C259.633 446.512 262.985 443.161 262.985 439.027C262.985 434.893 259.633 431.542 255.499 431.542H209.702C205.568 431.542 202.217 434.893 202.217 439.027Z" fill="#BCAFFF"/>
<path fill-rule="evenodd" clip-rule="evenodd" d="M211.863 414.2C211.863 418.334 215.214 421.685 219.348 421.685H238.787C242.921 421.685 246.272 418.334 246.272 414.2C246.272 410.066 242.921 406.714 238.787 406.714H219.348C215.214 406.714 211.863 410.066 211.863 414.2Z" fill="#BCAFFF"/>
<path d="M232.814 145.601C232.814 86.3743 184.801 38.3614 125.574 38.3614C66.4029 38.3614 18.3331 86.4302 18.3341 145.602C18.3351 204.829 66.348 252.841 125.574 252.841H213.54C220.653 252.841 224.215 244.242 219.185 239.213L201.403 221.432C220.81 202.025 232.814 175.214 232.814 145.601Z" fill="white"/>
<path d="M152.456 118.689C151.361 117.607 149.884 117 148.344 117C146.805 117 145.328 117.607 144.233 118.689L125.072 137.85L105.91 118.689C103.661 116.439 99.937 116.439 97.6873 118.689C95.4376 120.939 95.4376 124.662 97.6873 126.912L116.848 146.073L97.6873 165.234C95.4376 167.484 95.4376 171.208 97.6873 173.457C98.8509 174.621 100.325 175.164 101.799 175.164C103.273 175.164 104.747 174.621 105.91 173.457L125.072 154.296L144.233 173.457C145.396 174.621 146.87 175.164 148.344 175.164C149.818 175.164 151.292 174.621 152.456 173.457C154.705 171.208 154.705 167.484 152.456 165.234L133.295 146.073L152.456 126.912C154.783 124.662 154.783 120.939 152.456 118.689Z" fill="#BCAFFF"/>
<path d="M219.18 239.217C224.211 244.247 220.658 252.84 213.541 252.84H177.372C184.478 252.84 188.041 244.247 183.011 239.217L171.985 228.184C168.317 224.515 168.085 218.656 171.428 214.69C187.16 196.03 196.645 171.92 196.645 145.6C196.645 92.5441 158.11 48.4805 107.499 39.8874C112.459 39.0396 117.472 38.5437 122.502 38.4033C182.476 36.7146 231.801 83.7843 232.799 143.775C233.304 174.109 221.205 201.631 201.405 221.432L219.18 239.217Z" fill="#F9F8FF"/>
<path fill-rule="evenodd" clip-rule="evenodd" d="M125.573 245.356C70.481 245.356 25.8194 200.695 25.8194 145.602V145.602C25.8185 90.5642 70.5359 45.8467 125.574 45.8467C147.396 45.8467 167.558 52.8508 183.976 64.7291C187.326 67.1524 192.005 66.4016 194.428 63.0522C196.852 59.7029 196.101 55.0233 192.751 52.6001C173.869 38.9384 150.654 30.876 125.574 30.876C62.2679 30.876 10.8478 82.2961 10.8487 145.602M10.8487 145.602C10.8488 208.963 62.213 260.326 125.573 260.326H213.54C227.321 260.326 234.223 243.664 224.478 233.92L211.817 221.259C229.543 201.069 240.299 174.585 240.299 145.601C240.299 121.615 232.925 99.3324 220.329 80.9141C217.995 77.5018 213.337 76.6274 209.925 78.9611C206.512 81.2948 205.638 85.9529 207.972 89.3653C218.921 105.376 225.328 124.728 225.328 145.601C225.328 173.149 214.171 198.078 196.11 216.138C194.707 217.541 193.918 219.445 193.918 221.43C193.918 223.416 194.707 225.32 196.11 226.724L213.892 244.506C213.983 244.596 214.017 244.655 214.028 244.677C214.04 244.701 214.046 244.72 214.05 244.741C214.059 244.792 214.06 244.905 214 245.048C213.941 245.191 213.861 245.27 213.818 245.3C213.8 245.313 213.783 245.322 213.757 245.33C213.734 245.338 213.668 245.356 213.54 245.356H125.573" fill="#BCAFFF"/>
<path d="M349.299 184.977C349.299 200.363 336.827 212.835 321.441 212.835C306.055 212.835 293.584 200.363 293.584 184.977C293.584 169.591 306.055 157.119 321.441 157.119C336.827 157.119 349.299 169.591 349.299 184.977Z" fill="white"/>
<path d="M349.297 184.974C349.297 200.365 336.822 212.841 321.443 212.841C316.471 212.852 311.589 211.519 307.312 208.984C318.247 206.463 326.395 196.673 326.395 184.974C326.395 173.287 318.26 163.484 307.325 160.964C311.6 158.438 316.477 157.11 321.443 157.119C336.822 157.119 349.297 169.595 349.297 184.974Z" fill="#F9F8FF"/>
<path fill-rule="evenodd" clip-rule="evenodd" d="M286.098 184.977C286.098 204.497 301.921 220.321 321.441 220.321C340.961 220.321 356.785 204.497 356.785 184.977C356.785 165.457 340.961 149.633 321.441 149.633C301.921 149.633 286.098 165.457 286.098 184.977ZM321.441 205.35C310.19 205.35 301.069 196.229 301.069 184.977C301.069 173.725 310.19 164.604 321.441 164.604C332.693 164.604 341.814 173.725 341.814 184.977C341.814 196.229 332.693 205.35 321.441 205.35Z" fill="#BCAFFF"/>
<path d="M440.989 129.592C440.989 141.734 431.146 151.575 419.005 151.575C406.864 151.575 397.021 141.734 397.021 129.592C397.021 117.45 406.864 107.608 419.005 107.608C431.146 107.608 440.989 117.45 440.989 129.592Z" fill="white"/>
<path d="M440.987 129.589C440.987 141.735 431.141 151.58 419.006 151.58C415.082 151.589 411.229 150.537 407.854 148.535C416.484 146.546 422.913 138.82 422.913 129.589C422.913 120.366 416.494 112.63 407.864 110.641C411.238 108.648 415.087 107.601 419.006 107.608C431.141 107.608 440.987 117.452 440.987 129.589Z" fill="#F9F8FF"/>
<path fill-rule="evenodd" clip-rule="evenodd" d="M389.535 129.592C389.535 145.868 402.73 159.061 419.005 159.061C435.28 159.061 448.474 145.868 448.474 129.592C448.474 113.316 435.28 100.122 419.005 100.122C402.729 100.122 389.535 113.316 389.535 129.592ZM419.005 144.09C410.997 144.09 404.506 137.599 404.506 129.592C404.506 121.584 410.998 115.093 419.005 115.093C427.012 115.093 433.503 121.584 433.503 129.592C433.503 137.599 427.012 144.09 419.005 144.09Z" fill="#BCAFFF"/>
<path fill-rule="evenodd" clip-rule="evenodd" d="M343.55 104.045C346.474 106.968 351.213 106.968 354.136 104.045L372.822 85.3595C375.745 82.4363 375.745 77.6969 372.822 74.7737C369.898 71.8505 365.159 71.8505 362.236 74.7737L343.55 93.459C340.627 96.3822 340.627 101.122 343.55 104.045Z" fill="#BCAFFF"/>
<path fill-rule="evenodd" clip-rule="evenodd" d="M372.822 104.045C375.745 101.122 375.745 96.3822 372.822 93.459L354.136 74.7737C351.213 71.8505 346.474 71.8505 343.55 74.7737C340.627 77.6969 340.627 82.4363 343.55 85.3595L362.236 104.045C365.159 106.968 369.898 106.968 372.822 104.045Z" fill="#BCAFFF"/>
<path fill-rule="evenodd" clip-rule="evenodd" d="M28.2573 294.615C31.1805 297.539 35.92 297.539 38.8432 294.615L63.5308 269.928C66.454 267.005 66.454 262.265 63.5308 259.342C60.6076 256.419 55.8681 256.419 52.9449 259.342L28.2573 284.03C25.3341 286.953 25.3341 291.692 28.2573 294.615Z" fill="#BCAFFF"/>
<path fill-rule="evenodd" clip-rule="evenodd" d="M63.5308 294.615C66.454 291.692 66.454 286.953 63.5308 284.03L38.8432 259.342C35.92 256.419 31.1805 256.419 28.2573 259.342C25.3341 262.265 25.3341 267.005 28.2573 269.928L52.9449 294.615C55.8681 297.539 60.6076 297.539 63.5308 294.615Z" fill="#BCAFFF"/>
</g>
<defs>
<clipPath id="clip0_962_5871">
<rect width="511" height="511" fill="white"/>
</clipPath>
</defs>
</svg>
