<svg width="24" height="24" viewBox="0 0 24 24" fill="none" xmlns="http://www.w3.org/2000/svg">
<path fill-rule="evenodd" clip-rule="evenodd" d="M11.9997 3C8.44886 3 5.45425 6.10646 5.45425 10.0868V10.0982L5.45418 10.0982L5.42679 12.4965C5.42546 14.161 4.86639 15.5664 4.22872 16.5999H19.7766C19.1645 15.5643 18.6288 14.1563 18.6288 12.4906V12.4786L18.6288 12.4786L18.6562 10.2001C18.6533 6.15677 15.6101 3 11.9997 3ZM3.45425 10.0809C3.45722 5.13141 7.21792 1 11.9997 1C16.8447 1 20.6562 5.18801 20.6562 10.2059V10.2179L20.6562 10.2179L20.6288 12.4964C20.6302 13.9145 21.1584 15.1049 21.7149 15.9236C22.0844 16.4673 22.0471 17.1113 21.8673 17.5641C21.6914 18.007 21.2269 18.5999 20.4297 18.5999H3.57075C2.76057 18.5999 2.29727 17.9891 2.12598 17.5444C1.95029 17.0884 1.91606 16.4336 2.30259 15.8882L3.11844 16.4665L2.30259 15.8882C2.884 15.0679 3.42679 13.8885 3.42679 12.4906V12.4792H3.42685L3.45425 10.0809ZM7.99967 21.1999C7.99967 20.6476 8.44738 20.1999 8.99967 20.1999H14.9997C15.552 20.1999 15.9997 20.6476 15.9997 21.1999C15.9997 21.7521 15.552 22.1999 14.9997 22.1999H8.99967C8.44738 22.1999 7.99967 21.7521 7.99967 21.1999Z" fill="#46485C"/>
</svg>
