<svg width="100" height="100" viewBox="0 0 100 100" fill="none" xmlns="http://www.w3.org/2000/svg">
<g clip-path="url(#clip0_3977_25699)">
<path d="M98.1816 46.4046H72.179C71.3444 46.4046 70.6221 45.8302 70.4286 45.0183C68.6044 37.372 62.5604 31.347 54.9038 29.5499C54.0888 29.3585 53.5108 28.6351 53.5108 27.798V1.80507C53.5108 0.731633 54.4435 -0.0988341 55.5108 0.0140563C66.8688 1.21776 77.3936 6.22186 85.5852 14.4113C93.7535 22.5818 98.7543 33.0765 99.9725 44.4021C100.087 45.4704 99.2561 46.4046 98.1816 46.4046Z" fill="#FF7258"/>
<path d="M53.5108 27.7982V22.447C66.0292 23.9937 75.9579 33.898 77.543 46.405H72.1792C71.3446 46.405 70.6223 45.8306 70.4288 45.0187C68.6046 37.3724 62.5606 31.3474 54.904 29.5503C54.0888 29.3589 53.5108 28.6353 53.5108 27.7982Z" fill="#F95D48"/>
<path d="M99.9898 55.1571C98.9883 64.752 95.2744 73.7549 89.2213 81.2602C88.5467 82.0963 87.2987 82.1698 86.5391 81.41L71.9815 66.8524L68.151 63.0219C67.5583 62.4292 67.4579 61.5089 67.8983 60.7956C69.071 58.8971 69.9473 56.7975 70.4635 54.561C70.6526 53.7419 71.3772 53.1593 72.2178 53.1593H98.199C99.2715 53.1591 100.101 54.0903 99.9898 55.1571Z" fill="#FFDC65"/>
<path d="M77.5764 53.1591C76.9797 58.2811 74.9848 62.9755 71.9815 66.8524L68.151 63.0219C67.5583 62.4292 67.4579 61.5089 67.8983 60.7956C69.071 58.8971 69.9473 56.7975 70.4635 54.561C70.6526 53.7419 71.3772 53.1593 72.2178 53.1593H77.5764V53.1591Z" fill="#FFC846"/>
<path d="M81.7715 86.1951C82.5301 86.9537 82.4584 88.1992 81.625 88.8744C72.7346 96.0779 61.7364 99.9961 50.1335 99.9961C36.7441 99.9961 24.1541 94.7795 14.6841 85.3121C5.26776 75.896 0.0589827 63.3944 0.000389037 50.0897C-0.0583999 36.7282 5.23612 23.8593 14.6843 14.4113C22.8746 6.22108 33.4007 1.21699 44.7603 0.014061C45.8261 -0.0986341 46.7562 0.733981 46.7562 1.80566V27.7982C46.7562 28.6369 46.1759 29.3595 45.3593 29.5513C36.1476 31.7154 29.2689 39.9989 29.2689 49.863C29.2689 61.3657 38.6282 70.7272 50.1331 70.7272C54.1782 70.7272 57.9569 69.5688 61.1579 67.5684C61.8718 67.1223 62.7969 67.2212 63.3921 67.8163L81.7715 86.1951Z" fill="#00ABE0"/>
<path d="M63.3927 67.8163L67.2311 71.6547C62.518 75.3774 56.5608 77.6016 50.0856 77.603C34.7503 77.6063 22.4365 65.3296 22.3959 49.9944C22.358 35.7966 33.0095 24.0775 46.7567 22.4333V27.798C46.7567 28.6367 46.1765 29.3593 45.3601 29.5511C36.1484 31.7152 29.2697 39.9987 29.2697 49.8628C29.2697 61.3655 38.629 70.727 50.1339 70.727C54.179 70.727 57.9577 69.5686 61.1587 67.5682C61.8723 67.1223 62.7973 67.2212 63.3927 67.8163Z" fill="#099DD1"/>
</g>
<defs>
<clipPath id="clip0_3977_25699">
<rect width="100" height="100" fill="white"/>
</clipPath>
</defs>
</svg>
