<svg width="24" height="24" viewBox="0 0 24 24" fill="none" xmlns="http://www.w3.org/2000/svg">
<g clip-path="url(#clip0_4555_1020)">
<path d="M0.999787 24C1.26498 24 1.51929 23.8946 1.70679 23.707L8.32579 17.088L9.57379 18.38C10.5144 19.374 11.8108 19.9544 13.1788 19.994C13.6348 19.9954 14.0877 19.9186 14.5178 19.767C15.1823 19.5382 15.7662 19.1214 16.1984 18.5672C16.6306 18.013 16.8927 17.3453 16.9528 16.645C17.0613 15.6309 16.9861 14.6055 16.7308 13.618L16.5168 12.576C16.4762 12.4094 16.4792 12.2351 16.5255 12.07C16.5717 11.9048 16.6596 11.7544 16.7808 11.633L18.3678 10.045C18.4304 9.98216 18.5151 9.94628 18.6038 9.94501C18.6349 9.93922 18.667 9.94223 18.6965 9.95372C18.7261 9.9652 18.7518 9.9847 18.7708 10.01C19.2731 10.5427 19.9488 10.8788 20.6767 10.958C21.4045 11.0371 22.1367 10.8542 22.7418 10.442C23.0968 10.1889 23.3924 9.86143 23.608 9.48242C23.8236 9.1034 23.954 8.68195 23.99 8.24741C24.0261 7.81287 23.967 7.37569 23.8169 6.96631C23.6668 6.55694 23.4292 6.18521 23.1208 5.87701L18.1998 0.954008C17.6945 0.436109 17.0232 0.112293 16.3034 0.0391742C15.5835 -0.0339445 14.8609 0.148287 14.2618 0.554008C13.9067 0.807041 13.611 1.13445 13.3953 1.51342C13.1796 1.8924 13.0492 2.31383 13.013 2.74837C12.9768 3.18292 13.0358 3.62012 13.1859 4.02954C13.3359 4.43896 13.5734 4.81074 13.8818 5.11901L13.9578 5.19501C14.0151 5.2527 14.0472 5.33071 14.0472 5.41201C14.0472 5.49331 14.0151 5.57131 13.9578 5.62901L12.3578 7.22901C12.235 7.35149 12.0826 7.43995 11.9153 7.48571C11.7481 7.53147 11.5718 7.53295 11.4038 7.49001L10.5868 7.28101C9.58184 7.01855 8.53777 6.93962 7.50479 7.04801C6.77215 7.12389 6.07647 7.40764 5.49976 7.86582C4.92305 8.324 4.48935 8.9375 4.24979 9.63401C3.98835 10.3498 3.9368 11.1253 4.1012 11.8694C4.2656 12.6134 4.63912 13.295 5.17779 13.834L6.93579 15.654L0.292787 22.293C0.152977 22.4329 0.0577711 22.611 0.0192035 22.805C-0.0193641 22.9989 0.000438906 23.2 0.0761089 23.3827C0.151779 23.5654 0.279919 23.7215 0.444328 23.8314C0.608738 23.9413 0.802037 24 0.999787 24ZM6.13479 10.3C6.24747 9.95933 6.4565 9.65861 6.73657 9.43428C7.01663 9.20994 7.35572 9.0716 7.71279 9.03601C7.94301 9.01205 8.17432 9.00003 8.40579 9.00001C8.9731 9.00004 9.53806 9.07297 10.0868 9.21701L10.9098 9.42701C11.414 9.55458 11.9427 9.54932 12.4443 9.41174C12.9458 9.27417 13.4032 9.00897 13.7718 8.64201L15.3718 7.04201C15.8035 6.609 16.046 6.02248 16.046 5.41101C16.046 4.79954 15.8035 4.21302 15.3718 3.78001L15.2958 3.70401C15.1922 3.60071 15.1126 3.47596 15.0625 3.33855C15.0124 3.20113 14.9931 3.05441 15.0059 2.90871C15.0187 2.76301 15.0632 2.62189 15.1365 2.49529C15.2097 2.3687 15.3098 2.25971 15.4298 2.17601C15.6432 2.04683 15.8946 1.9952 16.1416 2.02981C16.3886 2.06442 16.6161 2.18316 16.7858 2.36601L21.7098 7.29001C21.8133 7.39331 21.893 7.51806 21.943 7.65547C21.9931 7.79288 22.0125 7.93961 21.9997 8.08531C21.9869 8.231 21.9423 8.37213 21.8691 8.49872C21.7958 8.62532 21.6957 8.73431 21.5758 8.81801C21.3601 8.94895 21.1055 9.00061 20.8558 8.96411C20.6061 8.92761 20.377 8.80522 20.2078 8.61801C20.002 8.40586 19.7559 8.2371 19.4838 8.12168C19.2117 8.00626 18.9193 7.94653 18.6238 7.94601C18.0004 7.94885 17.4025 8.19415 16.9568 8.63001L15.3708 10.217C15.0107 10.5774 14.7482 11.0236 14.6083 11.5134C14.4683 12.0033 14.4554 12.5208 14.5708 13.017L14.7898 14.075C14.9916 14.8464 15.0529 15.6479 14.9708 16.441C14.9469 16.7645 14.8285 17.0738 14.6302 17.3305C14.432 17.5872 14.1627 17.7801 13.8558 17.885C13.3442 18.0195 12.805 18.0063 12.3007 17.8471C11.7963 17.6878 11.3473 17.3889 11.0058 16.985L6.60579 12.435C6.33142 12.1614 6.14124 11.8148 6.05776 11.4365C5.97429 11.0581 6.00102 10.6637 6.13479 10.3Z" fill="#4F4B5C"/>
</g>
<defs>
<clipPath id="clip0_4555_1020">
<rect width="24" height="24" fill="white"/>
</clipPath>
</defs>
</svg>
