<svg width="24" height="24" viewBox="0 0 24 24" fill="none" xmlns="http://www.w3.org/2000/svg">
<g id="Icon / plant 1">
<path id="Vector" d="M21.5468 4.70466C19.1264 4.70466 15.707 4.90718 13.9595 6.6537C13.2029 7.41027 12.8252 8.64361 12.9232 10.0396C12.936 10.224 13.0586 10.3811 13.2347 10.4392C13.41 10.4964 13.6026 10.4428 13.7225 10.3021C14.6943 9.15862 15.9022 8.24223 17.3154 7.5783C17.4353 7.52109 17.577 7.51653 17.7059 7.56195C17.8195 7.60283 17.9085 7.68001 17.9548 7.77904C18.051 7.98249 18.0202 8.2504 17.7005 8.40116C17.6823 8.41022 17.666 8.42206 17.6478 8.43023C17.6415 8.43296 17.6342 8.43206 17.6288 8.43479C14.1466 10.0714 12.4346 12.9269 11.6572 15.8632C11.0904 12.1867 9.8934 10.0223 8.76265 8.69363C7.94436 7.63284 7.13964 7.07062 6.67466 6.75277C6.58836 6.69372 6.32773 6.51572 6.21963 6.40763C6.04253 6.23052 6.04253 5.9426 6.21963 5.7655C6.39674 5.58929 6.68555 5.58929 6.88263 5.78546C6.93078 5.82817 7.00796 5.88266 7.10605 5.94805L7.1869 6.00254C7.84444 6.45301 9.06876 7.28949 10.155 9.0905C10.2522 9.25126 10.4402 9.33755 10.6227 9.30303C10.808 9.27033 10.9533 9.12775 10.9897 8.94337C11.2267 7.73272 11.1204 5.93622 10.0406 4.85635C8.29316 3.11072 4.87369 2.9082 2.45417 2.9082C2.20346 2.90816 2 3.11162 2 3.36229C2 5.7827 2.20252 9.20217 3.94904 10.9496C4.67742 11.678 5.80093 12.005 6.91711 12.005C7.82805 12.005 8.72085 11.777 9.40474 11.3819C10.3375 13.3146 11.0822 16.2019 11.0822 20.6186C11.0822 20.8692 11.2857 21.0727 11.5364 21.0727C11.787 21.0727 11.9905 20.8692 11.9905 20.6186C11.9905 18.1546 12.4128 15.1974 13.9831 12.7633C14.6125 13.3782 15.6961 13.7678 16.8967 13.8042C16.9567 13.806 17.0157 13.8069 17.0747 13.8069C18.2945 13.8069 19.3725 13.4245 20.051 12.7451C21.7984 10.9977 22 7.57826 22 5.15781C22.001 4.90718 21.7984 4.70466 21.5468 4.70466Z" fill="#0BAA60"/>
</g>
</svg>
