<svg width="24" height="24" viewBox="0 0 24 24" fill="none" xmlns="http://www.w3.org/2000/svg">
<path fill-rule="evenodd" clip-rule="evenodd" d="M12 1C12.5522 1 13 1.44772 13 2V11C13 11.5523 12.5522 12 12 12C11.4477 12 11 11.5523 11 11V2C11 1.44772 11.4477 1 12 1ZM6.39966 3.73827C6.76513 4.15234 6.72573 4.78427 6.31166 5.14974C4.52459 6.72703 3.3999 9.03155 3.3999 11.6C3.3999 16.3496 7.25025 20.2 11.9999 20.2C16.7495 20.2 20.5999 16.3496 20.5999 11.6C20.5999 9.03155 19.4752 6.72703 17.6881 5.14974C17.2741 4.78427 17.2347 4.15234 17.6001 3.73827C17.9656 3.3242 18.5975 3.2848 19.0116 3.65026C21.2106 5.5911 22.5999 8.43392 22.5999 11.6C22.5999 17.4542 17.8541 22.2 11.9999 22.2C6.14568 22.2 1.3999 17.4542 1.3999 11.6C1.3999 8.43392 2.78923 5.5911 4.98819 3.65026C5.40226 3.2848 6.0342 3.3242 6.39966 3.73827Z" fill="#46485C"/>
</svg>
