<svg width="24" height="24" viewBox="0 0 24 24" fill="none" xmlns="http://www.w3.org/2000/svg">
<g clip-path="url(#clip0_3099_23394)">
<path d="M11.8585 0.00019618C10.8796 0.00474306 9.94487 0.0882274 9.1224 0.233774C6.69948 0.661837 6.25956 1.55776 6.25956 3.21006V5.39223H11.9852V6.11959H6.25956H4.11076C2.44675 6.11959 0.989639 7.11976 0.53392 9.02246C0.00821725 11.2034 -0.0150796 12.5643 0.53392 14.8416C0.940936 16.5366 1.91289 17.7444 3.5769 17.7444H5.54551V15.1284C5.54551 13.2386 7.18065 11.5716 9.1224 11.5716H14.8414C16.4334 11.5716 17.7042 10.2609 17.7042 8.66209V3.21006C17.7042 1.6584 16.3952 0.492759 14.8414 0.233774C13.8578 0.0700399 12.8372 -0.0043507 11.8585 0.00019618ZM8.76203 1.75529C9.35345 1.75529 9.8364 2.24617 9.8364 2.84968C9.8364 3.45109 9.35345 3.93742 8.76203 3.93742C8.1685 3.93742 7.68765 3.45109 7.68765 2.84968C7.68765 2.24612 8.1685 1.75529 8.76203 1.75529Z" fill="url(#paint0_linear_3099_23394)"/>
<path d="M18.4184 6.1196V8.6621C18.4184 10.6333 16.7472 12.2923 14.8416 12.2923H9.12261C7.55609 12.2923 6.25977 13.6331 6.25977 15.2019V20.6539C6.25977 22.2056 7.60906 23.1183 9.12261 23.5634C10.935 24.0964 12.6731 24.1927 14.8416 23.5634C16.283 23.1461 17.7044 22.3062 17.7044 20.6539V18.4717H11.9854V17.7443H17.7044H20.5672C22.2313 17.7443 22.8514 16.5836 23.4301 14.8415C24.0279 13.048 24.0024 11.3232 23.4301 9.02238C23.0188 7.36582 22.2334 6.11951 20.5672 6.11951H18.4184V6.1196ZM15.202 19.9265C15.7955 19.9265 16.2763 20.4129 16.2763 21.0143C16.2763 21.6178 15.7955 22.1087 15.202 22.1087C14.6105 22.1087 14.1276 21.6178 14.1276 21.0143C14.1275 20.4129 14.6105 19.9265 15.202 19.9265Z" fill="url(#paint1_linear_3099_23394)"/>
</g>
<defs>
<linearGradient id="paint0_linear_3099_23394" x1="-0.430302" y1="0.682528" x2="12.7754" y2="11.9442" gradientUnits="userSpaceOnUse">
<stop stop-color="#5A9FD4"/>
<stop offset="1" stop-color="#306998"/>
</linearGradient>
<linearGradient id="paint1_linear_3099_23394" x1="17.7443" y1="18.9446" x2="13.0086" y2="12.3034" gradientUnits="userSpaceOnUse">
<stop stop-color="#FFD43B"/>
<stop offset="1" stop-color="#FFE873"/>
</linearGradient>
<clipPath id="clip0_3099_23394">
<rect width="24" height="24" fill="white"/>
</clipPath>
</defs>
</svg>
