<svg width="24" height="24" viewBox="0 0 24 24" fill="none" xmlns="http://www.w3.org/2000/svg">
<g clip-path="url(#clip0_903_5335)">
<path d="M22.1083 0.0102539H1.87127C0.837788 0.0102539 0 0.848042 0 1.88153V7.64931C0 8.68279 0.837788 9.52058 1.87127 9.52058H3.30503L5.09022 11.9035L6.87542 9.52058H22.1083C23.1418 9.52058 23.9795 8.68279 23.9795 7.64931V1.88153C23.9795 0.848042 23.1418 0.0102539 22.1083 0.0102539Z" fill="#FFD36C"/>
<path d="M22.1084 0.0102539H20.1543C21.1878 0.0102539 22.0256 0.848042 22.0256 1.88153V7.64931C22.0256 8.68279 21.1878 9.52058 20.1543 9.52058H22.1084C23.1418 9.52058 23.9796 8.68279 23.9796 7.64931V1.88153C23.9796 0.848042 23.1418 0.0102539 22.1084 0.0102539Z" fill="#FCC645"/>
<path d="M5.18551 2.44704L5.85843 3.81054C5.8679 3.8297 5.88187 3.84628 5.89916 3.85884C5.91645 3.87141 5.93653 3.87958 5.95768 3.88267L7.46241 4.10133C7.57053 4.11706 7.61371 4.24994 7.53546 4.32622L6.44663 5.38755C6.43132 5.40247 6.41987 5.42089 6.41326 5.44122C6.40666 5.46155 6.40509 5.48319 6.40871 5.50426L6.66573 7.00291C6.68421 7.1106 6.57116 7.19272 6.47442 7.14191L5.12858 6.43435C5.10966 6.42439 5.0886 6.41919 5.06723 6.41919C5.04585 6.41919 5.0248 6.42439 5.00588 6.43435L3.66003 7.14191C3.56329 7.19277 3.45025 7.11065 3.46873 7.00291L3.72575 5.50426C3.72936 5.48319 3.72779 5.46156 3.72118 5.44122C3.71458 5.42089 3.70313 5.40247 3.68782 5.38755L2.59905 4.32617C2.52079 4.24989 2.56397 4.11702 2.6721 4.10129L4.17682 3.88262C4.19798 3.87956 4.21807 3.87139 4.23536 3.85882C4.25265 3.84625 4.26662 3.82967 4.27607 3.81049L4.94899 2.44699C4.99744 2.34904 5.13716 2.34904 5.18551 2.44704Z" fill="#EAAF20"/>
<path d="M12.1079 2.44703L12.7808 3.81053C12.7903 3.8297 12.8043 3.84627 12.8216 3.85884C12.8389 3.8714 12.8589 3.87958 12.8801 3.88267L14.3848 4.10133C14.4929 4.11706 14.5361 4.24993 14.4579 4.32622L13.369 5.38754C13.3537 5.40246 13.3423 5.42088 13.3357 5.44122C13.3291 5.46155 13.3275 5.48318 13.3311 5.50425L13.5881 7.0029C13.6066 7.11059 13.4936 7.19271 13.3968 7.14191L12.051 6.43434C12.0321 6.42438 12.011 6.41918 11.9896 6.41918C11.9683 6.41918 11.9472 6.42438 11.9283 6.43434L10.5824 7.14191C10.4857 7.19276 10.3727 7.11064 10.3911 7.0029L10.6482 5.50425C10.6518 5.48318 10.6502 5.46155 10.6436 5.44122C10.637 5.42089 10.6255 5.40246 10.6102 5.38754L9.52141 4.32622C9.44315 4.24993 9.48633 4.11706 9.59446 4.10133L11.0992 3.88267C11.1203 3.8796 11.1404 3.87143 11.1577 3.85886C11.175 3.84629 11.189 3.82971 11.1984 3.81053L11.8714 2.44703C11.9198 2.34904 12.0596 2.34904 12.1079 2.44703Z" fill="#EAAF20"/>
<path d="M19.0308 2.44703L19.7037 3.81053C19.7132 3.8297 19.7271 3.84627 19.7444 3.85884C19.7617 3.8714 19.7818 3.87958 19.8029 3.88267L21.3077 4.10133C21.4158 4.11706 21.459 4.24993 21.3807 4.32622L20.2919 5.38754C20.2766 5.40246 20.2651 5.42088 20.2585 5.44122C20.2519 5.46155 20.2504 5.48318 20.254 5.50425L20.511 7.0029C20.5295 7.11059 20.4164 7.19271 20.3197 7.14191L18.9738 6.43434C18.9549 6.42438 18.9339 6.41918 18.9125 6.41918C18.8911 6.41918 18.8701 6.42438 18.8511 6.43434L17.5053 7.14191C17.4086 7.19276 17.2955 7.11064 17.314 7.0029L17.571 5.50425C17.5746 5.48318 17.5731 5.46155 17.5664 5.44122C17.5598 5.42089 17.5484 5.40246 17.5331 5.38754L16.4443 4.32622C16.366 4.24993 16.4092 4.11706 16.5173 4.10133L18.022 3.88267C18.0432 3.8796 18.0633 3.87143 18.0806 3.85886C18.0979 3.84629 18.1118 3.82971 18.1213 3.81053L18.7942 2.44703C18.8427 2.34904 18.9824 2.34904 19.0308 2.44703Z" fill="#EAAF20"/>
<path d="M5.0661 23.9898C7.86403 23.9898 10.1322 21.7216 10.1322 18.9237C10.1322 16.1258 7.86403 13.8576 5.0661 13.8576C2.26817 13.8576 0 16.1258 0 18.9237C0 21.7216 2.26817 23.9898 5.0661 23.9898Z" fill="#F7F3F1"/>
<path d="M5.06147 19.6474C6.07406 19.6474 6.89492 18.8266 6.89492 17.814C6.89492 16.8014 6.07406 15.9805 5.06147 15.9805C4.04889 15.9805 3.22803 16.8014 3.22803 17.814C3.22803 18.8266 4.04889 19.6474 5.06147 19.6474Z" fill="#EBE1DC"/>
<path d="M5.0614 19.6474C3.3533 19.6474 1.9457 20.9338 1.75439 22.5906V22.7574C2.64246 23.5252 3.80013 23.9898 5.06627 23.9898C6.33188 23.9898 7.48903 23.5256 8.37695 22.7584L8.37815 22.6871C8.23148 20.984 6.80255 19.6474 5.0614 19.6474Z" fill="#EBE1DC"/>
<path d="M23.0872 16.1494H13.148C11.9957 16.1494 11.9942 14.3642 13.148 14.3642H23.0872C24.2396 14.3642 24.241 16.1494 23.0872 16.1494Z" fill="#EBE1DC"/>
<path d="M23.1112 19.8163H13.1719C12.0196 19.8163 12.0181 18.0311 13.1719 18.0311H23.1112C24.2635 18.0311 24.265 19.8163 23.1112 19.8163Z" fill="#EBE1DC"/>
<path d="M23.1356 23.4832H13.1964C12.044 23.4832 12.0425 21.698 13.1964 21.698H23.1356C24.2879 21.698 24.2894 23.4832 23.1356 23.4832Z" fill="#EBE1DC"/>
</g>
<defs>
<clipPath id="clip0_903_5335">
<rect width="24" height="24" fill="white"/>
</clipPath>
</defs>
</svg>
