<svg width="24" height="24" viewBox="0 0 24 24" fill="none" xmlns="http://www.w3.org/2000/svg">
<path fill-rule="evenodd" clip-rule="evenodd" d="M6.90533 2H4.8841C3.29124 2 2 3.29124 2 4.8841V19.1159C2 20.7088 3.29124 22 4.8841 22H19.1159C20.7088 22 22 20.7088 22 19.1159V8.27555C22 7.51064 21.6961 6.77706 21.1553 6.23619L17.7638 2.84474M6.90533 2H15.7244C16.4894 2 17.2229 2.30387 17.7638 2.84474M5.96226 3.88679H4.8841C4.33329 3.88679 3.88679 4.33329 3.88679 4.8841V19.1159C3.88679 19.6667 4.33329 20.1132 4.8841 20.1132H5.98114C5.96876 20.0522 5.96226 19.9891 5.96226 19.9245V14.8302C5.96226 13.6839 6.89148 12.7547 8.03774 12.7547H15.9623C17.1085 12.7547 18.0377 13.6839 18.0377 14.8302V20.1132H19.1159C19.6667 20.1132 20.1132 19.6667 20.1132 19.1159V8.27556C20.1132 8.01105 20.0081 7.75739 19.8211 7.57036L18.0377 5.78699V6.33962C18.0377 7.48587 17.1085 8.41509 15.9623 8.41509L8.03774 8.41509C6.89148 8.41509 5.96226 7.48587 5.96226 6.33962V3.88679ZM16.1553 3.98465C16.1524 4.01454 16.1509 4.04483 16.1509 4.07547V6.33962C16.1509 6.44383 16.0665 6.5283 15.9623 6.5283L8.03774 6.5283C7.93353 6.5283 7.84906 6.44383 7.84906 6.33962V3.88679H15.7244C15.875 3.88679 16.022 3.92083 16.1553 3.98465ZM16.1509 20.1132V14.8302C16.1509 14.726 16.0665 14.6415 15.9623 14.6415H8.03774C7.93353 14.6415 7.84906 14.726 7.84906 14.8302V19.9245C7.84906 19.9891 7.84256 20.0522 7.83019 20.1132H16.1509Z" fill="#46485C"/>
</svg>
