<svg width="19" height="18" viewBox="0 0 19 18" fill="none" xmlns="http://www.w3.org/2000/svg">
<g id="Icon / search 1">
<g id="Vector">
<path fill-rule="evenodd" clip-rule="evenodd" d="M8.75 3C5.8505 3 3.5 5.3505 3.5 8.25C3.5 11.1495 5.8505 13.5 8.75 13.5C11.6495 13.5 14 11.1495 14 8.25C14 5.3505 11.6495 3 8.75 3ZM2 8.25C2 4.52208 5.02208 1.5 8.75 1.5C12.4779 1.5 15.5 4.52208 15.5 8.25C15.5 11.9779 12.4779 15 8.75 15C5.02208 15 2 11.9779 2 8.25Z" fill="#7357FF"/>
<path fill-rule="evenodd" clip-rule="evenodd" d="M12.4571 11.9572C12.75 11.6643 13.2249 11.6643 13.5178 11.9572L16.7803 15.2197C17.0731 15.5126 17.0731 15.9875 16.7803 16.2803C16.4874 16.5732 16.0125 16.5732 15.7196 16.2803L12.4571 13.0178C12.1642 12.725 12.1642 12.2501 12.4571 11.9572Z" fill="#7357FF"/>
</g>
</g>
</svg>
