<svg width="24" height="24" viewBox="0 0 24 24" fill="none" xmlns="http://www.w3.org/2000/svg">
<path d="M21.0001 3.92L15.0001 20.67C14.9651 20.7666 14.9013 20.8502 14.8172 20.9092C14.7331 20.9683 14.6328 21 14.5301 21H14.3701C14.2739 21 14.1796 20.9727 14.0982 20.9214C14.0168 20.8701 13.9516 20.7968 13.9101 20.71L11.5501 15.71C11.3802 15.3497 11.3218 14.9468 11.3824 14.5531C11.443 14.1593 11.6197 13.7926 11.8901 13.5L14.8901 10.22C14.9787 10.127 15.0282 10.0035 15.0282 9.875C15.0282 9.74653 14.9787 9.62299 14.8901 9.53L14.5101 9.15C14.4171 9.06136 14.2935 9.01191 14.1651 9.01191C14.0366 9.01191 13.9131 9.06136 13.8201 9.15L10.5401 12.15C10.2475 12.4203 9.88077 12.5971 9.48703 12.6577C9.09329 12.7183 8.69042 12.6599 8.33008 12.49L3.33008 10.13C3.23578 10.0945 3.15412 10.0319 3.09539 9.95C3.03666 9.86813 3.00349 9.7707 3.00008 9.67V9.51C2.99146 9.40056 3.01911 9.29132 3.07875 9.19914C3.13839 9.10697 3.22671 9.03699 3.33008 9L20.0801 3C20.1683 2.9676 20.2639 2.96073 20.3559 2.98019C20.4479 2.99964 20.5325 3.04464 20.6001 3.11L20.8601 3.37C20.9364 3.43669 20.9907 3.52499 21.0157 3.62321C21.0407 3.72144 21.0352 3.82494 21.0001 3.92Z" fill="#393F52"/>
</svg>
