<svg width="24" height="24" viewBox="0 0 24 24" fill="none" xmlns="http://www.w3.org/2000/svg">
<path d="M11.9437 12H11.9999M9.67435 7.79999C8.19867 8.61881 7.1999 10.1928 7.1999 12C7.1999 13.8073 8.19867 15.3812 9.67435 16.2M14.3254 7.79999C15.8011 8.61881 16.7999 10.1928 16.7999 12C16.7999 13.8073 15.8011 15.3812 14.3254 16.2M7.1999 20.3157C4.33046 18.6558 2.3999 15.5534 2.3999 12C2.3999 8.44666 4.33046 5.34421 7.1999 3.68433M16.7999 20.3157C19.6693 18.6558 21.5999 15.5534 21.5999 12C21.5999 8.44666 19.6693 5.34421 16.7999 3.68433" stroke="#46485C" stroke-width="2" stroke-linecap="round"/>
</svg>
