<svg width="49" height="49" viewBox="0 0 49 49" fill="none" xmlns="http://www.w3.org/2000/svg">
<g id="Single choice" clip-path="url(#clip0_7582_1904)">
<g id="Group">
<path id="Vector" d="M24.5002 2.51465C11.8148 2.51465 1.53125 12.7982 1.53125 25.4836C1.53125 38.0133 11.5643 48.1986 24.0346 48.4466L35.0634 45.8835C42.4333 42.0594 47.4691 34.36 47.4691 25.4836C47.4691 12.7982 37.1856 2.51465 24.5002 2.51465Z" fill="#7357FF"/>
<path id="Vector_2" d="M39.2358 13.4019H37.0243C36.8367 13.6215 36.4251 14.1843 36.4229 14.9005C36.4213 15.442 36.654 15.9499 37.1146 16.4106C38.349 17.645 38.7042 18.6807 38.7754 18.9285C38.634 19.1406 38.1861 19.9015 38.4135 20.738C38.5306 21.1693 38.8077 21.5461 39.2387 21.865C40.845 21.8635 42.1467 20.561 42.1467 18.9544V16.3127C42.1466 14.705 40.8434 13.4019 39.2358 13.4019Z" fill="#F9A0B1"/>
<path id="Vector_3" d="M36.5943 13.4019C34.9868 13.4019 33.6836 14.7051 33.6836 16.3126V18.9543C33.6836 20.5618 34.9868 21.865 36.5943 21.865H39.236C39.3148 21.865 39.3926 21.861 39.4698 21.8549C37.6492 20.6616 38.9281 18.9557 38.9281 18.9557C38.9281 18.9557 38.6779 17.7748 37.2142 16.3112C35.7505 14.8475 37.2142 13.4019 37.2142 13.4019H36.5943V13.4019Z" fill="#FF7186"/>
<path id="Vector_4" d="M39.2374 18.6463V16.6204C39.2374 16.4496 39.0989 16.311 38.928 16.311H36.9021C36.7313 16.311 36.5928 16.4495 36.5928 16.6204V18.6463C36.5928 18.8171 36.7312 18.9556 36.9021 18.9556H38.928C39.0989 18.9556 39.2374 18.8171 39.2374 18.6463Z" fill="#FF4155"/>
<path id="Vector_5" d="M23.0802 16.7278C24.353 18.0008 25.1235 18.5564 25.1557 18.5795L25.2244 18.6286L25.6669 18.4093C25.6877 18.8134 25.8107 19.6405 26.4441 20.1046C26.9196 20.4528 27.5764 20.5183 28.401 20.3023C28.6121 19.8992 28.7321 19.4409 28.7321 18.9543V16.3126C28.7321 14.7051 27.4289 13.4019 25.8214 13.4019H23.1797C23.1235 13.4019 23.0678 13.4038 23.0124 13.407C22.7838 13.8008 21.8884 15.5361 23.0802 16.7278Z" fill="#3ECE9A"/>
<path id="Vector_6" d="M20.2686 16.3126V18.9543C20.2686 20.5618 21.5718 21.865 23.1793 21.865H25.821C27.0082 21.865 28.0288 21.1539 28.4816 20.1346C25.6511 20.9542 25.8051 18.1839 25.8051 18.1839L25.2372 18.4651C25.2372 18.4651 24.4586 17.9078 23.1793 16.6284C21.9 15.349 23.1793 13.4019 23.1793 13.4019C21.5718 13.4019 20.2686 14.705 20.2686 16.3126Z" fill="#2BBC85"/>
<path id="Vector_7" d="M27.5074 43.3143C29.5651 43.6956 32.5449 43.6789 35.2007 41.5079C35.593 40.4769 36.6306 39.2002 36.6306 36.5378C36.6307 35.8105 36.6307 30.673 36.6307 28.7832C36.6307 27.8784 35.8903 27.1381 34.9855 27.138H34.829C33.9241 27.138 33.1838 27.8784 33.1838 28.7832V27.6762C33.1838 26.797 32.5436 26.0247 31.6706 25.9199C30.6298 25.795 29.737 26.6137 29.737 27.6307V27.283C29.737 26.4038 29.0967 25.6316 28.2237 25.5267C27.1831 25.4017 26.2901 26.2204 26.2901 27.2375V21.7572C26.2901 20.8779 25.6499 20.1057 24.7768 20.0009C23.7361 19.8759 22.8432 20.6947 22.8432 21.7117V30.8587C22.8432 30.9695 22.7865 31.0665 22.7012 31.1234L22.7429 32.7162C22.7554 33.1935 22.4285 33.4766 22.1446 33.5741C21.8524 33.6746 21.4406 33.6476 21.1627 33.2708C20.8846 32.8939 20.6966 32.464 20.5978 31.9878C19.4706 33.4082 19.2599 35.3617 20.079 36.9966C20.886 38.557 19.8033 36.8412 23.6114 41.7596C23.6786 41.8443 23.7374 41.9345 23.7882 42.0286C24.3353 42.3197 25.7174 42.9827 27.5074 43.3143Z" fill="#FFC7AB"/>
<path id="Vector_8" d="M24.1631 19.9888H24.9664C25.4279 19.9888 25.8053 20.3663 25.8053 20.8275V22.3365C25.8053 22.7979 25.4279 23.1753 24.9664 23.1753H24.1631C23.7017 23.1753 23.3242 22.7979 23.3242 22.3365V20.8275C23.3242 20.3662 23.7017 19.9888 24.1631 19.9888Z" fill="#FCE4D9"/>
<path id="Vector_9" d="M22.8913 32.7124L22.8426 30.8589C22.8426 31.0391 22.6936 31.1834 22.5135 31.1768C22.0488 31.1598 21.3332 31.1436 20.7555 31.7976C20.6568 31.9094 20.565 32.0252 20.4785 32.1441C20.5974 32.6318 20.8011 33.0324 21.0422 33.3593C21.6361 34.1643 22.9175 33.7125 22.8913 32.7124Z" fill="#FFAA7B"/>
<path id="Vector_10" d="M23.6113 41.7597C23.8683 42.0833 24.0081 42.4842 24.0081 42.8973L24.0349 48.4468C24.1898 48.45 24.3448 48.4528 24.5005 48.4528C28.3094 48.4528 31.9012 47.5247 35.0637 45.8838L35.0528 42.2034C35.0528 41.8823 35.1651 41.5628 35.3292 41.2056C30.1669 45.6999 23.6113 41.7597 23.6113 41.7597Z" fill="#FFAA7B"/>
<g id="Group_2">
<path id="Vector_11" d="M24.3836 19.572C24.1702 19.572 23.9654 19.4872 23.8146 19.3363L22.4671 17.9888C22.1529 17.6745 22.1529 17.1651 22.4671 16.8508C22.7814 16.5366 23.2908 16.5366 23.6051 16.8508L24.3836 17.6293L25.5226 16.4901C25.837 16.1758 26.3464 16.1759 26.6607 16.49C26.9749 16.8043 26.9749 17.3137 26.6607 17.628L24.9525 19.3362C24.8016 19.4872 24.5969 19.572 24.3836 19.572Z" fill="#DEEEFF"/>
</g>
<path id="Vector_12" d="M47.4692 25.4836C47.4692 24.9154 47.4477 24.3522 47.4071 23.7944C44.4469 23.8811 40.1592 24.8823 40.1592 29.9572V37.7072C40.1592 37.7072 40.2323 39.4092 41.5914 40.8265C45.2453 36.7592 47.4692 31.3815 47.4692 25.4836Z" fill="#3C58A0"/>
<path id="Vector_13" d="M1.53418 25.7242C1.64499 36.5008 9.17621 45.4971 19.2625 47.8497C20.2587 44.9421 19.9951 41.7463 18.0914 40.4265C13.8752 37.5035 14.663 34.9697 14.0873 28.3385C13.6531 23.339 5.51387 24.7347 1.53418 25.7242Z" fill="#3C58A0"/>
<g id="Group_3">
<path id="Vector_14" d="M25.8208 0.452637H23.6092C23.4216 0.672293 23.0101 1.23507 23.0078 1.95132C23.0061 2.49264 23.2389 3.00067 23.6996 3.46136C24.934 4.69576 25.2891 5.73151 25.3604 5.97929C25.2189 6.19136 24.7711 6.95223 24.9984 7.78876C25.1156 8.22011 25.3926 8.59689 25.8237 8.91583C27.4299 8.91423 28.7316 7.61176 28.7316 6.00517V3.36339C28.7315 1.75586 27.4283 0.452637 25.8208 0.452637Z" fill="#F9A0B1"/>
<path id="Vector_15" d="M23.1793 0.452637C21.5718 0.452637 20.2686 1.75586 20.2686 3.36339V6.00507C20.2686 7.61261 21.5718 8.91583 23.1793 8.91583H25.821C25.8997 8.91583 25.9776 8.91179 26.0547 8.9057C24.2342 7.71236 25.513 6.00648 25.513 6.00648C25.513 6.00648 25.2629 4.82561 23.7992 3.36198C22.3355 1.89826 23.7992 0.45273 23.7992 0.45273H23.1793V0.452637Z" fill="#FF7186"/>
<path id="Vector_16" d="M25.8223 5.69704V3.67119C25.8223 3.50038 25.6839 3.36182 25.513 3.36182H23.4871C23.3163 3.36182 23.1777 3.50029 23.1777 3.67119V5.69704C23.1777 5.86785 23.3162 6.00641 23.4871 6.00641H25.513C25.6839 6.00641 25.8223 5.86794 25.8223 5.69704Z" fill="#FF4155"/>
</g>
<g id="Group_4">
<path id="Vector_17" d="M12.4067 13.4019H10.1952C10.0076 13.6215 9.59601 14.1843 9.59376 14.9005C9.59207 15.4419 9.82485 15.9499 10.2855 16.4105C11.5199 17.6449 11.8751 18.6806 11.9463 18.9284C11.8049 19.1405 11.357 19.9014 11.5844 20.7379C11.7015 21.1692 11.9786 21.546 12.4096 21.865C14.0159 21.8634 15.3176 20.5609 15.3176 18.9543V16.3126C15.3175 14.7051 14.0144 13.4019 12.4067 13.4019Z" fill="#F9A0B1"/>
<path id="Vector_18" d="M9.76524 13.4019C8.15771 13.4019 6.85449 14.7051 6.85449 16.3126V18.9543C6.85449 20.5618 8.15771 21.865 9.76524 21.865H12.4069C12.4857 21.865 12.5635 21.861 12.6406 21.8549C10.8201 20.6616 12.099 18.9557 12.099 18.9557C12.099 18.9557 11.8488 17.7748 10.3851 16.3111C8.9214 14.8474 10.3851 13.4019 10.3851 13.4019H9.76524Z" fill="#FF7186"/>
<path id="Vector_19" d="M12.4083 18.6463V16.6204C12.4083 16.4496 12.2698 16.311 12.0989 16.311H10.073C9.90223 16.311 9.76367 16.4495 9.76367 16.6204V18.6463C9.76367 18.8171 9.90214 18.9556 10.073 18.9556H12.0989C12.2698 18.9555 12.4083 18.8171 12.4083 18.6463Z" fill="#FF4155"/>
</g>
<g id="Group_5">
<path id="Vector_20" d="M39.2358 0.452637H37.0243C36.8367 0.672293 36.4251 1.23507 36.4229 1.95132C36.4212 2.49264 36.654 3.00067 37.1146 3.46136C38.349 4.69576 38.7042 5.73151 38.7754 5.97929C38.634 6.19136 38.1861 6.95223 38.4135 7.78876C38.5306 8.22011 38.8077 8.59689 39.2387 8.91583C40.845 8.91423 42.1467 7.61176 42.1467 6.00517V3.36339C42.1466 1.75586 40.8434 0.452637 39.2358 0.452637Z" fill="#FFDD40"/>
<path id="Vector_21" d="M36.5943 0.452637C34.9868 0.452637 33.6836 1.75586 33.6836 3.36339V6.00507C33.6836 7.61261 34.9868 8.91583 36.5943 8.91583H39.236C39.3148 8.91583 39.3926 8.91179 39.4698 8.9057C37.6492 7.71236 38.9281 6.00648 38.9281 6.00648C38.9281 6.00648 38.6779 4.82561 37.2142 3.36198C35.7505 1.89826 37.2142 0.45273 37.2142 0.45273H36.5943V0.452637Z" fill="#FFB332"/>
<path id="Vector_22" d="M39.2374 5.69704V3.67119C39.2374 3.50038 39.0989 3.36182 38.928 3.36182H36.9021C36.7313 3.36182 36.5928 3.50029 36.5928 3.67119V5.69704C36.5928 5.86785 36.7312 6.00641 36.9021 6.00641H38.928C39.0989 6.00641 39.2374 5.86794 39.2374 5.69704Z" fill="#FF8F33"/>
</g>
<g id="Group_6">
<path id="Vector_23" d="M12.4067 0.452637H10.1952C10.0076 0.672293 9.59601 1.23507 9.59376 1.95132C9.59207 2.49264 9.82485 3.00067 10.2855 3.46136C11.5199 4.69576 11.8751 5.73151 11.9463 5.97929C11.8049 6.19136 11.357 6.95223 11.5844 7.78876C11.7015 8.22011 11.9786 8.59689 12.4096 8.91583C14.0159 8.91423 15.3176 7.61176 15.3176 6.00517V3.36339C15.3175 1.75586 14.0144 0.452637 12.4067 0.452637Z" fill="#FFDD40"/>
<path id="Vector_24" d="M9.76524 0.452637C8.15771 0.452637 6.85449 1.75586 6.85449 3.36339V6.00507C6.85449 7.61261 8.15771 8.91583 9.76524 8.91583H12.4069C12.4857 8.91583 12.5635 8.91179 12.6406 8.9057C10.8201 7.71236 12.099 6.00648 12.099 6.00648C12.099 6.00648 11.8488 4.82561 10.3851 3.36198C8.9214 1.89826 10.3851 0.45273 10.3851 0.45273H9.76524V0.452637Z" fill="#FFB332"/>
<path id="Vector_25" d="M12.4083 5.69704V3.67119C12.4083 3.50038 12.2698 3.36182 12.0989 3.36182H10.073C9.90223 3.36182 9.76367 3.50029 9.76367 3.67119V5.69704C9.76367 5.86785 9.90214 6.00641 10.073 6.00641H12.0989C12.2698 6.00641 12.4083 5.86794 12.4083 5.69704Z" fill="#FF8F33"/>
</g>
</g>
</g>
<defs>
<clipPath id="clip0_7582_1904">
<rect width="48" height="48" fill="white" transform="translate(0.5 0.452637)"/>
</clipPath>
</defs>
</svg>
