<svg width="24" height="24" viewBox="0 0 24 24" fill="none" xmlns="http://www.w3.org/2000/svg">
<path d="M17.5951 19.9949L17.5962 20.0006L17.5808 19.9999L17.5558 20L12.4636 17.3341L11.9998 17.0913L11.536 17.3341L6.43595 20.0041L6.43435 20.0049L7.43435 14.3749L7.52718 13.8523L7.14634 13.4825L3.05154 9.50701L8.73386 8.67958L9.25608 8.60354L9.48801 8.12951L11.998 2.99951L11.998 2.99952L11.9997 2.99596L12.0039 3.00443L14.5439 8.12443L14.7769 8.59405L15.2957 8.66958L20.978 9.49701L16.8832 13.4725L16.5023 13.8423L16.5952 14.3649L17.5952 19.9949L17.5951 19.9949Z" stroke="#FFCB46" stroke-width="2"/>
</svg>
