<svg width="24" height="24" viewBox="0 0 24 24" fill="none" xmlns="http://www.w3.org/2000/svg">
<path d="M11.8375 19C11.6881 19.0005 11.5405 18.9675 11.4055 18.9035C11.2705 18.8394 11.1516 18.746 11.0575 18.63L6.22749 12.63C6.08041 12.451 6 12.2266 6 11.995C6 11.7633 6.08041 11.5389 6.22749 11.36L11.2275 5.35997C11.3972 5.15575 11.6411 5.02733 11.9056 5.00295C12.17 4.97857 12.4333 5.06023 12.6375 5.22997C12.8417 5.39971 12.9701 5.64362 12.9945 5.90805C13.0189 6.17247 12.9372 6.43575 12.7675 6.63997L8.29749 12L12.6175 17.36C12.7398 17.5068 12.8174 17.6855 12.8413 17.875C12.8652 18.0646 12.8343 18.257 12.7522 18.4295C12.6702 18.6021 12.5404 18.7475 12.3783 18.8486C12.2162 18.9497 12.0285 19.0022 11.8375 19Z" fill="#46485C"/>
<path d="M16.8448 19C16.6954 19.0005 16.5478 18.9675 16.4128 18.9035C16.2778 18.8394 16.1589 18.746 16.0648 18.63L11.2348 12.63C11.0877 12.451 11.0073 12.2266 11.0073 11.995C11.0073 11.7633 11.0877 11.5389 11.2348 11.36L16.2348 5.35997C16.4046 5.15575 16.6485 5.02733 16.9129 5.00295C17.1773 4.97857 17.4406 5.06023 17.6448 5.22997C17.849 5.39971 17.9775 5.64362 18.0018 5.90805C18.0262 6.17247 17.9446 6.43575 17.7748 6.63997L13.3048 12L17.6248 17.36C17.7471 17.5068 17.8248 17.6855 17.8487 17.875C17.8725 18.0646 17.8416 18.257 17.7596 18.4295C17.6775 18.6021 17.5477 18.7475 17.3856 18.8486C17.2235 18.9497 17.0358 19.0022 16.8448 19Z" fill="#46485C"/>
</svg>
