<svg width="24" height="24" viewBox="0 0 24 24" fill="none" xmlns="http://www.w3.org/2000/svg">
<path d="M7.00176 19C6.76811 19.0005 6.54167 18.9191 6.36176 18.77C6.2605 18.6861 6.1768 18.583 6.11545 18.4666C6.0541 18.3503 6.0163 18.223 6.00422 18.092C5.99215 17.961 6.00603 17.8289 6.04507 17.7033C6.08412 17.5777 6.14756 17.4611 6.23176 17.36L10.7118 12L6.39176 6.63C6.30869 6.52771 6.24666 6.41002 6.20923 6.28368C6.1718 6.15734 6.15971 6.02485 6.17364 5.89382C6.18758 5.76279 6.22728 5.63581 6.29045 5.52017C6.35363 5.40454 6.43903 5.30252 6.54176 5.22C6.64523 5.12897 6.76639 5.0603 6.89765 5.01831C7.02892 4.97632 7.16744 4.96192 7.30453 4.976C7.44163 4.99009 7.57433 5.03236 7.69431 5.10016C7.81429 5.16796 7.91897 5.25983 8.00176 5.37L12.8318 11.37C12.9788 11.5489 13.0592 11.7734 13.0592 12.005C13.0592 12.2366 12.9788 12.4611 12.8318 12.64L7.83176 18.64C7.73144 18.761 7.60401 18.8567 7.4598 18.9192C7.31559 18.9818 7.15867 19.0095 7.00176 19Z" fill="#46485C"/>
<path d="M12.0037 19C11.7701 19.0005 11.5436 18.9191 11.3637 18.77C11.2625 18.6861 11.1788 18.583 11.1174 18.4666C11.056 18.3503 11.0183 18.223 11.0062 18.092C10.9941 17.961 11.008 17.8289 11.047 17.7033C11.0861 17.5777 11.1495 17.4611 11.2337 17.36L15.7137 12L11.3937 6.63C11.3106 6.52771 11.2486 6.41002 11.2112 6.28368C11.1738 6.15734 11.1617 6.02485 11.1756 5.89382C11.1895 5.76279 11.2292 5.63581 11.2924 5.52017C11.3556 5.40454 11.441 5.30252 11.5437 5.22C11.6472 5.12897 11.7683 5.0603 11.8996 5.01831C12.0309 4.97632 12.1694 4.96192 12.3065 4.976C12.4436 4.99009 12.5763 5.03236 12.6963 5.10016C12.8162 5.16796 12.9209 5.25983 13.0037 5.37L17.8337 11.37C17.9808 11.5489 18.0612 11.7734 18.0612 12.005C18.0612 12.2366 17.9808 12.4611 17.8337 12.64L12.8337 18.64C12.7334 18.761 12.606 18.8567 12.4618 18.9192C12.3175 18.9818 12.1606 19.0095 12.0037 19Z" fill="#46485C"/>
</svg>
