<svg xmlns="http://www.w3.org/2000/svg" width="25" height="24" viewBox="0 0 25 24" fill="none">
    <path fill-rule="evenodd" clip-rule="evenodd" d="M7.90039 1.7998C7.90039 1.24752 8.34811 0.799805 8.90039 0.799805H16.1004C16.6527 0.799805 17.1004 1.24752 17.1004 1.7998C17.1004 2.35209 16.6527 2.7998 16.1004 2.7998H8.90039C8.34811 2.7998 7.90039 2.35209 7.90039 1.7998ZM1.90039 5.39981C1.90039 4.84752 2.34811 4.3998 2.90039 4.3998H22.1004C22.6527 4.3998 23.1004 4.84752 23.1004 5.39981C23.1004 5.95209 22.6527 6.39981 22.1004 6.39981H20.6405C20.6491 6.49543 20.6516 6.59276 20.6474 6.69139L20.1003 19.8224C20.0882 21.6898 18.5706 23.1998 16.7004 23.1998H8.30039C6.43016 23.1998 4.91261 21.6898 4.90046 19.8224L4.35334 6.69139C4.34923 6.59276 4.35167 6.49543 4.36026 6.39981H2.90039C2.34811 6.39981 1.90039 5.95209 1.90039 5.39981ZM6.55143 6.39981C6.43771 6.39981 6.34687 6.49451 6.3516 6.60813L6.90039 19.779V19.7998C6.90039 20.573 7.52719 21.1998 8.30039 21.1998H16.7004C17.4736 21.1998 18.1004 20.573 18.1004 19.7998V19.779L18.6492 6.60813C18.6539 6.4945 18.5631 6.39981 18.4493 6.39981H6.55143Z" fill="#4F4B5C"/>
</svg>