<svg width="24" height="24" viewBox="0 0 24 24" fill="none" xmlns="http://www.w3.org/2000/svg">
<g clip-path="url(#clip0_3099_23427)">
<path d="M2.34375 0H21.6562C22.9507 0 24 1.04934 24 2.34375V21.6562C24 22.9507 22.9507 24 21.6562 24H2.34375C1.04934 24 0 22.9507 0 21.6562V2.34375C0 1.04934 1.04934 0 2.34375 0Z" fill="#3178C6"/>
<path d="M2.34375 0H21.6562C22.9507 0 24 1.04934 24 2.34375V21.6562C24 22.9507 22.9507 24 21.6562 24H2.34375C1.04934 24 0 22.9507 0 21.6562V2.34375C0 1.04934 1.04934 0 2.34375 0Z" fill="#3178C6"/>
<path fill-rule="evenodd" clip-rule="evenodd" d="M14.8565 19.098V21.4446C15.238 21.6402 15.6892 21.7868 16.21 21.8846C16.7309 21.9824 17.2799 22.0312 17.857 22.0312C18.8516 22.0312 19.9405 21.889 20.7915 21.3383C21.6382 20.7902 22.0312 19.8786 22.0312 18.8927C22.0312 18.1597 21.8039 17.4544 21.2903 16.9201C20.5202 16.119 19.438 15.7941 18.4658 15.3178C17.9789 15.0792 17.3068 14.7088 17.3068 14.0821C17.3068 13.9208 17.3483 13.7754 17.4315 13.6459C17.7658 13.125 18.5084 13.0189 19.0748 13.0189C19.7178 13.0189 20.3962 13.1628 20.9932 13.4295C21.201 13.5224 21.393 13.6299 21.5691 13.7522V11.5596C21.2121 11.4227 20.822 11.3212 20.399 11.2552C19.9759 11.1892 19.4905 11.1562 18.9427 11.1562C18.3852 11.1562 17.857 11.2162 17.3581 11.3359C16.8593 11.4557 16.4204 11.6427 16.0413 11.8969C15.6622 12.1511 15.3627 12.475 15.1426 12.8685C14.9226 13.2621 14.8125 13.7326 14.8125 14.2801C14.8125 14.9792 15.0142 15.5757 15.4177 16.0695C15.8212 16.5632 16.4338 16.9812 17.2554 17.3234C17.8082 17.5494 18.3829 17.7725 18.8804 18.108C19.2251 18.3405 19.5369 18.6648 19.5369 19.1053C19.5369 19.425 19.3562 19.6961 19.0931 19.8643C18.7039 20.1131 18.2055 20.1686 17.7542 20.1686C17.2456 20.1686 16.7419 20.0794 16.243 19.901C15.7442 19.7226 15.282 19.4549 14.8565 19.098ZM10.9116 13.3163H13.9219V11.3906H5.53125V13.3163H8.52684V21.8906H10.9116V13.3163Z" fill="white"/>
</g>
<defs>
<clipPath id="clip0_3099_23427">
<rect width="24" height="24" fill="white"/>
</clipPath>
</defs>
</svg>
