<svg width="19" height="18" viewBox="0 0 19 18" fill="none" xmlns="http://www.w3.org/2000/svg">
<g id="Icon / unlock">
<path id="Vector" fill-rule="evenodd" clip-rule="evenodd" d="M9.42776 3C8.68911 3 8 3.66025 8 4.59009V6L13.1291 6C13.5244 5.99999 13.8654 5.99997 14.1462 6.02293C14.4426 6.04717 14.7373 6.10068 15.021 6.24523C15.4436 6.46054 15.7888 6.80418 16.0049 7.22835C16.1494 7.512 16.2029 7.80679 16.2271 8.10297C16.25 8.38361 16.25 8.72422 16.25 9.11879V13.3816C16.25 13.7761 16.25 14.1166 16.2271 14.3971C16.2029 14.6933 16.1494 14.9878 16.0049 15.2714C15.789 15.6952 15.444 16.0394 15.021 16.2549C14.7375 16.3994 14.4429 16.4529 14.1468 16.4771C13.8662 16.5 13.5258 16.5 13.1312 16.5L5.86882 16.5C5.47424 16.5 5.13362 16.5 4.85298 16.4771C4.5568 16.4529 4.262 16.3994 3.97836 16.2549C3.55457 16.039 3.21074 15.6943 2.99524 15.2714C2.85066 14.9877 2.79716 14.6928 2.77293 14.3963C2.74998 14.1154 2.74999 13.7744 2.75 13.3791V9.12126C2.74999 8.72588 2.74998 8.38474 2.77293 8.10374C2.79715 7.80721 2.85062 7.51218 2.99524 7.22836C3.21095 6.80499 3.55499 6.46095 3.97836 6.24524C4.26218 6.10062 4.55721 6.04715 4.85374 6.02293C5.13474 5.99997 5.47588 5.99999 5.87125 6L6.5 6V4.59009C6.5 2.93523 7.76093 1.5 9.42776 1.5C10.2777 1.5 11.033 1.88193 11.5591 2.47154C11.8349 2.78061 11.8079 3.25472 11.4988 3.53048C11.1897 3.80624 10.7156 3.77924 10.4398 3.47016C10.1731 3.17125 9.81376 3 9.42776 3ZM4.97585 7.51795C4.77196 7.5346 4.69638 7.56287 4.65934 7.58175C4.51822 7.65365 4.40365 7.76822 4.33175 7.90934C4.31287 7.94638 4.2846 8.02196 4.26795 8.22585C4.25058 8.43844 4.25 8.71774 4.25 9.15015V13.3501C4.25 13.7826 4.25058 14.0617 4.26795 14.2741C4.28459 14.4778 4.31284 14.5533 4.33175 14.5904C4.40387 14.732 4.51865 14.8467 4.65934 14.9184C4.69625 14.9372 4.77166 14.9654 4.97515 14.9821C5.18736 14.9994 5.46611 15 5.89771 15L13.1023 15C13.5339 15 13.8125 14.9994 14.0245 14.9821C14.2277 14.9655 14.3031 14.9373 14.3401 14.9184C14.4816 14.8463 14.5967 14.7312 14.6684 14.5904C14.6873 14.5534 14.7155 14.4781 14.7321 14.2749C14.7494 14.0629 14.75 13.7843 14.75 13.3527V9.14768C14.75 8.71609 14.7494 8.43735 14.7321 8.22514C14.7154 8.02165 14.6872 7.94625 14.6684 7.90934C14.5969 7.76903 14.482 7.65406 14.3401 7.58175C14.3029 7.56281 14.2274 7.53458 14.0239 7.51794C13.8116 7.50058 13.5326 7.5 13.1001 7.5H5.90015C5.46774 7.5 5.18844 7.50058 4.97585 7.51795Z" fill="#7357FF"/>
</g>
</svg>
