<svg width="24" height="24" viewBox="0 0 24 24" fill="none" xmlns="http://www.w3.org/2000/svg">
<g clip-path="url(#clip0_4555_1022)">
<path d="M6.35208 7.32897C6.04853 7.46201 5.76186 7.63421 5.49976 7.84244C4.92305 8.30062 4.48935 8.91412 4.24979 9.61063C3.98835 10.3264 3.9368 11.1019 4.1012 11.846C4.2656 12.59 4.63912 13.2717 5.17779 13.8106L6.93579 15.6306L0.292787 22.2696C0.152977 22.4095 0.0577711 22.5876 0.0192035 22.7816C-0.0193641 22.9756 0.000438906 23.1766 0.0761089 23.3593C0.151779 23.542 0.279919 23.6981 0.444328 23.808C0.608738 23.9179 0.802037 23.9766 0.999787 23.9766C1.26498 23.9766 1.51929 23.8712 1.70679 23.6836L8.32579 17.0646L9.57379 18.3566C10.5144 19.3506 11.8108 19.9311 13.1788 19.9706C13.6348 19.972 14.0877 19.8952 14.5178 19.7436C15.1823 19.5148 15.7662 19.098 16.1984 18.5438C16.4058 18.2779 16.5741 17.9858 16.6996 17.6765L15.0016 15.9785C14.9962 16.125 14.9859 16.2714 14.9708 16.4176C14.9469 16.7411 14.8285 17.0504 14.6302 17.3071C14.432 17.5639 14.1627 17.7567 13.8558 17.8616C13.3442 17.9961 12.805 17.983 12.3007 17.8237C11.7963 17.6644 11.3473 17.3655 11.0058 16.9616L6.60579 12.4116C6.33142 12.138 6.14124 11.7915 6.05776 11.4131C5.97429 11.0347 6.00102 10.6403 6.13479 10.2766C6.24747 9.93595 6.4565 9.63524 6.73657 9.4109C7.01663 9.18657 7.35572 9.04823 7.71279 9.01263C7.81215 9.00229 7.91171 8.99417 8.0114 8.98829L6.35208 7.32897Z" fill="#4F4B5C"/>
<path d="M15.3613 10.687C15.2376 10.5419 15.236 10.3285 15.3708 10.1936L16.9568 8.60663C17.4025 8.17078 18.0004 7.92547 18.6238 7.92263C18.9193 7.92315 19.2117 7.98288 19.4838 8.0983C19.7559 8.21372 20.002 8.38249 20.2078 8.59463C20.377 8.78184 20.6061 8.90423 20.8558 8.94073C21.1055 8.97724 21.3601 8.92557 21.5758 8.79463C21.6957 8.71093 21.7958 8.60194 21.8691 8.47535C21.9423 8.34875 21.9869 8.20763 21.9997 8.06193C22.0125 7.91623 21.9931 7.76951 21.943 7.63209C21.893 7.49468 21.8133 7.36993 21.7098 7.26663L16.7858 2.34263C16.6161 2.15979 16.3886 2.04104 16.1416 2.00643C15.8946 1.97182 15.6432 2.02346 15.4298 2.15263C15.3098 2.23633 15.2097 2.34532 15.1365 2.47192C15.0632 2.59851 15.0187 2.73963 15.0059 2.88533C14.9931 3.03103 15.0124 3.17776 15.0625 3.31517C15.1126 3.45258 15.1922 3.57733 15.2958 3.68063L15.3718 3.75663C15.8035 4.18964 16.046 4.77617 16.046 5.38763C16.046 5.9991 15.8035 6.58562 15.3718 7.01863L13.7718 8.61863C13.6473 8.74256 13.4477 8.73075 13.3235 8.60654L12.3269 7.60988C12.2177 7.50068 12.2485 7.31472 12.3578 7.20563L13.9578 5.60563C14.0151 5.54794 14.0472 5.46993 14.0472 5.38863C14.0472 5.30733 14.0151 5.22933 13.9578 5.17163L13.8818 5.09563C13.5734 4.78737 13.3359 4.41558 13.1859 4.00616C13.0358 3.59674 12.9768 3.15954 13.013 2.725C13.0492 2.29045 13.1796 1.86902 13.3953 1.49004C13.611 1.11107 13.9067 0.783665 14.2618 0.530632C14.8609 0.124911 15.5835 -0.0573209 16.3034 0.0157977C17.0232 0.0889164 17.6945 0.412733 18.1998 0.930632L23.1208 5.85363C23.4292 6.16183 23.6668 6.53356 23.8169 6.94294C23.967 7.35231 24.0261 7.78949 23.99 8.22403C23.954 8.65857 23.8236 9.08003 23.608 9.45904C23.3924 9.83806 23.0968 10.1655 22.7418 10.4186C22.1367 10.8308 21.4045 11.0138 20.6767 10.9346C19.9488 10.8554 19.2731 10.5193 18.7708 9.98663C18.7518 9.96132 18.7261 9.94182 18.6965 9.93034C18.667 9.91886 18.6349 9.91584 18.6038 9.92163C18.5151 9.9229 18.4304 9.95879 18.3678 10.0216L16.7808 11.6096C16.6745 11.7582 16.4707 11.7976 16.3302 11.6808C15.9761 11.3863 15.5913 10.9566 15.3613 10.687Z" fill="#4F4B5C"/>
<path fill-rule="evenodd" clip-rule="evenodd" d="M2.4406 2.02705C2.83112 1.63653 3.42785 1.60009 3.77342 1.94566L21.9896 20.1619C22.3352 20.5074 22.2987 21.1041 21.9082 21.4947C21.5177 21.8852 20.921 21.9216 20.5754 21.5761L2.3592 3.35987C2.01363 3.0143 2.05007 2.41758 2.4406 2.02705Z" fill="#4F4B5C"/>
</g>
<defs>
<clipPath id="clip0_4555_1022">
<rect width="24" height="24" fill="white"/>
</clipPath>
</defs>
</svg>
