<svg width="19" height="18" viewBox="0 0 19 18" fill="none" xmlns="http://www.w3.org/2000/svg">
<g id="Icon / upload-01">
<path id="Vector" fill-rule="evenodd" clip-rule="evenodd" d="M8.9123 2.77496C6.72965 2.77496 4.96026 4.54435 4.96026 6.727C4.96026 6.89495 4.97069 7.06012 4.99087 7.22195C5.01749 7.43538 4.95119 7.64997 4.80882 7.81119C4.73214 7.89803 4.63737 7.96489 4.53263 8.00809C4.40791 8.06746 4.26789 8.09184 4.12785 8.07636C4.05866 8.06871 3.98812 8.06476 3.91638 8.06476C2.86986 8.06476 2.02148 8.91313 2.02148 9.95966C2.02148 10.9352 2.79509 11.6666 3.91638 11.6666C4.3306 11.6666 4.66638 12.0024 4.66638 12.4166C4.66638 12.8308 4.3306 13.1666 3.91638 13.1666C2.11621 13.1666 0.521484 11.9056 0.521484 9.95966C0.521484 8.23884 1.80181 6.81706 3.46183 6.59493C3.53196 3.64487 5.94537 1.27496 8.9123 1.27496C10.7743 1.27496 12.4174 2.20864 13.4002 3.63062C13.4713 3.62754 13.5426 3.62598 13.6143 3.62598C16.3008 3.62598 18.4786 5.8038 18.4786 8.49027C18.4786 10.7348 16.9683 12.4303 14.9704 12.9798C14.571 13.0897 14.1582 12.855 14.0483 12.4556C13.9385 12.0562 14.1732 11.6434 14.5726 11.5335C15.9925 11.143 16.9786 9.9867 16.9786 8.49027C16.9786 6.63223 15.4724 5.12598 13.6143 5.12598C13.4458 5.12598 13.2807 5.13831 13.1196 5.16201C12.8127 5.20715 12.5096 5.05869 12.3572 4.78851C11.6782 3.58492 10.3894 2.77496 8.9123 2.77496ZM9.37002 8.47496C9.57291 8.47492 9.76716 8.55707 9.90845 8.70267L12.6097 11.4865C12.8982 11.7837 12.891 12.2585 12.5938 12.547C12.2965 12.8354 11.8217 12.8283 11.5332 12.531L10.1202 11.0748V15.975C10.1202 16.3892 9.78441 16.725 9.3702 16.725C8.95599 16.725 8.6202 16.3892 8.6202 15.975V11.0761L7.20998 12.5308C6.92166 12.8282 6.44685 12.8356 6.14945 12.5472C5.85204 12.2589 5.84468 11.7841 6.13299 11.4867L8.83171 8.70292C8.97293 8.55725 9.16714 8.47501 9.37002 8.47496Z" fill="#4F4B5C"/>
</g>
</svg>
