<svg width="24" height="24" viewBox="0 0 24 24" fill="none" xmlns="http://www.w3.org/2000/svg">
<path fill-rule="evenodd" clip-rule="evenodd" d="M10.8004 3.40002C9.36445 3.40002 8.20039 4.56408 8.20039 6.00002C8.20039 7.43596 9.36445 8.60002 10.8004 8.60002C12.2363 8.60002 13.4004 7.43596 13.4004 6.00002C13.4004 4.56408 12.2363 3.40002 10.8004 3.40002ZM6.20039 6.00002C6.20039 3.45951 8.25988 1.40002 10.8004 1.40002C13.3409 1.40002 15.4004 3.45951 15.4004 6.00002C15.4004 8.54053 13.3409 10.6 10.8004 10.6C8.25988 10.6 6.20039 8.54053 6.20039 6.00002ZM22.3076 12.8744C22.6981 13.265 22.6981 13.8981 22.3076 14.2887L21.1054 15.4908L22.3075 16.6929C22.698 17.0834 22.698 17.7166 22.3075 18.1071C21.917 18.4977 21.2838 18.4977 20.8933 18.1071L19.6912 16.905L18.4892 18.107C18.0987 18.4976 17.4655 18.4976 17.075 18.107C16.6845 17.7165 16.6845 17.0833 17.075 16.6928L18.277 15.4908L17.0749 14.2888C16.6844 13.8982 16.6844 13.2651 17.0749 12.8745C17.4654 12.484 18.0986 12.484 18.4891 12.8745L19.6912 14.0766L20.8934 12.8744C21.2839 12.4839 21.9171 12.4839 22.3076 12.8744ZM1.4008 17.9995C1.40108 15.4592 3.46049 13.4 6.0008 13.4H13.2004C13.7527 13.4 14.2004 13.8477 14.2004 14.4C14.2004 14.9523 13.7527 15.4 13.2004 15.4H6.0008C4.56497 15.4 3.40096 16.5639 3.4008 17.9997L3.40039 21.6001C3.40033 22.1524 2.95256 22.6001 2.40028 22.6C1.84799 22.6 1.40033 22.1522 1.40039 21.5999L1.4008 17.9995Z" fill="#46485C"/>
</svg>
