<svg width="24" height="24" viewBox="0 0 24 24" fill="none" xmlns="http://www.w3.org/2000/svg">
<path fill-rule="evenodd" clip-rule="evenodd" d="M11.7624 5C10.3265 5 9.16243 6.16406 9.16243 7.6C9.16243 9.03594 10.3265 10.2 11.7624 10.2C13.1984 10.2 14.3624 9.03594 14.3624 7.6C14.3624 6.16406 13.1984 5 11.7624 5ZM7.16243 7.6C7.16243 5.05949 9.22192 3 11.7624 3C14.3029 3 16.3624 5.05949 16.3624 7.6C16.3624 10.1405 14.3029 12.2 11.7624 12.2C9.22192 12.2 7.16243 10.1405 7.16243 7.6ZM2.14248 18.4858C3.71604 15.8612 7.03386 14.2762 11.7624 14.2762C16.491 14.2762 19.8088 15.8612 21.3824 18.4858C21.6664 18.9595 21.5126 19.5737 21.0389 19.8577C20.5652 20.1417 19.951 19.9879 19.667 19.5142C18.5898 17.7173 16.0979 16.2762 11.7624 16.2762C7.42701 16.2762 4.93509 17.7173 3.85782 19.5142C3.57384 19.9879 2.95963 20.1417 2.48595 19.8577C2.01227 19.5737 1.8585 18.9595 2.14248 18.4858Z" fill="#46485C"/>
</svg>
