<svg width="24" height="24" viewBox="0 0 24 24" fill="none" xmlns="http://www.w3.org/2000/svg">
<path fill-rule="evenodd" clip-rule="evenodd" d="M13.4551 8.18916L11.6754 9.99523L11.5867 10.0839L9.70005 12.0001L9.6124 12.09H9.61145L8.77734 12.9353V12.9365L8.6898 13.0252C8.4398 13.2791 8.16341 13.4871 7.8697 13.6519C7.72102 13.7349 7.56904 13.8061 7.41353 13.8668C7.0668 14.0025 6.70288 14.082 6.3366 14.1055C6.11204 14.1208 5.88396 14.1148 5.66046 14.0868C5.17672 14.0281 4.70205 13.8716 4.26897 13.6169C4.08353 13.5083 3.8935 13.3948 3.73551 13.2358C3.73445 13.2358 3.73445 13.2358 3.73327 13.2346L0.320217 9.77118C0.263784 9.70781 0.213125 9.6393 0.170594 9.56554C0.0622055 9.3795 0 9.16394 0 8.93295C0 8.8966 0.00129595 8.86037 0.00459473 8.82522C0.00918945 8.77166 0.0173186 8.71977 0.0276862 8.66968L0.0483035 8.5867C0.0943686 8.43235 0.169298 8.28649 0.273092 8.15521C0.30066 8.12185 0.329406 8.08897 0.360509 8.05609L0.41812 7.99847L3.87029 4.49393H3.87158L5.96336 2.3715C6.4299 1.89792 7.17295 1.87664 7.66235 2.31041L13.4551 8.18916Z" fill="#005AAA"/>
<path fill-rule="evenodd" clip-rule="evenodd" d="M3.70076 13.2025C3.71159 13.2134 3.72243 13.2242 3.73315 13.2347C3.89091 13.3935 4.08224 13.5081 4.26873 13.6169C4.70182 13.8717 5.17649 14.0283 5.66023 14.0869C5.8836 14.1149 6.11169 14.1208 6.33636 14.1055C6.70264 14.0822 7.06669 14.0025 7.41329 13.8671C7.56881 13.8063 7.7209 13.7349 7.86935 13.6521C8.16317 13.4871 8.43945 13.2791 8.68956 13.0255L8.7771 12.9366V12.9356L9.6111 12.0904H9.61216L10.0338 11.6612L11.0211 10.6596L11.5866 10.0841L11.6753 9.99535L15.2611 6.35667L16.7401 4.7303L16.8289 4.64158C17.2804 4.18355 18.0131 4.18355 18.4644 4.64158L19.2743 5.46308H19.2755L19.3018 5.4901C18.9437 5.47276 18.582 5.60356 18.3113 5.87269L15.5709 8.6081L15.5432 8.64206L10.7745 13.4041L10.7676 13.3983L9.0112 15.1495L8.89374 15.2756C8.75542 15.4124 8.46631 15.671 8.07917 15.8567C7.9041 15.9408 7.72562 16.0016 7.54948 16.0391C7.44463 16.06 7.33742 16.0741 7.23268 16.0788H7.15304C6.87441 16.0788 6.60026 16.0157 6.33766 15.8941L5.51167 15.0585L5.17531 14.7158L3.62948 13.1295L3.70076 13.2025ZM23.6609 11.5757L15.6104 19.8696C15.4802 20.0017 15.3443 20.1208 15.2004 20.2284C15.1957 20.2331 15.1899 20.2377 15.1841 20.2423C15.1646 20.2565 15.145 20.2716 15.1243 20.2856C15.1219 20.288 15.1197 20.289 15.1175 20.2915C14.5022 20.7382 13.7478 21 12.9345 21C11.93 21 11.0177 20.6002 10.3428 19.9491L10.2495 19.8649L6.82717 16.3909C6.93426 16.4083 7.04253 16.4164 7.1508 16.4164L7.24187 16.4154C7.36746 16.4106 7.49305 16.3955 7.61617 16.3698C7.81775 16.3276 8.02156 16.2574 8.22196 16.1618C8.65281 15.9547 8.9742 15.6685 9.12736 15.5164C9.18733 15.4566 9.23221 15.4065 9.25071 15.3843L10.7666 13.8729L10.7724 13.8799L15.9846 8.67589L16.0123 8.64194L18.5442 6.11337C18.8851 5.77513 19.4174 5.73077 19.8043 6.00098L20.4045 6.6099C20.4058 6.6099 20.4058 6.61109 20.4058 6.61109L23.6609 9.91453C23.6897 9.94394 23.7174 9.97443 23.7427 10.0055C24.1113 10.4677 24.0837 11.1482 23.6609 11.5757Z" fill="#ED1C24"/>
<path d="M12.9184 8.73424L12.5842 9.07295L11.998 8.47432C11.9058 8.37986 11.9069 8.22778 11.9991 8.1356C12.0925 8.04223 12.2411 8.04223 12.3332 8.1368L12.9184 8.73424ZM11.93 9.73722L11.5959 10.0749L9.75295 8.19036C9.06869 7.49153 8.06998 7.24608 7.14503 7.54976C7.0218 7.59065 6.88832 7.52214 6.84779 7.39708C6.8075 7.27035 6.87547 7.135 6.99977 7.094C8.09402 6.73388 9.27828 7.02489 10.0881 7.85272L11.93 9.73722ZM9.95453 11.7419L9.62041 12.081L7.76932 10.1883C7.67708 10.0949 7.67849 9.94287 7.77038 9.84901C7.86381 9.75564 8.01343 9.75683 8.1045 9.85069L9.95453 11.7419ZM10.9417 10.7402L10.6076 11.0789L8.76108 9.18988C8.31079 8.72838 7.5734 8.72551 7.11958 9.18295C6.66577 9.64098 6.66235 10.3882 7.11381 10.8485L8.30361 12.0668C8.39586 12.1603 8.39586 12.3122 8.30255 12.4059C8.2103 12.4993 8.06056 12.4981 7.96843 12.4046L6.77769 11.1866C6.14409 10.5379 6.1475 9.48651 6.78688 8.84244C7.42613 8.19897 8.46289 8.20351 9.09637 8.85224L10.9417 10.7402ZM7.87995 13.6461C7.87665 13.6485 7.87312 13.6495 7.86958 13.652C7.72444 13.7326 7.57693 13.8029 7.42496 13.8625L5.78688 12.1863C4.76178 11.1379 4.61546 9.49535 5.43791 8.27919C5.51155 8.17087 5.65893 8.14266 5.76614 8.2175C5.87441 8.29234 5.90092 8.44215 5.82717 8.55167C5.13266 9.57713 5.25707 10.9633 6.12217 11.8483L7.87995 13.6461ZM11.08 7.19598C10.9879 7.28816 10.837 7.28589 10.7448 7.19251C9.20806 5.6215 6.69934 5.61169 5.15127 7.17003C3.60427 8.72957 3.5939 11.2755 5.13054 12.8464L6.33306 14.0774C6.34119 14.0855 6.3492 14.0948 6.3538 14.1044C6.34802 14.1044 6.34237 14.1055 6.3366 14.1055C6.1177 14.1208 5.89644 14.1147 5.67873 14.089L4.79524 13.1843C3.07552 11.4262 3.08589 8.5751 4.81833 6.82953C6.55196 5.08443 9.36028 5.09603 11.08 6.85428L11.0833 6.85774C11.1757 6.95112 11.1732 7.10201 11.08 7.19598Z" fill="#009EDB"/>
</svg>
